<svg viewBox="0 0 330 200" xmlns="http://www.w3.org/2000/svg"><g><g><g><g><g><line x1="34" y1="178" x2="29" y2="178" style="visibility: inherit;" fill="rgb(0, 0, 0)" stroke="rgb(204, 204, 204)" stroke-width="1px"></line><line x1="34" y1="158.22222222222223" x2="29" y2="158.22222222222223" style="visibility: inherit;" fill="rgb(0, 0, 0)" stroke="rgb(204, 204, 204)" stroke-width="1px"></line><line x1="34" y1="138.44444444444446" x2="29" y2="138.44444444444446" style="visibility: inherit;" fill="rgb(0, 0, 0)" stroke="rgb(204, 204, 204)" stroke-width="1px"></line><line x1="34" y1="118.66666666666667" x2="29" y2="118.66666666666667" style="visibility: inherit;" fill="rgb(0, 0, 0)" stroke="rgb(204, 204, 204)" stroke-width="1px"></line><line x1="34" y1="98.8888888888889" x2="29" y2="98.8888888888889" style="visibility: inherit;" fill="rgb(0, 0, 0)" stroke="rgb(204, 204, 204)" stroke-width="1px"></line><line x1="34" y1="79.1111111111111" x2="29" y2="79.1111111111111" style="visibility: inherit;" fill="rgb(0, 0, 0)" stroke="rgb(204, 204, 204)" stroke-width="1px"></line><line x1="34" y1="59.33333333333334" x2="29" y2="59.33333333333334" style="visibility: inherit;" fill="rgb(0, 0, 0)" stroke="rgb(204, 204, 204)" stroke-width="1px"></line><line x1="34" y1="39.55555555555554" x2="29" y2="39.55555555555554" style="visibility: inherit;" fill="rgb(0, 0, 0)" stroke="rgb(204, 204, 204)" stroke-width="1px"></line><line x1="34" y1="19.7777777777778" x2="29" y2="19.7777777777778" style="visibility: inherit;" fill="rgb(0, 0, 0)" stroke="rgb(204, 204, 204)" stroke-width="1px"></line><line x1="34" y1="0" x2="29" y2="0" style="visibility: inherit;" fill="rgb(0, 0, 0)" stroke="rgb(204, 204, 204)" stroke-width="1px"></line></g><g transform="translate(24, 0)"><text x="0" y="178" dx="0em" dy="0.3em" style="text-anchor: end; visibility: hidden; font-family: &quot;Helvetica Neue&quot;, sans-serif; font-size: 12px; font-weight: 200;" fill="rgb(50, 49, 63)" stroke="none" stroke-width="1px">8</text><text x="0" y="158.22222222222223" dx="0em" dy="0.3em" style="text-anchor: end; visibility: inherit; font-family: &quot;Helvetica Neue&quot;, sans-serif; font-size: 12px; font-weight: 200;" fill="rgb(50, 49, 63)" stroke="none" stroke-width="1px">10</text><text x="0" y="138.44444444444446" dx="0em" dy="0.3em" style="text-anchor: end; visibility: hidden; font-family: &quot;Helvetica Neue&quot;, sans-serif; font-size: 12px; font-weight: 200;" fill="rgb(50, 49, 63)" stroke="none" stroke-width="1px">12</text><text x="0" y="118.66666666666667" dx="0em" dy="0.3em" style="text-anchor: end; visibility: inherit; font-family: &quot;Helvetica Neue&quot;, sans-serif; font-size: 12px; font-weight: 200;" fill="rgb(50, 49, 63)" stroke="none" stroke-width="1px">14</text><text x="0" y="98.8888888888889" dx="0em" dy="0.3em" style="text-anchor: end; visibility: hidden; font-family: &quot;Helvetica Neue&quot;, sans-serif; font-size: 12px; font-weight: 200;" fill="rgb(50, 49, 63)" stroke="none" stroke-width="1px">16</text><text x="0" y="79.1111111111111" dx="0em" dy="0.3em" style="text-anchor: end; visibility: inherit; font-family: &quot;Helvetica Neue&quot;, sans-serif; font-size: 12px; font-weight: 200;" fill="rgb(50, 49, 63)" stroke="none" stroke-width="1px">18</text><text x="0" y="59.33333333333334" dx="0em" dy="0.3em" style="text-anchor: end; visibility: hidden; font-family: &quot;Helvetica Neue&quot;, sans-serif; font-size: 12px; font-weight: 200;" fill="rgb(50, 49, 63)" stroke="none" stroke-width="1px">20</text><text x="0" y="39.55555555555554" dx="0em" dy="0.3em" style="text-anchor: end; visibility: inherit; font-family: &quot;Helvetica Neue&quot;, sans-serif; font-size: 12px; font-weight: 200;" fill="rgb(50, 49, 63)" stroke="none" stroke-width="1px">22</text><text x="0" y="19.7777777777778" dx="0em" dy="0.3em" style="text-anchor: end; visibility: hidden; font-family: &quot;Helvetica Neue&quot;, sans-serif; font-size: 12px; font-weight: 200;" fill="rgb(50, 49, 63)" stroke="none" stroke-width="1px">24</text><text x="0" y="0" dx="0em" dy="0.3em" style="text-anchor: end; visibility: hidden; font-family: &quot;Helvetica Neue&quot;, sans-serif; font-size: 12px; font-weight: 200;" fill="rgb(50, 49, 63)" stroke="none" stroke-width="1px">26</text></g><line x1="34" y1="0" x2="34" y2="178" fill="rgb(0, 0, 0)" stroke="rgb(204, 204, 204)" stroke-width="1px"></line></g></g><g transform="translate(34, 0)" clip-path="url(#clip_0)"><clipPath id="clip_0"><rect width="296" height="178"></rect></clipPath><g><g><g><line x1="0" y1="0" x2="0" y2="178" fill="rgb(0, 0, 0)" stroke="rgb(60, 60, 60)" stroke-width="1px" opacity="0.25"></line><line x1="29.6" y1="0" x2="29.6" y2="178" fill="rgb(0, 0, 0)" stroke="rgb(60, 60, 60)" stroke-width="1px" opacity="0.25"></line><line x1="59.2" y1="0" x2="59.2" y2="178" fill="rgb(0, 0, 0)" stroke="rgb(60, 60, 60)" stroke-width="1px" opacity="0.25"></line><line x1="88.8" y1="0" x2="88.8" y2="178" fill="rgb(0, 0, 0)" stroke="rgb(60, 60, 60)" stroke-width="1px" opacity="0.25"></line><line x1="118.4" y1="0" x2="118.4" y2="178" fill="rgb(0, 0, 0)" stroke="rgb(60, 60, 60)" stroke-width="1px" opacity="0.25"></line><line x1="148" y1="0" x2="148" y2="178" fill="rgb(0, 0, 0)" stroke="rgb(60, 60, 60)" stroke-width="1px" opacity="0.25"></line><line x1="177.6" y1="0" x2="177.6" y2="178" fill="rgb(0, 0, 0)" stroke="rgb(60, 60, 60)" stroke-width="1px" opacity="0.25"></line><line x1="207.2" y1="0" x2="207.2" y2="178" fill="rgb(0, 0, 0)" stroke="rgb(60, 60, 60)" stroke-width="1px" opacity="0.25"></line><line x1="236.8" y1="0" x2="236.8" y2="178" fill="rgb(0, 0, 0)" stroke="rgb(60, 60, 60)" stroke-width="1px" opacity="0.25"></line><line x1="266.40000000000003" y1="0" x2="266.40000000000003" y2="178" fill="rgb(0, 0, 0)" stroke="rgb(60, 60, 60)" stroke-width="1px" opacity="0.25"></line><line x1="296" y1="0" x2="296" y2="178" fill="rgb(0, 0, 0)" stroke="rgb(60, 60, 60)" stroke-width="1px" opacity="0.25"></line></g><g><line x1="0" y1="178" x2="296" y2="178" fill="rgb(0, 0, 0)" stroke="rgb(60, 60, 60)" stroke-width="1px" opacity="0.25"></line><line x1="0" y1="158.22222222222223" x2="296" y2="158.22222222222223" fill="rgb(0, 0, 0)" stroke="rgb(60, 60, 60)" stroke-width="1px" opacity="0.25"></line><line x1="0" y1="138.44444444444446" x2="296" y2="138.44444444444446" fill="rgb(0, 0, 0)" stroke="rgb(60, 60, 60)" stroke-width="1px" opacity="0.25"></line><line x1="0" y1="118.66666666666667" x2="296" y2="118.66666666666667" fill="rgb(0, 0, 0)" stroke="rgb(60, 60, 60)" stroke-width="1px" opacity="0.25"></line><line x1="0" y1="98.8888888888889" x2="296" y2="98.8888888888889" fill="rgb(0, 0, 0)" stroke="rgb(60, 60, 60)" stroke-width="1px" opacity="0.25"></line><line x1="0" y1="79.1111111111111" x2="296" y2="79.1111111111111" fill="rgb(0, 0, 0)" stroke="rgb(60, 60, 60)" stroke-width="1px" opacity="0.25"></line><line x1="0" y1="59.33333333333334" x2="296" y2="59.33333333333334" fill="rgb(0, 0, 0)" stroke="rgb(60, 60, 60)" stroke-width="1px" opacity="0.25"></line><line x1="0" y1="39.55555555555554" x2="296" y2="39.55555555555554" fill="rgb(0, 0, 0)" stroke="rgb(60, 60, 60)" stroke-width="1px" opacity="0.25"></line><line x1="0" y1="19.7777777777778" x2="296" y2="19.7777777777778" fill="rgb(0, 0, 0)" stroke="rgb(60, 60, 60)" stroke-width="1px" opacity="0.25"></line><line x1="0" y1="0" x2="296" y2="0" fill="rgb(0, 0, 0)" stroke="rgb(60, 60, 60)" stroke-width="1px" opacity="0.25"></line></g></g></g><g><g><line x1="0" y1="257.1111111111111" x2="296" y2="257.1111111111111" fill="rgb(0, 0, 0)" stroke="rgb(153, 153, 153)" stroke-width="1.5px"></line></g></g><g><g><line x1="29.6" y1="0" x2="29.6" y2="178" fill="rgb(0, 0, 0)" stroke="rgb(153, 153, 153)" stroke-width="1.5px"></line></g></g><g><g><g><g><g><path stroke="rgb(238, 51, 119)" stroke-width="2px" d="M41.782768000000004,191.40667731053898L42.991040000000005,138.38497855753965L44.200495999999994,94.80278485176757L45.40936,72.67499270102971L46.621776000000004,51.49951274386723L47.83123200000001,38.804849917586296L49.04128,50.97523223805486L50.250736,34.53791260927309L51.459008,28.63325900031026L52.669056000000005,33.00244386294355L53.881472,39.57948456257253L55.090336,31.65862808921719L56.30216,18.995010172833616L57.513392,35.130466863611616L58.721664000000004,32.94493642895699L59.932303999999995,31.633624795944087L61.14176,34.80240250514447L62.350623999999996,36.70366567123344L63.559488,37.84442232549435L64.76835200000001,34.57331885670382L65.9784,32.61065754679569L67.189632,43.299729279255786L68.400864,49.713171411310896L69.612096,49.60568061943138L70.820368,53.49674181647566L72.030416,47.92026721624407L73.240464,32.70771572839328L74.44932800000001,35.44685167620975L75.659968,21.268110953077468L76.8712,28.583088810365865L78.081248,40.883186635995L79.28952,48.26324532084956L80.501936,36.86905829813759L81.71376000000001,49.810323871508075L82.926176,49.66397210065725L84.135632,49.57616103816301L85.34567999999999,53.47902995647456L86.553952,51.86519575160209L87.762816,42.98578411742858L88.973456,45.56924824826973L90.18528,27.341548948814477L91.397104,36.18270714710937L92.605376,41.48740206605882L93.81542400000001,40.71466346185616L95.027248,32.33990918821601L96.23848,27.315056624037567L97.447936,44.077922863317724L98.65679999999999,38.31342038465604L99.865072,42.76583000857201L101.074528,41.481720227365315L102.286352,36.75569880308561L103.496992,22.05341928185092L104.708224,36.96538490244416L105.920048,41.9570087192443L107.12832,44.95198300932441L108.338368,38.83785647226128L109.550192,39.12493610557897L110.759056,47.208294996680735L111.967328,56.01386588689735L113.17855999999999,57.34165286547173L114.388608,54.18276949706079L115.600432,40.42077280934757L116.812848,44.03024146338632L118.02112000000001,42.24036710025396L119.231168,45.12199803793018L120.441216,42.89542104498034L121.652448,49.4705859603215L122.862496,45.50457379841512L124.07313599999999,43.1249665012713L125.28555200000001,49.60831323409613L126.496784,45.587210162679895L127.70683199999999,47.130103875385714L128.918064,40.14472899189809L130.12752,51.77572628402777L131.33816,58.75432465930555L132.547616,51.07481701780553L133.755888,42.51155687734999L134.968304,37.37360079307666L136.177168,38.24638269806826L137.389584,30.858940729952025L138.600224,34.33758666019341L139.80968000000001,40.380329773893834L141.021504,44.005975642114066L142.231552,50.13691871860176L143.442192,53.81548456449438L144.654016,40.20040184980775L145.865248,43.89801888766246L147.074704,50.07214466593079L148.28534399999998,53.77662013289182L149.497168,48.088194301957316L150.70899200000002,44.67513880339658L151.917856,42.627305504260164L153.12967999999998,53.26527219144499L154.340912,47.78138553708919L155.549776,52.40216465558687L156.761008,43.30796546001878L157.971056,49.71811260934459L159.18288,45.653089787828975L160.39174400000002,43.21407609491962L161.6012,49.661778990285086L162.81184,49.57484517194885L164.02248,49.52268488094708L165.234304,49.491388706346044L166.44316800000001,53.428166557140955L167.653808,51.83467771206236L168.86504000000002,54.83413996057078L170.073904,44.76715064300913L171.285136,46.638068163583256L172.497552,43.80506312037218L173.70937600000002,46.060815650001075L174.9212,39.50315605666731L176.132432,51.39078252288928L177.344256,38.745580624844706L178.55608,39.06957059712903L179.764944,35.3084090249441L180.973808,33.05171208163313L182.183264,47.51991613786876L183.392128,40.3786163493879L184.602176,44.00494758741053L185.812224,50.13630188577966L187.022272,45.90400335369003L188.23232000000002,47.32017978999181L189.444144,40.25877454066173L190.654784,32.066375835508154L191.863056,39.01760327908269L193.07369599999998,43.18833974522735L194.28256000000002,33.82411495824749L195.491424,36.116691197170724L196.70384,33.536681384969086L197.913296,39.89978660875923L199.123344,35.806538631922194L200.333392,37.30614540137552L201.54284800000002,46.11702057415866L202.753488,43.49243456671741L203.96176,37.96212740669711L205.17121600000002,42.55505422179604L206.38008,29.48858808863318L207.588944,33.51537507540215L208.79721600000002,39.88700282301903L210.005488,39.75442391603366L211.216128,43.63043212739797L212.426176,34.089370387549906L213.638,20.453622232529938L214.850416,24.138840006184637L216.05928,34.261081781488514L217.268736,48.245537957782005L218.479376,36.85843388578033L219.69001599999999,37.93728255369041L220.898288,46.49570286554757L222.10715199999999,47.67519949710629L223.31838399999998,48.382897476041535L224.529024,40.89640515229155L225.737888,52.22673198026385L226.950304,51.11381696593608L228.160944,38.57940129067279L229.369808,35.014307441070315L230.581632,32.87525113130886L231.793456,47.414039567674195L233.00172799999999,64.04842374060455L234.211184,54.251276466584926L235.42064000000002,52.328543657728744L236.63009599999998,55.13045952797059L237.839552,56.81160905011566L239.0496,45.95363209673607L240.261424,47.349957035819386L241.472064,48.18775199926944L242.68152,44.734873421783874L243.890976,46.618701830848124L245.10161599999998,39.83788776517554L246.311072,47.63606599243869L247.52112,40.448306262129876L248.73176,32.180094868389034L249.94062399999999,27.219168032144495L251.149488,36.1092785970645L252.358944,37.48778938046087L253.570176,26.448229183832098L254.781408,23.780048621410344L255.990864,18.22358472840176L257.20032000000003,26.75637305926324L258.409184,31.876046057780172L259.618048,30.992294301334766L260.828688,46.28426546968973L262.037552,39.637225948480534L263.248784,43.5601133468661L264.45824,69.64717911923077L265.670656,61.566085249316245" style="fill: none;" fill="none"></path></g></g></g></g><g opacity="0.2"><g><g><g><path stroke="rgb(238, 51, 119)" stroke-width="2px" d="M40.570352,217.55555555555554L41.782768000000004,128.55555555555554L42.991040000000005,59.33333333333334L44.200495999999994,29.666666666666657L45.40936,39.55555555555554L46.621776000000004,19.7777777777778L47.83123200000001,19.7777777777778L49.04128,69.22222222222221L50.250736,9.888888888888886L51.459008,19.7777777777778L52.669056000000005,39.55555555555554L53.881472,49.44444444444446L55.090336,19.7777777777778L56.30216,0L57.513392,59.33333333333334L58.721664000000004,29.666666666666657L59.932303999999995,29.666666666666657L61.14176,39.55555555555554L62.350623999999996,39.55555555555554L63.559488,39.55555555555554L64.76835200000001,29.666666666666657L65.9784,29.666666666666657L67.189632,59.33333333333334L68.400864,59.33333333333334L69.612096,49.44444444444446L70.820368,59.33333333333334L72.030416,39.55555555555554L73.240464,9.888888888888886L74.44932800000001,39.55555555555554L75.659968,0L76.8712,39.55555555555554L78.081248,59.33333333333334L79.28952,59.33333333333334L80.501936,19.7777777777778L81.71376000000001,69.22222222222221L82.926176,49.44444444444446L84.135632,49.44444444444446L85.34567999999999,59.33333333333334L86.553952,49.44444444444446L87.762816,29.666666666666657L88.973456,49.44444444444446L90.18528,0L91.397104,49.44444444444446L92.605376,49.44444444444446L93.81542400000001,39.55555555555554L95.027248,19.7777777777778L96.23848,19.7777777777778L97.447936,69.22222222222221L98.65679999999999,29.666666666666657L99.865072,49.44444444444446L101.074528,39.55555555555554L102.286352,29.666666666666657L103.496992,0L104.708224,59.33333333333334L105.920048,49.44444444444446L107.12832,49.44444444444446L108.338368,29.666666666666657L109.550192,39.55555555555554L110.759056,59.33333333333334L111.967328,69.22222222222221L113.17855999999999,59.33333333333334L114.388608,49.44444444444446L115.600432,19.7777777777778L116.812848,49.44444444444446L118.02112000000001,39.55555555555554L119.231168,49.44444444444446L120.441216,39.55555555555554L121.652448,59.33333333333334L122.862496,39.55555555555554L124.07313599999999,39.55555555555554L125.28555200000001,59.33333333333334L126.496784,39.55555555555554L127.70683199999999,49.44444444444446L128.918064,29.666666666666657L130.12752,69.22222222222221L131.33816,69.22222222222221L132.547616,39.55555555555554L133.755888,29.666666666666657L134.968304,29.666666666666657L136.177168,39.55555555555554L137.389584,19.7777777777778L138.600224,39.55555555555554L139.80968000000001,49.44444444444446L141.021504,49.44444444444446L142.231552,59.33333333333334L143.442192,59.33333333333334L144.654016,19.7777777777778L145.865248,49.44444444444446L147.074704,59.33333333333334L148.28534399999998,59.33333333333334L149.497168,39.55555555555554L150.70899200000002,39.55555555555554L151.917856,39.55555555555554L153.12967999999998,69.22222222222221L154.340912,39.55555555555554L155.549776,59.33333333333334L156.761008,29.666666666666657L157.971056,59.33333333333334L159.18288,39.55555555555554L160.39174400000002,39.55555555555554L161.6012,59.33333333333334L162.81184,49.44444444444446L164.02248,49.44444444444446L165.234304,49.44444444444446L166.44316800000001,59.33333333333334L167.653808,49.44444444444446L168.86504000000002,59.33333333333334L170.073904,29.666666666666657L171.285136,49.44444444444446L172.497552,39.55555555555554L173.70937600000002,49.44444444444446L174.9212,29.666666666666657L176.132432,69.22222222222221L177.344256,19.7777777777778L178.55608,39.55555555555554L179.764944,29.666666666666657L180.973808,29.666666666666657L182.183264,69.22222222222221L183.392128,29.666666666666657L184.602176,49.44444444444446L185.812224,59.33333333333334L187.022272,39.55555555555554L188.23232000000002,49.44444444444446L189.444144,29.666666666666657L190.654784,19.7777777777778L191.863056,49.44444444444446L193.07369599999998,49.44444444444446L194.28256000000002,19.7777777777778L195.491424,39.55555555555554L196.70384,29.666666666666657L197.913296,49.44444444444446L199.123344,29.666666666666657L200.333392,39.55555555555554L201.54284800000002,59.33333333333334L202.753488,39.55555555555554L203.96176,29.666666666666657L205.17121600000002,49.44444444444446L206.38008,9.888888888888886L207.588944,39.55555555555554L208.79721600000002,49.44444444444446L210.005488,39.55555555555554L211.216128,49.44444444444446L212.426176,19.7777777777778L213.638,0L214.850416,29.666666666666657L216.05928,49.44444444444446L217.268736,69.22222222222221L218.479376,19.7777777777778L219.69001599999999,39.55555555555554L220.898288,59.33333333333334L222.10715199999999,49.44444444444446L223.31838399999998,49.44444444444446L224.529024,29.666666666666657L225.737888,69.22222222222221L226.950304,49.44444444444446L228.160944,19.7777777777778L229.369808,29.666666666666657L230.581632,29.666666666666657L231.793456,69.22222222222221L233.00172799999999,89L234.211184,39.55555555555554L235.42064000000002,49.44444444444446L236.63009599999998,59.33333333333334L237.839552,59.33333333333334L239.0496,29.666666666666657L240.261424,49.44444444444446L241.472064,49.44444444444446L242.68152,39.55555555555554L243.890976,49.44444444444446L245.10161599999998,29.666666666666657L246.311072,59.33333333333334L247.52112,29.666666666666657L248.73176,19.7777777777778L249.94062399999999,19.7777777777778L251.149488,49.44444444444446L252.358944,39.55555555555554L253.570176,9.888888888888886L254.781408,19.7777777777778L255.990864,9.888888888888886L257.20032000000003,39.55555555555554L258.409184,39.55555555555554L259.618048,29.666666666666657L260.828688,69.22222222222221L262.037552,29.666666666666657L263.248784,49.44444444444446L264.45824,108.77777777777777L265.670656,49.44444444444446" style="fill: none;" fill="none"></path></g></g></g></g></g></g><g transform="translate(34, 178)" clip-path="url(#clip_1)"><clipPath id="clip_1"><rect width="296" height="22"></rect></clipPath><g><g><line x1="0" y1="0" x2="0" y2="5" style="visibility: inherit;" fill="rgb(0, 0, 0)" stroke="rgb(204, 204, 204)" stroke-width="1px"></line><line x1="29.6" y1="0" x2="29.6" y2="5" style="visibility: inherit;" fill="rgb(0, 0, 0)" stroke="rgb(204, 204, 204)" stroke-width="1px"></line><line x1="59.2" y1="0" x2="59.2" y2="5" style="visibility: inherit;" fill="rgb(0, 0, 0)" stroke="rgb(204, 204, 204)" stroke-width="1px"></line><line x1="88.8" y1="0" x2="88.8" y2="5" style="visibility: inherit;" fill="rgb(0, 0, 0)" stroke="rgb(204, 204, 204)" stroke-width="1px"></line><line x1="118.4" y1="0" x2="118.4" y2="5" style="visibility: inherit;" fill="rgb(0, 0, 0)" stroke="rgb(204, 204, 204)" stroke-width="1px"></line><line x1="148" y1="0" x2="148" y2="5" style="visibility: inherit;" fill="rgb(0, 0, 0)" stroke="rgb(204, 204, 204)" stroke-width="1px"></line><line x1="177.6" y1="0" x2="177.6" y2="5" style="visibility: inherit;" fill="rgb(0, 0, 0)" stroke="rgb(204, 204, 204)" stroke-width="1px"></line><line x1="207.2" y1="0" x2="207.2" y2="5" style="visibility: inherit;" fill="rgb(0, 0, 0)" stroke="rgb(204, 204, 204)" stroke-width="1px"></line><line x1="236.8" y1="0" x2="236.8" y2="5" style="visibility: inherit;" fill="rgb(0, 0, 0)" stroke="rgb(204, 204, 204)" stroke-width="1px"></line><line x1="266.40000000000003" y1="0" x2="266.40000000000003" y2="5" style="visibility: inherit;" fill="rgb(0, 0, 0)" stroke="rgb(204, 204, 204)" stroke-width="1px"></line><line x1="296" y1="0" x2="296" y2="5" style="visibility: inherit;" fill="rgb(0, 0, 0)" stroke="rgb(204, 204, 204)" stroke-width="1px"></line></g><g transform="translate(0, 8)"><text x="0" y="0" dx="0em" dy="0.95em" style="text-anchor: middle; visibility: hidden; font-family: &quot;Helvetica Neue&quot;, sans-serif; font-size: 12px; font-weight: 200;" fill="rgb(50, 49, 63)" stroke="none" stroke-width="1px">-50k</text><text x="29.6" y="0" dx="0em" dy="0.95em" style="text-anchor: middle; visibility: inherit; font-family: &quot;Helvetica Neue&quot;, sans-serif; font-size: 12px; font-weight: 200;" fill="rgb(50, 49, 63)" stroke="none" stroke-width="1px">0</text><text x="59.2" y="0" dx="0em" dy="0.95em" style="text-anchor: middle; visibility: hidden; font-family: &quot;Helvetica Neue&quot;, sans-serif; font-size: 12px; font-weight: 200;" fill="rgb(50, 49, 63)" stroke="none" stroke-width="1px">50k</text><text x="88.8" y="0" dx="0em" dy="0.95em" style="text-anchor: middle; visibility: inherit; font-family: &quot;Helvetica Neue&quot;, sans-serif; font-size: 12px; font-weight: 200;" fill="rgb(50, 49, 63)" stroke="none" stroke-width="1px">100k</text><text x="118.4" y="0" dx="0em" dy="0.95em" style="text-anchor: middle; visibility: hidden; font-family: &quot;Helvetica Neue&quot;, sans-serif; font-size: 12px; font-weight: 200;" fill="rgb(50, 49, 63)" stroke="none" stroke-width="1px">150k</text><text x="148" y="0" dx="0em" dy="0.95em" style="text-anchor: middle; visibility: inherit; font-family: &quot;Helvetica Neue&quot;, sans-serif; font-size: 12px; font-weight: 200;" fill="rgb(50, 49, 63)" stroke="none" stroke-width="1px">200k</text><text x="177.6" y="0" dx="0em" dy="0.95em" style="text-anchor: middle; visibility: hidden; font-family: &quot;Helvetica Neue&quot;, sans-serif; font-size: 12px; font-weight: 200;" fill="rgb(50, 49, 63)" stroke="none" stroke-width="1px">250k</text><text x="207.2" y="0" dx="0em" dy="0.95em" style="text-anchor: middle; visibility: inherit; font-family: &quot;Helvetica Neue&quot;, sans-serif; font-size: 12px; font-weight: 200;" fill="rgb(50, 49, 63)" stroke="none" stroke-width="1px">300k</text><text x="236.8" y="0" dx="0em" dy="0.95em" style="text-anchor: middle; visibility: hidden; font-family: &quot;Helvetica Neue&quot;, sans-serif; font-size: 12px; font-weight: 200;" fill="rgb(50, 49, 63)" stroke="none" stroke-width="1px">350k</text><text x="266.40000000000003" y="0" dx="0em" dy="0.95em" style="text-anchor: middle; visibility: inherit; font-family: &quot;Helvetica Neue&quot;, sans-serif; font-size: 12px; font-weight: 200;" fill="rgb(50, 49, 63)" stroke="none" stroke-width="1px">400k</text><text x="296" y="0" dx="0em" dy="0.95em" style="text-anchor: middle; visibility: hidden; font-family: &quot;Helvetica Neue&quot;, sans-serif; font-size: 12px; font-weight: 200;" fill="rgb(50, 49, 63)" stroke="none" stroke-width="1px">450k</text></g><line x1="0" y1="0" x2="296" y2="0" fill="rgb(0, 0, 0)" stroke="rgb(204, 204, 204)" stroke-width="1px"></line></g></g></g></g></svg>