<svg viewBox="0 0 330 200" xmlns="http://www.w3.org/2000/svg"><g><g><g><g><g><line x1="34" y1="178" x2="29" y2="178" style="visibility: inherit;" fill="rgb(0, 0, 0)" stroke="rgb(204, 204, 204)" stroke-width="1px"></line><line x1="34" y1="161.8181818181818" x2="29" y2="161.8181818181818" style="visibility: inherit;" fill="rgb(0, 0, 0)" stroke="rgb(204, 204, 204)" stroke-width="1px"></line><line x1="34" y1="145.63636363636363" x2="29" y2="145.63636363636363" style="visibility: inherit;" fill="rgb(0, 0, 0)" stroke="rgb(204, 204, 204)" stroke-width="1px"></line><line x1="34" y1="129.45454545454547" x2="29" y2="129.45454545454547" style="visibility: inherit;" fill="rgb(0, 0, 0)" stroke="rgb(204, 204, 204)" stroke-width="1px"></line><line x1="34" y1="113.27272727272727" x2="29" y2="113.27272727272727" style="visibility: inherit;" fill="rgb(0, 0, 0)" stroke="rgb(204, 204, 204)" stroke-width="1px"></line><line x1="34" y1="97.0909090909091" x2="29" y2="97.0909090909091" style="visibility: inherit;" fill="rgb(0, 0, 0)" stroke="rgb(204, 204, 204)" stroke-width="1px"></line><line x1="34" y1="80.90909090909092" x2="29" y2="80.90909090909092" style="visibility: inherit;" fill="rgb(0, 0, 0)" stroke="rgb(204, 204, 204)" stroke-width="1px"></line><line x1="34" y1="64.72727272727273" x2="29" y2="64.72727272727273" style="visibility: inherit;" fill="rgb(0, 0, 0)" stroke="rgb(204, 204, 204)" stroke-width="1px"></line><line x1="34" y1="48.54545454545453" x2="29" y2="48.54545454545453" style="visibility: inherit;" fill="rgb(0, 0, 0)" stroke="rgb(204, 204, 204)" stroke-width="1px"></line><line x1="34" y1="32.363636363636346" x2="29" y2="32.363636363636346" style="visibility: inherit;" fill="rgb(0, 0, 0)" stroke="rgb(204, 204, 204)" stroke-width="1px"></line><line x1="34" y1="16.181818181818187" x2="29" y2="16.181818181818187" style="visibility: inherit;" fill="rgb(0, 0, 0)" stroke="rgb(204, 204, 204)" stroke-width="1px"></line><line x1="34" y1="0" x2="29" y2="0" style="visibility: inherit;" fill="rgb(0, 0, 0)" stroke="rgb(204, 204, 204)" stroke-width="1px"></line></g><g transform="translate(24, 0)"><text x="0" y="178" dx="0em" dy="0.3em" style="text-anchor: end; visibility: hidden; font-family: &quot;Helvetica Neue&quot;, sans-serif; font-size: 12px; font-weight: 200;" fill="rgb(50, 49, 63)" stroke="none" stroke-width="1px">13</text><text x="0" y="161.8181818181818" dx="0em" dy="0.3em" style="text-anchor: end; visibility: inherit; font-family: &quot;Helvetica Neue&quot;, sans-serif; font-size: 12px; font-weight: 200;" fill="rgb(50, 49, 63)" stroke="none" stroke-width="1px">14</text><text x="0" y="145.63636363636363" dx="0em" dy="0.3em" style="text-anchor: end; visibility: hidden; font-family: &quot;Helvetica Neue&quot;, sans-serif; font-size: 12px; font-weight: 200;" fill="rgb(50, 49, 63)" stroke="none" stroke-width="1px">15</text><text x="0" y="129.45454545454547" dx="0em" dy="0.3em" style="text-anchor: end; visibility: inherit; font-family: &quot;Helvetica Neue&quot;, sans-serif; font-size: 12px; font-weight: 200;" fill="rgb(50, 49, 63)" stroke="none" stroke-width="1px">16</text><text x="0" y="113.27272727272727" dx="0em" dy="0.3em" style="text-anchor: end; visibility: hidden; font-family: &quot;Helvetica Neue&quot;, sans-serif; font-size: 12px; font-weight: 200;" fill="rgb(50, 49, 63)" stroke="none" stroke-width="1px">17</text><text x="0" y="97.0909090909091" dx="0em" dy="0.3em" style="text-anchor: end; visibility: inherit; font-family: &quot;Helvetica Neue&quot;, sans-serif; font-size: 12px; font-weight: 200;" fill="rgb(50, 49, 63)" stroke="none" stroke-width="1px">18</text><text x="0" y="80.90909090909092" dx="0em" dy="0.3em" style="text-anchor: end; visibility: hidden; font-family: &quot;Helvetica Neue&quot;, sans-serif; font-size: 12px; font-weight: 200;" fill="rgb(50, 49, 63)" stroke="none" stroke-width="1px">19</text><text x="0" y="64.72727272727273" dx="0em" dy="0.3em" style="text-anchor: end; visibility: inherit; font-family: &quot;Helvetica Neue&quot;, sans-serif; font-size: 12px; font-weight: 200;" fill="rgb(50, 49, 63)" stroke="none" stroke-width="1px">20</text><text x="0" y="48.54545454545453" dx="0em" dy="0.3em" style="text-anchor: end; visibility: hidden; font-family: &quot;Helvetica Neue&quot;, sans-serif; font-size: 12px; font-weight: 200;" fill="rgb(50, 49, 63)" stroke="none" stroke-width="1px">21</text><text x="0" y="32.363636363636346" dx="0em" dy="0.3em" style="text-anchor: end; visibility: inherit; font-family: &quot;Helvetica Neue&quot;, sans-serif; font-size: 12px; font-weight: 200;" fill="rgb(50, 49, 63)" stroke="none" stroke-width="1px">22</text><text x="0" y="16.181818181818187" dx="0em" dy="0.3em" style="text-anchor: end; visibility: hidden; font-family: &quot;Helvetica Neue&quot;, sans-serif; font-size: 12px; font-weight: 200;" fill="rgb(50, 49, 63)" stroke="none" stroke-width="1px">23</text><text x="0" y="0" dx="0em" dy="0.3em" style="text-anchor: end; visibility: hidden; font-family: &quot;Helvetica Neue&quot;, sans-serif; font-size: 12px; font-weight: 200;" fill="rgb(50, 49, 63)" stroke="none" stroke-width="1px">24</text></g><line x1="34" y1="0" x2="34" y2="178" fill="rgb(0, 0, 0)" stroke="rgb(204, 204, 204)" stroke-width="1px"></line></g></g><g transform="translate(34, 0)" clip-path="url(#clip_0)"><clipPath id="clip_0"><rect width="296" height="178"></rect></clipPath><g><g><g><line x1="0" y1="0" x2="0" y2="178" fill="rgb(0, 0, 0)" stroke="rgb(60, 60, 60)" stroke-width="1px" opacity="0.25"></line><line x1="29.6" y1="0" x2="29.6" y2="178" fill="rgb(0, 0, 0)" stroke="rgb(60, 60, 60)" stroke-width="1px" opacity="0.25"></line><line x1="59.2" y1="0" x2="59.2" y2="178" fill="rgb(0, 0, 0)" stroke="rgb(60, 60, 60)" stroke-width="1px" opacity="0.25"></line><line x1="88.8" y1="0" x2="88.8" y2="178" fill="rgb(0, 0, 0)" stroke="rgb(60, 60, 60)" stroke-width="1px" opacity="0.25"></line><line x1="118.4" y1="0" x2="118.4" y2="178" fill="rgb(0, 0, 0)" stroke="rgb(60, 60, 60)" stroke-width="1px" opacity="0.25"></line><line x1="148" y1="0" x2="148" y2="178" fill="rgb(0, 0, 0)" stroke="rgb(60, 60, 60)" stroke-width="1px" opacity="0.25"></line><line x1="177.6" y1="0" x2="177.6" y2="178" fill="rgb(0, 0, 0)" stroke="rgb(60, 60, 60)" stroke-width="1px" opacity="0.25"></line><line x1="207.2" y1="0" x2="207.2" y2="178" fill="rgb(0, 0, 0)" stroke="rgb(60, 60, 60)" stroke-width="1px" opacity="0.25"></line><line x1="236.8" y1="0" x2="236.8" y2="178" fill="rgb(0, 0, 0)" stroke="rgb(60, 60, 60)" stroke-width="1px" opacity="0.25"></line><line x1="266.40000000000003" y1="0" x2="266.40000000000003" y2="178" fill="rgb(0, 0, 0)" stroke="rgb(60, 60, 60)" stroke-width="1px" opacity="0.25"></line><line x1="296" y1="0" x2="296" y2="178" fill="rgb(0, 0, 0)" stroke="rgb(60, 60, 60)" stroke-width="1px" opacity="0.25"></line></g><g><line x1="0" y1="178" x2="296" y2="178" fill="rgb(0, 0, 0)" stroke="rgb(60, 60, 60)" stroke-width="1px" opacity="0.25"></line><line x1="0" y1="161.8181818181818" x2="296" y2="161.8181818181818" fill="rgb(0, 0, 0)" stroke="rgb(60, 60, 60)" stroke-width="1px" opacity="0.25"></line><line x1="0" y1="145.63636363636363" x2="296" y2="145.63636363636363" fill="rgb(0, 0, 0)" stroke="rgb(60, 60, 60)" stroke-width="1px" opacity="0.25"></line><line x1="0" y1="129.45454545454547" x2="296" y2="129.45454545454547" fill="rgb(0, 0, 0)" stroke="rgb(60, 60, 60)" stroke-width="1px" opacity="0.25"></line><line x1="0" y1="113.27272727272727" x2="296" y2="113.27272727272727" fill="rgb(0, 0, 0)" stroke="rgb(60, 60, 60)" stroke-width="1px" opacity="0.25"></line><line x1="0" y1="97.0909090909091" x2="296" y2="97.0909090909091" fill="rgb(0, 0, 0)" stroke="rgb(60, 60, 60)" stroke-width="1px" opacity="0.25"></line><line x1="0" y1="80.90909090909092" x2="296" y2="80.90909090909092" fill="rgb(0, 0, 0)" stroke="rgb(60, 60, 60)" stroke-width="1px" opacity="0.25"></line><line x1="0" y1="64.72727272727273" x2="296" y2="64.72727272727273" fill="rgb(0, 0, 0)" stroke="rgb(60, 60, 60)" stroke-width="1px" opacity="0.25"></line><line x1="0" y1="48.54545454545453" x2="296" y2="48.54545454545453" fill="rgb(0, 0, 0)" stroke="rgb(60, 60, 60)" stroke-width="1px" opacity="0.25"></line><line x1="0" y1="32.363636363636346" x2="296" y2="32.363636363636346" fill="rgb(0, 0, 0)" stroke="rgb(60, 60, 60)" stroke-width="1px" opacity="0.25"></line><line x1="0" y1="16.181818181818187" x2="296" y2="16.181818181818187" fill="rgb(0, 0, 0)" stroke="rgb(60, 60, 60)" stroke-width="1px" opacity="0.25"></line><line x1="0" y1="0" x2="296" y2="0" fill="rgb(0, 0, 0)" stroke="rgb(60, 60, 60)" stroke-width="1px" opacity="0.25"></line></g></g></g><g><g><line x1="0" y1="388.3636363636364" x2="296" y2="388.3636363636364" fill="rgb(0, 0, 0)" stroke="rgb(153, 153, 153)" stroke-width="1.5px"></line></g></g><g><g><line x1="29.6" y1="0" x2="29.6" y2="178" fill="rgb(0, 0, 0)" stroke="rgb(153, 153, 153)" stroke-width="1.5px"></line></g></g><g><g><g><g><g><path stroke="rgb(255, 112, 67)" stroke-width="2px" d="M36.936656,186.03659310614194L38.147296,136.1153907853057L39.358528,113.65563315205037L40.570352,100.42366853800345L41.778624,86.05824800910978L42.989856,77.49478992254512L44.200495999999994,65.88979422205873L45.40936,52.46179317740068L46.619408,57.371832708785064L47.83123200000001,47.36384856685618L49.042464,54.311178149054285L50.252512,77.89979056261444L51.462559999999996,104.9971718009785L52.671423999999995,82.41510883876738L53.881472,75.33971570658639L55.093296,103.45899172966746L56.30512,146.2214124295223L57.513984,120.09627750326347L58.724032,110.89408653483179L59.934672,92.42730851022631L61.146496000000006,100.76549023864118L62.357728,118.71385796771165L63.567184,97.1192106103879L64.775456,97.10788999842525L65.98432,103.57382633759595L67.193184,75.08974656975974L68.404416,64.47202891500952L69.612688,77.51958160841563L70.821552,85.34811282570966L72.03278399999999,90.04523141253621L73.24224,86.3907751734645L74.451104,90.6708287669301L75.66352,86.76613360929552L76.875344,77.95058923684611L78.08479999999999,66.18853534456655L79.29603200000001,59.131303019261495L80.504304,48.42423635185884L81.715536,35.527269080118714L82.926176,66.6254523625497L84.138,78.81163505516018L85.349232,99.06879921617771L86.558688,98.27764316604063L87.76696,97.80294953597739L88.97641599999999,84.5726788123173L90.18528,96.05269819657407L91.397696,83.52252800879272L92.608336,69.53169862341677L93.817792,48.19174644674004L95.02902399999999,119.53322968630064L96.239072,136.44721053906372L97.44852800000001,127.17741723252564L98.660352,102.19735943041887L99.870992,100.15477929461466L101.07926400000001,98.92923121313234L102.288128,98.19390236424299L103.49640000000001,78.33452323672704L104.708816,79.3643503056726L105.91767999999999,73.50951927431254L107.127728,82.9420752009512L108.337776,82.12888148420713L109.54841599999999,107.53187434506975L110.757872,96.88276097067822L111.968512,71.07511112786146L113.177376,55.59052122217139L114.3892,52.77249455148461L115.601616,44.608951276345294L116.812848,65.6017344021708L118.02171200000001,65.25194973221157L119.229984,58.569351657508804L120.44239999999999,67.50524735814167L121.65304,59.921330233066826L122.86368,68.31643450347644L124.07313599999999,66.88076979299495L125.28200000000001,72.49209823943336L126.492048,88.80434985275089L127.70327999999999,111.53715536619602L128.912736,144.59502049244486L130.122784,183.84792138637604L131.33223999999998,168.56329828637107L132.543472,133.50161533545904L133.75233599999999,86.57369647400272L134.960608,71.36239970258342L136.170656,36.34471254882277L137.37951999999999,47.69773662020276L138.589568,48.03682379030346L139.800208,48.24027609236393L141.012624,41.88962020087288L142.22267200000002,31.606499393251028L143.430944,44.854808726859716L144.641584,20.44015796338857L145.850448,18.736822050760367L147.06168,37.133002321365325L148.27232,41.697983211001L149.484736,31.491517199327888L150.69537599999998,44.78581941050581L151.906016,52.76240073721263L153.116064,57.548349533236646L154.324336,41.001736992669265L155.536752,11.655587650147027L156.74739200000002,39.35698895372457L157.95803199999997,55.9778297358711L159.167488,59.47760693243171L160.378128,55.104745977640846L161.588768,52.48102940476636L162.8,70.32498127922345L164.012416,106.92226149480676L165.22305599999999,83.57153871506587L166.432512,95.45201413813044L167.644336,63.74393575560552L168.85320000000002,44.719088726090575L170.063248,59.19508959929071L171.275664,80.82614466866535L172.48512,67.91386861938103L173.695168,53.693775717083184L174.90758399999999,45.16171997570444L176.11881599999998,52.987941076331765L177.33004799999998,64.15640100943541L178.540688,51.43929515111574L179.751328,50.28175890885126L180.960192,49.587237163492574L182.16905599999998,42.697796843550094L183.377328,83.87322356067553L184.587376,108.57847959095074L185.79801600000002,116.92890593638863L187.008064,115.46643447092407L188.218704,82.22531522800895L189.429936,68.75337095498719L190.64175999999998,54.19747711844684L191.8524,38.99121354379534L193.062448,49.28563721718629L194.271904,55.46229142122088L195.48432,20.331920307277954L196.693776,25.144606729821277L197.90264000000002,21.559491310620018L199.111504,32.35387660455382L200.322144,38.83050778091413L201.532784,49.1892137594576L202.741056,35.98625552840184L203.949328,47.48266240795016L205.161152,60.85323380840647L206.372976,55.93012210322567L207.583024,40.03080053466266L208.79248,43.43666213897944L210.001344,51.9529063742968L211.211392,70.00810746094174L212.419664,67.89577356747414L213.630896,47.21019141321173L214.843312,41.27156939338158L216.051584,44.181123454210734L217.262816,58.87231043616278L218.47168,74.1597498980613L219.68172800000002,63.91403175701855L220.890592,57.76660087239294L222.098864,60.55086961434486L223.309504,49.27597631406144L224.521328,29.565585788436863L225.731376,50.102987836698446L226.939648,43.00724724747366L228.149696,45.22253016666599L229.36151999999998,20.660790827272336L230.569792,25.34192904181799L231.781024,21.677884697818087L232.989888,25.95218536414535L234.202304,34.98949303666902L235.413536,40.41187764018326L236.62299199999998,56.61076294774631L237.832448,40.439185041375055L239.04072,56.627147388461395L240.250768,59.86719752398591L241.460816,126.53850033257339L242.669088,140.65037292681677L243.88091200000002,110.28113284699914L245.09036799999998,59.695952435472265L246.30041599999998,74.653935097647L247.511056,70.68327014949729L248.72288,74.77359845333476L249.934112,57.8096136174554L251.145344,54.103949988655L252.355392,32.46236999319302L253.566032,19.477421995915762L254.778448,31.104635015731276L255.98672000000002,44.553690100347865L257.194992,39.67766860566326L258.406224,30.27932843612524L259.618048,24.640324334402408L260.82632,21.25692187336867L262.037552,25.699607669475768L263.247008,34.83794641986731L264.458832,14.430040579193076L265.668288,34.54893343842494" style="fill: none;" fill="none"></path></g></g></g></g><g opacity="0.2"><g><g><g><path stroke="rgb(255, 112, 67)" stroke-width="2px" d="M34.51656,388.3636363636364L35.725424,178L36.936656,32.363636363636346L38.147296,64.72727272727273L39.358528,80.90909090909092L40.570352,80.90909090909092L41.778624,64.72727272727273L42.989856,64.72727272727273L44.200495999999994,48.54545454545453L45.40936,32.363636363636346L46.619408,64.72727272727273L47.83123200000001,32.363636363636346L49.042464,64.72727272727273L50.252512,113.27272727272727L51.462559999999996,145.63636363636363L52.671423999999995,48.54545454545453L53.881472,64.72727272727273L55.093296,145.63636363636363L56.30512,210.36363636363637L57.513984,80.90909090909092L58.724032,97.0909090909091L59.934672,64.72727272727273L61.146496000000006,113.27272727272727L62.357728,145.63636363636363L63.567184,64.72727272727273L64.775456,97.0909090909091L65.98432,113.27272727272727L67.193184,32.363636363636346L68.404416,48.54545454545453L69.612688,97.0909090909091L70.821552,97.0909090909091L72.03278399999999,97.0909090909091L73.24224,80.90909090909092L74.451104,97.0909090909091L75.66352,80.90909090909092L76.875344,64.72727272727273L78.08479999999999,48.54545454545453L79.29603200000001,48.54545454545453L80.504304,32.363636363636346L81.715536,16.181818181818187L82.926176,113.27272727272727L84.138,97.0909090909091L85.349232,129.45454545454547L86.558688,97.0909090909091L87.76696,97.0909090909091L88.97641599999999,64.72727272727273L90.18528,113.27272727272727L91.397696,64.72727272727273L92.608336,48.54545454545453L93.817792,16.181818181818187L95.02902399999999,226.54545454545453L96.239072,161.8181818181818L97.44852800000001,113.27272727272727L98.660352,64.72727272727273L99.870992,97.0909090909091L101.07926400000001,97.0909090909091L102.288128,97.0909090909091L103.49640000000001,48.54545454545453L104.708816,80.90909090909092L105.91767999999999,64.72727272727273L107.127728,97.0909090909091L108.337776,80.90909090909092L109.54841599999999,145.63636363636363L110.757872,80.90909090909092L111.968512,32.363636363636346L113.177376,32.363636363636346L114.3892,48.54545454545453L115.601616,32.363636363636346L116.812848,97.0909090909091L118.02171200000001,64.72727272727273L119.229984,48.54545454545453L120.44239999999999,80.90909090909092L121.65304,48.54545454545453L122.86368,80.90909090909092L124.07313599999999,64.72727272727273L125.28200000000001,80.90909090909092L126.492048,113.27272727272727L127.70327999999999,145.63636363636363L128.912736,194.1818181818182L130.122784,242.72727272727275L131.33223999999998,145.63636363636363L132.543472,80.90909090909092L133.75233599999999,16.181818181818187L134.960608,48.54545454545453L136.170656,-16.18181818181816L137.37951999999999,64.72727272727273L138.589568,48.54545454545453L139.800208,48.54545454545453L141.012624,32.363636363636346L142.22267200000002,16.181818181818187L143.430944,64.72727272727273L144.641584,-16.18181818181816L145.850448,16.181818181818187L147.06168,64.72727272727273L148.27232,48.54545454545453L149.484736,16.181818181818187L150.69537599999998,64.72727272727273L151.906016,64.72727272727273L153.116064,64.72727272727273L154.324336,16.181818181818187L155.536752,-32.363636363636374L156.74739200000002,80.90909090909092L157.95803199999997,80.90909090909092L159.167488,64.72727272727273L160.378128,48.54545454545453L161.588768,48.54545454545453L162.8,97.0909090909091L164.012416,161.8181818181818L165.22305599999999,48.54545454545453L166.432512,113.27272727272727L167.644336,16.181818181818187L168.85320000000002,16.181818181818187L170.063248,80.90909090909092L171.275664,113.27272727272727L172.48512,48.54545454545453L173.695168,32.363636363636346L174.90758399999999,32.363636363636346L176.11881599999998,64.72727272727273L177.33004799999998,80.90909090909092L178.540688,32.363636363636346L179.751328,48.54545454545453L180.960192,48.54545454545453L182.16905599999998,32.363636363636346L183.377328,145.63636363636363L184.587376,145.63636363636363L185.79801600000002,129.45454545454547L187.008064,113.27272727272727L188.218704,32.363636363636346L189.429936,48.54545454545453L190.64175999999998,32.363636363636346L191.8524,16.181818181818187L193.062448,64.72727272727273L194.271904,64.72727272727273L195.48432,-32.363636363636374L196.693776,32.363636363636346L197.90264000000002,16.181818181818187L199.111504,48.54545454545453L200.322144,48.54545454545453L201.532784,64.72727272727273L202.741056,16.181818181818187L203.949328,64.72727272727273L205.161152,80.90909090909092L206.372976,48.54545454545453L207.583024,16.181818181818187L208.79248,48.54545454545453L210.001344,64.72727272727273L211.211392,97.0909090909091L212.419664,64.72727272727273L213.630896,16.181818181818187L214.843312,32.363636363636346L216.051584,48.54545454545453L217.262816,80.90909090909092L218.47168,97.0909090909091L219.68172800000002,48.54545454545453L220.890592,48.54545454545453L222.098864,64.72727272727273L223.309504,32.363636363636346L224.521328,0L225.731376,80.90909090909092L226.939648,32.363636363636346L228.149696,48.54545454545453L229.36151999999998,-16.18181818181816L230.569792,32.363636363636346L231.781024,16.181818181818187L232.989888,32.363636363636346L234.202304,48.54545454545453L235.413536,48.54545454545453L236.62299199999998,80.90909090909092L237.832448,16.181818181818187L239.04072,80.90909090909092L240.250768,64.72727272727273L241.460816,226.54545454545453L242.669088,161.8181818181818L243.88091200000002,64.72727272727273L245.09036799999998,-16.18181818181816L246.30041599999998,97.0909090909091L247.511056,64.72727272727273L248.72288,80.90909090909092L249.934112,32.363636363636346L251.145344,48.54545454545453L252.355392,0L253.566032,0L254.778448,48.54545454545453L255.98672000000002,64.72727272727273L257.194992,32.363636363636346L258.406224,16.181818181818187L259.618048,16.181818181818187L260.82632,16.181818181818187L262.037552,32.363636363636346L263.247008,48.54545454545453L264.458832,-16.18181818181816L265.668288,64.72727272727273" style="fill: none;" fill="none"></path></g></g></g></g></g></g><g transform="translate(34, 178)" clip-path="url(#clip_1)"><clipPath id="clip_1"><rect width="296" height="22"></rect></clipPath><g><g><line x1="0" y1="0" x2="0" y2="5" style="visibility: inherit;" fill="rgb(0, 0, 0)" stroke="rgb(204, 204, 204)" stroke-width="1px"></line><line x1="29.6" y1="0" x2="29.6" y2="5" style="visibility: inherit;" fill="rgb(0, 0, 0)" stroke="rgb(204, 204, 204)" stroke-width="1px"></line><line x1="59.2" y1="0" x2="59.2" y2="5" style="visibility: inherit;" fill="rgb(0, 0, 0)" stroke="rgb(204, 204, 204)" stroke-width="1px"></line><line x1="88.8" y1="0" x2="88.8" y2="5" style="visibility: inherit;" fill="rgb(0, 0, 0)" stroke="rgb(204, 204, 204)" stroke-width="1px"></line><line x1="118.4" y1="0" x2="118.4" y2="5" style="visibility: inherit;" fill="rgb(0, 0, 0)" stroke="rgb(204, 204, 204)" stroke-width="1px"></line><line x1="148" y1="0" x2="148" y2="5" style="visibility: inherit;" fill="rgb(0, 0, 0)" stroke="rgb(204, 204, 204)" stroke-width="1px"></line><line x1="177.6" y1="0" x2="177.6" y2="5" style="visibility: inherit;" fill="rgb(0, 0, 0)" stroke="rgb(204, 204, 204)" stroke-width="1px"></line><line x1="207.2" y1="0" x2="207.2" y2="5" style="visibility: inherit;" fill="rgb(0, 0, 0)" stroke="rgb(204, 204, 204)" stroke-width="1px"></line><line x1="236.8" y1="0" x2="236.8" y2="5" style="visibility: inherit;" fill="rgb(0, 0, 0)" stroke="rgb(204, 204, 204)" stroke-width="1px"></line><line x1="266.40000000000003" y1="0" x2="266.40000000000003" y2="5" style="visibility: inherit;" fill="rgb(0, 0, 0)" stroke="rgb(204, 204, 204)" stroke-width="1px"></line><line x1="296" y1="0" x2="296" y2="5" style="visibility: inherit;" fill="rgb(0, 0, 0)" stroke="rgb(204, 204, 204)" stroke-width="1px"></line></g><g transform="translate(0, 8)"><text x="0" y="0" dx="0em" dy="0.95em" style="text-anchor: middle; visibility: hidden; font-family: &quot;Helvetica Neue&quot;, sans-serif; font-size: 12px; font-weight: 200;" fill="rgb(50, 49, 63)" stroke="none" stroke-width="1px">-50k</text><text x="29.6" y="0" dx="0em" dy="0.95em" style="text-anchor: middle; visibility: inherit; font-family: &quot;Helvetica Neue&quot;, sans-serif; font-size: 12px; font-weight: 200;" fill="rgb(50, 49, 63)" stroke="none" stroke-width="1px">0</text><text x="59.2" y="0" dx="0em" dy="0.95em" style="text-anchor: middle; visibility: hidden; font-family: &quot;Helvetica Neue&quot;, sans-serif; font-size: 12px; font-weight: 200;" fill="rgb(50, 49, 63)" stroke="none" stroke-width="1px">50k</text><text x="88.8" y="0" dx="0em" dy="0.95em" style="text-anchor: middle; visibility: inherit; font-family: &quot;Helvetica Neue&quot;, sans-serif; font-size: 12px; font-weight: 200;" fill="rgb(50, 49, 63)" stroke="none" stroke-width="1px">100k</text><text x="118.4" y="0" dx="0em" dy="0.95em" style="text-anchor: middle; visibility: hidden; font-family: &quot;Helvetica Neue&quot;, sans-serif; font-size: 12px; font-weight: 200;" fill="rgb(50, 49, 63)" stroke="none" stroke-width="1px">150k</text><text x="148" y="0" dx="0em" dy="0.95em" style="text-anchor: middle; visibility: inherit; font-family: &quot;Helvetica Neue&quot;, sans-serif; font-size: 12px; font-weight: 200;" fill="rgb(50, 49, 63)" stroke="none" stroke-width="1px">200k</text><text x="177.6" y="0" dx="0em" dy="0.95em" style="text-anchor: middle; visibility: hidden; font-family: &quot;Helvetica Neue&quot;, sans-serif; font-size: 12px; font-weight: 200;" fill="rgb(50, 49, 63)" stroke="none" stroke-width="1px">250k</text><text x="207.2" y="0" dx="0em" dy="0.95em" style="text-anchor: middle; visibility: inherit; font-family: &quot;Helvetica Neue&quot;, sans-serif; font-size: 12px; font-weight: 200;" fill="rgb(50, 49, 63)" stroke="none" stroke-width="1px">300k</text><text x="236.8" y="0" dx="0em" dy="0.95em" style="text-anchor: middle; visibility: hidden; font-family: &quot;Helvetica Neue&quot;, sans-serif; font-size: 12px; font-weight: 200;" fill="rgb(50, 49, 63)" stroke="none" stroke-width="1px">350k</text><text x="266.40000000000003" y="0" dx="0em" dy="0.95em" style="text-anchor: middle; visibility: inherit; font-family: &quot;Helvetica Neue&quot;, sans-serif; font-size: 12px; font-weight: 200;" fill="rgb(50, 49, 63)" stroke="none" stroke-width="1px">400k</text><text x="296" y="0" dx="0em" dy="0.95em" style="text-anchor: middle; visibility: hidden; font-family: &quot;Helvetica Neue&quot;, sans-serif; font-size: 12px; font-weight: 200;" fill="rgb(50, 49, 63)" stroke="none" stroke-width="1px">450k</text></g><line x1="0" y1="0" x2="296" y2="0" fill="rgb(0, 0, 0)" stroke="rgb(204, 204, 204)" stroke-width="1px"></line></g></g></g></g></svg>