<svg viewBox="0 0 330 200" xmlns="http://www.w3.org/2000/svg"><g><g><g><g><g><line x1="34" y1="178" x2="29" y2="178" style="visibility: inherit;" fill="rgb(0, 0, 0)" stroke="rgb(204, 204, 204)" stroke-width="1px"></line><line x1="34" y1="152.57142857142858" x2="29" y2="152.57142857142858" style="visibility: inherit;" fill="rgb(0, 0, 0)" stroke="rgb(204, 204, 204)" stroke-width="1px"></line><line x1="34" y1="127.14285714285714" x2="29" y2="127.14285714285714" style="visibility: inherit;" fill="rgb(0, 0, 0)" stroke="rgb(204, 204, 204)" stroke-width="1px"></line><line x1="34" y1="101.71428571428572" x2="29" y2="101.71428571428572" style="visibility: inherit;" fill="rgb(0, 0, 0)" stroke="rgb(204, 204, 204)" stroke-width="1px"></line><line x1="34" y1="76.28571428571429" x2="29" y2="76.28571428571429" style="visibility: inherit;" fill="rgb(0, 0, 0)" stroke="rgb(204, 204, 204)" stroke-width="1px"></line><line x1="34" y1="50.85714285714286" x2="29" y2="50.85714285714286" style="visibility: inherit;" fill="rgb(0, 0, 0)" stroke="rgb(204, 204, 204)" stroke-width="1px"></line><line x1="34" y1="25.428571428571445" x2="29" y2="25.428571428571445" style="visibility: inherit;" fill="rgb(0, 0, 0)" stroke="rgb(204, 204, 204)" stroke-width="1px"></line><line x1="34" y1="0" x2="29" y2="0" style="visibility: inherit;" fill="rgb(0, 0, 0)" stroke="rgb(204, 204, 204)" stroke-width="1px"></line></g><g transform="translate(24, 0)"><text x="0" y="178" dx="0em" dy="0.3em" style="text-anchor: end; visibility: hidden; font-family: &quot;Helvetica Neue&quot;, sans-serif; font-size: 12px; font-weight: 200;" fill="rgb(50, 49, 63)" stroke="none" stroke-width="1px">-5</text><text x="0" y="152.57142857142858" dx="0em" dy="0.3em" style="text-anchor: end; visibility: inherit; font-family: &quot;Helvetica Neue&quot;, sans-serif; font-size: 12px; font-weight: 200;" fill="rgb(50, 49, 63)" stroke="none" stroke-width="1px">0</text><text x="0" y="127.14285714285714" dx="0em" dy="0.3em" style="text-anchor: end; visibility: inherit; font-family: &quot;Helvetica Neue&quot;, sans-serif; font-size: 12px; font-weight: 200;" fill="rgb(50, 49, 63)" stroke="none" stroke-width="1px">5</text><text x="0" y="101.71428571428572" dx="0em" dy="0.3em" style="text-anchor: end; visibility: inherit; font-family: &quot;Helvetica Neue&quot;, sans-serif; font-size: 12px; font-weight: 200;" fill="rgb(50, 49, 63)" stroke="none" stroke-width="1px">10</text><text x="0" y="76.28571428571429" dx="0em" dy="0.3em" style="text-anchor: end; visibility: inherit; font-family: &quot;Helvetica Neue&quot;, sans-serif; font-size: 12px; font-weight: 200;" fill="rgb(50, 49, 63)" stroke="none" stroke-width="1px">15</text><text x="0" y="50.85714285714286" dx="0em" dy="0.3em" style="text-anchor: end; visibility: inherit; font-family: &quot;Helvetica Neue&quot;, sans-serif; font-size: 12px; font-weight: 200;" fill="rgb(50, 49, 63)" stroke="none" stroke-width="1px">20</text><text x="0" y="25.428571428571445" dx="0em" dy="0.3em" style="text-anchor: end; visibility: inherit; font-family: &quot;Helvetica Neue&quot;, sans-serif; font-size: 12px; font-weight: 200;" fill="rgb(50, 49, 63)" stroke="none" stroke-width="1px">25</text><text x="0" y="0" dx="0em" dy="0.3em" style="text-anchor: end; visibility: hidden; font-family: &quot;Helvetica Neue&quot;, sans-serif; font-size: 12px; font-weight: 200;" fill="rgb(50, 49, 63)" stroke="none" stroke-width="1px">30</text></g><line x1="34" y1="0" x2="34" y2="178" fill="rgb(0, 0, 0)" stroke="rgb(204, 204, 204)" stroke-width="1px"></line></g></g><g transform="translate(34, 0)" clip-path="url(#clip_0)"><clipPath id="clip_0"><rect width="296" height="178"></rect></clipPath><g><g><g><line x1="0" y1="0" x2="0" y2="178" fill="rgb(0, 0, 0)" stroke="rgb(60, 60, 60)" stroke-width="1px" opacity="0.25"></line><line x1="29.6" y1="0" x2="29.6" y2="178" fill="rgb(0, 0, 0)" stroke="rgb(60, 60, 60)" stroke-width="1px" opacity="0.25"></line><line x1="59.2" y1="0" x2="59.2" y2="178" fill="rgb(0, 0, 0)" stroke="rgb(60, 60, 60)" stroke-width="1px" opacity="0.25"></line><line x1="88.8" y1="0" x2="88.8" y2="178" fill="rgb(0, 0, 0)" stroke="rgb(60, 60, 60)" stroke-width="1px" opacity="0.25"></line><line x1="118.4" y1="0" x2="118.4" y2="178" fill="rgb(0, 0, 0)" stroke="rgb(60, 60, 60)" stroke-width="1px" opacity="0.25"></line><line x1="148" y1="0" x2="148" y2="178" fill="rgb(0, 0, 0)" stroke="rgb(60, 60, 60)" stroke-width="1px" opacity="0.25"></line><line x1="177.6" y1="0" x2="177.6" y2="178" fill="rgb(0, 0, 0)" stroke="rgb(60, 60, 60)" stroke-width="1px" opacity="0.25"></line><line x1="207.2" y1="0" x2="207.2" y2="178" fill="rgb(0, 0, 0)" stroke="rgb(60, 60, 60)" stroke-width="1px" opacity="0.25"></line><line x1="236.8" y1="0" x2="236.8" y2="178" fill="rgb(0, 0, 0)" stroke="rgb(60, 60, 60)" stroke-width="1px" opacity="0.25"></line><line x1="266.40000000000003" y1="0" x2="266.40000000000003" y2="178" fill="rgb(0, 0, 0)" stroke="rgb(60, 60, 60)" stroke-width="1px" opacity="0.25"></line><line x1="296" y1="0" x2="296" y2="178" fill="rgb(0, 0, 0)" stroke="rgb(60, 60, 60)" stroke-width="1px" opacity="0.25"></line></g><g><line x1="0" y1="178" x2="296" y2="178" fill="rgb(0, 0, 0)" stroke="rgb(60, 60, 60)" stroke-width="1px" opacity="0.25"></line><line x1="0" y1="152.57142857142858" x2="296" y2="152.57142857142858" fill="rgb(0, 0, 0)" stroke="rgb(60, 60, 60)" stroke-width="1px" opacity="0.25"></line><line x1="0" y1="127.14285714285714" x2="296" y2="127.14285714285714" fill="rgb(0, 0, 0)" stroke="rgb(60, 60, 60)" stroke-width="1px" opacity="0.25"></line><line x1="0" y1="101.71428571428572" x2="296" y2="101.71428571428572" fill="rgb(0, 0, 0)" stroke="rgb(60, 60, 60)" stroke-width="1px" opacity="0.25"></line><line x1="0" y1="76.28571428571429" x2="296" y2="76.28571428571429" fill="rgb(0, 0, 0)" stroke="rgb(60, 60, 60)" stroke-width="1px" opacity="0.25"></line><line x1="0" y1="50.85714285714286" x2="296" y2="50.85714285714286" fill="rgb(0, 0, 0)" stroke="rgb(60, 60, 60)" stroke-width="1px" opacity="0.25"></line><line x1="0" y1="25.428571428571445" x2="296" y2="25.428571428571445" fill="rgb(0, 0, 0)" stroke="rgb(60, 60, 60)" stroke-width="1px" opacity="0.25"></line><line x1="0" y1="0" x2="296" y2="0" fill="rgb(0, 0, 0)" stroke="rgb(60, 60, 60)" stroke-width="1px" opacity="0.25"></line></g></g></g><g><g><line x1="0" y1="152.57142857142858" x2="296" y2="152.57142857142858" fill="rgb(0, 0, 0)" stroke="rgb(153, 153, 153)" stroke-width="1.5px"></line></g></g><g><g><line x1="29.6" y1="0" x2="29.6" y2="178" fill="rgb(0, 0, 0)" stroke="rgb(153, 153, 153)" stroke-width="1.5px"></line></g></g><g><g><g><g><g><path stroke="rgb(51, 187, 238)" stroke-width="2px" d="M34.523664000000004,152.57142857142858L34.524848,152.57142857142858L34.523072,152.57142857142858L34.523072,152.57142857142858L39.369776,152.57142857142858L39.374512,152.57142857142858L39.370368,152.57142857142858L39.370368,152.57142857142858L44.217664,152.57142857142858L44.2224,152.57142857142858L44.21944,152.57142857142858L44.220031999999996,152.57142857142858L49.06318400000001,152.57142857142858L49.06792,152.57142857142858L49.065552,152.57142857142858L49.066736,152.57142857142858L53.909296000000005,152.57142857142858L53.914032,152.57142857142858L53.912848,152.57142857142858L53.914032,152.57142857142858L58.754816000000005,152.57142857142858L58.762512,152.57142857142858L58.761328,152.57142857142858L58.760736,152.57142857142858L63.600928,152.57142857142858L63.610992,152.57142857142858L63.609808,152.57142857142858L63.608032,152.57142857142858L68.446448,152.57142857142858L68.457696,152.57142857142858L68.456512,152.57142857142858L68.457104,152.57142857142858L73.29611200000001,152.57142857142858L73.303808,152.57142857142858L73.302624,152.57142857142858L73.303216,152.57142857142858L78.144592,152.57142857142858L78.149328,152.57142857142858L78.151696,152.57142857142858L78.15051199999999,152.57142857142858L82.991888,152.57142857142858L82.996624,152.57142857142858L82.999584,152.57142857142858L82.99839999999999,152.57142857142858L87.83800000000001,152.57142857142858L87.84392,152.57142857142858L87.848656,150.53714285706673L87.84510399999999,151.35085714282974L92.68529600000001,151.83908571427585L92.693584,152.1320228571393L92.69536,152.30778514285586L92.69299199999999,152.41324251428526L97.533184,152.4765169371427L97.539104,152.5144815908571L97.545024,152.5372603830857L97.54088,152.55092765842284L102.38048,152.55912802362514L102.388768,152.5640482427465L102.391136,152.56700037421933L102.3864,152.56877165310303L107.22718400000001,152.56983442043324L107.237248,152.57047208083137L107.239616,152.57085467707026L107.233696,152.57108423481358L112.075664,152.57122196945957L112.083952,152.57130461024718L112.08928,152.57135419471973L112.079808,152.57138394540328L116.92118400000001,152.5714017958134L116.930656,150.53712679177374L116.936576,151.3508475036357L116.927696,151.83907993075283L121.766704,152.13201938702312L121.78032,152.3077830607853L121.78564800000001,152.41324126504261L121.77617599999999,152.47651618759699L126.61577600000001,152.51448114112964L126.627024,152.5372601132492L126.63471999999999,152.55092749652096L126.624656,152.559127926484L131.46188800000002,152.56404818446183L131.472544,150.5327146249628L131.484384,149.3139144892634L131.47432,150.61692012212947L136.311552,151.3987235018491L136.321616,151.86780552968088L136.33049599999998,152.14925474637997L136.3228,152.3181242763994L141.158256,152.41944599441106L141.167728,152.48023902521805L141.176608,150.48242912941654L141.171872,151.31802890622137L146.006144,151.81938877230425L146.016208,152.12020469195397L146.02272,152.3006942437438L146.017392,152.4089879748177L150.85284800000002,152.47396421346207L150.861728,150.47866424236295L150.87001600000002,151.3157699739892L150.864688,151.81803341296495L155.701328,150.08510576206467L155.7108,151.07963488581024L155.719088,151.67635236005756L155.713168,150.00009713032026L160.548032,151.02862970676358L160.559872,151.64574925262957L160.56579200000002,149.98173526586345L160.55868800000002,148.9833268738038L165.393552,123.97285326713941L165.406576,100.82942624599794L165.411312,86.94337003331304L165.4048,80.64602201998783L170.242624,62.62761321199268L170.253872,53.85085364148132L170.260976,50.61908361346022L170.25328000000002,48.68002159664755L174.860816,47.51658438655997L175.10353600000002,48.85280777479312L175.107088,43.551684664875864L175.100576,44.43958222749697L179.70752,42.93803505078387L179.95024,44.07139245904176L179.955568,42.71712118971078L179.94787200000002,41.90455842811218L184.555408,47.51987791401018L184.79576,50.88906960554897L184.80168,46.80772747761509L184.79635199999998,44.35892220085475L189.405072,36.786781891941416L189.64246400000002,42.414926278021994L189.65016,41.72324148109891L189.643648,47.411087745802206L194.254144,46.75522407605274L194.488576,48.39599158848881L194.496272,41.24330923880757L194.49153600000002,47.12312840042739L199.10144,50.651019897399294L199.10795199999998,46.6648976527253L199.11032,50.37608144877804L199.344752,44.46564886926683L203.950512,47.022246464417236L203.954656,42.453347878650334L203.956432,47.84915158433304L204.193824,49.05234809345697L208.797808,43.67140885607418L208.803728,44.51141674221594L208.80432000000002,40.94685004532957L209.042896,44.9109671700549L213.64687999999998,47.28943744489007L213.649248,44.64794818121979L213.64984,45.09734033730331L213.888416,45.36697563095339L218.494176,41.46018537857205L218.495952,35.04753979857179L218.49832,41.37138102200021L218.737488,45.165685756057286L223.34147199999998,45.4079828822058L223.34147199999998,45.553361157894926L223.35864,43.606302409022675L223.347392,46.50663858827076L228.18936,48.246840295819595L228.191136,49.29096132034891L228.20830400000003,47.88314822078078L228.19528,45.004174646754166L233.03784000000002,47.34536193090963L233.03784000000002,38.57864572997437L233.054416,39.42147315227032L233.044944,41.961455319933606L237.883952,47.55401604910304L237.88632,48.87526677231898L237.90408000000002,51.70230292053425L237.89224000000002,49.32995318089198L242.729472,47.906543337106626L242.733616,42.983926002263956L242.75196799999998,40.030355601358366L242.738352,42.32678478938644L247.576176,39.636070873631866L247.581504,42.09021395275056L247.599856,47.63127122879317L247.58683200000002,40.78447702299016L252.42584000000002,42.779257642365536L252.431168,46.010411728276466L252.447744,45.91481846553731L252.434128,49.926033936465245L257.271952,48.26419179045058L257.279648,49.30137221712749L257.297408,49.92368047313366L257.279648,38.09135114102304L262.11984,37.09481068461383L262.128128,36.4968864107683L262.144112,44.27527470360383L262.129312,44.873736250733714" style="fill: none;" fill="none"></path></g></g></g></g><g opacity="0.2"><g><g><g><path stroke="rgb(51, 187, 238)" stroke-width="2px" d="M34.523664000000004,152.57142857142858L34.524848,152.57142857142858L34.523072,152.57142857142858L34.523072,152.57142857142858L39.369776,152.57142857142858L39.374512,152.57142857142858L39.370368,152.57142857142858L39.370368,152.57142857142858L44.217664,152.57142857142858L44.2224,152.57142857142858L44.21944,152.57142857142858L44.220031999999996,152.57142857142858L49.06318400000001,152.57142857142858L49.06792,152.57142857142858L49.065552,152.57142857142858L49.066736,152.57142857142858L53.909296000000005,152.57142857142858L53.914032,152.57142857142858L53.912848,152.57142857142858L53.914032,152.57142857142858L58.754816000000005,152.57142857142858L58.762512,152.57142857142858L58.761328,152.57142857142858L58.760736,152.57142857142858L63.600928,152.57142857142858L63.610992,152.57142857142858L63.609808,152.57142857142858L63.608032,152.57142857142858L68.446448,152.57142857142858L68.457696,152.57142857142858L68.456512,152.57142857142858L68.457104,152.57142857142858L73.29611200000001,152.57142857142858L73.303808,152.57142857142858L73.302624,152.57142857142858L73.303216,152.57142857142858L78.144592,152.57142857142858L78.149328,152.57142857142858L78.151696,152.57142857142858L78.15051199999999,152.57142857142858L82.991888,152.57142857142858L82.996624,152.57142857142858L82.999584,152.57142857142858L82.99839999999999,152.57142857142858L87.83800000000001,152.57142857142858L87.84392,152.57142857142858L87.848656,147.4857142857143L87.84510399999999,152.57142857142858L92.68529600000001,152.57142857142858L92.693584,152.57142857142858L92.69536,152.57142857142858L92.69299199999999,152.57142857142858L97.533184,152.57142857142858L97.539104,152.57142857142858L97.545024,152.57142857142858L97.54088,152.57142857142858L102.38048,152.57142857142858L102.388768,152.57142857142858L102.391136,152.57142857142858L102.3864,152.57142857142858L107.22718400000001,152.57142857142858L107.237248,152.57142857142858L107.239616,152.57142857142858L107.233696,152.57142857142858L112.075664,152.57142857142858L112.083952,152.57142857142858L112.08928,152.57142857142858L112.079808,152.57142857142858L116.92118400000001,152.57142857142858L116.930656,147.4857142857143L116.936576,152.57142857142858L116.927696,152.57142857142858L121.766704,152.57142857142858L121.78032,152.57142857142858L121.78564800000001,152.57142857142858L121.77617599999999,152.57142857142858L126.61577600000001,152.57142857142858L126.627024,152.57142857142858L126.63471999999999,152.57142857142858L126.624656,152.57142857142858L131.46188800000002,152.57142857142858L131.472544,147.4857142857143L131.484384,147.4857142857143L131.47432,152.57142857142858L136.311552,152.57142857142858L136.321616,152.57142857142858L136.33049599999998,152.57142857142858L136.3228,152.57142857142858L141.158256,152.57142857142858L141.167728,152.57142857142858L141.176608,147.4857142857143L141.171872,152.57142857142858L146.006144,152.57142857142858L146.016208,152.57142857142858L146.02272,152.57142857142858L146.017392,152.57142857142858L150.85284800000002,152.57142857142858L150.861728,147.4857142857143L150.87001600000002,152.57142857142858L150.864688,152.57142857142858L155.701328,147.4857142857143L155.7108,152.57142857142858L155.719088,152.57142857142858L155.713168,147.4857142857143L160.548032,152.57142857142858L160.559872,152.57142857142858L160.56579200000002,147.4857142857143L160.55868800000002,147.4857142857143L165.393552,86.45714285714287L165.406576,66.11428571428571L165.411312,66.11428571428571L165.4048,71.2L170.242624,35.599999999999994L170.253872,40.68571428571428L170.260976,45.77142857142857L170.25328000000002,45.77142857142857L174.860816,45.77142857142857L175.10353600000002,50.85714285714286L175.107088,35.599999999999994L175.100576,45.77142857142857L179.70752,40.68571428571428L179.95024,45.77142857142857L179.955568,40.68571428571428L179.94787200000002,40.68571428571428L184.555408,55.942857142857136L184.79576,55.942857142857136L184.80168,40.68571428571428L184.79635199999998,40.68571428571428L189.405072,25.428571428571445L189.64246400000002,50.85714285714286L189.65016,40.68571428571428L189.643648,55.942857142857136L194.254144,45.77142857142857L194.488576,50.85714285714286L194.496272,30.514285714285705L194.49153600000002,55.942857142857136L199.10144,55.942857142857136L199.10795199999998,40.68571428571428L199.11032,55.942857142857136L199.344752,35.599999999999994L203.950512,50.85714285714286L203.954656,35.599999999999994L203.956432,55.942857142857136L204.193824,50.85714285714286L208.797808,35.599999999999994L208.803728,45.77142857142857L208.80432000000002,35.599999999999994L209.042896,50.85714285714286L213.64687999999998,50.85714285714286L213.649248,40.68571428571428L213.64984,45.77142857142857L213.888416,45.77142857142857L218.494176,35.599999999999994L218.495952,25.428571428571445L218.49832,50.85714285714286L218.737488,50.85714285714286L223.34147199999998,45.77142857142857L223.34147199999998,45.77142857142857L223.35864,40.68571428571428L223.347392,50.85714285714286L228.18936,50.85714285714286L228.191136,50.85714285714286L228.20830400000003,45.77142857142857L228.19528,40.68571428571428L233.03784000000002,50.85714285714286L233.03784000000002,25.428571428571445L233.054416,40.68571428571428L233.044944,45.77142857142857L237.883952,55.942857142857136L237.88632,50.85714285714286L237.90408000000002,55.942857142857136L237.89224000000002,45.77142857142857L242.729472,45.77142857142857L242.733616,35.599999999999994L242.75196799999998,35.599999999999994L242.738352,45.77142857142857L247.576176,35.599999999999994L247.581504,45.77142857142857L247.599856,55.942857142857136L247.58683200000002,30.514285714285705L252.42584000000002,45.77142857142857L252.431168,50.85714285714286L252.447744,45.77142857142857L252.434128,55.942857142857136L257.271952,45.77142857142857L257.279648,50.85714285714286L257.297408,50.85714285714286L257.279648,20.342857142857156L262.11984,35.599999999999994L262.128128,35.599999999999994L262.144112,55.942857142857136L262.129312,45.77142857142857" style="fill: none;" fill="none"></path></g></g></g></g></g></g><g transform="translate(34, 178)" clip-path="url(#clip_1)"><clipPath id="clip_1"><rect width="296" height="22"></rect></clipPath><g><g><line x1="0" y1="0" x2="0" y2="5" style="visibility: inherit;" fill="rgb(0, 0, 0)" stroke="rgb(204, 204, 204)" stroke-width="1px"></line><line x1="29.6" y1="0" x2="29.6" y2="5" style="visibility: inherit;" fill="rgb(0, 0, 0)" stroke="rgb(204, 204, 204)" stroke-width="1px"></line><line x1="59.2" y1="0" x2="59.2" y2="5" style="visibility: inherit;" fill="rgb(0, 0, 0)" stroke="rgb(204, 204, 204)" stroke-width="1px"></line><line x1="88.8" y1="0" x2="88.8" y2="5" style="visibility: inherit;" fill="rgb(0, 0, 0)" stroke="rgb(204, 204, 204)" stroke-width="1px"></line><line x1="118.4" y1="0" x2="118.4" y2="5" style="visibility: inherit;" fill="rgb(0, 0, 0)" stroke="rgb(204, 204, 204)" stroke-width="1px"></line><line x1="148" y1="0" x2="148" y2="5" style="visibility: inherit;" fill="rgb(0, 0, 0)" stroke="rgb(204, 204, 204)" stroke-width="1px"></line><line x1="177.6" y1="0" x2="177.6" y2="5" style="visibility: inherit;" fill="rgb(0, 0, 0)" stroke="rgb(204, 204, 204)" stroke-width="1px"></line><line x1="207.2" y1="0" x2="207.2" y2="5" style="visibility: inherit;" fill="rgb(0, 0, 0)" stroke="rgb(204, 204, 204)" stroke-width="1px"></line><line x1="236.8" y1="0" x2="236.8" y2="5" style="visibility: inherit;" fill="rgb(0, 0, 0)" stroke="rgb(204, 204, 204)" stroke-width="1px"></line><line x1="266.40000000000003" y1="0" x2="266.40000000000003" y2="5" style="visibility: inherit;" fill="rgb(0, 0, 0)" stroke="rgb(204, 204, 204)" stroke-width="1px"></line><line x1="296" y1="0" x2="296" y2="5" style="visibility: inherit;" fill="rgb(0, 0, 0)" stroke="rgb(204, 204, 204)" stroke-width="1px"></line></g><g transform="translate(0, 8)"><text x="0" y="0" dx="0em" dy="0.95em" style="text-anchor: middle; visibility: hidden; font-family: &quot;Helvetica Neue&quot;, sans-serif; font-size: 12px; font-weight: 200;" fill="rgb(50, 49, 63)" stroke="none" stroke-width="1px">-50k</text><text x="29.6" y="0" dx="0em" dy="0.95em" style="text-anchor: middle; visibility: inherit; font-family: &quot;Helvetica Neue&quot;, sans-serif; font-size: 12px; font-weight: 200;" fill="rgb(50, 49, 63)" stroke="none" stroke-width="1px">0</text><text x="59.2" y="0" dx="0em" dy="0.95em" style="text-anchor: middle; visibility: hidden; font-family: &quot;Helvetica Neue&quot;, sans-serif; font-size: 12px; font-weight: 200;" fill="rgb(50, 49, 63)" stroke="none" stroke-width="1px">50k</text><text x="88.8" y="0" dx="0em" dy="0.95em" style="text-anchor: middle; visibility: inherit; font-family: &quot;Helvetica Neue&quot;, sans-serif; font-size: 12px; font-weight: 200;" fill="rgb(50, 49, 63)" stroke="none" stroke-width="1px">100k</text><text x="118.4" y="0" dx="0em" dy="0.95em" style="text-anchor: middle; visibility: hidden; font-family: &quot;Helvetica Neue&quot;, sans-serif; font-size: 12px; font-weight: 200;" fill="rgb(50, 49, 63)" stroke="none" stroke-width="1px">150k</text><text x="148" y="0" dx="0em" dy="0.95em" style="text-anchor: middle; visibility: inherit; font-family: &quot;Helvetica Neue&quot;, sans-serif; font-size: 12px; font-weight: 200;" fill="rgb(50, 49, 63)" stroke="none" stroke-width="1px">200k</text><text x="177.6" y="0" dx="0em" dy="0.95em" style="text-anchor: middle; visibility: hidden; font-family: &quot;Helvetica Neue&quot;, sans-serif; font-size: 12px; font-weight: 200;" fill="rgb(50, 49, 63)" stroke="none" stroke-width="1px">250k</text><text x="207.2" y="0" dx="0em" dy="0.95em" style="text-anchor: middle; visibility: inherit; font-family: &quot;Helvetica Neue&quot;, sans-serif; font-size: 12px; font-weight: 200;" fill="rgb(50, 49, 63)" stroke="none" stroke-width="1px">300k</text><text x="236.8" y="0" dx="0em" dy="0.95em" style="text-anchor: middle; visibility: hidden; font-family: &quot;Helvetica Neue&quot;, sans-serif; font-size: 12px; font-weight: 200;" fill="rgb(50, 49, 63)" stroke="none" stroke-width="1px">350k</text><text x="266.40000000000003" y="0" dx="0em" dy="0.95em" style="text-anchor: middle; visibility: inherit; font-family: &quot;Helvetica Neue&quot;, sans-serif; font-size: 12px; font-weight: 200;" fill="rgb(50, 49, 63)" stroke="none" stroke-width="1px">400k</text><text x="296" y="0" dx="0em" dy="0.95em" style="text-anchor: middle; visibility: hidden; font-family: &quot;Helvetica Neue&quot;, sans-serif; font-size: 12px; font-weight: 200;" fill="rgb(50, 49, 63)" stroke="none" stroke-width="1px">450k</text></g><line x1="0" y1="0" x2="296" y2="0" fill="rgb(0, 0, 0)" stroke="rgb(204, 204, 204)" stroke-width="1px"></line></g></g></g></g></svg>