<svg viewBox="0 0 330 200" xmlns="http://www.w3.org/2000/svg"><g><g><g><g><g><line x1="34" y1="178" x2="29" y2="178" style="visibility: inherit;" fill="rgb(0, 0, 0)" stroke="rgb(204, 204, 204)" stroke-width="1px"></line><line x1="34" y1="152.57142857142858" x2="29" y2="152.57142857142858" style="visibility: inherit;" fill="rgb(0, 0, 0)" stroke="rgb(204, 204, 204)" stroke-width="1px"></line><line x1="34" y1="127.14285714285714" x2="29" y2="127.14285714285714" style="visibility: inherit;" fill="rgb(0, 0, 0)" stroke="rgb(204, 204, 204)" stroke-width="1px"></line><line x1="34" y1="101.71428571428572" x2="29" y2="101.71428571428572" style="visibility: inherit;" fill="rgb(0, 0, 0)" stroke="rgb(204, 204, 204)" stroke-width="1px"></line><line x1="34" y1="76.28571428571429" x2="29" y2="76.28571428571429" style="visibility: inherit;" fill="rgb(0, 0, 0)" stroke="rgb(204, 204, 204)" stroke-width="1px"></line><line x1="34" y1="50.85714285714286" x2="29" y2="50.85714285714286" style="visibility: inherit;" fill="rgb(0, 0, 0)" stroke="rgb(204, 204, 204)" stroke-width="1px"></line><line x1="34" y1="25.428571428571445" x2="29" y2="25.428571428571445" style="visibility: inherit;" fill="rgb(0, 0, 0)" stroke="rgb(204, 204, 204)" stroke-width="1px"></line><line x1="34" y1="0" x2="29" y2="0" style="visibility: inherit;" fill="rgb(0, 0, 0)" stroke="rgb(204, 204, 204)" stroke-width="1px"></line></g><g transform="translate(24, 0)"><text x="0" y="178" dx="0em" dy="0.3em" style="text-anchor: end; visibility: hidden; font-family: &quot;Helvetica Neue&quot;, sans-serif; font-size: 12px; font-weight: 200;" fill="rgb(50, 49, 63)" stroke="none" stroke-width="1px">-5</text><text x="0" y="152.57142857142858" dx="0em" dy="0.3em" style="text-anchor: end; visibility: inherit; font-family: &quot;Helvetica Neue&quot;, sans-serif; font-size: 12px; font-weight: 200;" fill="rgb(50, 49, 63)" stroke="none" stroke-width="1px">0</text><text x="0" y="127.14285714285714" dx="0em" dy="0.3em" style="text-anchor: end; visibility: inherit; font-family: &quot;Helvetica Neue&quot;, sans-serif; font-size: 12px; font-weight: 200;" fill="rgb(50, 49, 63)" stroke="none" stroke-width="1px">5</text><text x="0" y="101.71428571428572" dx="0em" dy="0.3em" style="text-anchor: end; visibility: inherit; font-family: &quot;Helvetica Neue&quot;, sans-serif; font-size: 12px; font-weight: 200;" fill="rgb(50, 49, 63)" stroke="none" stroke-width="1px">10</text><text x="0" y="76.28571428571429" dx="0em" dy="0.3em" style="text-anchor: end; visibility: inherit; font-family: &quot;Helvetica Neue&quot;, sans-serif; font-size: 12px; font-weight: 200;" fill="rgb(50, 49, 63)" stroke="none" stroke-width="1px">15</text><text x="0" y="50.85714285714286" dx="0em" dy="0.3em" style="text-anchor: end; visibility: inherit; font-family: &quot;Helvetica Neue&quot;, sans-serif; font-size: 12px; font-weight: 200;" fill="rgb(50, 49, 63)" stroke="none" stroke-width="1px">20</text><text x="0" y="25.428571428571445" dx="0em" dy="0.3em" style="text-anchor: end; visibility: inherit; font-family: &quot;Helvetica Neue&quot;, sans-serif; font-size: 12px; font-weight: 200;" fill="rgb(50, 49, 63)" stroke="none" stroke-width="1px">25</text><text x="0" y="0" dx="0em" dy="0.3em" style="text-anchor: end; visibility: hidden; font-family: &quot;Helvetica Neue&quot;, sans-serif; font-size: 12px; font-weight: 200;" fill="rgb(50, 49, 63)" stroke="none" stroke-width="1px">30</text></g><line x1="34" y1="0" x2="34" y2="178" fill="rgb(0, 0, 0)" stroke="rgb(204, 204, 204)" stroke-width="1px"></line></g></g><g transform="translate(34, 0)" clip-path="url(#clip_0)"><clipPath id="clip_0"><rect width="296" height="178"></rect></clipPath><g><g><g><line x1="0" y1="0" x2="0" y2="178" fill="rgb(0, 0, 0)" stroke="rgb(60, 60, 60)" stroke-width="1px" opacity="0.25"></line><line x1="29.6" y1="0" x2="29.6" y2="178" fill="rgb(0, 0, 0)" stroke="rgb(60, 60, 60)" stroke-width="1px" opacity="0.25"></line><line x1="59.2" y1="0" x2="59.2" y2="178" fill="rgb(0, 0, 0)" stroke="rgb(60, 60, 60)" stroke-width="1px" opacity="0.25"></line><line x1="88.8" y1="0" x2="88.8" y2="178" fill="rgb(0, 0, 0)" stroke="rgb(60, 60, 60)" stroke-width="1px" opacity="0.25"></line><line x1="118.4" y1="0" x2="118.4" y2="178" fill="rgb(0, 0, 0)" stroke="rgb(60, 60, 60)" stroke-width="1px" opacity="0.25"></line><line x1="148" y1="0" x2="148" y2="178" fill="rgb(0, 0, 0)" stroke="rgb(60, 60, 60)" stroke-width="1px" opacity="0.25"></line><line x1="177.6" y1="0" x2="177.6" y2="178" fill="rgb(0, 0, 0)" stroke="rgb(60, 60, 60)" stroke-width="1px" opacity="0.25"></line><line x1="207.2" y1="0" x2="207.2" y2="178" fill="rgb(0, 0, 0)" stroke="rgb(60, 60, 60)" stroke-width="1px" opacity="0.25"></line><line x1="236.8" y1="0" x2="236.8" y2="178" fill="rgb(0, 0, 0)" stroke="rgb(60, 60, 60)" stroke-width="1px" opacity="0.25"></line><line x1="266.40000000000003" y1="0" x2="266.40000000000003" y2="178" fill="rgb(0, 0, 0)" stroke="rgb(60, 60, 60)" stroke-width="1px" opacity="0.25"></line><line x1="296" y1="0" x2="296" y2="178" fill="rgb(0, 0, 0)" stroke="rgb(60, 60, 60)" stroke-width="1px" opacity="0.25"></line></g><g><line x1="0" y1="178" x2="296" y2="178" fill="rgb(0, 0, 0)" stroke="rgb(60, 60, 60)" stroke-width="1px" opacity="0.25"></line><line x1="0" y1="152.57142857142858" x2="296" y2="152.57142857142858" fill="rgb(0, 0, 0)" stroke="rgb(60, 60, 60)" stroke-width="1px" opacity="0.25"></line><line x1="0" y1="127.14285714285714" x2="296" y2="127.14285714285714" fill="rgb(0, 0, 0)" stroke="rgb(60, 60, 60)" stroke-width="1px" opacity="0.25"></line><line x1="0" y1="101.71428571428572" x2="296" y2="101.71428571428572" fill="rgb(0, 0, 0)" stroke="rgb(60, 60, 60)" stroke-width="1px" opacity="0.25"></line><line x1="0" y1="76.28571428571429" x2="296" y2="76.28571428571429" fill="rgb(0, 0, 0)" stroke="rgb(60, 60, 60)" stroke-width="1px" opacity="0.25"></line><line x1="0" y1="50.85714285714286" x2="296" y2="50.85714285714286" fill="rgb(0, 0, 0)" stroke="rgb(60, 60, 60)" stroke-width="1px" opacity="0.25"></line><line x1="0" y1="25.428571428571445" x2="296" y2="25.428571428571445" fill="rgb(0, 0, 0)" stroke="rgb(60, 60, 60)" stroke-width="1px" opacity="0.25"></line><line x1="0" y1="0" x2="296" y2="0" fill="rgb(0, 0, 0)" stroke="rgb(60, 60, 60)" stroke-width="1px" opacity="0.25"></line></g></g></g><g><g><line x1="0" y1="152.57142857142858" x2="296" y2="152.57142857142858" fill="rgb(0, 0, 0)" stroke="rgb(153, 153, 153)" stroke-width="1.5px"></line></g></g><g><g><line x1="29.6" y1="0" x2="29.6" y2="178" fill="rgb(0, 0, 0)" stroke="rgb(153, 153, 153)" stroke-width="1.5px"></line></g></g><g><g><g><g><g><path stroke="rgb(238, 51, 119)" stroke-width="2px" d="M34.523664000000004,152.57142857142858L34.524848,152.57142857142858L34.523072,152.57142857142858L34.523072,152.57142857142858L39.369776,152.57142857142858L39.374512,152.57142857142858L39.370368,152.57142857142858L39.370368,152.57142857142858L44.217664,152.57142857142858L44.2224,152.57142857142858L44.21944,152.57142857142858L44.220031999999996,152.57142857142858L49.06318400000001,152.57142857142858L49.06792,152.57142857142858L49.065552,152.57142857142858L49.066736,152.57142857142858L53.909296000000005,152.57142857142858L53.914032,152.57142857142858L53.912848,152.57142857142858L53.914032,152.57142857142858L58.754816000000005,152.57142857142858L58.762512,152.57142857142858L58.761328,152.57142857142858L58.760736,152.57142857142858L63.600928,152.57142857142858L63.610992,152.57142857142858L63.609808,152.57142857142858L63.608032,152.57142857142858L68.446448,146.468569179933L68.457696,144.8411411481779L68.456512,143.8646845593853L68.457104,143.27881068900348L73.29611200000001,112.41299922521316L73.303808,93.89351329023707L73.302624,78.71325057032561L73.303216,75.70795031119741L78.144592,63.73334154118315L78.149328,56.5485763266029L78.151696,56.30628865256479L78.15051199999999,45.98948746346218L82.991888,41.83369247474414L82.996624,37.3059297683819L82.999584,36.62355786083211L82.99839999999999,38.24842043106645L87.83800000000001,41.2576236875241L87.84392,43.0631456411985L87.848656,42.11217309896921L87.84510399999999,39.50730385932303L92.68529600000001,42.012953744199024L92.693584,37.41348653219649L92.69536,44.8252347764967L92.69299199999999,45.20371229447056L97.533184,47.46508451954344L97.539104,50.85619356887247L97.545024,46.78800185560664L97.54088,46.381372541935264L102.38048,46.13739495373255L102.388768,41.92243697223893L102.391136,29.22203361191376L102.3864,35.84179159572L107.22718400000001,39.81364638600357L107.237248,46.26533068874514L107.239616,50.13634127038996L107.233696,40.25323333366251L112.075664,46.52908285734037L112.083952,44.191735428689924L112.08928,46.85789840007109L112.079808,46.42331046861409L116.92118400000001,46.16255770973987L116.930656,41.93753462584391L116.936576,43.47109220407776L116.927696,46.4255124653038L121.766704,44.129593193468L121.78032,46.820613058937965L121.78564800000001,44.366653549648476L121.77617599999999,42.89427784407479L126.61577600000001,33.87370956358774L126.627024,26.427082881009795L126.63471999999999,36.199106871463016L126.624656,40.02803555144925L131.46188800000002,32.153964188012395L131.472544,35.566664227093156L131.484384,41.68285567911303L131.47432,45.35257055032494L136.311552,41.45154233019497L136.321616,39.11092539811699L136.33049599999998,37.70655523887018L136.3228,38.898218857607816L141.158256,37.57893131456467L141.167728,42.89021593159595L141.176608,33.871272416100425L141.171872,36.59704916394597L146.006144,40.26680092693903L146.016208,38.4000805561634L146.02272,41.348619762269465L146.017392,45.15202900021882L150.85284800000002,39.29693168584558L150.861728,37.81815901150736L150.87001600000002,34.89660969261868L150.864688,39.246537244142644L155.701328,45.925065203628435L155.7108,37.72646769360563L155.719088,36.875880616163386L155.713168,40.43409979826944L160.548032,38.500459878961664L160.559872,45.47741878451984L160.56579200000002,49.663594127854765L160.55868800000002,48.10672790528429L165.393552,41.069751028884866L165.406576,47.018993474473774L165.411312,48.55425322754141L165.4048,49.47540907938196L170.242624,47.99381687620061L170.253872,47.1048615542918L170.260976,42.50291693257509L170.25328000000002,41.77603587383075L174.860816,41.339907238584175L175.10353600000002,47.18108720029335L175.107088,50.685795177318866L175.100576,48.72004853496276L179.70752,45.50631483526337L179.95024,35.44093175830088L179.955568,41.607416197837665L179.94787200000002,39.20444971870259L184.555408,39.796955545507274L184.79576,38.11817332730436L184.80168,43.21376113923978L184.79635199999998,42.202542397829575L189.405072,41.59581115298346L189.64246400000002,43.26605812036152L189.65016,34.09677772935976L189.643648,38.766638066187284L194.254144,37.499982839712374L194.488576,42.84284684668455L194.496272,41.97999382229645L194.49153600000002,43.496567721949305L199.10144,44.40651206174101L199.10795199999998,34.781050094187464L199.11032,43.245772913655344L199.344752,34.08460660533606L203.950512,38.75933539177305L203.954656,37.495601235063816L203.956432,44.87450359818115L204.193824,45.23327358748011L208.797808,41.37996415248807L208.803728,41.10226420577857L208.80432000000002,42.96992995203857L209.042896,46.12481511408029L213.64687999999998,43.94917478273388L213.649248,44.67807629821178L213.64984,49.18398863606993L213.888416,41.71610746735624L218.494176,33.166807337556605L218.495952,34.140084402533944L218.49832,34.724050641520364L218.737488,47.2801446706265L223.34147199999998,44.642372516661624L223.34147199999998,47.12828065285413L223.35864,50.65411124885533L223.347392,44.63246674931321L228.18936,43.05376576387363L228.191136,38.03797374403848L228.20830400000003,37.062784246423064L228.19528,40.54624197642528L233.03784000000002,42.63631661442659L233.03784000000002,43.890361397227394L233.054416,36.50564540976498L233.044944,38.17767296014472L237.883952,37.146603776086835L237.88632,40.596533694223524L237.90408000000002,38.597920216534106L237.89224000000002,41.4673235584919L242.729472,43.18896556366656L242.733616,44.22195076677136L242.75196799999998,48.91031331720566L242.738352,49.68904513318054L247.576176,50.15628422276548L247.581504,50.43662767651645L247.599856,52.63911946305274L247.58683200000002,53.96061453497448L252.42584000000002,50.68494014955614L252.431168,50.75382123259084L252.447744,50.795149882411636L252.434128,52.85423278658985L257.271952,52.05539681481105L257.279648,51.57609523174378L257.297408,51.28851428190342L257.279648,45.01310856914205L262.11984,49.38500799862808L262.128128,47.93957622774826L262.144112,40.96946002236325L262.129312,46.95881887056083" style="fill: none;" fill="none"></path></g></g></g></g><g opacity="0.2"><g><g><g><path stroke="rgb(238, 51, 119)" stroke-width="2px" d="M34.523664000000004,152.57142857142858L34.524848,152.57142857142858L34.523072,152.57142857142858L34.523072,152.57142857142858L39.369776,152.57142857142858L39.374512,152.57142857142858L39.370368,152.57142857142858L39.370368,152.57142857142858L44.217664,152.57142857142858L44.2224,152.57142857142858L44.21944,152.57142857142858L44.220031999999996,152.57142857142858L49.06318400000001,152.57142857142858L49.06792,152.57142857142858L49.065552,152.57142857142858L49.066736,152.57142857142858L53.909296000000005,152.57142857142858L53.914032,152.57142857142858L53.912848,152.57142857142858L53.914032,152.57142857142858L58.754816000000005,152.57142857142858L58.762512,152.57142857142858L58.761328,152.57142857142858L58.760736,152.57142857142858L63.600928,152.57142857142858L63.610992,152.57142857142858L63.609808,152.57142857142858L63.608032,152.57142857142858L68.446448,137.31428571428572L68.457696,142.4L68.456512,142.4L68.457104,142.4L73.29611200000001,66.11428571428571L73.303808,66.11428571428571L73.302624,55.942857142857136L73.303216,71.2L78.144592,45.77142857142857L78.149328,45.77142857142857L78.151696,55.942857142857136L78.15051199999999,30.514285714285705L82.991888,35.599999999999994L82.996624,30.514285714285705L82.999584,35.599999999999994L82.99839999999999,40.68571428571428L87.83800000000001,45.77142857142857L87.84392,45.77142857142857L87.848656,40.68571428571428L87.84510399999999,35.599999999999994L92.68529600000001,45.77142857142857L92.693584,30.514285714285705L92.69536,55.942857142857136L92.69299199999999,45.77142857142857L97.533184,50.85714285714286L97.539104,55.942857142857136L97.545024,40.68571428571428L97.54088,45.77142857142857L102.38048,45.77142857142857L102.388768,35.599999999999994L102.391136,10.171428571428578L102.3864,45.77142857142857L107.22718400000001,45.77142857142857L107.237248,55.942857142857136L107.239616,55.942857142857136L107.233696,25.428571428571445L112.075664,55.942857142857136L112.083952,40.68571428571428L112.08928,50.85714285714286L112.079808,45.77142857142857L116.92118400000001,45.77142857142857L116.930656,35.599999999999994L116.936576,45.77142857142857L116.927696,50.85714285714286L121.766704,40.68571428571428L121.78032,50.85714285714286L121.78564800000001,40.68571428571428L121.77617599999999,40.68571428571428L126.61577600000001,20.342857142857156L126.627024,15.257142857142867L126.63471999999999,50.85714285714286L126.624656,45.77142857142857L131.46188800000002,20.342857142857156L131.472544,40.68571428571428L131.484384,50.85714285714286L131.47432,50.85714285714286L136.311552,35.599999999999994L136.321616,35.599999999999994L136.33049599999998,35.599999999999994L136.3228,40.68571428571428L141.158256,35.599999999999994L141.167728,50.85714285714286L141.176608,20.342857142857156L141.171872,40.68571428571428L146.006144,45.77142857142857L146.016208,35.599999999999994L146.02272,45.77142857142857L146.017392,50.85714285714286L150.85284800000002,30.514285714285705L150.861728,35.599999999999994L150.87001600000002,30.514285714285705L150.864688,45.77142857142857L155.701328,55.942857142857136L155.7108,25.428571428571445L155.719088,35.599999999999994L155.713168,45.77142857142857L160.548032,35.599999999999994L160.559872,55.942857142857136L160.56579200000002,55.942857142857136L160.55868800000002,45.77142857142857L165.393552,30.514285714285705L165.406576,55.942857142857136L165.411312,50.85714285714286L165.4048,50.85714285714286L170.242624,45.77142857142857L170.253872,45.77142857142857L170.260976,35.599999999999994L170.25328000000002,40.68571428571428L174.860816,40.68571428571428L175.10353600000002,55.942857142857136L175.107088,55.942857142857136L175.100576,45.77142857142857L179.70752,40.68571428571428L179.95024,20.342857142857156L179.955568,50.85714285714286L179.94787200000002,35.599999999999994L184.555408,40.68571428571428L184.79576,35.599999999999994L184.80168,50.85714285714286L184.79635199999998,40.68571428571428L189.405072,40.68571428571428L189.64246400000002,45.77142857142857L189.65016,20.342857142857156L189.643648,45.77142857142857L194.254144,35.599999999999994L194.488576,50.85714285714286L194.496272,40.68571428571428L194.49153600000002,45.77142857142857L199.10144,45.77142857142857L199.10795199999998,20.342857142857156L199.11032,55.942857142857136L199.344752,20.342857142857156L203.950512,45.77142857142857L203.954656,35.599999999999994L203.956432,55.942857142857136L204.193824,45.77142857142857L208.797808,35.599999999999994L208.803728,40.68571428571428L208.80432000000002,45.77142857142857L209.042896,50.85714285714286L213.64687999999998,40.68571428571428L213.649248,45.77142857142857L213.64984,55.942857142857136L213.888416,30.514285714285705L218.494176,20.342857142857156L218.495952,35.599999999999994L218.49832,35.599999999999994L218.737488,66.11428571428571L223.34147199999998,40.68571428571428L223.34147199999998,50.85714285714286L223.35864,55.942857142857136L223.347392,35.599999999999994L228.18936,40.68571428571428L228.191136,30.514285714285705L228.20830400000003,35.599999999999994L228.19528,45.77142857142857L233.03784000000002,45.77142857142857L233.03784000000002,45.77142857142857L233.054416,25.428571428571445L233.044944,40.68571428571428L237.883952,35.599999999999994L237.88632,45.77142857142857L237.90408000000002,35.599999999999994L237.89224000000002,45.77142857142857L242.729472,45.77142857142857L242.733616,45.77142857142857L242.75196799999998,55.942857142857136L242.738352,50.85714285714286L247.576176,50.85714285714286L247.581504,50.85714285714286L247.599856,55.942857142857136L247.58683200000002,55.942857142857136L252.42584000000002,45.77142857142857L252.431168,50.85714285714286L252.447744,50.85714285714286L252.434128,55.942857142857136L257.271952,50.85714285714286L257.279648,50.85714285714286L257.297408,50.85714285714286L257.279648,35.599999999999994L262.11984,55.942857142857136L262.128128,45.77142857142857L262.144112,30.514285714285705L262.129312,55.942857142857136" style="fill: none;" fill="none"></path></g></g></g></g></g></g><g transform="translate(34, 178)" clip-path="url(#clip_1)"><clipPath id="clip_1"><rect width="296" height="22"></rect></clipPath><g><g><line x1="0" y1="0" x2="0" y2="5" style="visibility: inherit;" fill="rgb(0, 0, 0)" stroke="rgb(204, 204, 204)" stroke-width="1px"></line><line x1="29.6" y1="0" x2="29.6" y2="5" style="visibility: inherit;" fill="rgb(0, 0, 0)" stroke="rgb(204, 204, 204)" stroke-width="1px"></line><line x1="59.2" y1="0" x2="59.2" y2="5" style="visibility: inherit;" fill="rgb(0, 0, 0)" stroke="rgb(204, 204, 204)" stroke-width="1px"></line><line x1="88.8" y1="0" x2="88.8" y2="5" style="visibility: inherit;" fill="rgb(0, 0, 0)" stroke="rgb(204, 204, 204)" stroke-width="1px"></line><line x1="118.4" y1="0" x2="118.4" y2="5" style="visibility: inherit;" fill="rgb(0, 0, 0)" stroke="rgb(204, 204, 204)" stroke-width="1px"></line><line x1="148" y1="0" x2="148" y2="5" style="visibility: inherit;" fill="rgb(0, 0, 0)" stroke="rgb(204, 204, 204)" stroke-width="1px"></line><line x1="177.6" y1="0" x2="177.6" y2="5" style="visibility: inherit;" fill="rgb(0, 0, 0)" stroke="rgb(204, 204, 204)" stroke-width="1px"></line><line x1="207.2" y1="0" x2="207.2" y2="5" style="visibility: inherit;" fill="rgb(0, 0, 0)" stroke="rgb(204, 204, 204)" stroke-width="1px"></line><line x1="236.8" y1="0" x2="236.8" y2="5" style="visibility: inherit;" fill="rgb(0, 0, 0)" stroke="rgb(204, 204, 204)" stroke-width="1px"></line><line x1="266.40000000000003" y1="0" x2="266.40000000000003" y2="5" style="visibility: inherit;" fill="rgb(0, 0, 0)" stroke="rgb(204, 204, 204)" stroke-width="1px"></line><line x1="296" y1="0" x2="296" y2="5" style="visibility: inherit;" fill="rgb(0, 0, 0)" stroke="rgb(204, 204, 204)" stroke-width="1px"></line></g><g transform="translate(0, 8)"><text x="0" y="0" dx="0em" dy="0.95em" style="text-anchor: middle; visibility: hidden; font-family: &quot;Helvetica Neue&quot;, sans-serif; font-size: 12px; font-weight: 200;" fill="rgb(50, 49, 63)" stroke="none" stroke-width="1px">-50k</text><text x="29.6" y="0" dx="0em" dy="0.95em" style="text-anchor: middle; visibility: inherit; font-family: &quot;Helvetica Neue&quot;, sans-serif; font-size: 12px; font-weight: 200;" fill="rgb(50, 49, 63)" stroke="none" stroke-width="1px">0</text><text x="59.2" y="0" dx="0em" dy="0.95em" style="text-anchor: middle; visibility: hidden; font-family: &quot;Helvetica Neue&quot;, sans-serif; font-size: 12px; font-weight: 200;" fill="rgb(50, 49, 63)" stroke="none" stroke-width="1px">50k</text><text x="88.8" y="0" dx="0em" dy="0.95em" style="text-anchor: middle; visibility: inherit; font-family: &quot;Helvetica Neue&quot;, sans-serif; font-size: 12px; font-weight: 200;" fill="rgb(50, 49, 63)" stroke="none" stroke-width="1px">100k</text><text x="118.4" y="0" dx="0em" dy="0.95em" style="text-anchor: middle; visibility: hidden; font-family: &quot;Helvetica Neue&quot;, sans-serif; font-size: 12px; font-weight: 200;" fill="rgb(50, 49, 63)" stroke="none" stroke-width="1px">150k</text><text x="148" y="0" dx="0em" dy="0.95em" style="text-anchor: middle; visibility: inherit; font-family: &quot;Helvetica Neue&quot;, sans-serif; font-size: 12px; font-weight: 200;" fill="rgb(50, 49, 63)" stroke="none" stroke-width="1px">200k</text><text x="177.6" y="0" dx="0em" dy="0.95em" style="text-anchor: middle; visibility: hidden; font-family: &quot;Helvetica Neue&quot;, sans-serif; font-size: 12px; font-weight: 200;" fill="rgb(50, 49, 63)" stroke="none" stroke-width="1px">250k</text><text x="207.2" y="0" dx="0em" dy="0.95em" style="text-anchor: middle; visibility: inherit; font-family: &quot;Helvetica Neue&quot;, sans-serif; font-size: 12px; font-weight: 200;" fill="rgb(50, 49, 63)" stroke="none" stroke-width="1px">300k</text><text x="236.8" y="0" dx="0em" dy="0.95em" style="text-anchor: middle; visibility: hidden; font-family: &quot;Helvetica Neue&quot;, sans-serif; font-size: 12px; font-weight: 200;" fill="rgb(50, 49, 63)" stroke="none" stroke-width="1px">350k</text><text x="266.40000000000003" y="0" dx="0em" dy="0.95em" style="text-anchor: middle; visibility: inherit; font-family: &quot;Helvetica Neue&quot;, sans-serif; font-size: 12px; font-weight: 200;" fill="rgb(50, 49, 63)" stroke="none" stroke-width="1px">400k</text><text x="296" y="0" dx="0em" dy="0.95em" style="text-anchor: middle; visibility: hidden; font-family: &quot;Helvetica Neue&quot;, sans-serif; font-size: 12px; font-weight: 200;" fill="rgb(50, 49, 63)" stroke="none" stroke-width="1px">450k</text></g><line x1="0" y1="0" x2="296" y2="0" fill="rgb(0, 0, 0)" stroke="rgb(204, 204, 204)" stroke-width="1px"></line></g></g></g></g></svg>