<svg viewBox="0 0 330 200" xmlns="http://www.w3.org/2000/svg"><g><g><g><g><g><line x1="34" y1="178" x2="29" y2="178" style="visibility: inherit;" fill="rgb(0, 0, 0)" stroke="rgb(204, 204, 204)" stroke-width="1px"></line><line x1="34" y1="152.57142857142858" x2="29" y2="152.57142857142858" style="visibility: inherit;" fill="rgb(0, 0, 0)" stroke="rgb(204, 204, 204)" stroke-width="1px"></line><line x1="34" y1="127.14285714285714" x2="29" y2="127.14285714285714" style="visibility: inherit;" fill="rgb(0, 0, 0)" stroke="rgb(204, 204, 204)" stroke-width="1px"></line><line x1="34" y1="101.71428571428572" x2="29" y2="101.71428571428572" style="visibility: inherit;" fill="rgb(0, 0, 0)" stroke="rgb(204, 204, 204)" stroke-width="1px"></line><line x1="34" y1="76.28571428571429" x2="29" y2="76.28571428571429" style="visibility: inherit;" fill="rgb(0, 0, 0)" stroke="rgb(204, 204, 204)" stroke-width="1px"></line><line x1="34" y1="50.85714285714286" x2="29" y2="50.85714285714286" style="visibility: inherit;" fill="rgb(0, 0, 0)" stroke="rgb(204, 204, 204)" stroke-width="1px"></line><line x1="34" y1="25.428571428571445" x2="29" y2="25.428571428571445" style="visibility: inherit;" fill="rgb(0, 0, 0)" stroke="rgb(204, 204, 204)" stroke-width="1px"></line><line x1="34" y1="0" x2="29" y2="0" style="visibility: inherit;" fill="rgb(0, 0, 0)" stroke="rgb(204, 204, 204)" stroke-width="1px"></line></g><g transform="translate(24, 0)"><text x="0" y="178" dx="0em" dy="0.3em" style="text-anchor: end; visibility: hidden; font-family: &quot;Helvetica Neue&quot;, sans-serif; font-size: 12px; font-weight: 200;" fill="rgb(50, 49, 63)" stroke="none" stroke-width="1px">-5</text><text x="0" y="152.57142857142858" dx="0em" dy="0.3em" style="text-anchor: end; visibility: inherit; font-family: &quot;Helvetica Neue&quot;, sans-serif; font-size: 12px; font-weight: 200;" fill="rgb(50, 49, 63)" stroke="none" stroke-width="1px">0</text><text x="0" y="127.14285714285714" dx="0em" dy="0.3em" style="text-anchor: end; visibility: inherit; font-family: &quot;Helvetica Neue&quot;, sans-serif; font-size: 12px; font-weight: 200;" fill="rgb(50, 49, 63)" stroke="none" stroke-width="1px">5</text><text x="0" y="101.71428571428572" dx="0em" dy="0.3em" style="text-anchor: end; visibility: inherit; font-family: &quot;Helvetica Neue&quot;, sans-serif; font-size: 12px; font-weight: 200;" fill="rgb(50, 49, 63)" stroke="none" stroke-width="1px">10</text><text x="0" y="76.28571428571429" dx="0em" dy="0.3em" style="text-anchor: end; visibility: inherit; font-family: &quot;Helvetica Neue&quot;, sans-serif; font-size: 12px; font-weight: 200;" fill="rgb(50, 49, 63)" stroke="none" stroke-width="1px">15</text><text x="0" y="50.85714285714286" dx="0em" dy="0.3em" style="text-anchor: end; visibility: inherit; font-family: &quot;Helvetica Neue&quot;, sans-serif; font-size: 12px; font-weight: 200;" fill="rgb(50, 49, 63)" stroke="none" stroke-width="1px">20</text><text x="0" y="25.428571428571445" dx="0em" dy="0.3em" style="text-anchor: end; visibility: inherit; font-family: &quot;Helvetica Neue&quot;, sans-serif; font-size: 12px; font-weight: 200;" fill="rgb(50, 49, 63)" stroke="none" stroke-width="1px">25</text><text x="0" y="0" dx="0em" dy="0.3em" style="text-anchor: end; visibility: hidden; font-family: &quot;Helvetica Neue&quot;, sans-serif; font-size: 12px; font-weight: 200;" fill="rgb(50, 49, 63)" stroke="none" stroke-width="1px">30</text></g><line x1="34" y1="0" x2="34" y2="178" fill="rgb(0, 0, 0)" stroke="rgb(204, 204, 204)" stroke-width="1px"></line></g></g><g transform="translate(34, 0)" clip-path="url(#clip_0)"><clipPath id="clip_0"><rect width="296" height="178"></rect></clipPath><g><g><g><line x1="0" y1="0" x2="0" y2="178" fill="rgb(0, 0, 0)" stroke="rgb(60, 60, 60)" stroke-width="1px" opacity="0.25"></line><line x1="29.6" y1="0" x2="29.6" y2="178" fill="rgb(0, 0, 0)" stroke="rgb(60, 60, 60)" stroke-width="1px" opacity="0.25"></line><line x1="59.2" y1="0" x2="59.2" y2="178" fill="rgb(0, 0, 0)" stroke="rgb(60, 60, 60)" stroke-width="1px" opacity="0.25"></line><line x1="88.8" y1="0" x2="88.8" y2="178" fill="rgb(0, 0, 0)" stroke="rgb(60, 60, 60)" stroke-width="1px" opacity="0.25"></line><line x1="118.4" y1="0" x2="118.4" y2="178" fill="rgb(0, 0, 0)" stroke="rgb(60, 60, 60)" stroke-width="1px" opacity="0.25"></line><line x1="148" y1="0" x2="148" y2="178" fill="rgb(0, 0, 0)" stroke="rgb(60, 60, 60)" stroke-width="1px" opacity="0.25"></line><line x1="177.6" y1="0" x2="177.6" y2="178" fill="rgb(0, 0, 0)" stroke="rgb(60, 60, 60)" stroke-width="1px" opacity="0.25"></line><line x1="207.2" y1="0" x2="207.2" y2="178" fill="rgb(0, 0, 0)" stroke="rgb(60, 60, 60)" stroke-width="1px" opacity="0.25"></line><line x1="236.8" y1="0" x2="236.8" y2="178" fill="rgb(0, 0, 0)" stroke="rgb(60, 60, 60)" stroke-width="1px" opacity="0.25"></line><line x1="266.40000000000003" y1="0" x2="266.40000000000003" y2="178" fill="rgb(0, 0, 0)" stroke="rgb(60, 60, 60)" stroke-width="1px" opacity="0.25"></line><line x1="296" y1="0" x2="296" y2="178" fill="rgb(0, 0, 0)" stroke="rgb(60, 60, 60)" stroke-width="1px" opacity="0.25"></line></g><g><line x1="0" y1="178" x2="296" y2="178" fill="rgb(0, 0, 0)" stroke="rgb(60, 60, 60)" stroke-width="1px" opacity="0.25"></line><line x1="0" y1="152.57142857142858" x2="296" y2="152.57142857142858" fill="rgb(0, 0, 0)" stroke="rgb(60, 60, 60)" stroke-width="1px" opacity="0.25"></line><line x1="0" y1="127.14285714285714" x2="296" y2="127.14285714285714" fill="rgb(0, 0, 0)" stroke="rgb(60, 60, 60)" stroke-width="1px" opacity="0.25"></line><line x1="0" y1="101.71428571428572" x2="296" y2="101.71428571428572" fill="rgb(0, 0, 0)" stroke="rgb(60, 60, 60)" stroke-width="1px" opacity="0.25"></line><line x1="0" y1="76.28571428571429" x2="296" y2="76.28571428571429" fill="rgb(0, 0, 0)" stroke="rgb(60, 60, 60)" stroke-width="1px" opacity="0.25"></line><line x1="0" y1="50.85714285714286" x2="296" y2="50.85714285714286" fill="rgb(0, 0, 0)" stroke="rgb(60, 60, 60)" stroke-width="1px" opacity="0.25"></line><line x1="0" y1="25.428571428571445" x2="296" y2="25.428571428571445" fill="rgb(0, 0, 0)" stroke="rgb(60, 60, 60)" stroke-width="1px" opacity="0.25"></line><line x1="0" y1="0" x2="296" y2="0" fill="rgb(0, 0, 0)" stroke="rgb(60, 60, 60)" stroke-width="1px" opacity="0.25"></line></g></g></g><g><g><line x1="0" y1="152.57142857142858" x2="296" y2="152.57142857142858" fill="rgb(0, 0, 0)" stroke="rgb(153, 153, 153)" stroke-width="1.5px"></line></g></g><g><g><line x1="29.6" y1="0" x2="29.6" y2="178" fill="rgb(0, 0, 0)" stroke="rgb(153, 153, 153)" stroke-width="1.5px"></line></g></g><g><g><g><g><g><path stroke="rgb(51, 187, 238)" stroke-width="2px" d="M34.523664000000004,152.57142857142858L34.524848,152.57142857142858L34.523072,152.57142857142858L34.523072,152.57142857142858L39.369776,152.57142857142858L39.374512,152.57142857142858L39.370368,152.57142857142858L39.370368,152.57142857142858L44.217664,152.57142857142858L44.2224,152.57142857142858L44.21944,152.57142857142858L44.220031999999996,152.57142857142858L49.06318400000001,152.57142857142858L49.06792,152.57142857142858L49.065552,152.57142857142858L49.066736,152.57142857142858L53.909296000000005,152.57142857142858L53.914032,152.57142857142858L53.912848,152.57142857142858L53.914032,152.57142857142858L58.754816000000005,152.57142857142858L58.762512,152.57142857142858L58.761328,152.57142857142858L58.760736,152.57142857142858L63.600928,152.57142857142858L63.610992,152.57142857142858L63.609808,152.57142857142858L63.608032,152.57142857142858L68.446448,152.57142857142858L68.457696,152.57142857142858L68.456512,152.57142857142858L68.457104,152.57142857142858L73.29611200000001,152.57142857142858L73.303808,152.57142857142858L73.302624,152.57142857142858L73.303216,152.57142857142858L78.144592,152.57142857142858L78.149328,152.57142857142858L78.151696,152.57142857142858L78.15051199999999,152.57142857142858L82.991888,152.57142857142858L82.996624,152.57142857142858L82.999584,152.57142857142858L82.99839999999999,152.57142857142858L87.83800000000001,152.57142857142858L87.84392,152.57142857142858L87.848656,150.53714285706673L87.84510399999999,151.35085714282974L92.68529600000001,151.83908571427585L92.693584,152.1320228571393L92.69536,152.30778514285586L92.69299199999999,152.41324251428526L97.533184,152.4765169371427L97.539104,152.5144815908571L97.545024,152.5372603830857L97.54088,152.55092765842284L102.38048,152.55912802362514L102.388768,152.5640482427465L102.391136,152.56700037421933L102.3864,152.56877165310303L107.22718400000001,152.56983442043324L107.237248,152.57047208083137L107.239616,152.57085467707026L107.233696,152.57108423481358L112.075664,152.57122196945957L112.083952,152.57130461024718L112.08928,152.57135419471973L112.079808,152.57138394540328L116.92118400000001,152.5714017958134L116.930656,150.53712679177374L116.936576,151.3508475036357L116.927696,151.83907993075283L121.766704,152.13201938702312L121.78032,152.3077830607853L121.78564800000001,152.41324126504261L121.77617599999999,152.47651618759699L126.61577600000001,152.51448114112964L126.627024,152.5372601132492L126.63471999999999,152.55092749652096L126.624656,152.559127926484L131.46188800000002,152.56404818446183L131.472544,150.5327146249628L131.484384,149.3139144892634L131.47432,150.61692012212947L136.311552,151.3987235018491L136.321616,151.86780552968088L136.33049599999998,152.14925474637997L136.3228,152.3181242763994L141.158256,152.41944599441106L141.167728,152.48023902521805L141.176608,150.48242912941654L141.171872,151.31802890622137L146.006144,151.81938877230425L146.016208,152.12020469195397L146.02272,152.3006942437438L146.017392,152.4089879748177L150.85284800000002,152.47396421346207L150.861728,150.47866424236295L150.87001600000002,151.3157699739892L150.864688,151.81803341296495L155.701328,150.08510576206467L155.7108,151.07963488581024L155.719088,151.67635236005756L155.713168,150.00009713032026L160.548032,151.02862970676358L160.559872,151.64574925262957L160.56579200000002,149.98173526586345L160.55868800000002,148.9833268738038L165.393552,123.97285326713941L165.406576,100.82942624599794L165.411312,86.94337003331304L165.4048,80.64602201998783L170.242624,62.62761321199268L170.253872,53.85085364148132L170.260976,50.61908361346022L170.25328000000002,48.68002159664755L174.860816,47.51658438655997L175.10353600000002,48.85280777479312L175.107088,43.551684664875864L175.100576,44.43958222749697L179.70752,42.93803505078387L179.95024,44.07139245904176L179.955568,42.71712118971078L179.94787200000002,41.90455842811218L184.555408,47.51987791401018L184.79576,50.88906960554897L184.80168,46.80772747761509L184.79635199999998,44.35892220085475L189.405072,36.786781891941416L189.64246400000002,42.414926278021994L189.65016,41.72324148109891L189.643648,47.411087745802206L194.254144,46.75522407605274L194.488576,48.39599158848881L194.496272,41.24330923880757L194.49153600000002,47.12312840042739L199.10144,50.651019897399294L199.10795199999998,46.6648976527253L199.11032,50.37608144877804L199.344752,44.46564886926683L203.950512,47.022246464417236L203.954656,42.453347878650334L203.956432,47.84915158433304L204.193824,49.05234809345697L208.797808,43.67140885607418L208.803728,44.51141674221594L208.80432000000002,40.94685004532957L209.042896,44.9109671700549L213.64687999999998,47.28943744489007L213.649248,44.64794818121979L213.64984,45.09734033730331L213.888416,45.36697563095339L218.494176,41.46018537857205L218.495952,35.04753979857179L218.49832,41.37138102200021L218.737488,45.165685756057286L223.34147199999998,45.4079828822058L223.34147199999998,45.553361157894926L223.35864,43.606302409022675L223.347392,46.50663858827076L228.18936,48.246840295819595L228.191136,49.29096132034891L228.20830400000003,47.88314822078078L228.19528,45.004174646754166L233.03784000000002,47.34536193090963L233.03784000000002,38.57864572997437L233.054416,39.42147315227032L233.044944,41.961455319933606L237.883952,47.55401604910304L237.88632,48.87526677231898L237.90408000000002,51.70230292053425L237.89224000000002,49.32995318089198L242.729472,47.906543337106626L242.733616,42.983926002263956L242.75196799999998,40.030355601358366L242.738352,42.32678478938644L247.576176,39.636070873631866L247.581504,42.09021395275056L247.599856,47.63127122879317L247.58683200000002,40.78447702299016L252.42584000000002,42.779257642365536L252.431168,46.010411728276466L252.447744,45.91481846553731L252.434128,49.926033936465245L257.271952,48.26419179045058L257.279648,49.30137221712749L257.297408,49.92368047313366L257.279648,38.09135114102304L262.11984,37.09481068461383L262.128128,36.4968864107683L262.144112,44.27527470360383L262.129312,44.873736250733714" style="fill: none;" fill="none"></path></g><g><path stroke="rgb(238, 51, 119)" stroke-width="2px" d="M34.523664000000004,152.57142857142858L34.524848,152.57142857142858L34.523072,152.57142857142858L34.523072,152.57142857142858L39.369776,152.57142857142858L39.374512,152.57142857142858L39.370368,152.57142857142858L39.370368,152.57142857142858L44.217664,152.57142857142858L44.2224,152.57142857142858L44.21944,152.57142857142858L44.220031999999996,152.57142857142858L49.06318400000001,152.57142857142858L49.06792,152.57142857142858L49.065552,152.57142857142858L49.066736,152.57142857142858L53.909296000000005,152.57142857142858L53.914032,152.57142857142858L53.912848,152.57142857142858L53.914032,152.57142857142858L58.754816000000005,152.57142857142858L58.762512,152.57142857142858L58.761328,152.57142857142858L58.760736,152.57142857142858L63.600928,152.57142857142858L63.610992,152.57142857142858L63.609808,152.57142857142858L63.608032,152.57142857142858L68.446448,146.468569179933L68.457696,144.8411411481779L68.456512,143.8646845593853L68.457104,143.27881068900348L73.29611200000001,112.41299922521316L73.303808,93.89351329023707L73.302624,78.71325057032561L73.303216,75.70795031119741L78.144592,63.73334154118315L78.149328,56.5485763266029L78.151696,56.30628865256479L78.15051199999999,45.98948746346218L82.991888,41.83369247474414L82.996624,37.3059297683819L82.999584,36.62355786083211L82.99839999999999,38.24842043106645L87.83800000000001,41.2576236875241L87.84392,43.0631456411985L87.848656,42.11217309896921L87.84510399999999,39.50730385932303L92.68529600000001,42.012953744199024L92.693584,37.41348653219649L92.69536,44.8252347764967L92.69299199999999,45.20371229447056L97.533184,47.46508451954344L97.539104,50.85619356887247L97.545024,46.78800185560664L97.54088,46.381372541935264L102.38048,46.13739495373255L102.388768,41.92243697223893L102.391136,29.22203361191376L102.3864,35.84179159572L107.22718400000001,39.81364638600357L107.237248,46.26533068874514L107.239616,50.13634127038996L107.233696,40.25323333366251L112.075664,46.52908285734037L112.083952,44.191735428689924L112.08928,46.85789840007109L112.079808,46.42331046861409L116.92118400000001,46.16255770973987L116.930656,41.93753462584391L116.936576,43.47109220407776L116.927696,46.4255124653038L121.766704,44.129593193468L121.78032,46.820613058937965L121.78564800000001,44.366653549648476L121.77617599999999,42.89427784407479L126.61577600000001,33.87370956358774L126.627024,26.427082881009795L126.63471999999999,36.199106871463016L126.624656,40.02803555144925L131.46188800000002,32.153964188012395L131.472544,35.566664227093156L131.484384,41.68285567911303L131.47432,45.35257055032494L136.311552,41.45154233019497L136.321616,39.11092539811699L136.33049599999998,37.70655523887018L136.3228,38.898218857607816L141.158256,37.57893131456467L141.167728,42.89021593159595L141.176608,33.871272416100425L141.171872,36.59704916394597L146.006144,40.26680092693903L146.016208,38.4000805561634L146.02272,41.348619762269465L146.017392,45.15202900021882L150.85284800000002,39.29693168584558L150.861728,37.81815901150736L150.87001600000002,34.89660969261868L150.864688,39.246537244142644L155.701328,45.925065203628435L155.7108,37.72646769360563L155.719088,36.875880616163386L155.713168,40.43409979826944L160.548032,38.500459878961664L160.559872,45.47741878451984L160.56579200000002,49.663594127854765L160.55868800000002,48.10672790528429L165.393552,41.069751028884866L165.406576,47.018993474473774L165.411312,48.55425322754141L165.4048,49.47540907938196L170.242624,47.99381687620061L170.253872,47.1048615542918L170.260976,42.50291693257509L170.25328000000002,41.77603587383075L174.860816,41.339907238584175L175.10353600000002,47.18108720029335L175.107088,50.685795177318866L175.100576,48.72004853496276L179.70752,45.50631483526337L179.95024,35.44093175830088L179.955568,41.607416197837665L179.94787200000002,39.20444971870259L184.555408,39.796955545507274L184.79576,38.11817332730436L184.80168,43.21376113923978L184.79635199999998,42.202542397829575L189.405072,41.59581115298346L189.64246400000002,43.26605812036152L189.65016,34.09677772935976L189.643648,38.766638066187284L194.254144,37.499982839712374L194.488576,42.84284684668455L194.496272,41.97999382229645L194.49153600000002,43.496567721949305L199.10144,44.40651206174101L199.10795199999998,34.781050094187464L199.11032,43.245772913655344L199.344752,34.08460660533606L203.950512,38.75933539177305L203.954656,37.495601235063816L203.956432,44.87450359818115L204.193824,45.23327358748011L208.797808,41.37996415248807L208.803728,41.10226420577857L208.80432000000002,42.96992995203857L209.042896,46.12481511408029L213.64687999999998,43.94917478273388L213.649248,44.67807629821178L213.64984,49.18398863606993L213.888416,41.71610746735624L218.494176,33.166807337556605L218.495952,34.140084402533944L218.49832,34.724050641520364L218.737488,47.2801446706265L223.34147199999998,44.642372516661624L223.34147199999998,47.12828065285413L223.35864,50.65411124885533L223.347392,44.63246674931321L228.18936,43.05376576387363L228.191136,38.03797374403848L228.20830400000003,37.062784246423064L228.19528,40.54624197642528L233.03784000000002,42.63631661442659L233.03784000000002,43.890361397227394L233.054416,36.50564540976498L233.044944,38.17767296014472L237.883952,37.146603776086835L237.88632,40.596533694223524L237.90408000000002,38.597920216534106L237.89224000000002,41.4673235584919L242.729472,43.18896556366656L242.733616,44.22195076677136L242.75196799999998,48.91031331720566L242.738352,49.68904513318054L247.576176,50.15628422276548L247.581504,50.43662767651645L247.599856,52.63911946305274L247.58683200000002,53.96061453497448L252.42584000000002,50.68494014955614L252.431168,50.75382123259084L252.447744,50.795149882411636L252.434128,52.85423278658985L257.271952,52.05539681481105L257.279648,51.57609523174378L257.297408,51.28851428190342L257.279648,45.01310856914205L262.11984,49.38500799862808L262.128128,47.93957622774826L262.144112,40.96946002236325L262.129312,46.95881887056083" style="fill: none;" fill="none"></path></g><g><path stroke="rgb(0, 119, 187)" stroke-width="2px" d="M34.523664000000004,152.57142857142858L34.524848,152.57142857142858L34.523072,152.57142857142858L34.523072,152.57142857142858L39.369776,117.2784772479429L39.374512,93.67738223108793L39.370368,84.42749160029048L39.370368,76.97707078582141L44.217664,68.47773157183629L44.2224,65.47994102142711L44.21944,57.56783113970937L44.220031999999996,52.83897642498452L49.06318400000001,45.93436795714081L49.06792,43.83325997286158L49.065552,38.50316413840352L49.066736,43.446150096565134L53.909296000000005,46.41104905914651L53.914032,50.22415955196719L53.912848,48.44295862053809L53.914032,49.40866762303119L58.754816000000005,47.95374008571659L58.762512,43.01217900976107L58.761328,33.944378651839514L58.760736,38.67522103621042L63.600928,41.51371212020956L63.610992,35.079644868211204L63.609808,33.25349933759864L63.608032,34.19210017894855L68.446448,34.75526031486916L68.457696,39.16172859164814L68.456512,37.73703696601157L68.457104,36.88222211157512L73.29611200000001,36.36933324245362L73.303808,40.130171481796054L73.302624,36.28381710867035L73.303216,42.11314746818556L78.144592,41.54217419166349L78.149328,41.199590228011715L78.151696,38.95975413181688L78.15051199999999,37.61585247729366L82.991888,32.74094005389483L82.996624,35.91884974815193L82.999584,33.75702413398122L82.99839999999999,40.59707162443087L87.83800000000001,40.63252868894793L87.84392,44.72237435648097L87.848656,45.14199604247568L87.84510399999999,47.428054768393906L92.68529600000001,44.731118575285734L92.693584,37.01009971653758L92.69536,40.514631258511L92.69299199999999,46.68592161226741L97.533184,48.35441011022047L97.539104,43.25264606612694L97.545024,44.26015906824824L97.54088,40.79609544094765L102.38048,40.75194297885429L102.388768,42.759737215884286L102.391136,39.895842329530325L102.3864,38.17750539771811L107.22718400000001,37.14650323863083L107.237248,38.56218765746425L107.239616,43.48016973733576L107.233696,46.4309589852586L112.075664,42.09857539115515L112.083952,43.56771666326452L112.08928,44.449201426530124L112.079808,49.04666371306095L116.92118400000001,45.70228394212228L116.930656,41.66137036527334L116.936576,41.27110793344971L116.927696,41.036950474355535L121.766704,38.86217028461331L121.78032,41.6258735993394L121.78564800000001,37.181238445317916L121.77617599999999,38.58302878147646L126.61577600000001,41.45838869745731L126.627024,37.08074750418868L126.63471999999999,36.488448502513194L126.624656,42.23592624436506L131.46188800000002,45.684412889476164L131.472544,47.75350487654285L131.484384,38.82353149735428L131.47432,37.53411889841257L136.311552,40.82904276761897L136.321616,42.80599708914281L136.33049599999998,48.060741110628555L136.3228,45.11073038066283L141.158256,39.27215251411201L141.167728,47.9747200798958L141.176608,40.990546333651736L141.171872,40.86861351447675L146.006144,38.761168108686064L146.016208,41.56527229378304L146.02272,39.179163376269855L146.017392,37.7474980257619L150.85284800000002,34.85421310117141L150.861728,41.25538500356001L150.87001600000002,41.0275167164217L150.864688,34.78793860128161L155.701328,41.21562030362608L155.7108,38.96937218217565L155.719088,33.55305188073399L155.713168,36.40611684272611L160.548032,34.049384391349946L160.559872,38.73820206338138L160.56579200000002,35.44863552374309L160.55868800000002,41.61203845710301L165.393552,47.34436593140467L165.406576,48.74947670169996L165.411312,47.55825744959142L165.4048,50.91209732689771L170.242624,50.89011553899577L170.253872,50.8769264662546L170.260976,40.69758445118134L170.25328000000002,38.65855067070882L174.860816,43.53798754528239L175.10353600000002,34.259935384312286L175.107088,36.83024694487307L175.100576,38.37243388120956L179.70752,39.29774604301147L179.95024,43.92150476866402L179.955568,48.73004571834127L179.94787200000002,41.443741716719046L184.555408,45.20910217288858L184.79576,45.43403273230456L184.80168,45.56899106795419L184.79635199999998,43.61568035505823L189.405072,52.615122498749216L189.64246400000002,51.91193064210668L189.65016,57.592872670978295L189.643648,54.89858074544411L194.254144,49.213434161552186L194.488576,49.870917639788445L194.496272,50.26540772673022L194.49153600000002,50.50210177889525L199.10144,46.575546781622876L199.10795199999998,44.21961378325946L199.11032,48.90891112709852L199.344752,47.65391810483055L203.950512,44.86663657718401L203.954656,41.15998194631044L203.956432,36.90170345350052L204.193824,38.41530778638602L208.797808,45.42632752897447L208.803728,47.59865366024184L208.80432000000002,38.7306207675737L209.042896,41.546943889115624L213.64687999999998,43.2367377620408L213.649248,38.1477569429388L213.64984,43.23151130862041L213.888416,46.28176392802939L218.494176,42.00905835681763L218.495952,47.58257787123344L218.49832,42.789546722740056L218.737488,41.948013747929735L223.34147199999998,47.54595110590071L223.34147199999998,42.767570663540425L223.35864,39.90054239812426L223.347392,44.28318258173172L228.18936,44.87848097761048L228.191136,45.23566001513771L228.20830400000003,47.484253151939754L228.19528,50.86769474830673L233.03784000000002,42.72633113469831L233.03784000000002,43.944370109390434L233.054416,42.640907779919985L233.044944,45.92740181080913L237.883952,37.727869657914056L237.88632,34.84243608046273L237.90408000000002,43.282604505420494L237.89224000000002,44.27813413182372L242.729472,38.77259476480853L242.733616,33.4349854303137L242.75196799999998,38.36956268675965L242.738352,41.33030904062721L247.576176,47.17532828151917L247.581504,46.61376839748294L247.599856,48.3111181813469L247.58683200000002,45.26095662309385L252.42584000000002,39.36228825957059L252.431168,43.96023009859951L252.447744,42.6504237734454L252.434128,47.9673971212101L257.271952,40.98615255844035L257.279648,44.934548677921356L257.297408,43.23501492103853L257.279648,42.21529466690882L262.11984,35.50060537157384L262.128128,33.50607750865859L262.144112,38.412217933766584L262.129312,37.28733076025995" style="fill: none;" fill="none"></path></g><g><path stroke="rgb(255, 112, 67)" stroke-width="2px" d="M34.523664000000004,152.57142857142858L34.524848,152.57142857142858L34.523072,152.57142857142858L34.523072,152.57142857142858L39.369776,152.57142857142858L39.374512,152.57142857142858L39.370368,152.57142857142858L39.370368,152.57142857142858L44.217664,152.57142857142858L44.2224,152.57142857142858L44.21944,152.57142857142858L44.220031999999996,152.57142857142858L49.06318400000001,119.98029085512253L49.06792,96.38110978352184L49.065552,88.33917038524687L49.066736,85.55128716722285L53.909296000000005,75.74054024004091L53.914032,59.68269330978613L53.912848,52.08343863217192L53.914032,53.62726248109196L58.754816000000005,48.450529641208135L58.762512,51.4475000885034L58.761328,49.17705355127097L58.760736,51.883387811549184L63.600928,49.438597164890695L63.610992,43.903148856471034L63.609808,42.616173710961675L63.608032,39.80970250313922L68.446448,42.19439380911007L68.457696,41.59092186633984L68.456512,43.263124770183595L68.457104,42.232160494344924L73.29611200000001,35.51072454707375L73.303808,33.51214895669699L73.302624,38.415860886887884L73.303216,35.25523078524694L78.144592,31.3245670182512L78.149328,39.137597382819166L78.151696,41.79112986417476L78.15051199999999,37.28039219818942L82.991888,40.67680675020918L82.996624,40.680369764412916L82.999584,42.71679328780718L82.99839999999999,43.93864740146739L87.83800000000001,44.671759869528074L87.84392,36.97448449266534L87.848656,40.49326212430233L87.84510399999999,42.60452870320023L92.68529600000001,43.87128865050863L92.693584,38.52848747597625L92.69536,41.425663914171224L92.69299199999999,43.16396977707922L97.533184,44.206953294820806L97.539104,44.832743405464555L97.545024,35.036788900415445L97.54088,41.36493048310879L102.38048,45.1618154327233L102.388768,47.439946402491415L102.391136,50.841110698637976L102.3864,48.813237847754124L107.22718400000001,45.56222842293806L107.237248,37.5087656251913L107.239616,38.77954508940053L107.233696,39.542012767925996L112.075664,44.06806480361277L112.083952,40.68083888216765L112.08928,36.614217615014866L112.079808,40.27710199758036L116.92118400000001,38.40626119854821L116.930656,43.38661386198606L116.936576,40.271968317191636L116.927696,44.506038133172126L121.766704,38.90933716561756L121.78032,39.61988801365624L121.78564800000001,40.04621852247948L121.77617599999999,38.267731113487685L126.61577600000001,33.13206723952118L126.627024,38.187811772284135L126.63471999999999,37.15268706337048L126.624656,34.49732652373655L131.46188800000002,32.90411019995622L131.472544,38.05103754854517L131.484384,35.03633681484138L131.47432,33.227516374619114L136.311552,38.2450812533429L136.321616,41.255620180577154L136.33049599999998,45.096229251203454L136.3228,43.33202326500779L141.158256,40.23921395900467L141.167728,46.52067123254565L141.176608,44.186688453813076L141.171872,42.78629878657358L146.006144,35.84320784337271L146.016208,37.780210420309345L146.02272,36.90812625218561L146.017392,38.41916146559706L150.85284800000002,39.325782593643964L150.861728,41.90404098475781L150.87001600000002,43.4509960194261L150.864688,44.37916904022708L155.701328,46.97035856699341L155.7108,50.55935799733891L155.719088,48.64418622697477L155.713168,49.52936887904198L160.548032,50.06047847028235L160.559872,44.276287082169404L160.56579200000002,46.90862939215879L160.55868800000002,52.55660620672384L165.393552,41.70539229546287L165.406576,45.366092520134856L165.411312,47.562512654938075L165.4048,50.91465045010571L170.242624,46.82307598434912L170.253872,44.3681313048952L170.260976,40.86087878293711L170.25328000000002,46.89367012690511L174.860816,42.37620207614307L175.10353600000002,37.631435531400115L175.107088,44.95600417598294L175.100576,47.31645964844691L179.70752,52.8013043604967L179.95024,49.98935404486946L179.955568,50.3364695697788L179.94787200000002,56.64759602758157L184.555408,48.228557616548954L184.79576,49.27999171278648L184.80168,49.91085217052904L184.79635199999998,52.32365415946029L189.405072,47.668478209961876L189.64246400000002,46.909658354548554L189.65016,44.420080727014835L189.643648,46.99490557906606L194.254144,42.43694334743964L194.488576,41.73645172274948L194.496272,43.35044246222111L194.49153600000002,44.31883690590411L199.10144,46.93415928639959L199.10795199999998,48.503352714696916L199.11032,51.479154485961004L199.344752,41.058921263005175L203.950512,38.875352757803114L203.954656,33.49664022611043L203.956432,40.44084127852341L204.193824,42.57307619568547L208.797808,49.95527428883986L208.803728,52.350307430446776L208.80432000000002,47.68447017255377L209.042896,46.91925353210368L213.64687999999998,46.46012354783363L213.649248,48.218931271557324L213.64984,49.27421590579155L213.888416,45.83881525776064L218.494176,37.674717726084964L218.495952,40.913402064222424L218.49832,44.8908983813906L218.737488,47.27739617169152L223.34147199999998,44.64072341730062L223.34147199999998,49.16157690752323L223.35864,45.77123185879964L223.347392,43.73702482956551L228.18936,42.516500612025L228.191136,43.81847179578645L228.20830400000003,44.599654506043294L228.19528,45.06836413219739L233.03784000000002,41.28101847931842L233.03784000000002,41.042896801876765L233.054416,42.9343095096975L233.044944,42.034871420104196L237.883952,43.52949428063394L237.88632,40.35769656838036L237.90408000000002,40.48890365531392L237.89224000000002,42.60191362175979L242.729472,35.73257674448445L242.733616,41.78240318954781L242.75196799999998,43.378013342300136L242.738352,48.40395086252295L247.576176,47.350941946085186L247.581504,46.71913659622254L247.599856,50.408624814876376L247.58683200000002,50.58803203178299L252.42584000000002,50.69567636192694L252.431168,48.72597724572759L252.447744,47.54415777600798L252.434128,50.903637522747644L257.271952,48.850753942219995L257.279648,47.61902379390341L257.297408,50.948557133484925L257.279648,50.911991422948105L262.11984,46.82148056805457L262.128128,48.435745483689885L262.144112,47.37001871878536L262.129312,50.79915408841407" style="fill: none;" fill="none"></path></g></g></g></g><g opacity="0.2"><g><g><g><path stroke="rgb(51, 187, 238)" stroke-width="2px" d="M34.523664000000004,152.57142857142858L34.524848,152.57142857142858L34.523072,152.57142857142858L34.523072,152.57142857142858L39.369776,152.57142857142858L39.374512,152.57142857142858L39.370368,152.57142857142858L39.370368,152.57142857142858L44.217664,152.57142857142858L44.2224,152.57142857142858L44.21944,152.57142857142858L44.220031999999996,152.57142857142858L49.06318400000001,152.57142857142858L49.06792,152.57142857142858L49.065552,152.57142857142858L49.066736,152.57142857142858L53.909296000000005,152.57142857142858L53.914032,152.57142857142858L53.912848,152.57142857142858L53.914032,152.57142857142858L58.754816000000005,152.57142857142858L58.762512,152.57142857142858L58.761328,152.57142857142858L58.760736,152.57142857142858L63.600928,152.57142857142858L63.610992,152.57142857142858L63.609808,152.57142857142858L63.608032,152.57142857142858L68.446448,152.57142857142858L68.457696,152.57142857142858L68.456512,152.57142857142858L68.457104,152.57142857142858L73.29611200000001,152.57142857142858L73.303808,152.57142857142858L73.302624,152.57142857142858L73.303216,152.57142857142858L78.144592,152.57142857142858L78.149328,152.57142857142858L78.151696,152.57142857142858L78.15051199999999,152.57142857142858L82.991888,152.57142857142858L82.996624,152.57142857142858L82.999584,152.57142857142858L82.99839999999999,152.57142857142858L87.83800000000001,152.57142857142858L87.84392,152.57142857142858L87.848656,147.4857142857143L87.84510399999999,152.57142857142858L92.68529600000001,152.57142857142858L92.693584,152.57142857142858L92.69536,152.57142857142858L92.69299199999999,152.57142857142858L97.533184,152.57142857142858L97.539104,152.57142857142858L97.545024,152.57142857142858L97.54088,152.57142857142858L102.38048,152.57142857142858L102.388768,152.57142857142858L102.391136,152.57142857142858L102.3864,152.57142857142858L107.22718400000001,152.57142857142858L107.237248,152.57142857142858L107.239616,152.57142857142858L107.233696,152.57142857142858L112.075664,152.57142857142858L112.083952,152.57142857142858L112.08928,152.57142857142858L112.079808,152.57142857142858L116.92118400000001,152.57142857142858L116.930656,147.4857142857143L116.936576,152.57142857142858L116.927696,152.57142857142858L121.766704,152.57142857142858L121.78032,152.57142857142858L121.78564800000001,152.57142857142858L121.77617599999999,152.57142857142858L126.61577600000001,152.57142857142858L126.627024,152.57142857142858L126.63471999999999,152.57142857142858L126.624656,152.57142857142858L131.46188800000002,152.57142857142858L131.472544,147.4857142857143L131.484384,147.4857142857143L131.47432,152.57142857142858L136.311552,152.57142857142858L136.321616,152.57142857142858L136.33049599999998,152.57142857142858L136.3228,152.57142857142858L141.158256,152.57142857142858L141.167728,152.57142857142858L141.176608,147.4857142857143L141.171872,152.57142857142858L146.006144,152.57142857142858L146.016208,152.57142857142858L146.02272,152.57142857142858L146.017392,152.57142857142858L150.85284800000002,152.57142857142858L150.861728,147.4857142857143L150.87001600000002,152.57142857142858L150.864688,152.57142857142858L155.701328,147.4857142857143L155.7108,152.57142857142858L155.719088,152.57142857142858L155.713168,147.4857142857143L160.548032,152.57142857142858L160.559872,152.57142857142858L160.56579200000002,147.4857142857143L160.55868800000002,147.4857142857143L165.393552,86.45714285714287L165.406576,66.11428571428571L165.411312,66.11428571428571L165.4048,71.2L170.242624,35.599999999999994L170.253872,40.68571428571428L170.260976,45.77142857142857L170.25328000000002,45.77142857142857L174.860816,45.77142857142857L175.10353600000002,50.85714285714286L175.107088,35.599999999999994L175.100576,45.77142857142857L179.70752,40.68571428571428L179.95024,45.77142857142857L179.955568,40.68571428571428L179.94787200000002,40.68571428571428L184.555408,55.942857142857136L184.79576,55.942857142857136L184.80168,40.68571428571428L184.79635199999998,40.68571428571428L189.405072,25.428571428571445L189.64246400000002,50.85714285714286L189.65016,40.68571428571428L189.643648,55.942857142857136L194.254144,45.77142857142857L194.488576,50.85714285714286L194.496272,30.514285714285705L194.49153600000002,55.942857142857136L199.10144,55.942857142857136L199.10795199999998,40.68571428571428L199.11032,55.942857142857136L199.344752,35.599999999999994L203.950512,50.85714285714286L203.954656,35.599999999999994L203.956432,55.942857142857136L204.193824,50.85714285714286L208.797808,35.599999999999994L208.803728,45.77142857142857L208.80432000000002,35.599999999999994L209.042896,50.85714285714286L213.64687999999998,50.85714285714286L213.649248,40.68571428571428L213.64984,45.77142857142857L213.888416,45.77142857142857L218.494176,35.599999999999994L218.495952,25.428571428571445L218.49832,50.85714285714286L218.737488,50.85714285714286L223.34147199999998,45.77142857142857L223.34147199999998,45.77142857142857L223.35864,40.68571428571428L223.347392,50.85714285714286L228.18936,50.85714285714286L228.191136,50.85714285714286L228.20830400000003,45.77142857142857L228.19528,40.68571428571428L233.03784000000002,50.85714285714286L233.03784000000002,25.428571428571445L233.054416,40.68571428571428L233.044944,45.77142857142857L237.883952,55.942857142857136L237.88632,50.85714285714286L237.90408000000002,55.942857142857136L237.89224000000002,45.77142857142857L242.729472,45.77142857142857L242.733616,35.599999999999994L242.75196799999998,35.599999999999994L242.738352,45.77142857142857L247.576176,35.599999999999994L247.581504,45.77142857142857L247.599856,55.942857142857136L247.58683200000002,30.514285714285705L252.42584000000002,45.77142857142857L252.431168,50.85714285714286L252.447744,45.77142857142857L252.434128,55.942857142857136L257.271952,45.77142857142857L257.279648,50.85714285714286L257.297408,50.85714285714286L257.279648,20.342857142857156L262.11984,35.599999999999994L262.128128,35.599999999999994L262.144112,55.942857142857136L262.129312,45.77142857142857" style="fill: none;" fill="none"></path></g><g><path stroke="rgb(238, 51, 119)" stroke-width="2px" d="M34.523664000000004,152.57142857142858L34.524848,152.57142857142858L34.523072,152.57142857142858L34.523072,152.57142857142858L39.369776,152.57142857142858L39.374512,152.57142857142858L39.370368,152.57142857142858L39.370368,152.57142857142858L44.217664,152.57142857142858L44.2224,152.57142857142858L44.21944,152.57142857142858L44.220031999999996,152.57142857142858L49.06318400000001,152.57142857142858L49.06792,152.57142857142858L49.065552,152.57142857142858L49.066736,152.57142857142858L53.909296000000005,152.57142857142858L53.914032,152.57142857142858L53.912848,152.57142857142858L53.914032,152.57142857142858L58.754816000000005,152.57142857142858L58.762512,152.57142857142858L58.761328,152.57142857142858L58.760736,152.57142857142858L63.600928,152.57142857142858L63.610992,152.57142857142858L63.609808,152.57142857142858L63.608032,152.57142857142858L68.446448,137.31428571428572L68.457696,142.4L68.456512,142.4L68.457104,142.4L73.29611200000001,66.11428571428571L73.303808,66.11428571428571L73.302624,55.942857142857136L73.303216,71.2L78.144592,45.77142857142857L78.149328,45.77142857142857L78.151696,55.942857142857136L78.15051199999999,30.514285714285705L82.991888,35.599999999999994L82.996624,30.514285714285705L82.999584,35.599999999999994L82.99839999999999,40.68571428571428L87.83800000000001,45.77142857142857L87.84392,45.77142857142857L87.848656,40.68571428571428L87.84510399999999,35.599999999999994L92.68529600000001,45.77142857142857L92.693584,30.514285714285705L92.69536,55.942857142857136L92.69299199999999,45.77142857142857L97.533184,50.85714285714286L97.539104,55.942857142857136L97.545024,40.68571428571428L97.54088,45.77142857142857L102.38048,45.77142857142857L102.388768,35.599999999999994L102.391136,10.171428571428578L102.3864,45.77142857142857L107.22718400000001,45.77142857142857L107.237248,55.942857142857136L107.239616,55.942857142857136L107.233696,25.428571428571445L112.075664,55.942857142857136L112.083952,40.68571428571428L112.08928,50.85714285714286L112.079808,45.77142857142857L116.92118400000001,45.77142857142857L116.930656,35.599999999999994L116.936576,45.77142857142857L116.927696,50.85714285714286L121.766704,40.68571428571428L121.78032,50.85714285714286L121.78564800000001,40.68571428571428L121.77617599999999,40.68571428571428L126.61577600000001,20.342857142857156L126.627024,15.257142857142867L126.63471999999999,50.85714285714286L126.624656,45.77142857142857L131.46188800000002,20.342857142857156L131.472544,40.68571428571428L131.484384,50.85714285714286L131.47432,50.85714285714286L136.311552,35.599999999999994L136.321616,35.599999999999994L136.33049599999998,35.599999999999994L136.3228,40.68571428571428L141.158256,35.599999999999994L141.167728,50.85714285714286L141.176608,20.342857142857156L141.171872,40.68571428571428L146.006144,45.77142857142857L146.016208,35.599999999999994L146.02272,45.77142857142857L146.017392,50.85714285714286L150.85284800000002,30.514285714285705L150.861728,35.599999999999994L150.87001600000002,30.514285714285705L150.864688,45.77142857142857L155.701328,55.942857142857136L155.7108,25.428571428571445L155.719088,35.599999999999994L155.713168,45.77142857142857L160.548032,35.599999999999994L160.559872,55.942857142857136L160.56579200000002,55.942857142857136L160.55868800000002,45.77142857142857L165.393552,30.514285714285705L165.406576,55.942857142857136L165.411312,50.85714285714286L165.4048,50.85714285714286L170.242624,45.77142857142857L170.253872,45.77142857142857L170.260976,35.599999999999994L170.25328000000002,40.68571428571428L174.860816,40.68571428571428L175.10353600000002,55.942857142857136L175.107088,55.942857142857136L175.100576,45.77142857142857L179.70752,40.68571428571428L179.95024,20.342857142857156L179.955568,50.85714285714286L179.94787200000002,35.599999999999994L184.555408,40.68571428571428L184.79576,35.599999999999994L184.80168,50.85714285714286L184.79635199999998,40.68571428571428L189.405072,40.68571428571428L189.64246400000002,45.77142857142857L189.65016,20.342857142857156L189.643648,45.77142857142857L194.254144,35.599999999999994L194.488576,50.85714285714286L194.496272,40.68571428571428L194.49153600000002,45.77142857142857L199.10144,45.77142857142857L199.10795199999998,20.342857142857156L199.11032,55.942857142857136L199.344752,20.342857142857156L203.950512,45.77142857142857L203.954656,35.599999999999994L203.956432,55.942857142857136L204.193824,45.77142857142857L208.797808,35.599999999999994L208.803728,40.68571428571428L208.80432000000002,45.77142857142857L209.042896,50.85714285714286L213.64687999999998,40.68571428571428L213.649248,45.77142857142857L213.64984,55.942857142857136L213.888416,30.514285714285705L218.494176,20.342857142857156L218.495952,35.599999999999994L218.49832,35.599999999999994L218.737488,66.11428571428571L223.34147199999998,40.68571428571428L223.34147199999998,50.85714285714286L223.35864,55.942857142857136L223.347392,35.599999999999994L228.18936,40.68571428571428L228.191136,30.514285714285705L228.20830400000003,35.599999999999994L228.19528,45.77142857142857L233.03784000000002,45.77142857142857L233.03784000000002,45.77142857142857L233.054416,25.428571428571445L233.044944,40.68571428571428L237.883952,35.599999999999994L237.88632,45.77142857142857L237.90408000000002,35.599999999999994L237.89224000000002,45.77142857142857L242.729472,45.77142857142857L242.733616,45.77142857142857L242.75196799999998,55.942857142857136L242.738352,50.85714285714286L247.576176,50.85714285714286L247.581504,50.85714285714286L247.599856,55.942857142857136L247.58683200000002,55.942857142857136L252.42584000000002,45.77142857142857L252.431168,50.85714285714286L252.447744,50.85714285714286L252.434128,55.942857142857136L257.271952,50.85714285714286L257.279648,50.85714285714286L257.297408,50.85714285714286L257.279648,35.599999999999994L262.11984,55.942857142857136L262.128128,45.77142857142857L262.144112,30.514285714285705L262.129312,55.942857142857136" style="fill: none;" fill="none"></path></g><g><path stroke="rgb(0, 119, 187)" stroke-width="2px" d="M34.523664000000004,152.57142857142858L34.524848,152.57142857142858L34.523072,152.57142857142858L34.523072,152.57142857142858L39.369776,71.2L39.374512,61.028571428571425L39.370368,71.2L39.370368,66.11428571428571L44.217664,55.942857142857136L44.2224,61.028571428571425L44.21944,45.77142857142857L44.220031999999996,45.77142857142857L49.06318400000001,35.599999999999994L49.06792,40.68571428571428L49.065552,30.514285714285705L49.066736,50.85714285714286L53.909296000000005,50.85714285714286L53.914032,55.942857142857136L53.912848,45.77142857142857L53.914032,50.85714285714286L58.754816000000005,45.77142857142857L58.762512,35.599999999999994L58.761328,20.342857142857156L58.760736,45.77142857142857L63.600928,45.77142857142857L63.610992,25.428571428571445L63.609808,30.514285714285705L63.608032,35.599999999999994L68.446448,35.599999999999994L68.457696,45.77142857142857L68.456512,35.599999999999994L68.457104,35.599999999999994L73.29611200000001,35.599999999999994L73.303808,45.77142857142857L73.302624,30.514285714285705L73.303216,50.85714285714286L78.144592,40.68571428571428L78.149328,40.68571428571428L78.151696,35.599999999999994L78.15051199999999,35.599999999999994L82.991888,25.428571428571445L82.996624,40.68571428571428L82.999584,30.514285714285705L82.99839999999999,50.85714285714286L87.83800000000001,40.68571428571428L87.84392,50.85714285714286L87.848656,45.77142857142857L87.84510399999999,50.85714285714286L92.68529600000001,40.68571428571428L92.693584,25.428571428571445L92.69536,45.77142857142857L92.69299199999999,55.942857142857136L97.533184,50.85714285714286L97.539104,35.599999999999994L97.545024,45.77142857142857L97.54088,35.599999999999994L102.38048,40.68571428571428L102.388768,45.77142857142857L102.391136,35.599999999999994L102.3864,35.599999999999994L107.22718400000001,35.599999999999994L107.237248,40.68571428571428L107.239616,50.85714285714286L107.233696,50.85714285714286L112.075664,35.599999999999994L112.083952,45.77142857142857L112.08928,45.77142857142857L112.079808,55.942857142857136L116.92118400000001,40.68571428571428L116.930656,35.599999999999994L116.936576,40.68571428571428L116.927696,40.68571428571428L121.766704,35.599999999999994L121.78032,45.77142857142857L121.78564800000001,30.514285714285705L121.77617599999999,40.68571428571428L126.61577600000001,45.77142857142857L126.627024,30.514285714285705L126.63471999999999,35.599999999999994L126.624656,50.85714285714286L131.46188800000002,50.85714285714286L131.472544,50.85714285714286L131.484384,25.428571428571445L131.47432,35.599999999999994L136.311552,45.77142857142857L136.321616,45.77142857142857L136.33049599999998,55.942857142857136L136.3228,40.68571428571428L141.158256,30.514285714285705L141.167728,61.028571428571425L141.176608,30.514285714285705L141.171872,40.68571428571428L146.006144,35.599999999999994L146.016208,45.77142857142857L146.02272,35.599999999999994L146.017392,35.599999999999994L150.85284800000002,30.514285714285705L150.861728,50.85714285714286L150.87001600000002,40.68571428571428L150.864688,25.428571428571445L155.701328,50.85714285714286L155.7108,35.599999999999994L155.719088,25.428571428571445L155.713168,40.68571428571428L160.548032,30.514285714285705L160.559872,45.77142857142857L160.56579200000002,30.514285714285705L160.55868800000002,50.85714285714286L165.393552,55.942857142857136L165.406576,50.85714285714286L165.411312,45.77142857142857L165.4048,55.942857142857136L170.242624,50.85714285714286L170.253872,50.85714285714286L170.260976,25.428571428571445L170.25328000000002,35.599999999999994L174.860816,50.85714285714286L175.10353600000002,20.342857142857156L175.107088,40.68571428571428L175.100576,40.68571428571428L179.70752,40.68571428571428L179.95024,50.85714285714286L179.955568,55.942857142857136L179.94787200000002,30.514285714285705L184.555408,50.85714285714286L184.79576,45.77142857142857L184.80168,45.77142857142857L184.79635199999998,40.68571428571428L189.405072,66.11428571428571L189.64246400000002,50.85714285714286L189.65016,66.11428571428571L189.643648,50.85714285714286L194.254144,40.68571428571428L194.488576,50.85714285714286L194.496272,50.85714285714286L194.49153600000002,50.85714285714286L199.10144,40.68571428571428L199.10795199999998,40.68571428571428L199.11032,55.942857142857136L199.344752,45.77142857142857L203.950512,40.68571428571428L203.954656,35.599999999999994L203.956432,30.514285714285705L204.193824,40.68571428571428L208.797808,55.942857142857136L208.803728,50.85714285714286L208.80432000000002,25.428571428571445L209.042896,45.77142857142857L213.64687999999998,45.77142857142857L213.649248,30.514285714285705L213.64984,50.85714285714286L213.888416,50.85714285714286L218.494176,35.599999999999994L218.495952,55.942857142857136L218.49832,35.599999999999994L218.737488,40.68571428571428L223.34147199999998,55.942857142857136L223.34147199999998,35.599999999999994L223.35864,35.599999999999994L223.347392,50.85714285714286L228.18936,45.77142857142857L228.191136,45.77142857142857L228.20830400000003,50.85714285714286L228.19528,55.942857142857136L233.03784000000002,30.514285714285705L233.03784000000002,45.77142857142857L233.054416,40.68571428571428L233.044944,50.85714285714286L237.883952,25.428571428571445L237.88632,30.514285714285705L237.90408000000002,55.942857142857136L237.89224000000002,45.77142857142857L242.729472,30.514285714285705L242.733616,25.428571428571445L242.75196799999998,45.77142857142857L242.738352,45.77142857142857L247.576176,55.942857142857136L247.581504,45.77142857142857L247.599856,50.85714285714286L247.58683200000002,40.68571428571428L252.42584000000002,30.514285714285705L252.431168,50.85714285714286L252.447744,40.68571428571428L252.434128,55.942857142857136L257.271952,30.514285714285705L257.279648,50.85714285714286L257.297408,40.68571428571428L257.279648,40.68571428571428L262.11984,25.428571428571445L262.128128,30.514285714285705L262.144112,45.77142857142857L262.129312,35.599999999999994" style="fill: none;" fill="none"></path></g><g><path stroke="rgb(255, 112, 67)" stroke-width="2px" d="M34.523664000000004,152.57142857142858L34.524848,152.57142857142858L34.523072,152.57142857142858L34.523072,152.57142857142858L39.369776,152.57142857142858L39.374512,152.57142857142858L39.370368,152.57142857142858L39.370368,152.57142857142858L44.217664,152.57142857142858L44.2224,152.57142857142858L44.21944,152.57142857142858L44.220031999999996,152.57142857142858L49.06318400000001,71.2L49.06792,61.028571428571425L49.065552,76.28571428571429L49.066736,81.37142857142858L53.909296000000005,61.028571428571425L53.914032,35.599999999999994L53.912848,40.68571428571428L53.914032,55.942857142857136L58.754816000000005,40.68571428571428L58.762512,55.942857142857136L58.761328,45.77142857142857L58.760736,55.942857142857136L63.600928,45.77142857142857L63.610992,35.599999999999994L63.609808,40.68571428571428L63.608032,35.599999999999994L68.446448,45.77142857142857L68.457696,40.68571428571428L68.456512,45.77142857142857L68.457104,40.68571428571428L73.29611200000001,25.428571428571445L73.303808,30.514285714285705L73.302624,45.77142857142857L73.303216,30.514285714285705L78.144592,25.428571428571445L78.149328,50.85714285714286L78.151696,45.77142857142857L78.15051199999999,30.514285714285705L82.991888,45.77142857142857L82.996624,40.68571428571428L82.999584,45.77142857142857L82.99839999999999,45.77142857142857L87.83800000000001,45.77142857142857L87.84392,25.428571428571445L87.848656,45.77142857142857L87.84510399999999,45.77142857142857L92.68529600000001,45.77142857142857L92.693584,30.514285714285705L92.69536,45.77142857142857L92.69299199999999,45.77142857142857L97.533184,45.77142857142857L97.539104,45.77142857142857L97.545024,20.342857142857156L97.54088,50.85714285714286L102.38048,50.85714285714286L102.388768,50.85714285714286L102.391136,55.942857142857136L102.3864,45.77142857142857L107.22718400000001,40.68571428571428L107.237248,25.428571428571445L107.239616,40.68571428571428L107.233696,40.68571428571428L112.075664,50.85714285714286L112.083952,35.599999999999994L112.08928,30.514285714285705L112.079808,45.77142857142857L116.92118400000001,35.599999999999994L116.930656,50.85714285714286L116.936576,35.599999999999994L116.927696,50.85714285714286L121.766704,30.514285714285705L121.78032,40.68571428571428L121.78564800000001,40.68571428571428L121.77617599999999,35.599999999999994L126.61577600000001,25.428571428571445L126.627024,45.77142857142857L126.63471999999999,35.599999999999994L126.624656,30.514285714285705L131.46188800000002,30.514285714285705L131.472544,45.77142857142857L131.484384,30.514285714285705L131.47432,30.514285714285705L136.311552,45.77142857142857L136.321616,45.77142857142857L136.33049599999998,50.85714285714286L136.3228,40.68571428571428L141.158256,35.599999999999994L141.167728,55.942857142857136L141.176608,40.68571428571428L141.171872,40.68571428571428L146.006144,25.428571428571445L146.016208,40.68571428571428L146.02272,35.599999999999994L146.017392,40.68571428571428L150.85284800000002,40.68571428571428L150.861728,45.77142857142857L150.87001600000002,45.77142857142857L150.864688,45.77142857142857L155.701328,50.85714285714286L155.7108,55.942857142857136L155.719088,45.77142857142857L155.713168,50.85714285714286L160.548032,50.85714285714286L160.559872,35.599999999999994L160.56579200000002,50.85714285714286L160.55868800000002,61.028571428571425L165.393552,25.428571428571445L165.406576,50.85714285714286L165.411312,50.85714285714286L165.4048,55.942857142857136L170.242624,40.68571428571428L170.253872,40.68571428571428L170.260976,35.599999999999994L170.25328000000002,55.942857142857136L174.860816,35.599999999999994L175.10353600000002,30.514285714285705L175.107088,55.942857142857136L175.100576,50.85714285714286L179.70752,61.028571428571425L179.95024,45.77142857142857L179.955568,50.85714285714286L179.94787200000002,66.11428571428571L184.555408,35.599999999999994L184.79576,50.85714285714286L184.80168,50.85714285714286L184.79635199999998,55.942857142857136L189.405072,40.68571428571428L189.64246400000002,45.77142857142857L189.65016,40.68571428571428L189.643648,50.85714285714286L194.254144,35.599999999999994L194.488576,40.68571428571428L194.496272,45.77142857142857L194.49153600000002,45.77142857142857L199.10144,50.85714285714286L199.10795199999998,50.85714285714286L199.11032,55.942857142857136L199.344752,25.428571428571445L203.950512,35.599999999999994L203.954656,25.428571428571445L203.956432,50.85714285714286L204.193824,45.77142857142857L208.797808,61.028571428571425L208.803728,55.942857142857136L208.80432000000002,40.68571428571428L209.042896,45.77142857142857L213.64687999999998,45.77142857142857L213.649248,50.85714285714286L213.64984,50.85714285714286L213.888416,40.68571428571428L218.494176,25.428571428571445L218.495952,45.77142857142857L218.49832,50.85714285714286L218.737488,50.85714285714286L223.34147199999998,40.68571428571428L223.34147199999998,55.942857142857136L223.35864,40.68571428571428L223.347392,40.68571428571428L228.18936,40.68571428571428L228.191136,45.77142857142857L228.20830400000003,45.77142857142857L228.19528,45.77142857142857L233.03784000000002,35.599999999999994L233.03784000000002,40.68571428571428L233.054416,45.77142857142857L233.044944,40.68571428571428L237.883952,45.77142857142857L237.88632,35.599999999999994L237.90408000000002,40.68571428571428L237.89224000000002,45.77142857142857L242.729472,25.428571428571445L242.733616,50.85714285714286L242.75196799999998,45.77142857142857L242.738352,55.942857142857136L247.576176,45.77142857142857L247.581504,45.77142857142857L247.599856,55.942857142857136L247.58683200000002,50.85714285714286L252.42584000000002,50.85714285714286L252.431168,45.77142857142857L252.447744,45.77142857142857L252.434128,55.942857142857136L257.271952,45.77142857142857L257.279648,45.77142857142857L257.297408,55.942857142857136L257.279648,50.85714285714286L262.11984,40.68571428571428L262.128128,50.85714285714286L262.144112,45.77142857142857L262.129312,55.942857142857136" style="fill: none;" fill="none"></path></g></g></g></g></g></g><g transform="translate(34, 178)" clip-path="url(#clip_1)"><clipPath id="clip_1"><rect width="296" height="22"></rect></clipPath><g><g><line x1="0" y1="0" x2="0" y2="5" style="visibility: inherit;" fill="rgb(0, 0, 0)" stroke="rgb(204, 204, 204)" stroke-width="1px"></line><line x1="29.6" y1="0" x2="29.6" y2="5" style="visibility: inherit;" fill="rgb(0, 0, 0)" stroke="rgb(204, 204, 204)" stroke-width="1px"></line><line x1="59.2" y1="0" x2="59.2" y2="5" style="visibility: inherit;" fill="rgb(0, 0, 0)" stroke="rgb(204, 204, 204)" stroke-width="1px"></line><line x1="88.8" y1="0" x2="88.8" y2="5" style="visibility: inherit;" fill="rgb(0, 0, 0)" stroke="rgb(204, 204, 204)" stroke-width="1px"></line><line x1="118.4" y1="0" x2="118.4" y2="5" style="visibility: inherit;" fill="rgb(0, 0, 0)" stroke="rgb(204, 204, 204)" stroke-width="1px"></line><line x1="148" y1="0" x2="148" y2="5" style="visibility: inherit;" fill="rgb(0, 0, 0)" stroke="rgb(204, 204, 204)" stroke-width="1px"></line><line x1="177.6" y1="0" x2="177.6" y2="5" style="visibility: inherit;" fill="rgb(0, 0, 0)" stroke="rgb(204, 204, 204)" stroke-width="1px"></line><line x1="207.2" y1="0" x2="207.2" y2="5" style="visibility: inherit;" fill="rgb(0, 0, 0)" stroke="rgb(204, 204, 204)" stroke-width="1px"></line><line x1="236.8" y1="0" x2="236.8" y2="5" style="visibility: inherit;" fill="rgb(0, 0, 0)" stroke="rgb(204, 204, 204)" stroke-width="1px"></line><line x1="266.40000000000003" y1="0" x2="266.40000000000003" y2="5" style="visibility: inherit;" fill="rgb(0, 0, 0)" stroke="rgb(204, 204, 204)" stroke-width="1px"></line><line x1="296" y1="0" x2="296" y2="5" style="visibility: inherit;" fill="rgb(0, 0, 0)" stroke="rgb(204, 204, 204)" stroke-width="1px"></line></g><g transform="translate(0, 8)"><text x="0" y="0" dx="0em" dy="0.95em" style="text-anchor: middle; visibility: hidden; font-family: &quot;Helvetica Neue&quot;, sans-serif; font-size: 12px; font-weight: 200;" fill="rgb(50, 49, 63)" stroke="none" stroke-width="1px">-50k</text><text x="29.6" y="0" dx="0em" dy="0.95em" style="text-anchor: middle; visibility: inherit; font-family: &quot;Helvetica Neue&quot;, sans-serif; font-size: 12px; font-weight: 200;" fill="rgb(50, 49, 63)" stroke="none" stroke-width="1px">0</text><text x="59.2" y="0" dx="0em" dy="0.95em" style="text-anchor: middle; visibility: hidden; font-family: &quot;Helvetica Neue&quot;, sans-serif; font-size: 12px; font-weight: 200;" fill="rgb(50, 49, 63)" stroke="none" stroke-width="1px">50k</text><text x="88.8" y="0" dx="0em" dy="0.95em" style="text-anchor: middle; visibility: inherit; font-family: &quot;Helvetica Neue&quot;, sans-serif; font-size: 12px; font-weight: 200;" fill="rgb(50, 49, 63)" stroke="none" stroke-width="1px">100k</text><text x="118.4" y="0" dx="0em" dy="0.95em" style="text-anchor: middle; visibility: hidden; font-family: &quot;Helvetica Neue&quot;, sans-serif; font-size: 12px; font-weight: 200;" fill="rgb(50, 49, 63)" stroke="none" stroke-width="1px">150k</text><text x="148" y="0" dx="0em" dy="0.95em" style="text-anchor: middle; visibility: inherit; font-family: &quot;Helvetica Neue&quot;, sans-serif; font-size: 12px; font-weight: 200;" fill="rgb(50, 49, 63)" stroke="none" stroke-width="1px">200k</text><text x="177.6" y="0" dx="0em" dy="0.95em" style="text-anchor: middle; visibility: hidden; font-family: &quot;Helvetica Neue&quot;, sans-serif; font-size: 12px; font-weight: 200;" fill="rgb(50, 49, 63)" stroke="none" stroke-width="1px">250k</text><text x="207.2" y="0" dx="0em" dy="0.95em" style="text-anchor: middle; visibility: inherit; font-family: &quot;Helvetica Neue&quot;, sans-serif; font-size: 12px; font-weight: 200;" fill="rgb(50, 49, 63)" stroke="none" stroke-width="1px">300k</text><text x="236.8" y="0" dx="0em" dy="0.95em" style="text-anchor: middle; visibility: hidden; font-family: &quot;Helvetica Neue&quot;, sans-serif; font-size: 12px; font-weight: 200;" fill="rgb(50, 49, 63)" stroke="none" stroke-width="1px">350k</text><text x="266.40000000000003" y="0" dx="0em" dy="0.95em" style="text-anchor: middle; visibility: inherit; font-family: &quot;Helvetica Neue&quot;, sans-serif; font-size: 12px; font-weight: 200;" fill="rgb(50, 49, 63)" stroke="none" stroke-width="1px">400k</text><text x="296" y="0" dx="0em" dy="0.95em" style="text-anchor: middle; visibility: hidden; font-family: &quot;Helvetica Neue&quot;, sans-serif; font-size: 12px; font-weight: 200;" fill="rgb(50, 49, 63)" stroke="none" stroke-width="1px">450k</text></g><line x1="0" y1="0" x2="296" y2="0" fill="rgb(0, 0, 0)" stroke="rgb(204, 204, 204)" stroke-width="1px"></line></g></g></g></g></svg>