<svg viewBox="0 0 330 200" xmlns="http://www.w3.org/2000/svg"><g><g><g><g><g><line x1="34" y1="178" x2="29" y2="178" style="visibility: inherit;" fill="rgb(0, 0, 0)" stroke="rgb(204, 204, 204)" stroke-width="1px"></line><line x1="34" y1="152.57142857142858" x2="29" y2="152.57142857142858" style="visibility: inherit;" fill="rgb(0, 0, 0)" stroke="rgb(204, 204, 204)" stroke-width="1px"></line><line x1="34" y1="127.14285714285714" x2="29" y2="127.14285714285714" style="visibility: inherit;" fill="rgb(0, 0, 0)" stroke="rgb(204, 204, 204)" stroke-width="1px"></line><line x1="34" y1="101.71428571428572" x2="29" y2="101.71428571428572" style="visibility: inherit;" fill="rgb(0, 0, 0)" stroke="rgb(204, 204, 204)" stroke-width="1px"></line><line x1="34" y1="76.28571428571429" x2="29" y2="76.28571428571429" style="visibility: inherit;" fill="rgb(0, 0, 0)" stroke="rgb(204, 204, 204)" stroke-width="1px"></line><line x1="34" y1="50.85714285714286" x2="29" y2="50.85714285714286" style="visibility: inherit;" fill="rgb(0, 0, 0)" stroke="rgb(204, 204, 204)" stroke-width="1px"></line><line x1="34" y1="25.428571428571445" x2="29" y2="25.428571428571445" style="visibility: inherit;" fill="rgb(0, 0, 0)" stroke="rgb(204, 204, 204)" stroke-width="1px"></line><line x1="34" y1="0" x2="29" y2="0" style="visibility: inherit;" fill="rgb(0, 0, 0)" stroke="rgb(204, 204, 204)" stroke-width="1px"></line></g><g transform="translate(24, 0)"><text x="0" y="178" dx="0em" dy="0.3em" style="text-anchor: end; visibility: hidden; font-family: &quot;Helvetica Neue&quot;, sans-serif; font-size: 12px; font-weight: 200;" fill="rgb(50, 49, 63)" stroke="none" stroke-width="1px">-5</text><text x="0" y="152.57142857142858" dx="0em" dy="0.3em" style="text-anchor: end; visibility: inherit; font-family: &quot;Helvetica Neue&quot;, sans-serif; font-size: 12px; font-weight: 200;" fill="rgb(50, 49, 63)" stroke="none" stroke-width="1px">0</text><text x="0" y="127.14285714285714" dx="0em" dy="0.3em" style="text-anchor: end; visibility: inherit; font-family: &quot;Helvetica Neue&quot;, sans-serif; font-size: 12px; font-weight: 200;" fill="rgb(50, 49, 63)" stroke="none" stroke-width="1px">5</text><text x="0" y="101.71428571428572" dx="0em" dy="0.3em" style="text-anchor: end; visibility: inherit; font-family: &quot;Helvetica Neue&quot;, sans-serif; font-size: 12px; font-weight: 200;" fill="rgb(50, 49, 63)" stroke="none" stroke-width="1px">10</text><text x="0" y="76.28571428571429" dx="0em" dy="0.3em" style="text-anchor: end; visibility: inherit; font-family: &quot;Helvetica Neue&quot;, sans-serif; font-size: 12px; font-weight: 200;" fill="rgb(50, 49, 63)" stroke="none" stroke-width="1px">15</text><text x="0" y="50.85714285714286" dx="0em" dy="0.3em" style="text-anchor: end; visibility: inherit; font-family: &quot;Helvetica Neue&quot;, sans-serif; font-size: 12px; font-weight: 200;" fill="rgb(50, 49, 63)" stroke="none" stroke-width="1px">20</text><text x="0" y="25.428571428571445" dx="0em" dy="0.3em" style="text-anchor: end; visibility: inherit; font-family: &quot;Helvetica Neue&quot;, sans-serif; font-size: 12px; font-weight: 200;" fill="rgb(50, 49, 63)" stroke="none" stroke-width="1px">25</text><text x="0" y="0" dx="0em" dy="0.3em" style="text-anchor: end; visibility: hidden; font-family: &quot;Helvetica Neue&quot;, sans-serif; font-size: 12px; font-weight: 200;" fill="rgb(50, 49, 63)" stroke="none" stroke-width="1px">30</text></g><line x1="34" y1="0" x2="34" y2="178" fill="rgb(0, 0, 0)" stroke="rgb(204, 204, 204)" stroke-width="1px"></line></g></g><g transform="translate(34, 0)" clip-path="url(#clip_0)"><clipPath id="clip_0"><rect width="296" height="178"></rect></clipPath><g><g><g><line x1="0" y1="0" x2="0" y2="178" fill="rgb(0, 0, 0)" stroke="rgb(60, 60, 60)" stroke-width="1px" opacity="0.25"></line><line x1="29.6" y1="0" x2="29.6" y2="178" fill="rgb(0, 0, 0)" stroke="rgb(60, 60, 60)" stroke-width="1px" opacity="0.25"></line><line x1="59.2" y1="0" x2="59.2" y2="178" fill="rgb(0, 0, 0)" stroke="rgb(60, 60, 60)" stroke-width="1px" opacity="0.25"></line><line x1="88.8" y1="0" x2="88.8" y2="178" fill="rgb(0, 0, 0)" stroke="rgb(60, 60, 60)" stroke-width="1px" opacity="0.25"></line><line x1="118.4" y1="0" x2="118.4" y2="178" fill="rgb(0, 0, 0)" stroke="rgb(60, 60, 60)" stroke-width="1px" opacity="0.25"></line><line x1="148" y1="0" x2="148" y2="178" fill="rgb(0, 0, 0)" stroke="rgb(60, 60, 60)" stroke-width="1px" opacity="0.25"></line><line x1="177.6" y1="0" x2="177.6" y2="178" fill="rgb(0, 0, 0)" stroke="rgb(60, 60, 60)" stroke-width="1px" opacity="0.25"></line><line x1="207.2" y1="0" x2="207.2" y2="178" fill="rgb(0, 0, 0)" stroke="rgb(60, 60, 60)" stroke-width="1px" opacity="0.25"></line><line x1="236.8" y1="0" x2="236.8" y2="178" fill="rgb(0, 0, 0)" stroke="rgb(60, 60, 60)" stroke-width="1px" opacity="0.25"></line><line x1="266.40000000000003" y1="0" x2="266.40000000000003" y2="178" fill="rgb(0, 0, 0)" stroke="rgb(60, 60, 60)" stroke-width="1px" opacity="0.25"></line><line x1="296" y1="0" x2="296" y2="178" fill="rgb(0, 0, 0)" stroke="rgb(60, 60, 60)" stroke-width="1px" opacity="0.25"></line></g><g><line x1="0" y1="178" x2="296" y2="178" fill="rgb(0, 0, 0)" stroke="rgb(60, 60, 60)" stroke-width="1px" opacity="0.25"></line><line x1="0" y1="152.57142857142858" x2="296" y2="152.57142857142858" fill="rgb(0, 0, 0)" stroke="rgb(60, 60, 60)" stroke-width="1px" opacity="0.25"></line><line x1="0" y1="127.14285714285714" x2="296" y2="127.14285714285714" fill="rgb(0, 0, 0)" stroke="rgb(60, 60, 60)" stroke-width="1px" opacity="0.25"></line><line x1="0" y1="101.71428571428572" x2="296" y2="101.71428571428572" fill="rgb(0, 0, 0)" stroke="rgb(60, 60, 60)" stroke-width="1px" opacity="0.25"></line><line x1="0" y1="76.28571428571429" x2="296" y2="76.28571428571429" fill="rgb(0, 0, 0)" stroke="rgb(60, 60, 60)" stroke-width="1px" opacity="0.25"></line><line x1="0" y1="50.85714285714286" x2="296" y2="50.85714285714286" fill="rgb(0, 0, 0)" stroke="rgb(60, 60, 60)" stroke-width="1px" opacity="0.25"></line><line x1="0" y1="25.428571428571445" x2="296" y2="25.428571428571445" fill="rgb(0, 0, 0)" stroke="rgb(60, 60, 60)" stroke-width="1px" opacity="0.25"></line><line x1="0" y1="0" x2="296" y2="0" fill="rgb(0, 0, 0)" stroke="rgb(60, 60, 60)" stroke-width="1px" opacity="0.25"></line></g></g></g><g><g><line x1="0" y1="152.57142857142858" x2="296" y2="152.57142857142858" fill="rgb(0, 0, 0)" stroke="rgb(153, 153, 153)" stroke-width="1.5px"></line></g></g><g><g><line x1="29.6" y1="0" x2="29.6" y2="178" fill="rgb(0, 0, 0)" stroke="rgb(153, 153, 153)" stroke-width="1.5px"></line></g></g><g><g><g><g><g><path stroke="rgb(204, 51, 17)" stroke-width="2px" d="M34.523664000000004,152.57142857142858L34.524848,152.57142857142858L34.523072,152.57142857142858L34.523072,152.57142857142858L39.369776,152.57142857142858L39.374512,152.57142857142858L39.370368,152.57142857142858L39.370368,152.57142857142858L44.217664,152.57142857142858L44.2224,152.57142857142858L44.21944,152.57142857142858L44.220031999999996,152.57142857142858L49.06318400000001,152.57142857142858L49.06792,152.57142857142858L49.065552,152.57142857142858L49.066736,150.53656880083696L53.909296000000005,149.31602039671617L53.914032,146.54933125320017L53.912848,144.88949760834026L53.914032,143.8936621556822L58.754816000000005,112.78122906721464L58.762512,88.01126855674526L58.761328,75.18380268881522L58.760736,65.45309264833139L63.600928,57.5804046352915L63.610992,54.89109533656176L63.609808,53.277512693307884L63.608032,50.275077200777886L68.446448,42.37075769378285L68.457696,47.799598673587724L68.456512,44.954044540991674L68.457104,43.246712302999924L73.29611200000001,44.25659885859545L73.303808,46.896816533659745L73.302624,42.37808984251575L73.303216,45.76971108334925L78.144592,35.59896944420919L78.149328,35.59938166652702L78.151696,25.428200405827113L78.15051199999999,31.53120596594016L82.991888,39.26158072862137L82.996624,39.83123415173267L82.999584,42.20731192029709L82.99839999999999,39.56438715172038L87.83800000000001,40.012918005364554L87.84392,40.28203651752122L87.848656,42.47779333916634L87.84510399999999,45.8295331464322L92.68529600000001,45.80629131643042L92.693584,47.82663193273174L92.69536,44.97026487391091L92.69299199999999,47.325016067210555L97.533184,50.77215249747519L97.539104,52.840434355630165L97.545024,47.97854632766075L97.54088,45.06141351088107L102.38048,41.27684810652778L102.388768,36.97182314963035L102.391136,38.45737960406407L102.3864,35.280142048152555L107.22718400000001,37.44237094317731L107.237248,42.80827970876362L107.239616,46.02782496811534L107.233696,49.99383783801207L112.075664,46.270588417092966L112.083952,42.00235305025578L112.08928,39.44141183015344L112.079808,46.041989955234925L116.92118400000001,50.002336830283824L116.930656,42.20711638388457L116.936576,41.59855554461646L116.927696,45.301990469626986L121.766704,45.489765710347626L121.78032,45.60243085478001L121.78564800000001,41.60145851286799L121.77617599999999,45.30373225057795L126.61577600000001,45.49081077891822L126.627024,47.63734361020809L126.63471999999999,42.822406166124836L126.624656,41.967729413960626L131.46188800000002,43.48920907694779L131.472544,40.33352544616869L131.484384,40.47440098198692L131.47432,40.55892630347785L136.311552,40.60964149637243L136.321616,42.67435632639487L136.33049599999998,47.98175665297978L136.3228,40.994768277502146L141.158256,44.93971810935844L141.167728,51.37525943704364L141.176608,47.09944137651189L141.171872,42.49966482590716L146.006144,41.77408460983L146.016208,39.304450765898L146.02272,39.85695617382453L146.017392,36.119887990008976L150.85284800000002,37.94621850829111L150.861728,41.07630253354611L150.87001600000002,38.88578152012764L150.864688,39.605754626362284L155.701328,44.106309918674526L155.7108,46.80664309406188L155.719088,40.28970014215142L155.713168,44.516677228147984L160.548032,45.018577765460236L160.559872,47.35400380213329L160.56579200000002,46.72097370985139L160.55868800000002,48.37544136876798L165.393552,45.2995505355465L165.406576,49.55687317847077L165.411312,50.076981049939604L165.4048,52.42333148710661L170.242624,53.831141749406825L170.253872,54.67582790678695L170.260976,59.25121102978643L170.25328000000002,55.89358376072903L174.860816,55.91329311358028L175.10353600000002,55.92511872529103L175.107088,57.966499806603196L175.100576,55.12275702681906L179.70752,55.45079707323431L179.95024,49.5447639582263L179.955568,48.03542980350721L179.94787200000002,47.129829310675774L184.555408,48.620754729262586L184.79576,49.51530998041471L184.80168,52.08632884539168L184.79635199999998,51.594654450092136L189.405072,53.333935527198136L189.64246400000002,50.30893274489033L189.65016,44.4253596469342L189.643648,38.86093007387481L194.254144,43.65941518718202L194.488576,52.641363398023515L194.496272,60.064818038814096L194.49153600000002,60.45031939471703L199.10144,60.68162020825879L199.10795199999998,66.92325783924097L199.11032,62.53109756068743L199.344752,59.89580139355533L203.950512,62.38319512184749L203.954656,67.9442027873942L203.956432,69.24652167243653L204.193824,65.95934157489049L208.797808,61.95274780207714L208.803728,61.583077252674855L208.80432000000002,61.36127492303348L209.042896,57.15962209667725L213.64687999999998,64.81005897229205L213.649248,73.46889252623237L213.64984,78.66419265859658L213.888416,77.71280130944366L218.494176,91.3819664999519L218.495952,105.686322757114L218.49832,106.1317936542684L218.737488,110.46764762113247L223.34147199999998,104.93201714410804L223.34147199999998,101.6106388578934L223.35864,103.68638331473605L223.347392,100.8632585602702L228.18936,93.06652656473355L228.191136,84.31991593884014L228.20830400000003,83.1405209918755L228.19528,82.43288402369674L233.03784000000002,73.87115898564662L233.03784000000002,62.63126681995939L233.054416,55.887331520547065L233.044944,55.909541769471105L237.883952,57.95715363311123L237.88632,55.117149322723904L237.90408000000002,51.378861022205754L237.89224000000002,57.27303089903775L242.729472,77.08381853942267L242.733616,86.93600540936787L242.75196799999998,98.95017467419216L242.738352,104.12439051880101L247.576176,119.4346343112806L247.581504,132.6893520153398L247.599856,140.6421826377753L247.58683200000002,141.34530958266518L252.42584000000002,143.8014714638848L252.431168,145.2751685926166L252.447744,148.19367258414138L252.434128,149.94477497905626L257.271952,150.9954364160052L257.279648,151.62583327817453L257.297408,152.00407139547616L257.279648,152.2310142658571L262.11984,152.3671799880857L262.128128,152.44887942142284L262.144112,152.49789908142515L262.129312,152.52731087742652" style="fill: none;" fill="none"></path></g><g><path stroke="rgb(0, 119, 187)" stroke-width="2px" d="M34.523664000000004,142.4L34.524848,142.4L34.523072,144.99475218658893L34.523072,143.80231092436975L39.369776,99.07790225042133L39.374512,83.11332668405707L39.370368,71.93213711937936L39.370368,61.2890914014331L44.217664,48.853850549582404L44.2224,43.52005893147668L44.21944,36.257114180579435L44.220031999999996,38.03241867409585L49.06318400000001,45.20596320861793L49.06792,47.46820785713655L49.065552,46.78917687268043L49.066736,44.3471029019866L53.909296000000005,44.91692962239176L53.914032,41.189779244204146L53.912848,38.95373129076253L53.914032,41.680909913000306L58.754816000000005,39.24849258798139L58.762512,35.75476385345024L58.761328,39.76146138274291L58.760736,44.19975500283056L63.600928,52.965592208940265L63.610992,46.019343476333034L63.609808,43.88588961651607L63.608032,40.57153173458161L68.446448,46.72006416335876L68.457696,48.37489600671256L68.456512,53.43636684683163L68.457104,46.301819540284555L73.29611200000001,46.08966314261124L73.303808,47.99665508306148L73.302624,49.140850212363546L73.303216,45.758795806819904L78.144592,47.79813463956984L78.149328,42.918880765624294L78.151696,50.162757046941906L78.15051199999999,42.30336850337338L82.991888,37.58773538395613L82.996624,38.82692694525571L82.999584,43.63901331139999L82.99839999999999,38.389122271644766L87.83800000000001,43.37633050636242L87.84392,38.231512589210865L87.848656,33.11033612476345L87.84510399999999,38.17477310354323L92.68529600000001,37.14486386211206L92.693584,38.56120403156439L92.69536,41.445293847524056L92.69299199999999,41.14146202279926L97.533184,40.95916292796494L97.539104,44.91835489964026L97.545024,45.2595843683558L97.54088,37.327179192439075L102.38048,38.67059322974947L102.388768,43.54521308070747L102.391136,48.50427070556776L102.3864,49.44541956619784L107.22718400000001,54.07868031114742L107.237248,50.755779615259826L107.239616,54.86489634058451L107.233696,53.26179494720783L112.075664,50.265648396896125L112.083952,52.53653189528053L112.08928,45.76191913716829L112.079808,45.7657229108724L116.92118400000001,43.73371946080917L116.930656,50.65166024791405L116.936576,46.66528186303415L116.927696,42.23916911782047L121.766704,45.68635861354946L121.78032,45.720386596701104L121.78564800000001,47.775089100877835L121.77617599999999,49.007910603383834L126.61577600000001,63.987603504887446L126.627024,70.94113353150391L126.63471999999999,75.11325154747377L126.624656,79.65080807134139L131.46188800000002,68.13334198566197L131.472544,71.39429090568288L131.484384,71.31657454340974L131.47432,73.30423044033157L136.311552,86.70253826419894L136.321616,86.6043801013765L136.33049599999998,86.54548520368304L136.3228,90.5787196936384L141.158256,109.27294610189733L141.167728,120.48948194685269L141.176608,131.28797488239732L141.171872,135.7327849294384L146.006144,132.2968138148059L146.016208,126.16665971745496L146.02272,126.55713868761583L146.017392,122.72285464114093L150.85284800000002,126.52514135611312L150.861728,122.7036562422393L150.87001600000002,120.41076517391502L150.864688,129.206459104349L155.701328,136.51816117689512L155.7108,142.9394681347085L155.719088,146.79225230939653L155.713168,149.10392281420934L160.548032,150.49092511709705L160.559872,151.32312649882965L160.56579200000002,151.8224473278692L160.55868800000002,152.12203982529297L165.393552,152.3017953237472L165.406576,152.40964862281976L165.411312,152.4743606022633L165.4048,152.5131877899294L170.242624,152.53648410252907L170.253872,152.55046189008885L170.260976,152.55884856262475L170.25328000000002,152.56388056614628L174.860816,152.5668997682592L175.10353600000002,152.56871128952696L175.107088,152.5697982022876L175.100576,152.570450349944L179.70752,152.57084163853781L179.95024,152.57107641169412L179.955568,152.5712172755879L179.94787200000002,152.57130179392416L184.555408,152.57135250492593L184.79576,150.53709721724127L184.80168,147.28225833034475L184.79635199999998,149.39792642677827L189.405072,116.08447014178125L189.64246400000002,89.99353922792588L189.65016,72.30469496532699L189.643648,65.75995983633902L194.254144,76.07311875894628L194.488576,82.26101411251062L194.496272,88.00803703893494L194.49153600000002,91.45625079478953L199.10144,97.59375047687372L199.10795199999998,103.31053600040994L199.11032,108.77489302881739L199.344752,112.05350724586187L203.950512,128.26067577608853L203.954656,137.98497689422456L203.956432,143.81955756510615L204.193824,145.28602025334942L208.797808,148.20018358058107L208.803728,149.94868157692008L208.80432000000002,150.99778037472348L209.042896,151.62723965340552L213.64687999999998,152.00491522061475L213.649248,152.23152056094028L213.64984,152.3674837651356L213.888416,152.44906168765277L218.494176,152.4980084411631L218.495952,148.45880506469786L218.49832,150.10385446739014L218.737488,151.09088410900551L223.34147199999998,151.68310189397474L223.34147199999998,152.03843256495628L223.35864,152.2516309675452L223.347392,152.37955000909855L228.18936,152.45630143403056L228.191136,152.50235228898975L228.20830400000003,152.52998280196528L228.19528,152.5465611097506L233.03784000000002,152.5565080944218L233.03784000000002,152.5624762852245L233.054416,152.56605719970614L233.044944,152.56820574839512L237.883952,152.5694948776085L237.88632,152.57026835513653L237.90408000000002,152.57073244165335L237.89224000000002,152.57101089356343L242.729472,152.57117796470948L242.733616,152.5712782073971L242.75196799999998,152.5713383530097L242.738352,152.57137444037724L247.576176,152.57139609279778L247.581504,152.5714090842501L247.599856,152.5714168791215L247.58683200000002,152.57142155604433L252.42584000000002,152.57142436219803L252.431168,152.57142604589023L252.447744,152.57142705610556L252.434128,152.57142766223478L257.271952,152.5714280259123L257.279648,152.5714282441188L257.297408,152.57142837504273L257.279648,152.57142845359706L262.11984,152.57142850072967L262.128128,152.5714285290092L262.144112,152.57142854597697L262.129312,152.5714285561576" style="fill: none;" fill="none"></path></g><g><path stroke="rgb(255, 112, 67)" stroke-width="2px" d="M34.523664000000004,152.57142857142858L34.524848,152.57142857142858L34.523072,152.57142857142858L34.523072,152.57142857142858L39.369776,152.57142857142858L39.374512,152.57142857142858L39.370368,152.57142857142858L39.370368,152.57142857142858L44.217664,152.57142857142858L44.2224,152.57142857142858L44.21944,152.57142857142858L44.220031999999996,152.57142857142858L49.06318400000001,119.98029085512253L49.06792,96.38110978352184L49.065552,88.33917038524687L49.066736,85.55128716722285L53.909296000000005,75.74054024004091L53.914032,59.68269330978613L53.912848,52.08343863217192L53.914032,53.62726248109196L58.754816000000005,48.450529641208135L58.762512,51.4475000885034L58.761328,49.17705355127097L58.760736,51.883387811549184L63.600928,49.438597164890695L63.610992,43.903148856471034L63.609808,42.616173710961675L63.608032,39.80970250313922L68.446448,42.19439380911007L68.457696,41.59092186633984L68.456512,43.263124770183595L68.457104,42.232160494344924L73.29611200000001,35.51072454707375L73.303808,33.51214895669699L73.302624,38.415860886887884L73.303216,35.25523078524694L78.144592,31.3245670182512L78.149328,39.137597382819166L78.151696,41.79112986417476L78.15051199999999,37.28039219818942L82.991888,40.67680675020918L82.996624,40.680369764412916L82.999584,42.71679328780718L82.99839999999999,43.93864740146739L87.83800000000001,44.671759869528074L87.84392,36.97448449266534L87.848656,40.49326212430233L87.84510399999999,42.60452870320023L92.68529600000001,43.87128865050863L92.693584,38.52848747597625L92.69536,41.425663914171224L92.69299199999999,43.16396977707922L97.533184,44.206953294820806L97.539104,44.832743405464555L97.545024,35.036788900415445L97.54088,41.36493048310879L102.38048,45.1618154327233L102.388768,47.439946402491415L102.391136,50.841110698637976L102.3864,48.813237847754124L107.22718400000001,45.56222842293806L107.237248,37.5087656251913L107.239616,38.77954508940053L107.233696,39.542012767925996L112.075664,44.06806480361277L112.083952,40.68083888216765L112.08928,36.614217615014866L112.079808,40.27710199758036L116.92118400000001,38.40626119854821L116.930656,43.38661386198606L116.936576,40.271968317191636L116.927696,44.506038133172126L121.766704,38.90933716561756L121.78032,39.61988801365624L121.78564800000001,40.04621852247948L121.77617599999999,38.267731113487685L126.61577600000001,33.13206723952118L126.627024,38.187811772284135L126.63471999999999,37.15268706337048L126.624656,34.49732652373655L131.46188800000002,32.90411019995622L131.472544,38.05103754854517L131.484384,35.03633681484138L131.47432,33.227516374619114L136.311552,38.2450812533429L136.321616,41.255620180577154L136.33049599999998,45.096229251203454L136.3228,43.33202326500779L141.158256,40.23921395900467L141.167728,46.52067123254565L141.176608,44.186688453813076L141.171872,42.78629878657358L146.006144,35.84320784337271L146.016208,37.780210420309345L146.02272,36.90812625218561L146.017392,38.41916146559706L150.85284800000002,39.325782593643964L150.861728,41.90404098475781L150.87001600000002,43.4509960194261L150.864688,44.37916904022708L155.701328,46.97035856699341L155.7108,50.55935799733891L155.719088,48.64418622697477L155.713168,49.52936887904198L160.548032,50.06047847028235L160.559872,44.276287082169404L160.56579200000002,46.90862939215879L160.55868800000002,52.55660620672384L165.393552,41.70539229546287L165.406576,45.366092520134856L165.411312,47.562512654938075L165.4048,50.91465045010571L170.242624,46.82307598434912L170.253872,44.3681313048952L170.260976,40.86087878293711L170.25328000000002,46.89367012690511L174.860816,42.37620207614307L175.10353600000002,37.631435531400115L175.107088,44.95600417598294L175.100576,47.31645964844691L179.70752,52.8013043604967L179.95024,49.98935404486946L179.955568,50.3364695697788L179.94787200000002,56.64759602758157L184.555408,48.228557616548954L184.79576,49.27999171278648L184.80168,49.91085217052904L184.79635199999998,52.32365415946029L189.405072,47.668478209961876L189.64246400000002,46.909658354548554L189.65016,44.420080727014835L189.643648,46.99490557906606L194.254144,42.43694334743964L194.488576,41.73645172274948L194.496272,43.35044246222111L194.49153600000002,44.31883690590411L199.10144,46.93415928639959L199.10795199999998,48.503352714696916L199.11032,51.479154485961004L199.344752,41.058921263005175L203.950512,38.875352757803114L203.954656,33.49664022611043L203.956432,40.44084127852341L204.193824,42.57307619568547L208.797808,49.95527428883986L208.803728,52.350307430446776L208.80432000000002,47.68447017255377L209.042896,46.91925353210368L213.64687999999998,46.46012354783363L213.649248,48.218931271557324L213.64984,49.27421590579155L213.888416,45.83881525776064L218.494176,37.674717726084964L218.495952,40.913402064222424L218.49832,44.8908983813906L218.737488,47.27739617169152L223.34147199999998,44.64072341730062L223.34147199999998,49.16157690752323L223.35864,45.77123185879964L223.347392,43.73702482956551L228.18936,42.516500612025L228.191136,43.81847179578645L228.20830400000003,44.599654506043294L228.19528,45.06836413219739L233.03784000000002,41.28101847931842L233.03784000000002,41.042896801876765L233.054416,42.9343095096975L233.044944,42.034871420104196L237.883952,43.52949428063394L237.88632,40.35769656838036L237.90408000000002,40.48890365531392L237.89224000000002,42.60191362175979L242.729472,35.73257674448445L242.733616,41.78240318954781L242.75196799999998,43.378013342300136L242.738352,48.40395086252295L247.576176,47.350941946085186L247.581504,46.71913659622254L247.599856,50.408624814876376L247.58683200000002,50.58803203178299L252.42584000000002,50.69567636192694L252.431168,48.72597724572759L252.447744,47.54415777600798L252.434128,50.903637522747644L257.271952,48.850753942219995L257.279648,47.61902379390341L257.297408,50.948557133484925L257.279648,50.911991422948105L262.11984,46.82148056805457L262.128128,48.435745483689885L262.144112,47.37001871878536L262.129312,50.79915408841407" style="fill: none;" fill="none"></path></g></g></g></g><g opacity="0.2"><g><g><g><path stroke="rgb(204, 51, 17)" stroke-width="2px" d="M34.523664000000004,152.57142857142858L34.524848,152.57142857142858L34.523072,152.57142857142858L34.523072,152.57142857142858L39.369776,152.57142857142858L39.374512,152.57142857142858L39.370368,152.57142857142858L39.370368,152.57142857142858L44.217664,152.57142857142858L44.2224,152.57142857142858L44.21944,152.57142857142858L44.220031999999996,152.57142857142858L49.06318400000001,152.57142857142858L49.06792,152.57142857142858L49.065552,152.57142857142858L49.066736,147.4857142857143L53.909296000000005,147.4857142857143L53.914032,142.4L53.912848,142.4L53.914032,142.4L58.754816000000005,66.11428571428571L58.762512,50.85714285714286L58.761328,55.942857142857136L58.760736,50.85714285714286L63.600928,45.77142857142857L63.610992,50.85714285714286L63.609808,50.85714285714286L63.608032,45.77142857142857L68.446448,30.514285714285705L68.457696,55.942857142857136L68.456512,40.68571428571428L68.457104,40.68571428571428L73.29611200000001,45.77142857142857L73.303808,50.85714285714286L73.302624,35.599999999999994L73.303216,50.85714285714286L78.144592,20.342857142857156L78.149328,35.599999999999994L78.151696,10.171428571428578L78.15051199999999,40.68571428571428L82.991888,50.85714285714286L82.996624,40.68571428571428L82.999584,45.77142857142857L82.99839999999999,35.599999999999994L87.83800000000001,40.68571428571428L87.84392,40.68571428571428L87.848656,45.77142857142857L87.84510399999999,50.85714285714286L92.68529600000001,45.77142857142857L92.693584,50.85714285714286L92.69536,40.68571428571428L92.69299199999999,50.85714285714286L97.533184,55.942857142857136L97.539104,55.942857142857136L97.545024,40.68571428571428L97.54088,40.68571428571428L102.38048,35.599999999999994L102.388768,30.514285714285705L102.391136,40.68571428571428L102.3864,30.514285714285705L107.22718400000001,40.68571428571428L107.237248,50.85714285714286L107.239616,50.85714285714286L107.233696,55.942857142857136L112.075664,40.68571428571428L112.083952,35.599999999999994L112.08928,35.599999999999994L112.079808,55.942857142857136L116.92118400000001,55.942857142857136L116.930656,30.514285714285705L116.936576,40.68571428571428L116.927696,50.85714285714286L121.766704,45.77142857142857L121.78032,45.77142857142857L121.78564800000001,35.599999999999994L121.77617599999999,50.85714285714286L126.61577600000001,45.77142857142857L126.627024,50.85714285714286L126.63471999999999,35.599999999999994L126.624656,40.68571428571428L131.46188800000002,45.77142857142857L131.472544,35.599999999999994L131.484384,40.68571428571428L131.47432,40.68571428571428L136.311552,40.68571428571428L136.321616,45.77142857142857L136.33049599999998,55.942857142857136L136.3228,30.514285714285705L141.158256,50.85714285714286L141.167728,61.028571428571425L141.176608,40.68571428571428L141.171872,35.599999999999994L146.006144,40.68571428571428L146.016208,35.599999999999994L146.02272,40.68571428571428L146.017392,30.514285714285705L150.85284800000002,40.68571428571428L150.861728,45.77142857142857L150.87001600000002,35.599999999999994L150.864688,40.68571428571428L155.701328,50.85714285714286L155.7108,50.85714285714286L155.719088,30.514285714285705L155.713168,50.85714285714286L160.548032,45.77142857142857L160.559872,50.85714285714286L160.56579200000002,45.77142857142857L160.55868800000002,50.85714285714286L165.393552,40.68571428571428L165.406576,55.942857142857136L165.411312,50.85714285714286L165.4048,55.942857142857136L170.242624,55.942857142857136L170.253872,55.942857142857136L170.260976,66.11428571428571L170.25328000000002,50.85714285714286L174.860816,55.942857142857136L175.10353600000002,55.942857142857136L175.107088,61.028571428571425L175.100576,50.85714285714286L179.70752,55.942857142857136L179.95024,40.68571428571428L179.955568,45.77142857142857L179.94787200000002,45.77142857142857L184.555408,50.85714285714286L184.79576,50.85714285714286L184.80168,55.942857142857136L184.79635199999998,50.85714285714286L189.405072,55.942857142857136L189.64246400000002,45.77142857142857L189.65016,35.599999999999994L189.643648,30.514285714285705L194.254144,50.85714285714286L194.488576,66.11428571428571L194.496272,71.2L194.49153600000002,61.028571428571425L199.10144,61.028571428571425L199.10795199999998,76.28571428571429L199.11032,55.942857142857136L199.344752,55.942857142857136L203.950512,66.11428571428571L203.954656,76.28571428571429L203.956432,71.2L204.193824,61.028571428571425L208.797808,55.942857142857136L208.803728,61.028571428571425L208.80432000000002,61.028571428571425L209.042896,50.85714285714286L213.64687999999998,76.28571428571429L213.649248,86.45714285714287L213.64984,86.45714285714287L213.888416,76.28571428571429L218.494176,111.88571428571429L218.495952,127.14285714285714L218.49832,106.8L218.737488,116.97142857142856L223.34147199999998,96.62857142857143L223.34147199999998,96.62857142857143L223.35864,106.8L223.347392,96.62857142857143L228.18936,81.37142857142858L228.191136,71.2L228.20830400000003,81.37142857142858L228.19528,81.37142857142858L233.03784000000002,61.028571428571425L233.03784000000002,45.77142857142857L233.054416,45.77142857142857L233.044944,55.942857142857136L237.883952,61.028571428571425L237.88632,50.85714285714286L237.90408000000002,45.77142857142857L237.89224000000002,66.11428571428571L242.729472,106.8L242.733616,101.71428571428572L242.75196799999998,116.97142857142856L242.738352,111.88571428571429L247.576176,142.4L247.581504,152.57142857142858L247.599856,152.57142857142858L247.58683200000002,142.4L252.42584000000002,147.4857142857143L252.431168,147.4857142857143L252.447744,152.57142857142858L252.434128,152.57142857142858L257.271952,152.57142857142858L257.279648,152.57142857142858L257.297408,152.57142857142858L257.279648,152.57142857142858L262.11984,152.57142857142858L262.128128,152.57142857142858L262.144112,152.57142857142858L262.129312,152.57142857142858" style="fill: none;" fill="none"></path></g><g><path stroke="rgb(0, 119, 187)" stroke-width="2px" d="M34.523664000000004,142.4L34.524848,142.4L34.523072,147.4857142857143L34.523072,142.4L39.369776,40.68571428571428L39.374512,61.028571428571425L39.370368,55.942857142857136L39.370368,45.77142857142857L44.217664,30.514285714285705L44.2224,35.599999999999994L44.21944,25.428571428571445L44.220031999999996,40.68571428571428L49.06318400000001,55.942857142857136L49.06792,50.85714285714286L49.065552,45.77142857142857L49.066736,40.68571428571428L53.909296000000005,45.77142857142857L53.914032,35.599999999999994L53.912848,35.599999999999994L53.914032,45.77142857142857L58.754816000000005,35.599999999999994L58.762512,30.514285714285705L58.761328,45.77142857142857L58.760736,50.85714285714286L63.600928,66.11428571428571L63.610992,35.599999999999994L63.609808,40.68571428571428L63.608032,35.599999999999994L68.446448,55.942857142857136L68.457696,50.85714285714286L68.456512,61.028571428571425L68.457104,35.599999999999994L73.29611200000001,45.77142857142857L73.303808,50.85714285714286L73.302624,50.85714285714286L73.303216,40.68571428571428L78.144592,50.85714285714286L78.149328,35.599999999999994L78.151696,61.028571428571425L78.15051199999999,30.514285714285705L82.991888,30.514285714285705L82.996624,40.68571428571428L82.999584,50.85714285714286L82.99839999999999,30.514285714285705L87.83800000000001,50.85714285714286L87.84392,30.514285714285705L87.848656,25.428571428571445L87.84510399999999,45.77142857142857L92.68529600000001,35.599999999999994L92.693584,40.68571428571428L92.69536,45.77142857142857L92.69299199999999,40.68571428571428L97.533184,40.68571428571428L97.539104,50.85714285714286L97.545024,45.77142857142857L97.54088,25.428571428571445L102.38048,40.68571428571428L102.388768,50.85714285714286L102.391136,55.942857142857136L102.3864,50.85714285714286L107.22718400000001,61.028571428571425L107.237248,45.77142857142857L107.239616,61.028571428571425L107.233696,50.85714285714286L112.075664,45.77142857142857L112.083952,55.942857142857136L112.08928,35.599999999999994L112.079808,45.77142857142857L116.92118400000001,40.68571428571428L116.930656,61.028571428571425L116.936576,40.68571428571428L116.927696,35.599999999999994L121.766704,50.85714285714286L121.78032,45.77142857142857L121.78564800000001,50.85714285714286L121.77617599999999,50.85714285714286L126.61577600000001,86.45714285714287L126.627024,81.37142857142858L126.63471999999999,81.37142857142858L126.624656,86.45714285714287L131.46188800000002,50.85714285714286L131.472544,76.28571428571429L131.484384,71.2L131.47432,76.28571428571429L136.311552,106.8L136.321616,86.45714285714287L136.33049599999998,86.45714285714287L136.3228,96.62857142857143L141.158256,137.31428571428572L141.167728,137.31428571428572L141.176608,147.4857142857143L141.171872,142.4L146.006144,127.14285714285714L146.016208,116.97142857142856L146.02272,127.14285714285714L146.017392,116.97142857142856L150.85284800000002,132.22857142857143L150.861728,116.97142857142856L150.87001600000002,116.97142857142856L150.864688,142.4L155.701328,147.4857142857143L155.7108,152.57142857142858L155.719088,152.57142857142858L155.713168,152.57142857142858L160.548032,152.57142857142858L160.559872,152.57142857142858L160.56579200000002,152.57142857142858L160.55868800000002,152.57142857142858L165.393552,152.57142857142858L165.406576,152.57142857142858L165.411312,152.57142857142858L165.4048,152.57142857142858L170.242624,152.57142857142858L170.253872,152.57142857142858L170.260976,152.57142857142858L170.25328000000002,152.57142857142858L174.860816,152.57142857142858L175.10353600000002,152.57142857142858L175.107088,152.57142857142858L175.100576,152.57142857142858L179.70752,152.57142857142858L179.95024,152.57142857142858L179.955568,152.57142857142858L179.94787200000002,152.57142857142858L184.555408,152.57142857142858L184.79576,147.4857142857143L184.80168,142.4L184.79635199999998,152.57142857142858L189.405072,66.11428571428571L189.64246400000002,50.85714285714286L189.65016,45.77142857142857L189.643648,55.942857142857136L194.254144,91.54285714285714L194.488576,91.54285714285714L194.496272,96.62857142857143L194.49153600000002,96.62857142857143L199.10144,106.8L199.10795199999998,111.88571428571429L199.11032,116.97142857142856L199.344752,116.97142857142856L203.950512,152.57142857142858L203.954656,152.57142857142858L203.956432,152.57142857142858L204.193824,147.4857142857143L208.797808,152.57142857142858L208.803728,152.57142857142858L208.80432000000002,152.57142857142858L209.042896,152.57142857142858L213.64687999999998,152.57142857142858L213.649248,152.57142857142858L213.64984,152.57142857142858L213.888416,152.57142857142858L218.494176,152.57142857142858L218.495952,142.4L218.49832,152.57142857142858L218.737488,152.57142857142858L223.34147199999998,152.57142857142858L223.34147199999998,152.57142857142858L223.35864,152.57142857142858L223.347392,152.57142857142858L228.18936,152.57142857142858L228.191136,152.57142857142858L228.20830400000003,152.57142857142858L228.19528,152.57142857142858L233.03784000000002,152.57142857142858L233.03784000000002,152.57142857142858L233.054416,152.57142857142858L233.044944,152.57142857142858L237.883952,152.57142857142858L237.88632,152.57142857142858L237.90408000000002,152.57142857142858L237.89224000000002,152.57142857142858L242.729472,152.57142857142858L242.733616,152.57142857142858L242.75196799999998,152.57142857142858L242.738352,152.57142857142858L247.576176,152.57142857142858L247.581504,152.57142857142858L247.599856,152.57142857142858L247.58683200000002,152.57142857142858L252.42584000000002,152.57142857142858L252.431168,152.57142857142858L252.447744,152.57142857142858L252.434128,152.57142857142858L257.271952,152.57142857142858L257.279648,152.57142857142858L257.297408,152.57142857142858L257.279648,152.57142857142858L262.11984,152.57142857142858L262.128128,152.57142857142858L262.144112,152.57142857142858L262.129312,152.57142857142858" style="fill: none;" fill="none"></path></g><g><path stroke="rgb(255, 112, 67)" stroke-width="2px" d="M34.523664000000004,152.57142857142858L34.524848,152.57142857142858L34.523072,152.57142857142858L34.523072,152.57142857142858L39.369776,152.57142857142858L39.374512,152.57142857142858L39.370368,152.57142857142858L39.370368,152.57142857142858L44.217664,152.57142857142858L44.2224,152.57142857142858L44.21944,152.57142857142858L44.220031999999996,152.57142857142858L49.06318400000001,71.2L49.06792,61.028571428571425L49.065552,76.28571428571429L49.066736,81.37142857142858L53.909296000000005,61.028571428571425L53.914032,35.599999999999994L53.912848,40.68571428571428L53.914032,55.942857142857136L58.754816000000005,40.68571428571428L58.762512,55.942857142857136L58.761328,45.77142857142857L58.760736,55.942857142857136L63.600928,45.77142857142857L63.610992,35.599999999999994L63.609808,40.68571428571428L63.608032,35.599999999999994L68.446448,45.77142857142857L68.457696,40.68571428571428L68.456512,45.77142857142857L68.457104,40.68571428571428L73.29611200000001,25.428571428571445L73.303808,30.514285714285705L73.302624,45.77142857142857L73.303216,30.514285714285705L78.144592,25.428571428571445L78.149328,50.85714285714286L78.151696,45.77142857142857L78.15051199999999,30.514285714285705L82.991888,45.77142857142857L82.996624,40.68571428571428L82.999584,45.77142857142857L82.99839999999999,45.77142857142857L87.83800000000001,45.77142857142857L87.84392,25.428571428571445L87.848656,45.77142857142857L87.84510399999999,45.77142857142857L92.68529600000001,45.77142857142857L92.693584,30.514285714285705L92.69536,45.77142857142857L92.69299199999999,45.77142857142857L97.533184,45.77142857142857L97.539104,45.77142857142857L97.545024,20.342857142857156L97.54088,50.85714285714286L102.38048,50.85714285714286L102.388768,50.85714285714286L102.391136,55.942857142857136L102.3864,45.77142857142857L107.22718400000001,40.68571428571428L107.237248,25.428571428571445L107.239616,40.68571428571428L107.233696,40.68571428571428L112.075664,50.85714285714286L112.083952,35.599999999999994L112.08928,30.514285714285705L112.079808,45.77142857142857L116.92118400000001,35.599999999999994L116.930656,50.85714285714286L116.936576,35.599999999999994L116.927696,50.85714285714286L121.766704,30.514285714285705L121.78032,40.68571428571428L121.78564800000001,40.68571428571428L121.77617599999999,35.599999999999994L126.61577600000001,25.428571428571445L126.627024,45.77142857142857L126.63471999999999,35.599999999999994L126.624656,30.514285714285705L131.46188800000002,30.514285714285705L131.472544,45.77142857142857L131.484384,30.514285714285705L131.47432,30.514285714285705L136.311552,45.77142857142857L136.321616,45.77142857142857L136.33049599999998,50.85714285714286L136.3228,40.68571428571428L141.158256,35.599999999999994L141.167728,55.942857142857136L141.176608,40.68571428571428L141.171872,40.68571428571428L146.006144,25.428571428571445L146.016208,40.68571428571428L146.02272,35.599999999999994L146.017392,40.68571428571428L150.85284800000002,40.68571428571428L150.861728,45.77142857142857L150.87001600000002,45.77142857142857L150.864688,45.77142857142857L155.701328,50.85714285714286L155.7108,55.942857142857136L155.719088,45.77142857142857L155.713168,50.85714285714286L160.548032,50.85714285714286L160.559872,35.599999999999994L160.56579200000002,50.85714285714286L160.55868800000002,61.028571428571425L165.393552,25.428571428571445L165.406576,50.85714285714286L165.411312,50.85714285714286L165.4048,55.942857142857136L170.242624,40.68571428571428L170.253872,40.68571428571428L170.260976,35.599999999999994L170.25328000000002,55.942857142857136L174.860816,35.599999999999994L175.10353600000002,30.514285714285705L175.107088,55.942857142857136L175.100576,50.85714285714286L179.70752,61.028571428571425L179.95024,45.77142857142857L179.955568,50.85714285714286L179.94787200000002,66.11428571428571L184.555408,35.599999999999994L184.79576,50.85714285714286L184.80168,50.85714285714286L184.79635199999998,55.942857142857136L189.405072,40.68571428571428L189.64246400000002,45.77142857142857L189.65016,40.68571428571428L189.643648,50.85714285714286L194.254144,35.599999999999994L194.488576,40.68571428571428L194.496272,45.77142857142857L194.49153600000002,45.77142857142857L199.10144,50.85714285714286L199.10795199999998,50.85714285714286L199.11032,55.942857142857136L199.344752,25.428571428571445L203.950512,35.599999999999994L203.954656,25.428571428571445L203.956432,50.85714285714286L204.193824,45.77142857142857L208.797808,61.028571428571425L208.803728,55.942857142857136L208.80432000000002,40.68571428571428L209.042896,45.77142857142857L213.64687999999998,45.77142857142857L213.649248,50.85714285714286L213.64984,50.85714285714286L213.888416,40.68571428571428L218.494176,25.428571428571445L218.495952,45.77142857142857L218.49832,50.85714285714286L218.737488,50.85714285714286L223.34147199999998,40.68571428571428L223.34147199999998,55.942857142857136L223.35864,40.68571428571428L223.347392,40.68571428571428L228.18936,40.68571428571428L228.191136,45.77142857142857L228.20830400000003,45.77142857142857L228.19528,45.77142857142857L233.03784000000002,35.599999999999994L233.03784000000002,40.68571428571428L233.054416,45.77142857142857L233.044944,40.68571428571428L237.883952,45.77142857142857L237.88632,35.599999999999994L237.90408000000002,40.68571428571428L237.89224000000002,45.77142857142857L242.729472,25.428571428571445L242.733616,50.85714285714286L242.75196799999998,45.77142857142857L242.738352,55.942857142857136L247.576176,45.77142857142857L247.581504,45.77142857142857L247.599856,55.942857142857136L247.58683200000002,50.85714285714286L252.42584000000002,50.85714285714286L252.431168,45.77142857142857L252.447744,45.77142857142857L252.434128,55.942857142857136L257.271952,45.77142857142857L257.279648,45.77142857142857L257.297408,55.942857142857136L257.279648,50.85714285714286L262.11984,40.68571428571428L262.128128,50.85714285714286L262.144112,45.77142857142857L262.129312,55.942857142857136" style="fill: none;" fill="none"></path></g></g></g></g></g></g><g transform="translate(34, 178)" clip-path="url(#clip_1)"><clipPath id="clip_1"><rect width="296" height="22"></rect></clipPath><g><g><line x1="0" y1="0" x2="0" y2="5" style="visibility: inherit;" fill="rgb(0, 0, 0)" stroke="rgb(204, 204, 204)" stroke-width="1px"></line><line x1="29.6" y1="0" x2="29.6" y2="5" style="visibility: inherit;" fill="rgb(0, 0, 0)" stroke="rgb(204, 204, 204)" stroke-width="1px"></line><line x1="59.2" y1="0" x2="59.2" y2="5" style="visibility: inherit;" fill="rgb(0, 0, 0)" stroke="rgb(204, 204, 204)" stroke-width="1px"></line><line x1="88.8" y1="0" x2="88.8" y2="5" style="visibility: inherit;" fill="rgb(0, 0, 0)" stroke="rgb(204, 204, 204)" stroke-width="1px"></line><line x1="118.4" y1="0" x2="118.4" y2="5" style="visibility: inherit;" fill="rgb(0, 0, 0)" stroke="rgb(204, 204, 204)" stroke-width="1px"></line><line x1="148" y1="0" x2="148" y2="5" style="visibility: inherit;" fill="rgb(0, 0, 0)" stroke="rgb(204, 204, 204)" stroke-width="1px"></line><line x1="177.6" y1="0" x2="177.6" y2="5" style="visibility: inherit;" fill="rgb(0, 0, 0)" stroke="rgb(204, 204, 204)" stroke-width="1px"></line><line x1="207.2" y1="0" x2="207.2" y2="5" style="visibility: inherit;" fill="rgb(0, 0, 0)" stroke="rgb(204, 204, 204)" stroke-width="1px"></line><line x1="236.8" y1="0" x2="236.8" y2="5" style="visibility: inherit;" fill="rgb(0, 0, 0)" stroke="rgb(204, 204, 204)" stroke-width="1px"></line><line x1="266.40000000000003" y1="0" x2="266.40000000000003" y2="5" style="visibility: inherit;" fill="rgb(0, 0, 0)" stroke="rgb(204, 204, 204)" stroke-width="1px"></line><line x1="296" y1="0" x2="296" y2="5" style="visibility: inherit;" fill="rgb(0, 0, 0)" stroke="rgb(204, 204, 204)" stroke-width="1px"></line></g><g transform="translate(0, 8)"><text x="0" y="0" dx="0em" dy="0.95em" style="text-anchor: middle; visibility: hidden; font-family: &quot;Helvetica Neue&quot;, sans-serif; font-size: 12px; font-weight: 200;" fill="rgb(50, 49, 63)" stroke="none" stroke-width="1px">-50k</text><text x="29.6" y="0" dx="0em" dy="0.95em" style="text-anchor: middle; visibility: inherit; font-family: &quot;Helvetica Neue&quot;, sans-serif; font-size: 12px; font-weight: 200;" fill="rgb(50, 49, 63)" stroke="none" stroke-width="1px">0</text><text x="59.2" y="0" dx="0em" dy="0.95em" style="text-anchor: middle; visibility: hidden; font-family: &quot;Helvetica Neue&quot;, sans-serif; font-size: 12px; font-weight: 200;" fill="rgb(50, 49, 63)" stroke="none" stroke-width="1px">50k</text><text x="88.8" y="0" dx="0em" dy="0.95em" style="text-anchor: middle; visibility: inherit; font-family: &quot;Helvetica Neue&quot;, sans-serif; font-size: 12px; font-weight: 200;" fill="rgb(50, 49, 63)" stroke="none" stroke-width="1px">100k</text><text x="118.4" y="0" dx="0em" dy="0.95em" style="text-anchor: middle; visibility: hidden; font-family: &quot;Helvetica Neue&quot;, sans-serif; font-size: 12px; font-weight: 200;" fill="rgb(50, 49, 63)" stroke="none" stroke-width="1px">150k</text><text x="148" y="0" dx="0em" dy="0.95em" style="text-anchor: middle; visibility: inherit; font-family: &quot;Helvetica Neue&quot;, sans-serif; font-size: 12px; font-weight: 200;" fill="rgb(50, 49, 63)" stroke="none" stroke-width="1px">200k</text><text x="177.6" y="0" dx="0em" dy="0.95em" style="text-anchor: middle; visibility: hidden; font-family: &quot;Helvetica Neue&quot;, sans-serif; font-size: 12px; font-weight: 200;" fill="rgb(50, 49, 63)" stroke="none" stroke-width="1px">250k</text><text x="207.2" y="0" dx="0em" dy="0.95em" style="text-anchor: middle; visibility: inherit; font-family: &quot;Helvetica Neue&quot;, sans-serif; font-size: 12px; font-weight: 200;" fill="rgb(50, 49, 63)" stroke="none" stroke-width="1px">300k</text><text x="236.8" y="0" dx="0em" dy="0.95em" style="text-anchor: middle; visibility: hidden; font-family: &quot;Helvetica Neue&quot;, sans-serif; font-size: 12px; font-weight: 200;" fill="rgb(50, 49, 63)" stroke="none" stroke-width="1px">350k</text><text x="266.40000000000003" y="0" dx="0em" dy="0.95em" style="text-anchor: middle; visibility: inherit; font-family: &quot;Helvetica Neue&quot;, sans-serif; font-size: 12px; font-weight: 200;" fill="rgb(50, 49, 63)" stroke="none" stroke-width="1px">400k</text><text x="296" y="0" dx="0em" dy="0.95em" style="text-anchor: middle; visibility: hidden; font-family: &quot;Helvetica Neue&quot;, sans-serif; font-size: 12px; font-weight: 200;" fill="rgb(50, 49, 63)" stroke="none" stroke-width="1px">450k</text></g><line x1="0" y1="0" x2="296" y2="0" fill="rgb(0, 0, 0)" stroke="rgb(204, 204, 204)" stroke-width="1px"></line></g></g></g></g></svg>