<svg viewBox="0 0 330 200" xmlns="http://www.w3.org/2000/svg"><g><g><g><g><g><line x1="58" y1="178" x2="53" y2="178" style="visibility: inherit;" fill="rgb(0, 0, 0)" stroke="rgb(204, 204, 204)" stroke-width="1px"></line><line x1="58" y1="165.28571428571428" x2="53" y2="165.28571428571428" style="visibility: inherit;" fill="rgb(0, 0, 0)" stroke="rgb(204, 204, 204)" stroke-width="1px"></line><line x1="58" y1="152.57142857142858" x2="53" y2="152.57142857142858" style="visibility: inherit;" fill="rgb(0, 0, 0)" stroke="rgb(204, 204, 204)" stroke-width="1px"></line><line x1="58" y1="139.85714285714286" x2="53" y2="139.85714285714286" style="visibility: inherit;" fill="rgb(0, 0, 0)" stroke="rgb(204, 204, 204)" stroke-width="1px"></line><line x1="58" y1="127.14285714285714" x2="53" y2="127.14285714285714" style="visibility: inherit;" fill="rgb(0, 0, 0)" stroke="rgb(204, 204, 204)" stroke-width="1px"></line><line x1="58" y1="114.42857142857143" x2="53" y2="114.42857142857143" style="visibility: inherit;" fill="rgb(0, 0, 0)" stroke="rgb(204, 204, 204)" stroke-width="1px"></line><line x1="58" y1="101.71428571428572" x2="53" y2="101.71428571428572" style="visibility: inherit;" fill="rgb(0, 0, 0)" stroke="rgb(204, 204, 204)" stroke-width="1px"></line><line x1="58" y1="89" x2="53" y2="89" style="visibility: inherit;" fill="rgb(0, 0, 0)" stroke="rgb(204, 204, 204)" stroke-width="1px"></line><line x1="58" y1="76.28571428571429" x2="53" y2="76.28571428571429" style="visibility: inherit;" fill="rgb(0, 0, 0)" stroke="rgb(204, 204, 204)" stroke-width="1px"></line><line x1="58" y1="63.57142857142857" x2="53" y2="63.57142857142857" style="visibility: inherit;" fill="rgb(0, 0, 0)" stroke="rgb(204, 204, 204)" stroke-width="1px"></line><line x1="58" y1="50.85714285714286" x2="53" y2="50.85714285714286" style="visibility: inherit;" fill="rgb(0, 0, 0)" stroke="rgb(204, 204, 204)" stroke-width="1px"></line><line x1="58" y1="38.14285714285714" x2="53" y2="38.14285714285714" style="visibility: inherit;" fill="rgb(0, 0, 0)" stroke="rgb(204, 204, 204)" stroke-width="1px"></line><line x1="58" y1="25.428571428571445" x2="53" y2="25.428571428571445" style="visibility: inherit;" fill="rgb(0, 0, 0)" stroke="rgb(204, 204, 204)" stroke-width="1px"></line><line x1="58" y1="12.714285714285722" x2="53" y2="12.714285714285722" style="visibility: inherit;" fill="rgb(0, 0, 0)" stroke="rgb(204, 204, 204)" stroke-width="1px"></line><line x1="58" y1="0" x2="53" y2="0" style="visibility: inherit;" fill="rgb(0, 0, 0)" stroke="rgb(204, 204, 204)" stroke-width="1px"></line></g><g transform="translate(48, 0)"><text x="0" y="178" dx="0em" dy="0.3em" style="text-anchor: end; visibility: hidden; font-family: &quot;Helvetica Neue&quot;, sans-serif; font-size: 12px; font-weight: 200;" fill="rgb(50, 49, 63)" stroke="none" stroke-width="1px">17.5</text><text x="0" y="165.28571428571428" dx="0em" dy="0.3em" style="text-anchor: end; visibility: inherit; font-family: &quot;Helvetica Neue&quot;, sans-serif; font-size: 12px; font-weight: 200;" fill="rgb(50, 49, 63)" stroke="none" stroke-width="1px">18</text><text x="0" y="152.57142857142858" dx="0em" dy="0.3em" style="text-anchor: end; visibility: hidden; font-family: &quot;Helvetica Neue&quot;, sans-serif; font-size: 12px; font-weight: 200;" fill="rgb(50, 49, 63)" stroke="none" stroke-width="1px">18.5</text><text x="0" y="139.85714285714286" dx="0em" dy="0.3em" style="text-anchor: end; visibility: inherit; font-family: &quot;Helvetica Neue&quot;, sans-serif; font-size: 12px; font-weight: 200;" fill="rgb(50, 49, 63)" stroke="none" stroke-width="1px">19</text><text x="0" y="127.14285714285714" dx="0em" dy="0.3em" style="text-anchor: end; visibility: hidden; font-family: &quot;Helvetica Neue&quot;, sans-serif; font-size: 12px; font-weight: 200;" fill="rgb(50, 49, 63)" stroke="none" stroke-width="1px">19.5</text><text x="0" y="114.42857142857143" dx="0em" dy="0.3em" style="text-anchor: end; visibility: inherit; font-family: &quot;Helvetica Neue&quot;, sans-serif; font-size: 12px; font-weight: 200;" fill="rgb(50, 49, 63)" stroke="none" stroke-width="1px">20</text><text x="0" y="101.71428571428572" dx="0em" dy="0.3em" style="text-anchor: end; visibility: hidden; font-family: &quot;Helvetica Neue&quot;, sans-serif; font-size: 12px; font-weight: 200;" fill="rgb(50, 49, 63)" stroke="none" stroke-width="1px">20.5</text><text x="0" y="89" dx="0em" dy="0.3em" style="text-anchor: end; visibility: inherit; font-family: &quot;Helvetica Neue&quot;, sans-serif; font-size: 12px; font-weight: 200;" fill="rgb(50, 49, 63)" stroke="none" stroke-width="1px">21</text><text x="0" y="76.28571428571429" dx="0em" dy="0.3em" style="text-anchor: end; visibility: hidden; font-family: &quot;Helvetica Neue&quot;, sans-serif; font-size: 12px; font-weight: 200;" fill="rgb(50, 49, 63)" stroke="none" stroke-width="1px">21.5</text><text x="0" y="63.57142857142857" dx="0em" dy="0.3em" style="text-anchor: end; visibility: inherit; font-family: &quot;Helvetica Neue&quot;, sans-serif; font-size: 12px; font-weight: 200;" fill="rgb(50, 49, 63)" stroke="none" stroke-width="1px">22</text><text x="0" y="50.85714285714286" dx="0em" dy="0.3em" style="text-anchor: end; visibility: hidden; font-family: &quot;Helvetica Neue&quot;, sans-serif; font-size: 12px; font-weight: 200;" fill="rgb(50, 49, 63)" stroke="none" stroke-width="1px">22.5</text><text x="0" y="38.14285714285714" dx="0em" dy="0.3em" style="text-anchor: end; visibility: inherit; font-family: &quot;Helvetica Neue&quot;, sans-serif; font-size: 12px; font-weight: 200;" fill="rgb(50, 49, 63)" stroke="none" stroke-width="1px">23</text><text x="0" y="25.428571428571445" dx="0em" dy="0.3em" style="text-anchor: end; visibility: hidden; font-family: &quot;Helvetica Neue&quot;, sans-serif; font-size: 12px; font-weight: 200;" fill="rgb(50, 49, 63)" stroke="none" stroke-width="1px">23.5</text><text x="0" y="12.714285714285722" dx="0em" dy="0.3em" style="text-anchor: end; visibility: inherit; font-family: &quot;Helvetica Neue&quot;, sans-serif; font-size: 12px; font-weight: 200;" fill="rgb(50, 49, 63)" stroke="none" stroke-width="1px">24</text><text x="0" y="0" dx="0em" dy="0.3em" style="text-anchor: end; visibility: hidden; font-family: &quot;Helvetica Neue&quot;, sans-serif; font-size: 12px; font-weight: 200;" fill="rgb(50, 49, 63)" stroke="none" stroke-width="1px">24.5</text></g><line x1="58" y1="0" x2="58" y2="178" fill="rgb(0, 0, 0)" stroke="rgb(204, 204, 204)" stroke-width="1px"></line></g></g><g transform="translate(58, 0)" clip-path="url(#clip_0)"><clipPath id="clip_0"><rect width="272" height="178"></rect></clipPath><g><g><g><line x1="0" y1="0" x2="0" y2="178" fill="rgb(0, 0, 0)" stroke="rgb(60, 60, 60)" stroke-width="1px" opacity="0.25"></line><line x1="27.200000000000003" y1="0" x2="27.200000000000003" y2="178" fill="rgb(0, 0, 0)" stroke="rgb(60, 60, 60)" stroke-width="1px" opacity="0.25"></line><line x1="54.400000000000006" y1="0" x2="54.400000000000006" y2="178" fill="rgb(0, 0, 0)" stroke="rgb(60, 60, 60)" stroke-width="1px" opacity="0.25"></line><line x1="81.6" y1="0" x2="81.6" y2="178" fill="rgb(0, 0, 0)" stroke="rgb(60, 60, 60)" stroke-width="1px" opacity="0.25"></line><line x1="108.80000000000001" y1="0" x2="108.80000000000001" y2="178" fill="rgb(0, 0, 0)" stroke="rgb(60, 60, 60)" stroke-width="1px" opacity="0.25"></line><line x1="136" y1="0" x2="136" y2="178" fill="rgb(0, 0, 0)" stroke="rgb(60, 60, 60)" stroke-width="1px" opacity="0.25"></line><line x1="163.2" y1="0" x2="163.2" y2="178" fill="rgb(0, 0, 0)" stroke="rgb(60, 60, 60)" stroke-width="1px" opacity="0.25"></line><line x1="190.39999999999998" y1="0" x2="190.39999999999998" y2="178" fill="rgb(0, 0, 0)" stroke="rgb(60, 60, 60)" stroke-width="1px" opacity="0.25"></line><line x1="217.60000000000002" y1="0" x2="217.60000000000002" y2="178" fill="rgb(0, 0, 0)" stroke="rgb(60, 60, 60)" stroke-width="1px" opacity="0.25"></line><line x1="244.8" y1="0" x2="244.8" y2="178" fill="rgb(0, 0, 0)" stroke="rgb(60, 60, 60)" stroke-width="1px" opacity="0.25"></line><line x1="272" y1="0" x2="272" y2="178" fill="rgb(0, 0, 0)" stroke="rgb(60, 60, 60)" stroke-width="1px" opacity="0.25"></line></g><g><line x1="0" y1="178" x2="272" y2="178" fill="rgb(0, 0, 0)" stroke="rgb(60, 60, 60)" stroke-width="1px" opacity="0.25"></line><line x1="0" y1="165.28571428571428" x2="272" y2="165.28571428571428" fill="rgb(0, 0, 0)" stroke="rgb(60, 60, 60)" stroke-width="1px" opacity="0.25"></line><line x1="0" y1="152.57142857142858" x2="272" y2="152.57142857142858" fill="rgb(0, 0, 0)" stroke="rgb(60, 60, 60)" stroke-width="1px" opacity="0.25"></line><line x1="0" y1="139.85714285714286" x2="272" y2="139.85714285714286" fill="rgb(0, 0, 0)" stroke="rgb(60, 60, 60)" stroke-width="1px" opacity="0.25"></line><line x1="0" y1="127.14285714285714" x2="272" y2="127.14285714285714" fill="rgb(0, 0, 0)" stroke="rgb(60, 60, 60)" stroke-width="1px" opacity="0.25"></line><line x1="0" y1="114.42857142857143" x2="272" y2="114.42857142857143" fill="rgb(0, 0, 0)" stroke="rgb(60, 60, 60)" stroke-width="1px" opacity="0.25"></line><line x1="0" y1="101.71428571428572" x2="272" y2="101.71428571428572" fill="rgb(0, 0, 0)" stroke="rgb(60, 60, 60)" stroke-width="1px" opacity="0.25"></line><line x1="0" y1="89" x2="272" y2="89" fill="rgb(0, 0, 0)" stroke="rgb(60, 60, 60)" stroke-width="1px" opacity="0.25"></line><line x1="0" y1="76.28571428571429" x2="272" y2="76.28571428571429" fill="rgb(0, 0, 0)" stroke="rgb(60, 60, 60)" stroke-width="1px" opacity="0.25"></line><line x1="0" y1="63.57142857142857" x2="272" y2="63.57142857142857" fill="rgb(0, 0, 0)" stroke="rgb(60, 60, 60)" stroke-width="1px" opacity="0.25"></line><line x1="0" y1="50.85714285714286" x2="272" y2="50.85714285714286" fill="rgb(0, 0, 0)" stroke="rgb(60, 60, 60)" stroke-width="1px" opacity="0.25"></line><line x1="0" y1="38.14285714285714" x2="272" y2="38.14285714285714" fill="rgb(0, 0, 0)" stroke="rgb(60, 60, 60)" stroke-width="1px" opacity="0.25"></line><line x1="0" y1="25.428571428571445" x2="272" y2="25.428571428571445" fill="rgb(0, 0, 0)" stroke="rgb(60, 60, 60)" stroke-width="1px" opacity="0.25"></line><line x1="0" y1="12.714285714285722" x2="272" y2="12.714285714285722" fill="rgb(0, 0, 0)" stroke="rgb(60, 60, 60)" stroke-width="1px" opacity="0.25"></line><line x1="0" y1="0" x2="272" y2="0" fill="rgb(0, 0, 0)" stroke="rgb(60, 60, 60)" stroke-width="1px" opacity="0.25"></line></g></g></g><g><g><line x1="0" y1="623" x2="272" y2="623" fill="rgb(0, 0, 0)" stroke="rgb(153, 153, 153)" stroke-width="1.5px"></line></g></g><g><g><line x1="27.200000000000003" y1="0" x2="27.200000000000003" y2="178" fill="rgb(0, 0, 0)" stroke="rgb(153, 153, 153)" stroke-width="1.5px"></line></g></g><g><g><g><g><g><path stroke="rgb(0, 119, 187)" stroke-width="2px" d="M40.6368,187.54256224999276L40.63408,147.98201284140396L40.634624,124.33773926777972L45.085088000000006,89.81469692856125L45.08944,79.30915700716494L45.087264,52.65867783487468L45.088352,77.37360762568292L49.538272000000006,92.19810243858973L49.542623999999996,111.2636549026931L49.541536,102.35765024554759L49.542623999999996,107.18619525801316L53.990912,99.91155757144004L53.997984,75.20375219166256L53.996896,29.864750402054767L53.996352,53.518962323909136L58.444096,67.71141774390492L58.453344,35.54108148391322L58.452256,26.410353830850283L58.450624,31.103358037599833L62.896736,33.91915871720283L62.907072,55.95150010109781L62.905984000000004,48.828041972914946L62.906528,44.55396770073281L67.353184,41.989523355125215L67.360256,60.79371455183737L67.359168,41.56194268620894L67.359712,70.70859448378494L71.808544,67.85372810117455L71.812896,66.1408082829157L71.815072,54.941627801941536L71.81398399999999,48.222119529325454L76.262816,23.847557412331298L76.267168,39.73710588361672L76.269888,28.927977812763288L76.2688,63.12821526501145L80.71600000000001,63.30550058759674L80.72144,83.75472892526196L80.725792,85.85283735523562L80.722528,97.28313098482664L85.17027200000001,83.79845001928578L85.177888,45.1933557255451L85.17952,62.71601343541211L85.17734399999999,93.57246520419423L89.625088,101.91490769395958L89.630528,76.4060874734919L89.635968,81.44365248409828L89.63216,64.12333434759533L94.07936000000001,63.90257203712862L94.08697599999999,73.9415432222785L94.089152,59.622068790508806L94.0848,51.03038413144775L98.533088,45.87537333601131L98.542336,52.95379543017836L98.544512,77.54370582953585L98.53907199999999,92.29765206915017L102.988448,70.63573409863292L102.996064,77.98144045917972L103.00096,82.38886427550781L102.992256,105.3761757081619L107.44108800000001,88.6542768534685L107.449792,68.44970896922392L107.45523200000001,66.49839681010572L107.44707199999999,65.3276095146348L111.89372800000001,54.45370856592373L111.90624,68.27222513955425L111.91113600000001,46.049049369446834L111.902432,53.058001050239454L116.34963200000001,67.43480063014371L116.35996800000001,45.546594663800505L116.36703999999999,42.585099655423136L116.357792,71.32248836468246L120.802816,88.56492159023803L120.812608,98.91038152557135L120.823488,54.2605146296286L120.81424,47.81345163492L125.25926399999999,64.28807098095197L125.268512,74.17284258857121L125.27667199999999,100.44656269599987L125.2696,85.69650904617139L129.71299199999999,56.50361971341715L129.721696,100.01645754233604L129.72985599999998,65.09558881111585L129.725504,64.4859247152409L134.167808,53.94869768628739L134.177056,67.9692186117724L134.18304,56.03867402420633L134.178144,48.880347271666636L138.62153600000002,34.41392264871416L138.629696,66.41978216065712L138.637312,65.28044072496563L138.63241599999998,34.08255014926516L143.076896,66.22095866098766L143.0856,54.989718053735416L143.093216,27.908116546526998L143.08777600000002,42.17344135648759L147.530624,30.389779099606812L147.541504,53.833867459764065L147.54694400000002,37.38603476157269L147.540416,68.20304942837224L151.983264,96.86468679988053L151.99523200000002,103.89024065135692L151.999584,97.9341443908142L151.9936,114.70334377734564L156.439168,114.59343483783596L156.449504,114.52748947413019L156.456032,63.63077939876386L156.44896,53.435610496401154L160.682912,77.83279486926921L160.905952,31.442534064418652L160.90921600000001,44.29409186722256L160.903232,52.005026548904894L165.13664,56.6315873579144L165.35968,79.75038098617723L165.364576,103.79308573456348L165.357504,67.36156572645233L169.591456,86.18836800730004L169.81232,87.31302080438L169.81776000000002,87.98781248262806L169.812864,78.22125891814824L174.047904,123.21846963660323L174.266048,119.70251035339057L174.27312,148.1072204977486L174.26713600000002,134.6357608700777L178.503808,106.21002795061804L178.719232,109.49744534179943L178.72630400000003,111.46989577650825L178.72195200000002,112.65336603733347L182.95808,93.0205910509715L182.964064,81.24092605915438L182.96624,104.68741277834972L183.181664,98.41244766700983L187.413984,84.47604002877726L187.417792,65.94276687440924L187.41942400000002,44.65137441035978L187.63756800000002,52.219396074787326L191.868256,87.27449478772951L191.873696,98.13612544406627L191.87424000000001,53.79596098072554L192.09347200000002,67.87757658843535L196.32416,76.32654595306118L196.326336,50.88164185755103L196.32688000000002,76.30041368595921L196.546112,91.55167678300411L200.778432,70.18814892694529L200.78006399999998,98.05574649902431L200.78224,74.09059075655743L201.002016,69.88292588250589L205.23270399999998,97.87261267236065L205.23270399999998,73.98071046055924L205.24848,59.64556913347839L205.238144,81.55877005151568L209.68752,84.53526203090944L209.689152,86.32115721854562L209.70492800000002,97.56412290255597L209.69296,114.48133088439076L214.14288000000002,73.7745128163487L214.14288000000002,79.86470768980928L214.158112,73.34739604245704L214.149408,89.77986619690283L218.59606399999998,48.782205432427446L218.59824,34.355037545170745L218.61456,76.55587966995964L218.60368,81.5335278019758L223.048704,54.00583096689974L223.052512,27.31778429442562L223.06937599999998,51.99067057665533L223.056864,66.79440234599318L227.502432,96.01949855045305L227.50732799999997,93.21169913027182L227.524192,101.69844804959165L227.512224,86.44764025832635L231.95888000000002,56.95429844071006L231.963776,79.94400763585465L231.979008,73.39497601008419L231.96649599999998,99.97984274890766L236.412064,65.07361993505886L236.41913599999998,84.81560053246389L236.43545600000002,76.31793174804973L236.41913599999998,71.21933047740124L240.86688,37.645884000726454L240.874496,27.673244686150184L240.889184,52.20394681169009L240.875584,46.57951094415688" style="fill: none;" fill="none"></path></g></g></g></g><g opacity="0.2"><g><g><g><path stroke="rgb(0, 119, 187)" stroke-width="2px" d="M36.177632,216.14285714285714L36.181984,165.28571428571428L36.17817599999999,216.14285714285714L36.17817599999999,190.71428571428572L40.632448,139.85714285714286L40.6368,165.28571428571428L40.63408,89L40.634624,89L45.085088000000006,38.14285714285714L45.08944,63.57142857142857L45.087264,12.714285714285722L45.088352,114.42857142857143L49.538272000000006,114.42857142857143L49.542623999999996,139.85714285714286L49.541536,89L49.542623999999996,114.42857142857143L53.990912,89L53.997984,38.14285714285714L53.996896,-38.14285714285714L53.996352,89L58.444096,89L58.453344,-12.714285714285722L58.452256,12.714285714285722L58.450624,38.14285714285714L62.896736,38.14285714285714L62.907072,89L62.905984000000004,38.14285714285714L62.906528,38.14285714285714L67.353184,38.14285714285714L67.360256,89L67.359168,12.714285714285722L67.359712,114.42857142857143L71.808544,63.57142857142857L71.812896,63.57142857142857L71.815072,38.14285714285714L71.81398399999999,38.14285714285714L76.262816,-12.714285714285722L76.267168,63.57142857142857L76.269888,12.714285714285722L76.2688,114.42857142857143L80.71600000000001,63.57142857142857L80.72144,114.42857142857143L80.725792,89L80.722528,114.42857142857143L85.17027200000001,63.57142857142857L85.177888,-12.714285714285722L85.17952,89L85.17734399999999,139.85714285714286L89.625088,114.42857142857143L89.630528,38.14285714285714L89.635968,89L89.63216,38.14285714285714L94.07936000000001,63.57142857142857L94.08697599999999,89L94.089152,38.14285714285714L94.0848,38.14285714285714L98.533088,38.14285714285714L98.542336,63.57142857142857L98.544512,114.42857142857143L98.53907199999999,114.42857142857143L102.988448,38.14285714285714L102.996064,89L103.00096,89L102.992256,139.85714285714286L107.44108800000001,63.57142857142857L107.449792,38.14285714285714L107.45523200000001,63.57142857142857L107.44707199999999,63.57142857142857L111.89372800000001,38.14285714285714L111.90624,89L111.91113600000001,12.714285714285722L111.902432,63.57142857142857L116.34963200000001,89L116.35996800000001,12.714285714285722L116.36703999999999,38.14285714285714L116.357792,114.42857142857143L120.802816,114.42857142857143L120.812608,114.42857142857143L120.823488,-12.714285714285722L120.81424,38.14285714285714L125.25926399999999,89L125.268512,89L125.27667199999999,139.85714285714286L125.2696,63.57142857142857L129.71299199999999,12.714285714285722L129.721696,165.28571428571428L129.72985599999998,12.714285714285722L129.725504,63.57142857142857L134.167808,38.14285714285714L134.177056,89L134.18304,38.14285714285714L134.178144,38.14285714285714L138.62153600000002,12.714285714285722L138.629696,114.42857142857143L138.637312,63.57142857142857L138.63241599999998,-12.714285714285722L143.076896,114.42857142857143L143.0856,38.14285714285714L143.093216,-12.714285714285722L143.08777600000002,63.57142857142857L147.530624,12.714285714285722L147.541504,89L147.54694400000002,12.714285714285722L147.540416,114.42857142857143L151.983264,139.85714285714286L151.99523200000002,114.42857142857143L151.999584,89L151.9936,139.85714285714286L156.439168,114.42857142857143L156.449504,114.42857142857143L156.456032,-12.714285714285722L156.44896,38.14285714285714L160.682912,114.42857142857143L160.905952,-38.14285714285714L160.90921600000001,63.57142857142857L160.903232,63.57142857142857L165.13664,63.57142857142857L165.35968,114.42857142857143L165.364576,139.85714285714286L165.357504,12.714285714285722L169.591456,114.42857142857143L169.81232,89L169.81776000000002,89L169.812864,63.57142857142857L174.047904,190.71428571428572L174.266048,114.42857142857143L174.27312,190.71428571428572L174.26713600000002,114.42857142857143L178.503808,63.57142857142857L178.719232,114.42857142857143L178.72630400000003,114.42857142857143L178.72195200000002,114.42857142857143L182.95808,63.57142857142857L182.964064,63.57142857142857L182.96624,139.85714285714286L183.181664,89L187.413984,63.57142857142857L187.417792,38.14285714285714L187.41942400000002,12.714285714285722L187.63756800000002,63.57142857142857L191.868256,139.85714285714286L191.873696,114.42857142857143L191.87424000000001,-12.714285714285722L192.09347200000002,89L196.32416,89L196.326336,12.714285714285722L196.32688000000002,114.42857142857143L196.546112,114.42857142857143L200.778432,38.14285714285714L200.78006399999998,139.85714285714286L200.78224,38.14285714285714L201.002016,63.57142857142857L205.23270399999998,139.85714285714286L205.23270399999998,38.14285714285714L205.24848,38.14285714285714L205.238144,114.42857142857143L209.68752,89L209.689152,89L209.70492800000002,114.42857142857143L209.69296,139.85714285714286L214.14288000000002,12.714285714285722L214.14288000000002,89L214.158112,63.57142857142857L214.149408,114.42857142857143L218.59606399999998,-12.714285714285722L218.59824,12.714285714285722L218.61456,139.85714285714286L218.60368,89L223.048704,12.714285714285722L223.052512,-12.714285714285722L223.06937599999998,89L223.056864,89L227.502432,139.85714285714286L227.50732799999997,89L227.524192,114.42857142857143L227.512224,63.57142857142857L231.95888000000002,12.714285714285722L231.963776,114.42857142857143L231.979008,63.57142857142857L231.96649599999998,139.85714285714286L236.412064,12.714285714285722L236.41913599999998,114.42857142857143L236.43545600000002,63.57142857142857L236.41913599999998,63.57142857142857L240.86688,-12.714285714285722L240.874496,12.714285714285722L240.889184,89L240.875584,38.14285714285714" style="fill: none;" fill="none"></path></g></g></g></g></g></g><g transform="translate(58, 178)" clip-path="url(#clip_1)"><clipPath id="clip_1"><rect width="272" height="22"></rect></clipPath><g><g><line x1="0" y1="0" x2="0" y2="5" style="visibility: inherit;" fill="rgb(0, 0, 0)" stroke="rgb(204, 204, 204)" stroke-width="1px"></line><line x1="27.200000000000003" y1="0" x2="27.200000000000003" y2="5" style="visibility: inherit;" fill="rgb(0, 0, 0)" stroke="rgb(204, 204, 204)" stroke-width="1px"></line><line x1="54.400000000000006" y1="0" x2="54.400000000000006" y2="5" style="visibility: inherit;" fill="rgb(0, 0, 0)" stroke="rgb(204, 204, 204)" stroke-width="1px"></line><line x1="81.6" y1="0" x2="81.6" y2="5" style="visibility: inherit;" fill="rgb(0, 0, 0)" stroke="rgb(204, 204, 204)" stroke-width="1px"></line><line x1="108.80000000000001" y1="0" x2="108.80000000000001" y2="5" style="visibility: inherit;" fill="rgb(0, 0, 0)" stroke="rgb(204, 204, 204)" stroke-width="1px"></line><line x1="136" y1="0" x2="136" y2="5" style="visibility: inherit;" fill="rgb(0, 0, 0)" stroke="rgb(204, 204, 204)" stroke-width="1px"></line><line x1="163.2" y1="0" x2="163.2" y2="5" style="visibility: inherit;" fill="rgb(0, 0, 0)" stroke="rgb(204, 204, 204)" stroke-width="1px"></line><line x1="190.39999999999998" y1="0" x2="190.39999999999998" y2="5" style="visibility: inherit;" fill="rgb(0, 0, 0)" stroke="rgb(204, 204, 204)" stroke-width="1px"></line><line x1="217.60000000000002" y1="0" x2="217.60000000000002" y2="5" style="visibility: inherit;" fill="rgb(0, 0, 0)" stroke="rgb(204, 204, 204)" stroke-width="1px"></line><line x1="244.8" y1="0" x2="244.8" y2="5" style="visibility: inherit;" fill="rgb(0, 0, 0)" stroke="rgb(204, 204, 204)" stroke-width="1px"></line><line x1="272" y1="0" x2="272" y2="5" style="visibility: inherit;" fill="rgb(0, 0, 0)" stroke="rgb(204, 204, 204)" stroke-width="1px"></line></g><g transform="translate(0, 8)"><text x="0" y="0" dx="0em" dy="0.95em" style="text-anchor: middle; visibility: hidden; font-family: &quot;Helvetica Neue&quot;, sans-serif; font-size: 12px; font-weight: 200;" fill="rgb(50, 49, 63)" stroke="none" stroke-width="1px">-50k</text><text x="27.200000000000003" y="0" dx="0em" dy="0.95em" style="text-anchor: middle; visibility: inherit; font-family: &quot;Helvetica Neue&quot;, sans-serif; font-size: 12px; font-weight: 200;" fill="rgb(50, 49, 63)" stroke="none" stroke-width="1px">0</text><text x="54.400000000000006" y="0" dx="0em" dy="0.95em" style="text-anchor: middle; visibility: hidden; font-family: &quot;Helvetica Neue&quot;, sans-serif; font-size: 12px; font-weight: 200;" fill="rgb(50, 49, 63)" stroke="none" stroke-width="1px">50k</text><text x="81.6" y="0" dx="0em" dy="0.95em" style="text-anchor: middle; visibility: inherit; font-family: &quot;Helvetica Neue&quot;, sans-serif; font-size: 12px; font-weight: 200;" fill="rgb(50, 49, 63)" stroke="none" stroke-width="1px">100k</text><text x="108.80000000000001" y="0" dx="0em" dy="0.95em" style="text-anchor: middle; visibility: hidden; font-family: &quot;Helvetica Neue&quot;, sans-serif; font-size: 12px; font-weight: 200;" fill="rgb(50, 49, 63)" stroke="none" stroke-width="1px">150k</text><text x="136" y="0" dx="0em" dy="0.95em" style="text-anchor: middle; visibility: inherit; font-family: &quot;Helvetica Neue&quot;, sans-serif; font-size: 12px; font-weight: 200;" fill="rgb(50, 49, 63)" stroke="none" stroke-width="1px">200k</text><text x="163.2" y="0" dx="0em" dy="0.95em" style="text-anchor: middle; visibility: hidden; font-family: &quot;Helvetica Neue&quot;, sans-serif; font-size: 12px; font-weight: 200;" fill="rgb(50, 49, 63)" stroke="none" stroke-width="1px">250k</text><text x="190.39999999999998" y="0" dx="0em" dy="0.95em" style="text-anchor: middle; visibility: inherit; font-family: &quot;Helvetica Neue&quot;, sans-serif; font-size: 12px; font-weight: 200;" fill="rgb(50, 49, 63)" stroke="none" stroke-width="1px">300k</text><text x="217.60000000000002" y="0" dx="0em" dy="0.95em" style="text-anchor: middle; visibility: hidden; font-family: &quot;Helvetica Neue&quot;, sans-serif; font-size: 12px; font-weight: 200;" fill="rgb(50, 49, 63)" stroke="none" stroke-width="1px">350k</text><text x="244.8" y="0" dx="0em" dy="0.95em" style="text-anchor: middle; visibility: inherit; font-family: &quot;Helvetica Neue&quot;, sans-serif; font-size: 12px; font-weight: 200;" fill="rgb(50, 49, 63)" stroke="none" stroke-width="1px">400k</text><text x="272" y="0" dx="0em" dy="0.95em" style="text-anchor: middle; visibility: hidden; font-family: &quot;Helvetica Neue&quot;, sans-serif; font-size: 12px; font-weight: 200;" fill="rgb(50, 49, 63)" stroke="none" stroke-width="1px">450k</text></g><line x1="0" y1="0" x2="272" y2="0" fill="rgb(0, 0, 0)" stroke="rgb(204, 204, 204)" stroke-width="1px"></line></g></g></g></g></svg>