<svg viewBox="0 0 330 200" xmlns="http://www.w3.org/2000/svg"><g><g><g><g><g><line x1="34" y1="178" x2="29" y2="178" style="visibility: inherit;" fill="rgb(0, 0, 0)" stroke="rgb(204, 204, 204)" stroke-width="1px"></line><line x1="34" y1="163.16666666666666" x2="29" y2="163.16666666666666" style="visibility: inherit;" fill="rgb(0, 0, 0)" stroke="rgb(204, 204, 204)" stroke-width="1px"></line><line x1="34" y1="148.33333333333334" x2="29" y2="148.33333333333334" style="visibility: inherit;" fill="rgb(0, 0, 0)" stroke="rgb(204, 204, 204)" stroke-width="1px"></line><line x1="34" y1="133.5" x2="29" y2="133.5" style="visibility: inherit;" fill="rgb(0, 0, 0)" stroke="rgb(204, 204, 204)" stroke-width="1px"></line><line x1="34" y1="118.66666666666667" x2="29" y2="118.66666666666667" style="visibility: inherit;" fill="rgb(0, 0, 0)" stroke="rgb(204, 204, 204)" stroke-width="1px"></line><line x1="34" y1="103.83333333333333" x2="29" y2="103.83333333333333" style="visibility: inherit;" fill="rgb(0, 0, 0)" stroke="rgb(204, 204, 204)" stroke-width="1px"></line><line x1="34" y1="89" x2="29" y2="89" style="visibility: inherit;" fill="rgb(0, 0, 0)" stroke="rgb(204, 204, 204)" stroke-width="1px"></line><line x1="34" y1="74.16666666666666" x2="29" y2="74.16666666666666" style="visibility: inherit;" fill="rgb(0, 0, 0)" stroke="rgb(204, 204, 204)" stroke-width="1px"></line><line x1="34" y1="59.33333333333334" x2="29" y2="59.33333333333334" style="visibility: inherit;" fill="rgb(0, 0, 0)" stroke="rgb(204, 204, 204)" stroke-width="1px"></line><line x1="34" y1="44.5" x2="29" y2="44.5" style="visibility: inherit;" fill="rgb(0, 0, 0)" stroke="rgb(204, 204, 204)" stroke-width="1px"></line><line x1="34" y1="29.666666666666657" x2="29" y2="29.666666666666657" style="visibility: inherit;" fill="rgb(0, 0, 0)" stroke="rgb(204, 204, 204)" stroke-width="1px"></line><line x1="34" y1="14.833333333333343" x2="29" y2="14.833333333333343" style="visibility: inherit;" fill="rgb(0, 0, 0)" stroke="rgb(204, 204, 204)" stroke-width="1px"></line><line x1="34" y1="0" x2="29" y2="0" style="visibility: inherit;" fill="rgb(0, 0, 0)" stroke="rgb(204, 204, 204)" stroke-width="1px"></line></g><g transform="translate(24, 0)"><text x="0" y="178" dx="0em" dy="0.3em" style="text-anchor: end; visibility: hidden; font-family: &quot;Helvetica Neue&quot;, sans-serif; font-size: 12px; font-weight: 200;" fill="rgb(50, 49, 63)" stroke="none" stroke-width="1px">18</text><text x="0" y="163.16666666666666" dx="0em" dy="0.3em" style="text-anchor: end; visibility: inherit; font-family: &quot;Helvetica Neue&quot;, sans-serif; font-size: 12px; font-weight: 200;" fill="rgb(50, 49, 63)" stroke="none" stroke-width="1px">19</text><text x="0" y="148.33333333333334" dx="0em" dy="0.3em" style="text-anchor: end; visibility: hidden; font-family: &quot;Helvetica Neue&quot;, sans-serif; font-size: 12px; font-weight: 200;" fill="rgb(50, 49, 63)" stroke="none" stroke-width="1px">20</text><text x="0" y="133.5" dx="0em" dy="0.3em" style="text-anchor: end; visibility: inherit; font-family: &quot;Helvetica Neue&quot;, sans-serif; font-size: 12px; font-weight: 200;" fill="rgb(50, 49, 63)" stroke="none" stroke-width="1px">21</text><text x="0" y="118.66666666666667" dx="0em" dy="0.3em" style="text-anchor: end; visibility: hidden; font-family: &quot;Helvetica Neue&quot;, sans-serif; font-size: 12px; font-weight: 200;" fill="rgb(50, 49, 63)" stroke="none" stroke-width="1px">22</text><text x="0" y="103.83333333333333" dx="0em" dy="0.3em" style="text-anchor: end; visibility: inherit; font-family: &quot;Helvetica Neue&quot;, sans-serif; font-size: 12px; font-weight: 200;" fill="rgb(50, 49, 63)" stroke="none" stroke-width="1px">23</text><text x="0" y="89" dx="0em" dy="0.3em" style="text-anchor: end; visibility: hidden; font-family: &quot;Helvetica Neue&quot;, sans-serif; font-size: 12px; font-weight: 200;" fill="rgb(50, 49, 63)" stroke="none" stroke-width="1px">24</text><text x="0" y="74.16666666666666" dx="0em" dy="0.3em" style="text-anchor: end; visibility: inherit; font-family: &quot;Helvetica Neue&quot;, sans-serif; font-size: 12px; font-weight: 200;" fill="rgb(50, 49, 63)" stroke="none" stroke-width="1px">25</text><text x="0" y="59.33333333333334" dx="0em" dy="0.3em" style="text-anchor: end; visibility: hidden; font-family: &quot;Helvetica Neue&quot;, sans-serif; font-size: 12px; font-weight: 200;" fill="rgb(50, 49, 63)" stroke="none" stroke-width="1px">26</text><text x="0" y="44.5" dx="0em" dy="0.3em" style="text-anchor: end; visibility: inherit; font-family: &quot;Helvetica Neue&quot;, sans-serif; font-size: 12px; font-weight: 200;" fill="rgb(50, 49, 63)" stroke="none" stroke-width="1px">27</text><text x="0" y="29.666666666666657" dx="0em" dy="0.3em" style="text-anchor: end; visibility: hidden; font-family: &quot;Helvetica Neue&quot;, sans-serif; font-size: 12px; font-weight: 200;" fill="rgb(50, 49, 63)" stroke="none" stroke-width="1px">28</text><text x="0" y="14.833333333333343" dx="0em" dy="0.3em" style="text-anchor: end; visibility: inherit; font-family: &quot;Helvetica Neue&quot;, sans-serif; font-size: 12px; font-weight: 200;" fill="rgb(50, 49, 63)" stroke="none" stroke-width="1px">29</text><text x="0" y="0" dx="0em" dy="0.3em" style="text-anchor: end; visibility: hidden; font-family: &quot;Helvetica Neue&quot;, sans-serif; font-size: 12px; font-weight: 200;" fill="rgb(50, 49, 63)" stroke="none" stroke-width="1px">30</text></g><line x1="34" y1="0" x2="34" y2="178" fill="rgb(0, 0, 0)" stroke="rgb(204, 204, 204)" stroke-width="1px"></line></g></g><g transform="translate(34, 0)" clip-path="url(#clip_0)"><clipPath id="clip_0"><rect width="296" height="178"></rect></clipPath><g><g><g><line x1="0" y1="0" x2="0" y2="178" fill="rgb(0, 0, 0)" stroke="rgb(60, 60, 60)" stroke-width="1px" opacity="0.25"></line><line x1="24.666666666666664" y1="0" x2="24.666666666666664" y2="178" fill="rgb(0, 0, 0)" stroke="rgb(60, 60, 60)" stroke-width="1px" opacity="0.25"></line><line x1="49.33333333333333" y1="0" x2="49.33333333333333" y2="178" fill="rgb(0, 0, 0)" stroke="rgb(60, 60, 60)" stroke-width="1px" opacity="0.25"></line><line x1="74" y1="0" x2="74" y2="178" fill="rgb(0, 0, 0)" stroke="rgb(60, 60, 60)" stroke-width="1px" opacity="0.25"></line><line x1="98.66666666666666" y1="0" x2="98.66666666666666" y2="178" fill="rgb(0, 0, 0)" stroke="rgb(60, 60, 60)" stroke-width="1px" opacity="0.25"></line><line x1="123.33333333333334" y1="0" x2="123.33333333333334" y2="178" fill="rgb(0, 0, 0)" stroke="rgb(60, 60, 60)" stroke-width="1px" opacity="0.25"></line><line x1="148" y1="0" x2="148" y2="178" fill="rgb(0, 0, 0)" stroke="rgb(60, 60, 60)" stroke-width="1px" opacity="0.25"></line><line x1="172.66666666666669" y1="0" x2="172.66666666666669" y2="178" fill="rgb(0, 0, 0)" stroke="rgb(60, 60, 60)" stroke-width="1px" opacity="0.25"></line><line x1="197.33333333333331" y1="0" x2="197.33333333333331" y2="178" fill="rgb(0, 0, 0)" stroke="rgb(60, 60, 60)" stroke-width="1px" opacity="0.25"></line><line x1="222" y1="0" x2="222" y2="178" fill="rgb(0, 0, 0)" stroke="rgb(60, 60, 60)" stroke-width="1px" opacity="0.25"></line><line x1="246.66666666666669" y1="0" x2="246.66666666666669" y2="178" fill="rgb(0, 0, 0)" stroke="rgb(60, 60, 60)" stroke-width="1px" opacity="0.25"></line><line x1="271.3333333333333" y1="0" x2="271.3333333333333" y2="178" fill="rgb(0, 0, 0)" stroke="rgb(60, 60, 60)" stroke-width="1px" opacity="0.25"></line><line x1="296" y1="0" x2="296" y2="178" fill="rgb(0, 0, 0)" stroke="rgb(60, 60, 60)" stroke-width="1px" opacity="0.25"></line></g><g><line x1="0" y1="178" x2="296" y2="178" fill="rgb(0, 0, 0)" stroke="rgb(60, 60, 60)" stroke-width="1px" opacity="0.25"></line><line x1="0" y1="163.16666666666666" x2="296" y2="163.16666666666666" fill="rgb(0, 0, 0)" stroke="rgb(60, 60, 60)" stroke-width="1px" opacity="0.25"></line><line x1="0" y1="148.33333333333334" x2="296" y2="148.33333333333334" fill="rgb(0, 0, 0)" stroke="rgb(60, 60, 60)" stroke-width="1px" opacity="0.25"></line><line x1="0" y1="133.5" x2="296" y2="133.5" fill="rgb(0, 0, 0)" stroke="rgb(60, 60, 60)" stroke-width="1px" opacity="0.25"></line><line x1="0" y1="118.66666666666667" x2="296" y2="118.66666666666667" fill="rgb(0, 0, 0)" stroke="rgb(60, 60, 60)" stroke-width="1px" opacity="0.25"></line><line x1="0" y1="103.83333333333333" x2="296" y2="103.83333333333333" fill="rgb(0, 0, 0)" stroke="rgb(60, 60, 60)" stroke-width="1px" opacity="0.25"></line><line x1="0" y1="89" x2="296" y2="89" fill="rgb(0, 0, 0)" stroke="rgb(60, 60, 60)" stroke-width="1px" opacity="0.25"></line><line x1="0" y1="74.16666666666666" x2="296" y2="74.16666666666666" fill="rgb(0, 0, 0)" stroke="rgb(60, 60, 60)" stroke-width="1px" opacity="0.25"></line><line x1="0" y1="59.33333333333334" x2="296" y2="59.33333333333334" fill="rgb(0, 0, 0)" stroke="rgb(60, 60, 60)" stroke-width="1px" opacity="0.25"></line><line x1="0" y1="44.5" x2="296" y2="44.5" fill="rgb(0, 0, 0)" stroke="rgb(60, 60, 60)" stroke-width="1px" opacity="0.25"></line><line x1="0" y1="29.666666666666657" x2="296" y2="29.666666666666657" fill="rgb(0, 0, 0)" stroke="rgb(60, 60, 60)" stroke-width="1px" opacity="0.25"></line><line x1="0" y1="14.833333333333343" x2="296" y2="14.833333333333343" fill="rgb(0, 0, 0)" stroke="rgb(60, 60, 60)" stroke-width="1px" opacity="0.25"></line><line x1="0" y1="0" x2="296" y2="0" fill="rgb(0, 0, 0)" stroke="rgb(60, 60, 60)" stroke-width="1px" opacity="0.25"></line></g></g></g><g><g><line x1="0" y1="445" x2="296" y2="445" fill="rgb(0, 0, 0)" stroke="rgb(153, 153, 153)" stroke-width="1.5px"></line></g></g><g><g><line x1="24.666666666666664" y1="0" x2="24.666666666666664" y2="178" fill="rgb(0, 0, 0)" stroke="rgb(153, 153, 153)" stroke-width="1.5px"></line></g></g><g><g><g><g><g><path stroke="rgb(204, 51, 17)" stroke-width="2px" d="M32.7783,193.0312478410542L32.77731333333333,163.27142274839707L32.77780666666667,151.3594931627811L34.79554,150.14882430520748L34.797513333333335,149.42255415649305L34.797019999999996,137.11944945889448L34.797513333333335,159.4058178336083L36.81450666666667,137.17633638646106L36.81771333333334,141.63919390610107L36.81722,114.64996986826813L36.81697333333334,104.3899333049951L38.83372,127.9006934914321L38.83791333333333,106.40704609729079L38.83742,105.3775599380386L38.836679999999994,92.89319496291343L40.85268666666667,91.33591640395858L40.857373333333335,120.06822286100544L40.856880000000004,125.44093442926314L40.857126666666666,110.86455949747354L42.873380000000004,102.11873528085378L42.87658666666667,90.93790751483508L42.87609333333333,84.22941106024392L42.87634,103.93764683942548L44.89358,121.69592154688837L44.89555333333333,114.55088623493549L44.896539999999995,116.19719841129583L44.89604666666667,123.11831905602928L46.913286666666664,127.27099143694822L46.91526,123.82926152717934L46.916493333333335,103.96422357723849L46.916000000000004,121.71186748275107L48.9325,126.42712049014077L48.93496666666667,117.38960562685416L48.93694,106.03376337568757L48.935460000000006,128.88692469259232L50.95220666666666,118.86548814875371L50.95566,100.98595955577436L50.9564,113.99157573352771L50.95541333333333,109.92827877343817L52.97216,125.29030059742303L52.974626666666666,128.57418035845726L52.977093333333336,112.74450821506439L52.975366666666666,115.11337159570617L54.99186666666667,116.5346896240907L54.99532,105.52081377445285L54.99630666666667,116.71248826467263L54.99433333333333,117.49415962547027L57.01132666666667,106.09649577528185L57.01552,111.12456413183585L57.01650666666667,108.20807181243481L57.01404,106.45817642079417L59.031526666666664,99.47490585247651L59.03498,107.15161017815257L59.0372,105.82429944022483L59.033253333333334,122.8279129974683L61.050493333333335,127.096747798481L61.05444,129.6580486790886L61.05690666666667,137.12816254078652L61.05320666666667,135.6768975244719L63.06946,128.87280518134978L63.07513333333334,118.85701644214323L63.077353333333335,118.78087653195261L63.07340666666667,124.66852591917159L65.08990666666666,110.40111555150297L65.09459333333334,119.6406693309018L65.0978,119.25106826520775L65.09360666666667,119.01730762579129L67.10912,124.81038457547479L67.11355999999999,116.41956407861821L67.11849333333333,123.25173844717091L67.1143,127.35104306830252L69.12981333333333,112.0106258409815L69.13400666666666,108.73970883792224L69.13770666666666,124.57715863608672L69.1345,128.14629518165202L71.14927333333333,130.28777710899118L71.15322,137.50599959872807L71.15692,141.83693309257018L71.15494666666667,150.36882652220874L73.16922666666666,149.55462924665858L73.17342,143.13277754799512L73.17613333333334,145.2129998621304L73.17391333333333,140.52779991727823L75.18868666666667,137.7166799503669L75.19238666666668,136.03000797022014L75.19583999999999,129.08467144879876L75.19362,130.85080286927928L77.20888666666667,125.97714838823418L77.21283333333334,111.18628903294054L77.21628666666668,108.24510675309762L77.21382000000001,112.41373071852526L79.22834666666665,126.78157176444847L79.23328,129.46894305866905L79.23574666666666,131.08136583520144L79.23278666666667,143.91548616778755L81.24731333333332,139.7492917006725L81.25273999999999,149.1162416870702L81.25471333333334,148.80307834557544L81.25200000000001,142.68184700734525L83.26776,144.9424415377405L83.27244666666667,140.3654649226443L83.27540666666667,143.5526122869199L83.2722,157.33156737215194L85.19200666666667,153.73227375662452L85.29314,157.5060309206414L85.29462000000001,153.83695188571818L85.29190666666666,151.63550446476427L87.21146666666668,138.44796934552522L87.3126,142.40211494064846L87.31482,150.70793563105573L87.31161333333334,149.75809471196675L89.23142,149.1881901605134L89.33156666666666,136.9795807629747L89.33403333333332,135.58774845778484L89.33181333333333,140.6859824080043L91.25211333333334,155.61158944480255L91.35102666666667,152.7002870002149L91.35423333333334,150.95350553346228L91.35152000000001,149.90543665341073L93.27256,131.4765953253798L93.37024,144.15262386189454L93.37344666666667,145.82490765047007L93.37147333333334,152.7616112569487L95.29226666666668,139.1236334208359L95.29498000000001,154.67418005250153L95.29596666666666,158.07117469816762L95.39364666666665,154.1760381522339L97.31271333333333,145.90562289134036L97.31443999999999,152.81004040147087L97.31518,145.08602424088252L97.41409333333334,140.4516145445295L99.33242,137.67096872671772L99.33488666666666,124.13591456936396L99.33513333333333,121.94821540828501L99.43454,108.76892924497096L101.35286666666666,124.59469088031595L101.35385333333333,122.22348119485626L101.3541,120.80075538358042L101.45350666666667,125.88045323014828L103.37257333333334,128.92827193808895L103.37331333333334,136.69029649618673L103.37429999999999,123.5475112310454L103.47395333333334,133.46184007196058L105.39228,127.54377070984305L105.39228,129.9262624259058L105.39943333333333,143.22242412221016L105.39474666666666,145.26678780665947L107.41223333333332,140.5600726839957L107.41297333333333,125.86937694373071L107.42012666666666,117.05495949957175L107.4147,111.7663090330764L109.43243333333334,102.65978541984583L109.43243333333334,120.92920458524085L109.43934,120.02418941781116L109.43539333333334,113.54784698402005L111.45164666666666,121.52870819041205L111.45263333333334,144.1172249142472L111.46003333333334,133.93700161521497L111.4551,145.62886763579567L113.47061333333333,152.64398724814407L113.47234,139.05305901555315L113.47998666666666,124.96516874266524L113.47431333333333,140.24576791226582L115.49007333333334,131.6141274140262L115.49229333333334,138.30180978174906L115.49994000000001,148.2477525357161L115.49451333333333,136.41531818809634L117.51076666666667,111.51585757952445L117.51298666666666,114.37618121438135L117.51989333333334,116.09237539529545L117.51422000000001,123.05542523717725L119.52998,139.099921808973L119.53318666666667,136.8599530853838L119.54058666666667,123.6493051845636L119.53318666666667,127.58958311073816L121.54993333333334,118.08708319977626L121.55338666666665,112.38558325319907L121.56004666666666,108.96468328525278L121.55387999999999,124.71214330448504L123.57013333333333,116.36061931602433L123.57334,129.149704922948L123.58024666666667,119.02315628710211L123.57284666666666,130.74722710559462L125.59033333333333,108.11500293002342L125.59230666666667,100.46900175801403L125.60069333333334,101.81473438814172L125.59181333333333,108.55550729955166L127.61102666666666,112.59997104639768L127.61152,109.09331596117191L127.62015333333332,112.92265624336981L127.61250666666668,97.42026041268858L129.63098,111.85215624761312L129.63147333333333,120.51129374856791L129.63912000000002,125.70677624914073L129.63270666666668,128.82406574948442L131.65142666666665,118.827772783024L131.65117999999998,106.89666366981442L131.65956666666668,117.53799820188867L131.6534,106.12279892113315L133.67064,99.27367935267986L133.67113333333333,89.23087427827458L133.67976666666667,89.1385245669647L133.67384666666666,89.08311474017879L135.69059333333334,100.91653551077395L135.69084,96.14992130646438L135.70046,105.15661945054529L135.69306,104.62730500366047L137.71079333333333,116.1763830021963L137.71005333333335,111.23916313465114L137.71967333333333,84.54349788079068L137.71202666666667,92.25943206180773L139.73025333333334,85.02232590375134L139.73074666666668,98.48006220891749L139.73962666666665,88.75470399201716L139.73222666666666,88.85282239521027L141.7507,82.97836010379284L141.75045333333333,85.38701606227566L141.75859333333332,86.83220963736542L141.75144,105.49932578241926L143.77016,104.83292880278489L143.77114666666665,110.3664239483376L143.7783,107.75318770233585L143.77188666666666,106.1852459547348L145.79060666666666,117.1111475728409L145.79060666666666,105.86668854370453L145.79874666666666,110.98667979288939L145.79159333333334,119.99200787573362L147.81080666666665,107.59520472544014L147.80957333333333,106.0904561685974L147.81894666666668,93.32094036782513L147.81154666666666,109.39256422069509L149.83026666666666,119.03553853241708L149.82853999999998,107.02132311945024L149.83914666666666,99.81279387167015L149.83051333333333,95.4876763230021L151.84997333333334,104.75927246046788L151.84849333333335,98.45556347628069L151.85959333333335,106.54000475243505L151.84948,105.45733618479433L153.86894,92.94106837754327L153.86746,97.29797435985928L153.87880666666666,93.97878461591556L153.87017333333336,86.05393743621602L155.8884,99.09902912839625L155.88766,112.85941747703774L155.89875999999998,115.18231715288928L155.89012666666667,110.64272362506692L157.90736666666666,119.78563417504014L157.90712,107.47138050502406L157.91797333333335,111.94949496968108L157.90958666666668,114.63636364847535L159.8316133333333,104.3818181890852L159.9270733333333,110.0957575801178L159.93792666666667,95.72412121473735L159.92929333333333,81.16780606217573L161.85132000000002,90.2340169706388L161.85132000000002,95.67374351571664L161.95738666666668,87.07091277609669L161.94850666666665,105.642547665658L163.87078,116.78552859939481L163.87078,93.80465049297021L163.87300000000002,91.88279029578214L163.97783333333334,96.66300751080259L165.89048666666667,99.53113783981485L165.89048666666667,101.25201603722226L165.89221333333333,96.35120962233331L165.99852666666666,93.41072577339997L167.9097,79.77976879737332L167.91044,77.53452794509069L167.91266,88.05405010038778L168.01922,112.16576339356601L169.93014666666667,96.96612470280631L169.92940666666667,93.7796748216838L169.93187333333333,97.80113822634361L170.03843333333336,82.41401626913948L171.95034666666666,61.31507642815039L171.94960666666668,54.58904585689021L171.95108666666667,38.68676084746747L172.05863333333335,58.81205650848048L173.97054666666668,82.75390057175494L173.96931333333333,67.452340343053L173.97128666666669,58.271404205831786L174.07834,64.62950919016572L175.99099333333334,74.3777055140994L175.98901999999998,86.15995664179295L175.99124,75.42930731840912L176.09829333333334,80.85758439104549L178.01144,84.11455063462725L178.00971333333334,80.135397047443L178.01069999999999,65.88123822846579L178.11824666666666,69.19540960374616L180.03213333333332,88.98391242891438L180.02917333333335,94.92368079068193L180.02991333333335,86.62087514107584L180.13819999999998,99.43919175131214L182.05159333333333,89.33018171745398L182.04888,89.19810903047238L182.04937333333334,95.05219875161676L182.15815333333336,92.63131925097002L184.07204,67.44545821724867L184.06908,64.20060826368254L184.06834,44.45369829154279L184.17835333333335,50.40555230825906L186.09273333333334,59.909998051622125L186.08878666666666,71.54599883097325L186.08804666666666,72.59426596525063L186.19806,79.15655957915038L188.11318,71.22726908082356L188.1077533333333,78.3363614484941L188.10824666666664,76.66848353576314L188.21702666666667,63.801090121457875L190.13214666666667,56.08065407287472L190.12820000000002,57.381725777058136L190.14151999999999,46.29570213290151L190.12770666666668,51.510754613074255L192.1521,78.3731194345112L192.14864666666668,64.82387166070673L192.16172,80.42765632975735L192.14716666666666,83.85659379785439L194.17254666666665,68.1139562787126L194.16810666666666,70.53504043389425L194.18192000000002,60.12102426033651L194.16736666666665,65.73928122286857L196.19176000000002,63.176902067054485L196.18732,67.57280790689934L196.20261333333335,70.21035141080631L196.18658,77.72621084648375L198.21220666666667,76.3023931745569L198.20677999999998,63.581435904734136L198.22256666666667,61.882194876173784L198.20628666666664,60.86265025903765L200.23166666666668,60.250923488755944L200.22673333333336,53.95055409325356L200.24276666666665,73.90366578928545L200.2264866666667,62.14219947357128L202.25137333333333,49.15198635080941L202.24594666666667,65.09119181048564L202.26321333333334,56.85471508629135L202.24644,51.91282905177481L204.27058666666665,60.81436409773157L204.26664,72.0886184586389L204.28341333333333,72.91983774184999L204.26664,85.28523597844335L206.29103333333336,63.03780825373268L206.28659333333331,79.35601828557294L206.30336666666665,77.28027763801045L206.28708666666665,76.03483324947292L208.31,69.3542332830171L208.30605333333332,65.3458733031436L208.32356666666666,45.140857315219506L208.30728666666667,50.81784772246502L210.33044666666666,48.290708633479L210.32502,46.774425180087434L210.34401333333335,63.664655108052415L210.3265,50.06545973149814L212.34990666666667,65.63927583889885L212.34522,80.91689883667263L212.36347333333333,72.28347263533689L212.34546666666668,67.10341691453544L214.36911999999998,58.06205014872127L214.36591333333334,64.50389675589942L214.38317999999998,68.36900472020633L214.36591333333334,46.95473616545712L216.38858000000002,45.972841699274284L216.38562,45.38370501956456L216.40214666666668,45.03022301173874L216.38512666666665,56.68480047370993L218.40804,39.94421361755926L218.40557333333334,35.8331948372022L218.42185333333333,33.366583568988005L218.40409333333335,31.886616808059443L220.42848666666666,42.86530341816896L220.42503333333335,37.58584871756801L220.44131333333334,52.21817589720746L220.4238,84.7309055383245L222.44745333333333,74.57187665632804L222.44424666666666,68.47645932713019L222.46077333333332,70.75254226294477L222.44326,54.31819202443354L224.46691333333334,62.257581881326814L224.46469333333334,72.95454912879606L224.48048000000003,61.572729477277605L224.46346,72.54363768636652L226.48711333333333,73.19284927848658L226.4844,73.58237623375867L226.49969333333334,56.016092406921885L226.48390666666666,51.40965544415316L228.40913999999998,66.44579326649189L228.40864666666664,81.40080929322848L228.50657333333334,84.44048557593705L228.51865999999998,80.33095801222889L230.42810666666668,83.79857480733729L230.42934000000002,85.87914488440236L230.52553999999998,87.1274869306414L230.53910666666667,99.74315882505151L232.45028000000002,83.57922862836422L232.44707333333332,50.147537177018535L232.44954,53.82185563954447L232.55955333333333,61.95978005039336L234.46924666666666,60.909201363569395L234.46678,60.278854151474974L234.46875333333332,53.96731249088499L234.57852,44.24705416119767L236.48944666666668,50.281565830051946L236.48648666666665,42.03560616469787L236.48895333333334,48.95469703215201L236.59896666666668,53.106151552624524L238.50841333333332,55.59702426490803L238.50545333333335,57.091547892278186L238.50964666666667,46.12159540203356L238.61966,45.47295724122017L240.52885999999998,45.08377434473212L240.52516,50.78359794017261L240.52910666666665,48.27015876410357L240.64010666666667,46.76209525846215L242.5495533333333,51.79059048841067L242.54461999999998,42.94102095971306L242.54930666666664,37.63127924249454L242.65907333333334,34.44543421216338L244.56975333333335,44.400593860631375L244.56482,50.37368964971216L244.56950666666668,48.02421378982726L244.67804,58.48119494056306L246.59044666666668,52.8887169643378L246.58526666666668,67.33323017860266L246.58946,70.06660477382832L246.69725333333335,65.77329619763033L248.61015333333333,51.33064438524485L248.60423333333333,54.53171996448023L248.60941333333332,56.45236531202153L248.71696,63.53808585387959L250.62961333333334,73.72285151232772L250.62443333333334,56.10037757406329L250.62936666666667,51.46022654443797L250.73666666666665,66.47613592666278L252.64857999999998,57.68568155599763L252.64364666666665,52.411408933598594L252.64857999999998,55.18017869349248L252.75662,56.841440549428825L254.66779333333335,57.83819766299061L254.66286000000002,52.50291859779436L254.66804000000002,61.16841782534328L254.77583333333334,60.434384028539284L256.68700666666666,48.12729708379024L256.6833066666667,52.60971158360749L256.68873333333335,61.23249361683119L256.79529333333335,36.739496170098676L258.70622000000003,33.91036436872588L258.70276666666666,44.07955195456887L258.70868666666667,32.381064506074665L258.81549333333334,37.22863870364483L260.7259266666667,28.270516555520203L260.72272000000004,34.76230993331211L260.73974,32.7240526266539L260.7291333333333,25.56776490932566L262.74612666666667,33.14065894559536L262.74267333333336,19.88439536735723L262.75895333333335,17.863970553747663L262.74884000000003,40.385048998915295L264.76608,53.897696066015854L264.76312,38.27195097294282L264.77816666666666,22.963170583765702L264.7692866666667,19.711235683592776L266.78529333333336,35.56007474348897L266.78282666666667,27.269378179426724L266.79738000000003,40.09496024098942L266.7894866666667,59.65697614459364L268.80549333333335,53.59418568675618L268.80278,49.956511412053686L268.81659333333334,53.70724018056558L268.80944,38.15767744167266L270.8249533333333,52.56127313167029L270.82223999999997,49.33676387900215L270.8363,59.26872499406794L270.8301333333333,65.22790166310745" style="fill: none;" fill="none"></path></g><g><path stroke="rgb(0, 119, 187)" stroke-width="2px" d="M30.759333333333334,178.2172910062896L30.758100000000002,166.22018278166297L30.758346666666665,159.0498347153173L32.77632666666667,160.69872105585316L32.7783,143.8727137401949L32.77731333333333,133.7855520788334L32.77780666666667,139.6063066794806L34.79554,137.16337050020087L34.797513333333335,129.76393748069037L34.797019999999996,131.25845355820712L34.797513333333335,120.28800437125366L36.81450666666667,113.7059915667956L36.81771333333334,115.6902877243881L36.81722,110.94746851248941L36.81697333333334,114.03516240483142L38.83372,133.68781998263705L38.83791333333333,133.6126918614274L38.83742,127.63427566467169L38.836679999999994,118.1138928857243L40.85268666666667,130.2016735185897L40.857373333333335,131.52100440282345L40.856880000000004,120.44593450598192L40.857126666666666,131.60089492470803L42.873380000000004,108.62720252445249L42.87658666666667,112.64298829639519L42.87609333333333,109.11912625059277L42.87634,107.00480906188105L44.89358,105.73621876261112L44.89555333333333,128.70839800953345L44.896539999999995,112.82503877033326L44.89604666666667,132.96168995578427L46.913286666666664,145.0436806498276L46.91526,146.35954172386312L46.916493333333335,129.34905836273958L46.916000000000004,131.00943501793142L48.9325,120.13899434296226L48.93496666666667,131.4167299398141L48.93694,132.25003796391962L48.935460000000006,126.81668944489644L50.95220666666666,147.29001366721366L50.95566,153.6406748670462L50.9564,145.58440492018866L50.95541333333333,128.8839762853979L52.97216,142.59705243792934L52.974626666666666,133.02489812941425L52.977093333333336,139.14827221098574L52.975366666666666,119.08896332658387L54.99186666666667,118.9200446626169L54.99532,118.81869346423676L54.99630666666667,118.75788274520872L54.99433333333333,112.78806298045826L57.01132666666667,109.20617112160816L57.01552,112.99036933963158L57.01650666666667,133.06088827044584L57.01404,133.23653296226752L59.031526666666664,121.4752531106938L59.03498,120.35181853308293L59.0372,119.67775778651644L59.033253333333334,119.2733213385765L61.050493333333335,142.76399280314592L61.05444,121.25839568188755L61.05690666666667,108.3550374091325L61.05320666666667,106.54635577881282L63.06946,135.12781346728764L63.07513333333334,128.54335474703927L63.077353333333335,124.59267951489022L63.07340666666667,116.2889410422675L65.08990666666666,129.10669795869384L65.09459333333334,148.6640187752163L65.0978,142.59841126512976L65.09360666666667,127.09238009241116L67.10912,117.78876138878005L67.11355999999999,124.07325683326803L67.11849333333333,127.84395409996085L67.1143,130.1063724599765L69.12981333333333,125.53049014265252L69.13400666666666,99.05162741892485L69.13770666666666,118.76430978468827L69.1345,112.79191920414632L71.14927333333333,103.27515152248775L71.15322,103.49842424682595L71.15692,103.63238788142888L71.15494666666667,91.84609939552399L73.16922666666666,108.50765963731439L73.17342,94.77126244905534L73.17613333333334,116.19609080276655L73.17391333333333,123.11765448165997L75.18868666666667,115.40392602232927L75.19238666666668,116.70902228006423L75.19583999999999,117.49208003470517L75.19362,117.96191468748978L77.20888666666667,112.31048214582722L77.21283333333334,120.78628928749634L77.21628666666668,114.00510690583113L77.21382000000001,115.86973081016535L79.22834666666665,111.05517181943254L79.23328,131.89976975832616L79.23574666666666,126.60652852166237L79.23278666666667,141.2305837796641L81.24731333333332,132.2050169344651L81.25273999999999,132.72301016067908L81.25471333333334,138.9671394297408L81.25200000000001,142.71361699117782L83.26776,121.22817019470668L83.27244666666667,108.33690211682396L83.27540666666667,112.46880793676102L83.2722,120.88128476205662L85.19200666666667,119.99543752390062L85.29314,113.53059584767371L85.29462000000001,115.58502417527089L85.29190666666666,122.75101450516254L87.21146666666668,121.11727536976417L87.3126,126.0703652218585L87.31482,123.10888579978177L87.31161333333334,127.26533147986908L89.23142,123.82586555458812L89.33156666666666,115.82885266608618L89.33403333333332,128.83064493298508L89.33181333333333,124.76505362645767L91.25211333333334,128.2590321758746L91.35102666666667,136.28875263885814L91.35423333333334,135.17325158331488L91.35152000000001,140.43728428332224L93.27256,125.79570390332665L93.37024,122.94408900866262L93.37344666666667,144.96645340519754L93.37147333333334,146.3132053764519L95.29226666666668,141.18792322587115L95.29498000000001,138.11275393552268L95.29596666666666,118.46765236131364L95.39364666666665,124.48059141678817L97.31271333333333,122.15502151673957L97.31443999999999,126.69301291004376L97.31518,111.61580774602628L97.41409333333334,120.36948464761579L99.33242,119.68835745523613L99.33488666666666,125.21301447314171L99.33513333333333,140.39447535055166L99.43454,119.83668521033096L101.35286666666666,113.4353444595319L101.35385333333333,115.52787334238582L101.3541,122.71672400543149L101.45350666666667,127.03003440325891L103.37257333333334,141.48468730862203L103.37331333333334,150.15747905183989L103.37429999999999,137.56115409777064L103.47395333333334,130.003359125329L105.39228,125.4686821418641L105.39228,134.61454261845176L105.39943333333333,140.1020589044044L105.39474666666666,155.26123534264266L107.41223333333332,152.49007453891892L107.41297333333333,138.960711390018L107.42012666666666,130.84309350067747L107.4147,137.83918943373985L109.43243333333334,136.10351366024392L109.43243333333334,135.06210819614634L109.43934,134.4372649176878L109.43539333333334,122.19569228394602L111.45164666666666,120.78408203703427L111.45263333333334,125.87044922222057L111.46003333333334,146.7222695333323L111.4551,141.4333617199994L113.47061333333333,132.32668369866633L113.47234,132.79601021919981L113.47998666666666,133.0776061315199L113.47431333333333,115.44656367891196L115.49007333333334,128.6012715406805L115.49229333333334,124.62742959107499L115.49994000000001,145.97645775464497L115.49451333333333,135.05254131945367L117.51076666666667,128.49819145833885L117.51298666666666,136.43224820833666L117.51989333333334,141.1926822583353L117.51422000000001,132.18227602166786L119.52998,144.57603227966734L119.53318666666667,140.1456193678004L119.54058666666667,119.68737162068027L119.53318666666667,119.27908963907485L121.54993333333334,142.76745378344492L121.55338666666665,133.1271389367336L121.56004666666666,145.1429500287068L121.55387999999999,128.6191033505574L123.57013333333333,118.70479534366777L123.57334,118.68954387286738L123.58024666666667,124.61372632372044L123.57284666666666,128.16823579423226L125.59033333333333,148.10094147653936L125.59230666666667,136.3272315525903L125.60069333333334,123.32967226488753L125.59181333333333,109.59780335893254L127.61102666666666,107.29201534869284L127.61152,123.70854254254905L127.62015333333332,103.8917921921961L127.61250666666668,103.868408648651L129.63098,103.85437852252393L129.63147333333333,97.9126271135143L129.63912000000002,82.48090960144192L129.63270666666668,85.08854576086514L131.65142666666665,80.71979412318578L131.65117999999998,101.83187647391148L131.65956666666668,102.63245921768022L131.6534,103.11280886394145L133.67064,97.46768531836489L133.67113333333333,94.08061119101896L133.67976666666667,97.98170004794467L133.67384666666666,118.12235336210013L135.69059333333334,106.47341201726006L135.69084,93.55071387702273L135.70046,109.53042832621362L135.69306,113.18492366239482L137.71079333333333,115.37762086410356L137.71005333333335,134.4932391851288L137.71967333333333,134.0959435110773L137.71202666666667,139.79089943997977L139.73025333333334,131.3412063306545L139.73074666666668,132.20472379839268L139.73962666666665,132.7228342790356L139.73222666666666,144.90036723408804L141.7507,134.4068870071195L141.75045333333333,128.1107988709383L141.75859333333332,112.46647932256299L141.75144,120.8798875935378L143.77016,125.92793255612266L143.77114666666665,117.09009286700692L143.7783,117.72072238687078L143.77188666666666,118.09910009878911L145.79060666666666,124.25946005927345L145.79060666666666,122.02234270223073L145.79874666666666,120.68007228800509L145.79159333333334,113.94137670613637L147.81080666666665,127.69815935701513L147.80957333333333,130.01889561420904L147.81894666666668,119.54467070185873L147.81154666666666,136.99346908778193L149.83026666666666,129.6627481193358L149.82853999999998,119.3309822049348L149.83914666666666,119.06525598962753L149.83051333333333,112.97248692710986L151.84997333333334,97.45015882293258L151.84849333333335,117.8034286270929L151.85959333333335,118.14872384292238L151.84948,118.35590097242012L153.86894,124.41354058345209L153.86746,122.11479101673788L153.87880666666666,120.73554127670936L153.87017333333336,113.97465809935893L155.8884,121.78479485961539L155.88766,108.67087691576918L155.89875999999998,88.93585948279487L155.89012666666667,88.96151568967693L157.90736666666666,112.71024274713949L157.90712,121.02614564828372L157.91797333333335,137.88235405563688L157.90958666666668,130.1960791000488L159.8316133333333,113.71764746002926L159.9270733333333,115.69725514268424L159.93792666666667,105.01835308561053L159.92929333333333,110.477678518033L161.85132000000002,107.81994044415313L161.85132000000002,94.35863093315854L161.95738666666668,80.34851189322843L161.94850666666665,71.94244046927044L163.87078,78.76546428156223L163.87078,88.79261190227064L163.87300000000002,77.00890047469572L163.97783333333334,75.8720069514841L165.89048666666667,81.12320417089043L165.89048666666667,108.00725583586757L165.89221333333333,94.47102016818721L165.99852666666666,98.21594543424568L167.9097,94.5295672605474L167.91044,80.45107368966178L167.91266,95.73731088046372L168.01922,93.0423865282782L169.93014666666667,97.35876525030025L169.92940666666667,94.01525915018013L169.93187333333333,97.9424888234414L170.03843333333336,118.09882662739818L171.95034666666666,106.45929597643892L171.94960666666668,117.27557758586333L171.95108666666667,105.96534655151798L172.05863333333335,111.04587459757742L173.97054666666668,96.2941914252131L173.96931333333333,99.30984818846119L173.97128666666669,83.31924224641006L174.07834,91.52487868117933L175.99099333333334,96.44826054204091L175.98901999999998,81.60228965855785L175.99124,96.42804046180136L176.09829333333334,99.39015761041412L178.01144,89.30076123291512L178.00971333333334,106.98045673974909L178.01069999999999,76.0549407105161L178.11824666666666,75.29963109297636L180.03213333333332,80.7797786557858L180.02917333333335,90.00120052680484L180.02991333333335,89.60072031608286L180.13819999999998,95.29376552298305L182.05159333333333,92.77625931378981L182.04888,109.06575558827387L182.04937333333334,112.90612001963095L182.15815333333336,109.27700534511189L184.07204,95.23286987373383L184.06908,80.87305525757361L184.06834,72.25716648787751L184.17835333333335,84.88763322605985L186.09273333333334,80.5992466023026L186.08878666666666,101.75954796138157L186.08804666666666,78.85572877682891L186.19806,65.11343726609735L188.11318,74.66806235965839L188.1077533333333,74.46750408246172L188.10824666666664,86.21383578281036L188.21702666666667,81.3949681363529L190.13214666666667,78.5036475484784L190.12820000000002,76.76885519575374L190.14151999999999,75.72797978411893L190.12770666666668,92.90345453713802L192.1521,85.40873938894944L192.14864666666668,86.84524363336963L192.16172,93.6404795133551L192.14716666666666,103.65095437467976L194.17254666666665,85.92390595814119L194.16810666666666,87.15434357488473L194.18192000000002,87.89260614493087L194.16736666666665,88.33556368695848L196.19176000000002,82.6680048788418L196.18732,67.40080292730508L196.20261333333335,70.1071484230497L196.18658,71.7309557204965L198.21220666666667,54.905240098964555L198.20677999999998,44.809810726045384L198.22256666666667,38.75255310229386L198.20628666666664,58.85153186137629L200.23166666666668,76.84425245015909L200.22673333333336,99.50655147009545L200.24276666666665,107.17059754872396L200.2264866666667,123.63569186256775L202.25137333333333,97.91474845087397L202.24594666666667,82.48218240385773L202.26321333333334,67.28930944231465L202.24644,64.10691899872212L204.27058666666665,62.19748473256659L204.26664,61.051824172873296L204.28341333333333,54.43109450372398L204.26664,38.591990035567704L206.29103333333336,46.888527354673926L206.28659333333331,51.86644974613775L206.30336666666665,72.65320318101597L206.28708666666665,79.19192190860959L208.31,89.04848647849907L208.30605333333332,100.89575855376613L208.32356666666666,72.40412179892634L208.30728666666667,67.17580641268914L210.33044666666666,58.105483847613456L210.32502,46.72995697523473L210.34401333333335,57.704640851807525L210.3265,46.489451177751164L212.34990666666667,51.627004039984044L212.34522,72.50953575732373L212.36347333333333,61.305721454394245L212.34546666666668,54.58343287263651L214.36911999999998,38.683393056915264L214.36591333333334,23.210035834149153L214.38317999999998,25.7926881671562L214.36591333333334,33.27561290029371L216.38858000000002,43.69870107350957L216.38562,38.08588731077242L216.40214666666668,40.65153238646346L216.38512666666665,48.12425276521145L218.40804,52.607884992460214L218.40557333333334,43.431397662142786L218.42185333333333,49.79217193061899L218.40409333333335,29.875303158371395L220.42848666666666,29.791848561689562L220.42503333333335,47.54177580368042L220.44131333333334,34.45839881554156L220.4238,50.341705955991586L222.44745333333333,53.938356906928306L222.44424666666666,50.163014144156975L222.46077333333332,53.83114181982752L222.44326,61.96535175856317L224.46691333333334,60.91254438847125L224.46469333333334,42.48085996641606L224.48048000000003,37.355182646516255L224.46346,46.14644292124311L226.48711333333333,39.55453241941254L226.4844,41.532719451647495L226.49969333333334,48.652965004321885L226.48390666666666,41.05844566925981L228.40913999999998,42.435067401555926L228.40864666666664,31.39437377426688L228.50657333333334,36.63662426456017L228.51865999999998,57.58197455873609L230.42810666666668,46.415851401908355L230.42934000000002,69.3828441744783L230.52553999999998,77.22970650468694L230.53910666666667,64.13782390281216L232.45028000000002,68.14936100835395L232.44707333333332,88.35628327167906L232.44954,76.74710329634074L232.55955333333333,63.84826197780447L234.46924666666666,62.042290520015996L234.46678,49.09204097867621L234.46875333333332,47.25522458720573L234.57852,46.15313475232347L236.48944666666668,45.491880851394086L236.48648666666665,39.16179517750305L236.48895333333334,53.163743773168534L236.59896666666668,37.83157959723442L238.50841333333332,34.56561442500728L238.50545333333335,38.53936865500438L238.50964666666667,29.05695452633597L238.61966,35.23417271580158L240.52885999999998,27.073836962814283L240.52516,39.9776355110219L240.52910666666665,35.85324797327982L240.64010666666667,15.5786154506346L242.5495533333333,27.147169270380743L242.54461999999998,45.954968228895126L242.54930666666664,39.43964760400374L242.65907333333334,29.59712189573554L244.56975333333335,35.55827313744132L244.56482,39.1349638824648L244.56950666666668,41.28097832947887L244.67804,42.568586997687305L246.59044666666668,31.474485531945703L246.58526666666668,42.618024652500765L246.58946,49.30414812483377L246.69725333333335,47.38248887490025L248.61015333333333,40.29615999160683L248.60423333333333,30.111029328297406L248.60941333333332,41.79995093031184L248.71696,31.013303891520422L250.62961333333334,24.541315668245574L250.62443333333334,20.658122734280653L250.62936666666667,30.194873640568403L250.73666666666665,18.11692418434106L252.64857999999998,22.73682117727131L252.64364666666665,43.30875937302946L252.64857999999998,43.785255623817676L252.75662,61.8711533742906L254.66779333333335,48.98935869124102L254.66286000000002,41.260281881411345L254.66804000000002,48.4895024621801L254.77583333333334,46.89370147730804L256.68700666666666,28.13622088638482L256.6833066666667,34.6817325318309L256.68873333333335,38.60903951909853L256.79529333333335,35.03209037812579L258.70622000000003,32.88592089354219L258.70276666666666,37.531552536125275L258.70868666666667,22.5189315216752L258.81549333333334,25.378025579671743L260.7259266666667,38.96014868113639L260.72272000000004,41.17608920868179L260.73974,24.705653525209073L260.7291333333333,32.623392115125455L262.74612666666667,37.37403526907528L262.74267333333336,40.22442116144518L262.75895333333335,36.00131936353378L262.74884000000003,39.40079161812031L264.76608,41.440474970872174L264.76312,48.59761831585661L264.77816666666666,46.95857098951396L264.7692866666667,45.97514259370834L266.78529333333336,39.45175222289171L266.78282666666667,23.67105133373505L266.79738000000003,20.135964133574333L266.7894866666667,35.81491181347798L268.80549333333335,51.15561375475349L268.80278,42.560034919518785L268.81659333333334,31.469354285044574L268.80944,24.81494590436006L270.8249533333333,26.75563420928276L270.82223999999997,16.05338052556965L270.8363,21.49869498200843L270.8301333333333,18.832550322538367" style="fill: none;" fill="none"></path></g></g></g></g><g opacity="0.2"><g><g><g><path stroke="rgb(204, 51, 17)" stroke-width="2px" d="M28.737653333333334,400.5L30.757360000000002,178L30.759333333333334,207.66666666666666L32.77632666666667,192.83333333333334L32.7783,163.16666666666666L32.77731333333333,118.66666666666667L32.77780666666667,133.5L34.79554,148.33333333333334L34.797513333333335,148.33333333333334L34.797019999999996,118.66666666666667L34.797513333333335,192.83333333333334L36.81450666666667,103.83333333333333L36.81771333333334,148.33333333333334L36.81722,74.16666666666666L36.81697333333334,89L38.83372,163.16666666666666L38.83791333333333,74.16666666666666L38.83742,103.83333333333333L38.836679999999994,74.16666666666666L40.85268666666667,89L40.857373333333335,163.16666666666666L40.856880000000004,133.5L40.857126666666666,89L42.873380000000004,89L42.87658666666667,74.16666666666666L42.87609333333333,74.16666666666666L42.87634,133.5L44.89358,148.33333333333334L44.89555333333333,103.83333333333333L44.896539999999995,118.66666666666667L44.89604666666667,133.5L46.913286666666664,133.5L46.91526,118.66666666666667L46.916493333333335,74.16666666666666L46.916000000000004,148.33333333333334L48.9325,133.5L48.93496666666667,103.83333333333333L48.93694,89L48.935460000000006,163.16666666666666L50.95220666666666,103.83333333333333L50.95566,74.16666666666666L50.9564,133.5L50.95541333333333,103.83333333333333L52.97216,148.33333333333334L52.974626666666666,133.5L52.977093333333336,89L52.975366666666666,118.66666666666667L54.99186666666667,118.66666666666667L54.99532,89L54.99630666666667,133.5L54.99433333333333,118.66666666666667L57.01132666666667,89L57.01552,118.66666666666667L57.01650666666667,103.83333333333333L57.01404,103.83333333333333L59.031526666666664,89L59.03498,118.66666666666667L59.0372,103.83333333333333L59.033253333333334,148.33333333333334L61.050493333333335,133.5L61.05444,133.5L61.05690666666667,148.33333333333334L61.05320666666667,133.5L63.06946,118.66666666666667L63.07513333333334,103.83333333333333L63.077353333333335,118.66666666666667L63.07340666666667,133.5L65.08990666666666,89L65.09459333333334,133.5L65.0978,118.66666666666667L65.09360666666667,118.66666666666667L67.10912,133.5L67.11355999999999,103.83333333333333L67.11849333333333,133.5L67.1143,133.5L69.12981333333333,89L69.13400666666666,103.83333333333333L69.13770666666666,148.33333333333334L69.1345,133.5L71.14927333333333,133.5L71.15322,148.33333333333334L71.15692,148.33333333333334L71.15494666666667,163.16666666666666L73.16922666666666,148.33333333333334L73.17342,133.5L73.17613333333334,148.33333333333334L73.17391333333333,133.5L75.18868666666667,133.5L75.19238666666668,133.5L75.19583999999999,118.66666666666667L75.19362,133.5L77.20888666666667,118.66666666666667L77.21283333333334,89L77.21628666666668,103.83333333333333L77.21382000000001,118.66666666666667L79.22834666666665,148.33333333333334L79.23328,133.5L79.23574666666666,133.5L79.23278666666667,163.16666666666666L81.24731333333332,133.5L81.25273999999999,163.16666666666666L81.25471333333334,148.33333333333334L81.25200000000001,133.5L83.26776,148.33333333333334L83.27244666666667,133.5L83.27540666666667,148.33333333333334L83.2722,178L85.19200666666667,148.33333333333334L85.29314,163.16666666666666L85.29462000000001,148.33333333333334L85.29190666666666,148.33333333333334L87.21146666666668,118.66666666666667L87.3126,148.33333333333334L87.31482,163.16666666666666L87.31161333333334,148.33333333333334L89.23142,148.33333333333334L89.33156666666666,118.66666666666667L89.33403333333332,133.5L89.33181333333333,148.33333333333334L91.25211333333334,178L91.35102666666667,148.33333333333334L91.35423333333334,148.33333333333334L91.35152000000001,148.33333333333334L93.27256,103.83333333333333L93.37024,163.16666666666666L93.37344666666667,148.33333333333334L93.37147333333334,163.16666666666666L95.29226666666668,118.66666666666667L95.29498000000001,178L95.29596666666666,163.16666666666666L95.39364666666665,148.33333333333334L97.31271333333333,133.5L97.31443999999999,163.16666666666666L97.31518,133.5L97.41409333333334,133.5L99.33242,133.5L99.33488666666666,103.83333333333333L99.33513333333333,118.66666666666667L99.43454,89L101.35286666666666,148.33333333333334L101.35385333333333,118.66666666666667L101.3541,118.66666666666667L101.45350666666667,133.5L103.37257333333334,133.5L103.37331333333334,148.33333333333334L103.37429999999999,103.83333333333333L103.47395333333334,148.33333333333334L105.39228,118.66666666666667L105.39228,133.5L105.39943333333333,163.16666666666666L105.39474666666666,148.33333333333334L107.41223333333332,133.5L107.41297333333333,103.83333333333333L107.42012666666666,103.83333333333333L107.4147,103.83333333333333L109.43243333333334,89L109.43243333333334,148.33333333333334L109.43934,118.66666666666667L109.43539333333334,103.83333333333333L111.45164666666666,133.5L111.45263333333334,178L111.46003333333334,118.66666666666667L111.4551,163.16666666666666L113.47061333333333,163.16666666666666L113.47234,118.66666666666667L113.47998666666666,103.83333333333333L113.47431333333333,163.16666666666666L115.49007333333334,118.66666666666667L115.49229333333334,148.33333333333334L115.49994000000001,163.16666666666666L115.49451333333333,118.66666666666667L117.51076666666667,74.16666666666666L117.51298666666666,118.66666666666667L117.51989333333334,118.66666666666667L117.51422000000001,133.5L119.52998,163.16666666666666L119.53318666666667,133.5L119.54058666666667,103.83333333333333L119.53318666666667,133.5L121.54993333333334,103.83333333333333L121.55338666666665,103.83333333333333L121.56004666666666,103.83333333333333L121.55387999999999,148.33333333333334L123.57013333333333,103.83333333333333L123.57334,148.33333333333334L123.58024666666667,103.83333333333333L123.57284666666666,148.33333333333334L125.59033333333333,74.16666666666666L125.59230666666667,89L125.60069333333334,103.83333333333333L125.59181333333333,118.66666666666667L127.61102666666666,118.66666666666667L127.61152,103.83333333333333L127.62015333333332,118.66666666666667L127.61250666666668,74.16666666666666L129.63098,133.5L129.63147333333333,133.5L129.63912000000002,133.5L129.63270666666668,133.5L131.65142666666665,103.83333333333333L131.65117999999998,89L131.65956666666668,133.5L131.6534,89L133.67064,89L133.67113333333333,74.16666666666666L133.67976666666667,89L133.67384666666666,89L135.69059333333334,118.66666666666667L135.69084,89L135.70046,118.66666666666667L135.69306,103.83333333333333L137.71079333333333,133.5L137.71005333333335,103.83333333333333L137.71967333333333,44.5L137.71202666666667,103.83333333333333L139.73025333333334,74.16666666666666L139.73074666666668,118.66666666666667L139.73962666666665,74.16666666666666L139.73222666666666,89L141.7507,74.16666666666666L141.75045333333333,89L141.75859333333332,89L141.75144,133.5L143.77016,103.83333333333333L143.77114666666665,118.66666666666667L143.7783,103.83333333333333L143.77188666666666,103.83333333333333L145.79060666666666,133.5L145.79060666666666,89L145.79874666666666,118.66666666666667L145.79159333333334,133.5L147.81080666666665,89L147.80957333333333,103.83333333333333L147.81894666666668,74.16666666666666L147.81154666666666,133.5L149.83026666666666,133.5L149.82853999999998,89L149.83914666666666,89L149.83051333333333,89L151.84997333333334,118.66666666666667L151.84849333333335,89L151.85959333333335,118.66666666666667L151.84948,103.83333333333333L153.86894,74.16666666666666L153.86746,103.83333333333333L153.87880666666666,89L153.87017333333336,74.16666666666666L155.8884,118.66666666666667L155.88766,133.5L155.89875999999998,118.66666666666667L155.89012666666667,103.83333333333333L157.90736666666666,133.5L157.90712,89L157.91797333333335,118.66666666666667L157.90958666666668,118.66666666666667L159.8316133333333,89L159.9270733333333,118.66666666666667L159.93792666666667,74.16666666666666L159.92929333333333,59.33333333333334L161.85132000000002,103.83333333333333L161.85132000000002,103.83333333333333L161.95738666666668,74.16666666666666L161.94850666666665,133.5L163.87078,133.5L163.87078,59.33333333333334L163.87300000000002,89L163.97783333333334,103.83333333333333L165.89048666666667,103.83333333333333L165.89048666666667,103.83333333333333L165.89221333333333,89L165.99852666666666,89L167.9097,59.33333333333334L167.91044,74.16666666666666L167.91266,103.83333333333333L168.01922,148.33333333333334L169.93014666666667,74.16666666666666L169.92940666666667,89L169.93187333333333,103.83333333333333L170.03843333333336,59.33333333333334L171.95034666666666,29.666666666666657L171.94960666666668,44.5L171.95108666666667,14.833333333333343L172.05863333333335,89L173.97054666666668,118.66666666666667L173.96931333333333,44.5L173.97128666666669,44.5L174.07834,74.16666666666666L175.99099333333334,89L175.98901999999998,103.83333333333333L175.99124,59.33333333333334L176.09829333333334,89L178.01144,89L178.00971333333334,74.16666666666666L178.01069999999999,44.5L178.11824666666666,74.16666666666666L180.03213333333332,118.66666666666667L180.02917333333335,103.83333333333333L180.02991333333335,74.16666666666666L180.13819999999998,118.66666666666667L182.05159333333333,74.16666666666666L182.04888,89L182.04937333333334,103.83333333333333L182.15815333333336,89L184.07204,29.666666666666657L184.06908,59.33333333333334L184.06834,14.833333333333343L184.17835333333335,59.33333333333334L186.09273333333334,74.16666666666666L186.08878666666666,89L186.08804666666666,74.16666666666666L186.19806,89L188.11318,59.33333333333334L188.1077533333333,89L188.10824666666664,74.16666666666666L188.21702666666667,44.5L190.13214666666667,44.5L190.12820000000002,59.33333333333334L190.14151999999999,29.666666666666657L190.12770666666668,59.33333333333334L192.1521,118.66666666666667L192.14864666666668,44.5L192.16172,103.83333333333333L192.14716666666666,89L194.17254666666665,44.5L194.16810666666666,74.16666666666666L194.18192000000002,44.5L194.16736666666665,74.16666666666666L196.19176000000002,59.33333333333334L196.18732,74.16666666666666L196.20261333333335,74.16666666666666L196.18658,89L198.21220666666667,74.16666666666666L198.20677999999998,44.5L198.22256666666667,59.33333333333334L198.20628666666664,59.33333333333334L200.23166666666668,59.33333333333334L200.22673333333336,44.5L200.24276666666665,103.83333333333333L200.2264866666667,44.5L202.25137333333333,29.666666666666657L202.24594666666667,89L202.26321333333334,44.5L202.24644,44.5L204.27058666666665,74.16666666666666L204.26664,89L204.28341333333333,74.16666666666666L204.26664,103.83333333333333L206.29103333333336,29.666666666666657L206.28659333333331,103.83333333333333L206.30336666666665,74.16666666666666L206.28708666666665,74.16666666666666L208.31,59.33333333333334L208.30605333333332,59.33333333333334L208.32356666666666,14.833333333333343L208.30728666666667,59.33333333333334L210.33044666666666,44.5L210.32502,44.5L210.34401333333335,89L210.3265,29.666666666666657L212.34990666666667,89L212.34522,103.83333333333333L212.36347333333333,59.33333333333334L212.34546666666668,59.33333333333334L214.36911999999998,44.5L214.36591333333334,74.16666666666666L214.38317999999998,74.16666666666666L214.36591333333334,14.833333333333343L216.38858000000002,44.5L216.38562,44.5L216.40214666666668,44.5L216.38512666666665,74.16666666666666L218.40804,14.833333333333343L218.40557333333334,29.666666666666657L218.42185333333333,29.666666666666657L218.40409333333335,29.666666666666657L220.42848666666666,59.33333333333334L220.42503333333335,29.666666666666657L220.44131333333334,74.16666666666666L220.4238,133.5L222.44745333333333,59.33333333333334L222.44424666666666,59.33333333333334L222.46077333333332,74.16666666666666L222.44326,29.666666666666657L224.46691333333334,74.16666666666666L224.46469333333334,89L224.48048000000003,44.5L224.46346,89L226.48711333333333,74.16666666666666L226.4844,74.16666666666666L226.49969333333334,29.666666666666657L226.48390666666666,44.5L228.40913999999998,89L228.40864666666664,103.83333333333333L228.50657333333334,89L228.51865999999998,74.16666666666666L230.42810666666668,89L230.42934000000002,89L230.52553999999998,89L230.53910666666667,118.66666666666667L232.45028000000002,59.33333333333334L232.44707333333332,0L232.44954,59.33333333333334L232.55955333333333,74.16666666666666L234.46924666666666,59.33333333333334L234.46678,59.33333333333334L234.46875333333332,44.5L234.57852,29.666666666666657L236.48944666666668,59.33333333333334L236.48648666666665,29.666666666666657L236.48895333333334,59.33333333333334L236.59896666666668,59.33333333333334L238.50841333333332,59.33333333333334L238.50545333333335,59.33333333333334L238.50964666666667,29.666666666666657L238.61966,44.5L240.52885999999998,44.5L240.52516,59.33333333333334L240.52910666666665,44.5L240.64010666666667,44.5L242.5495533333333,59.33333333333334L242.54461999999998,29.666666666666657L242.54930666666664,29.666666666666657L242.65907333333334,29.666666666666657L244.56975333333335,59.33333333333334L244.56482,59.33333333333334L244.56950666666668,44.5L244.67804,74.16666666666666L246.59044666666668,44.5L246.58526666666668,89L246.58946,74.16666666666666L246.69725333333335,59.33333333333334L248.61015333333333,29.666666666666657L248.60423333333333,59.33333333333334L248.60941333333332,59.33333333333334L248.71696,74.16666666666666L250.62961333333334,89L250.62443333333334,29.666666666666657L250.62936666666667,44.5L250.73666666666665,89L252.64857999999998,44.5L252.64364666666665,44.5L252.64857999999998,59.33333333333334L252.75662,59.33333333333334L254.66779333333335,59.33333333333334L254.66286000000002,44.5L254.66804000000002,74.16666666666666L254.77583333333334,59.33333333333334L256.68700666666666,29.666666666666657L256.6833066666667,59.33333333333334L256.68873333333335,74.16666666666666L256.79529333333335,0L258.70622000000003,29.666666666666657L258.70276666666666,59.33333333333334L258.70868666666667,14.833333333333343L258.81549333333334,44.5L260.7259266666667,14.833333333333343L260.72272000000004,44.5L260.73974,29.666666666666657L260.7291333333333,14.833333333333343L262.74612666666667,44.5L262.74267333333336,0L262.75895333333335,14.833333333333343L262.74884000000003,74.16666666666666L264.76608,74.16666666666666L264.76312,14.833333333333343L264.77816666666666,0L264.7692866666667,14.833333333333343L266.78529333333336,59.33333333333334L266.78282666666667,14.833333333333343L266.79738000000003,59.33333333333334L266.7894866666667,89L268.80549333333335,44.5L268.80278,44.5L268.81659333333334,59.33333333333334L268.80944,14.833333333333343L270.8249533333333,74.16666666666666L270.82223999999997,44.5L270.8363,74.16666666666666L270.8301333333333,74.16666666666666" style="fill: none;" fill="none"></path></g><g><path stroke="rgb(0, 119, 187)" stroke-width="2px" d="M28.73938,192.83333333333334L28.737653333333334,178L28.737653333333334,192.83333333333334L30.757360000000002,148.33333333333334L30.759333333333334,163.16666666666666L30.758100000000002,148.33333333333334L30.758346666666665,148.33333333333334L32.77632666666667,163.16666666666666L32.7783,118.66666666666667L32.77731333333333,118.66666666666667L32.77780666666667,148.33333333333334L34.79554,133.5L34.797513333333335,118.66666666666667L34.797019999999996,133.5L34.797513333333335,103.83333333333333L36.81450666666667,103.83333333333333L36.81771333333334,118.66666666666667L36.81722,103.83333333333333L36.81697333333334,118.66666666666667L38.83372,163.16666666666666L38.83791333333333,133.5L38.83742,118.66666666666667L38.836679999999994,103.83333333333333L40.85268666666667,148.33333333333334L40.857373333333335,133.5L40.856880000000004,103.83333333333333L40.857126666666666,148.33333333333334L42.873380000000004,74.16666666666666L42.87658666666667,118.66666666666667L42.87609333333333,103.83333333333333L42.87634,103.83333333333333L44.89358,103.83333333333333L44.89555333333333,163.16666666666666L44.896539999999995,89L44.89604666666667,163.16666666666666L46.913286666666664,163.16666666666666L46.91526,148.33333333333334L46.916493333333335,103.83333333333333L46.916000000000004,133.5L48.9325,103.83333333333333L48.93496666666667,148.33333333333334L48.93694,133.5L48.935460000000006,118.66666666666667L50.95220666666666,178L50.95566,163.16666666666666L50.9564,133.5L50.95541333333333,103.83333333333333L52.97216,163.16666666666666L52.974626666666666,118.66666666666667L52.977093333333336,148.33333333333334L52.975366666666666,89L54.99186666666667,118.66666666666667L54.99532,118.66666666666667L54.99630666666667,118.66666666666667L54.99433333333333,103.83333333333333L57.01132666666667,103.83333333333333L57.01552,118.66666666666667L57.01650666666667,163.16666666666666L57.01404,133.5L59.031526666666664,103.83333333333333L59.03498,118.66666666666667L59.0372,118.66666666666667L59.033253333333334,118.66666666666667L61.050493333333335,178L61.05444,89L61.05690666666667,89L61.05320666666667,103.83333333333333L63.06946,178L63.07513333333334,118.66666666666667L63.077353333333335,118.66666666666667L63.07340666666667,103.83333333333333L65.08990666666666,148.33333333333334L65.09459333333334,178L65.0978,133.5L65.09360666666667,103.83333333333333L67.10912,103.83333333333333L67.11355999999999,133.5L67.11849333333333,133.5L67.1143,133.5L69.12981333333333,118.66666666666667L69.13400666666666,59.33333333333334L69.13770666666666,148.33333333333334L69.1345,103.83333333333333L71.14927333333333,89L71.15322,103.83333333333333L71.15692,103.83333333333333L71.15494666666667,74.16666666666666L73.16922666666666,133.5L73.17342,74.16666666666666L73.17613333333334,148.33333333333334L73.17391333333333,133.5L75.18868666666667,103.83333333333333L75.19238666666668,118.66666666666667L75.19583999999999,118.66666666666667L75.19362,118.66666666666667L77.20888666666667,103.83333333333333L77.21283333333334,133.5L77.21628666666668,103.83333333333333L77.21382000000001,118.66666666666667L79.22834666666665,103.83333333333333L79.23328,163.16666666666666L79.23574666666666,118.66666666666667L79.23278666666667,163.16666666666666L81.24731333333332,118.66666666666667L81.25273999999999,133.5L81.25471333333334,148.33333333333334L81.25200000000001,148.33333333333334L83.26776,89L83.27244666666667,89L83.27540666666667,118.66666666666667L83.2722,133.5L85.19200666666667,118.66666666666667L85.29314,103.83333333333333L85.29462000000001,118.66666666666667L85.29190666666666,133.5L87.21146666666668,118.66666666666667L87.3126,133.5L87.31482,118.66666666666667L87.31161333333334,133.5L89.23142,118.66666666666667L89.33156666666666,103.83333333333333L89.33403333333332,148.33333333333334L89.33181333333333,118.66666666666667L91.25211333333334,133.5L91.35102666666667,148.33333333333334L91.35423333333334,133.5L91.35152000000001,148.33333333333334L93.27256,103.83333333333333L93.37024,118.66666666666667L93.37344666666667,178L93.37147333333334,148.33333333333334L95.29226666666668,133.5L95.29498000000001,133.5L95.29596666666666,89L95.39364666666665,133.5L97.31271333333333,118.66666666666667L97.31443999999999,133.5L97.31518,89L97.41409333333334,133.5L99.33242,118.66666666666667L99.33488666666666,133.5L99.33513333333333,163.16666666666666L99.43454,89L101.35286666666666,103.83333333333333L101.35385333333333,118.66666666666667L101.3541,133.5L101.45350666666667,133.5L103.37257333333334,163.16666666666666L103.37331333333334,163.16666666666666L103.37429999999999,118.66666666666667L103.47395333333334,118.66666666666667L105.39228,118.66666666666667L105.39228,148.33333333333334L105.39943333333333,148.33333333333334L105.39474666666666,178L107.41223333333332,148.33333333333334L107.41297333333333,118.66666666666667L107.42012666666666,118.66666666666667L107.4147,148.33333333333334L109.43243333333334,133.5L109.43243333333334,133.5L109.43934,133.5L109.43539333333334,103.83333333333333L111.45164666666666,118.66666666666667L111.45263333333334,133.5L111.46003333333334,178L111.4551,133.5L113.47061333333333,118.66666666666667L113.47234,133.5L113.47998666666666,133.5L113.47431333333333,89L115.49007333333334,148.33333333333334L115.49229333333334,118.66666666666667L115.49994000000001,178L115.49451333333333,118.66666666666667L117.51076666666667,118.66666666666667L117.51298666666666,148.33333333333334L117.51989333333334,148.33333333333334L117.51422000000001,118.66666666666667L119.52998,163.16666666666666L119.53318666666667,133.5L119.54058666666667,89L119.53318666666667,118.66666666666667L121.54993333333334,178L121.55338666666665,118.66666666666667L121.56004666666666,163.16666666666666L121.55387999999999,103.83333333333333L123.57013333333333,103.83333333333333L123.57334,118.66666666666667L123.58024666666667,133.5L123.57284666666666,133.5L125.59033333333333,178L125.59230666666667,118.66666666666667L125.60069333333334,103.83333333333333L125.59181333333333,89L127.61102666666666,103.83333333333333L127.61152,148.33333333333334L127.62015333333332,74.16666666666666L127.61250666666668,103.83333333333333L129.63098,103.83333333333333L129.63147333333333,89L129.63912000000002,59.33333333333334L129.63270666666668,89L131.65142666666665,74.16666666666666L131.65117999999998,133.5L131.65956666666668,103.83333333333333L131.6534,103.83333333333333L133.67064,89L133.67113333333333,89L133.67976666666667,103.83333333333333L133.67384666666666,148.33333333333334L135.69059333333334,89L135.69084,74.16666666666666L135.70046,133.5L135.69306,118.66666666666667L137.71079333333333,118.66666666666667L137.71005333333335,163.16666666666666L137.71967333333333,133.5L137.71202666666667,148.33333333333334L139.73025333333334,118.66666666666667L139.73074666666668,133.5L139.73962666666665,133.5L139.73222666666666,163.16666666666666L141.7507,118.66666666666667L141.75045333333333,118.66666666666667L141.75859333333332,89L141.75144,133.5L143.77016,133.5L143.77114666666665,103.83333333333333L143.7783,118.66666666666667L143.77188666666666,118.66666666666667L145.79060666666666,133.5L145.79060666666666,118.66666666666667L145.79874666666666,118.66666666666667L145.79159333333334,103.83333333333333L147.81080666666665,148.33333333333334L147.80957333333333,133.5L147.81894666666668,103.83333333333333L147.81154666666666,163.16666666666666L149.83026666666666,118.66666666666667L149.82853999999998,103.83333333333333L149.83914666666666,118.66666666666667L149.83051333333333,103.83333333333333L151.84997333333334,74.16666666666666L151.84849333333335,148.33333333333334L151.85959333333335,118.66666666666667L151.84948,118.66666666666667L153.86894,133.5L153.86746,118.66666666666667L153.87880666666666,118.66666666666667L153.87017333333336,103.83333333333333L155.8884,133.5L155.88766,89L155.89875999999998,59.33333333333334L155.89012666666667,89L157.90736666666666,148.33333333333334L157.90712,133.5L157.91797333333335,163.16666666666666L157.90958666666668,118.66666666666667L159.8316133333333,89L159.9270733333333,118.66666666666667L159.93792666666667,89L159.92929333333333,118.66666666666667L161.85132000000002,103.83333333333333L161.85132000000002,74.16666666666666L161.95738666666668,59.33333333333334L161.94850666666665,59.33333333333334L163.87078,89L163.87078,103.83333333333333L163.87300000000002,59.33333333333334L163.97783333333334,74.16666666666666L165.89048666666667,89L165.89048666666667,148.33333333333334L165.89221333333333,74.16666666666666L165.99852666666666,103.83333333333333L167.9097,89L167.91044,59.33333333333334L167.91266,118.66666666666667L168.01922,89L169.93014666666667,103.83333333333333L169.92940666666667,89L169.93187333333333,103.83333333333333L170.03843333333336,148.33333333333334L171.95034666666666,89L171.94960666666668,133.5L171.95108666666667,89L172.05863333333335,118.66666666666667L173.97054666666668,74.16666666666666L173.96931333333333,103.83333333333333L173.97128666666669,59.33333333333334L174.07834,103.83333333333333L175.99099333333334,103.83333333333333L175.98901999999998,59.33333333333334L175.99124,118.66666666666667L176.09829333333334,103.83333333333333L178.01144,74.16666666666666L178.00971333333334,133.5L178.01069999999999,29.666666666666657L178.11824666666666,74.16666666666666L180.03213333333332,89L180.02917333333335,103.83333333333333L180.02991333333335,89L180.13819999999998,103.83333333333333L182.05159333333333,89L182.04888,133.5L182.04937333333334,118.66666666666667L182.15815333333336,103.83333333333333L184.07204,74.16666666666666L184.06908,59.33333333333334L184.06834,59.33333333333334L184.17835333333335,103.83333333333333L186.09273333333334,74.16666666666666L186.08878666666666,133.5L186.08804666666666,44.5L186.19806,44.5L188.11318,89L188.1077533333333,74.16666666666666L188.10824666666664,103.83333333333333L188.21702666666667,74.16666666666666L190.13214666666667,74.16666666666666L190.12820000000002,74.16666666666666L190.14151999999999,74.16666666666666L190.12770666666668,118.66666666666667L192.1521,74.16666666666666L192.14864666666668,89L192.16172,103.83333333333333L192.14716666666666,118.66666666666667L194.17254666666665,59.33333333333334L194.16810666666666,89L194.18192000000002,89L194.16736666666665,89L196.19176000000002,74.16666666666666L196.18732,44.5L196.20261333333335,74.16666666666666L196.18658,74.16666666666666L198.21220666666667,29.666666666666657L198.20677999999998,29.666666666666657L198.22256666666667,29.666666666666657L198.20628666666664,89L200.23166666666668,103.83333333333333L200.22673333333336,133.5L200.24276666666665,118.66666666666667L200.2264866666667,148.33333333333334L202.25137333333333,59.33333333333334L202.24594666666667,59.33333333333334L202.26321333333334,44.5L202.24644,59.33333333333334L204.27058666666665,59.33333333333334L204.26664,59.33333333333334L204.28341333333333,44.5L204.26664,14.833333333333343L206.29103333333336,59.33333333333334L206.28659333333331,59.33333333333334L206.30336666666665,103.83333333333333L206.28708666666665,89L208.31,103.83333333333333L208.30605333333332,118.66666666666667L208.32356666666666,29.666666666666657L208.30728666666667,59.33333333333334L210.33044666666666,44.5L210.32502,29.666666666666657L210.34401333333335,74.16666666666666L210.3265,29.666666666666657L212.34990666666667,59.33333333333334L212.34522,103.83333333333333L212.36347333333333,44.5L212.34546666666668,44.5L214.36911999999998,14.833333333333343L214.36591333333334,0L214.38317999999998,29.666666666666657L214.36591333333334,44.5L216.38858000000002,59.33333333333334L216.38562,29.666666666666657L216.40214666666668,44.5L216.38512666666665,59.33333333333334L218.40804,59.33333333333334L218.40557333333334,29.666666666666657L218.42185333333333,59.33333333333334L218.40409333333335,0L220.42848666666666,29.666666666666657L220.42503333333335,74.16666666666666L220.44131333333334,14.833333333333343L220.4238,74.16666666666666L222.44745333333333,59.33333333333334L222.44424666666666,44.5L222.46077333333332,59.33333333333334L222.44326,74.16666666666666L224.46691333333334,59.33333333333334L224.46469333333334,14.833333333333343L224.48048000000003,29.666666666666657L224.46346,59.33333333333334L226.48711333333333,29.666666666666657L226.4844,44.5L226.49969333333334,59.33333333333334L226.48390666666666,29.666666666666657L228.40913999999998,44.5L228.40864666666664,14.833333333333343L228.50657333333334,44.5L228.51865999999998,89L230.42810666666668,29.666666666666657L230.42934000000002,103.83333333333333L230.52553999999998,89L230.53910666666667,44.5L232.45028000000002,74.16666666666666L232.44707333333332,118.66666666666667L232.44954,59.33333333333334L232.55955333333333,44.5L234.46924666666666,59.33333333333334L234.46678,29.666666666666657L234.46875333333332,44.5L234.57852,44.5L236.48944666666668,44.5L236.48648666666665,29.666666666666657L236.48895333333334,74.16666666666666L236.59896666666668,14.833333333333343L238.50841333333332,29.666666666666657L238.50545333333335,44.5L238.50964666666667,14.833333333333343L238.61966,44.5L240.52885999999998,14.833333333333343L240.52516,59.33333333333334L240.52910666666665,29.666666666666657L240.64010666666667,-14.833333333333314L242.5495533333333,44.5L242.54461999999998,74.16666666666666L242.54930666666664,29.666666666666657L242.65907333333334,14.833333333333343L244.56975333333335,44.5L244.56482,44.5L244.56950666666668,44.5L244.67804,44.5L246.59044666666668,14.833333333333343L246.58526666666668,59.33333333333334L246.58946,59.33333333333334L246.69725333333335,44.5L248.61015333333333,29.666666666666657L248.60423333333333,14.833333333333343L248.60941333333332,59.33333333333334L248.71696,14.833333333333343L250.62961333333334,14.833333333333343L250.62443333333334,14.833333333333343L250.62936666666667,44.5L250.73666666666665,0L252.64857999999998,29.666666666666657L252.64364666666665,74.16666666666666L252.64857999999998,44.5L252.75662,89L254.66779333333335,29.666666666666657L254.66286000000002,29.666666666666657L254.66804000000002,59.33333333333334L254.77583333333334,44.5L256.68700666666666,0L256.6833066666667,44.5L256.68873333333335,44.5L256.79529333333335,29.666666666666657L258.70622000000003,29.666666666666657L258.70276666666666,44.5L258.70868666666667,0L258.81549333333334,29.666666666666657L260.7259266666667,59.33333333333334L260.72272000000004,44.5L260.73974,0L260.7291333333333,44.5L262.74612666666667,44.5L262.74267333333336,44.5L262.75895333333335,29.666666666666657L262.74884000000003,44.5L264.76608,44.5L264.76312,59.33333333333334L264.77816666666666,44.5L264.7692866666667,44.5L266.78529333333336,29.666666666666657L266.78282666666667,0L266.79738000000003,14.833333333333343L266.7894866666667,59.33333333333334L268.80549333333335,74.16666666666666L268.80278,29.666666666666657L268.81659333333334,14.833333333333343L268.80944,14.833333333333343L270.8249533333333,29.666666666666657L270.82223999999997,0L270.8363,29.666666666666657L270.8301333333333,14.833333333333343" style="fill: none;" fill="none"></path></g></g></g></g></g></g><g transform="translate(34, 178)" clip-path="url(#clip_1)"><clipPath id="clip_1"><rect width="296" height="22"></rect></clipPath><g><g><line x1="0" y1="0" x2="0" y2="5" style="visibility: inherit;" fill="rgb(0, 0, 0)" stroke="rgb(204, 204, 204)" stroke-width="1px"></line><line x1="24.666666666666664" y1="0" x2="24.666666666666664" y2="5" style="visibility: inherit;" fill="rgb(0, 0, 0)" stroke="rgb(204, 204, 204)" stroke-width="1px"></line><line x1="49.33333333333333" y1="0" x2="49.33333333333333" y2="5" style="visibility: inherit;" fill="rgb(0, 0, 0)" stroke="rgb(204, 204, 204)" stroke-width="1px"></line><line x1="74" y1="0" x2="74" y2="5" style="visibility: inherit;" fill="rgb(0, 0, 0)" stroke="rgb(204, 204, 204)" stroke-width="1px"></line><line x1="98.66666666666666" y1="0" x2="98.66666666666666" y2="5" style="visibility: inherit;" fill="rgb(0, 0, 0)" stroke="rgb(204, 204, 204)" stroke-width="1px"></line><line x1="123.33333333333334" y1="0" x2="123.33333333333334" y2="5" style="visibility: inherit;" fill="rgb(0, 0, 0)" stroke="rgb(204, 204, 204)" stroke-width="1px"></line><line x1="148" y1="0" x2="148" y2="5" style="visibility: inherit;" fill="rgb(0, 0, 0)" stroke="rgb(204, 204, 204)" stroke-width="1px"></line><line x1="172.66666666666669" y1="0" x2="172.66666666666669" y2="5" style="visibility: inherit;" fill="rgb(0, 0, 0)" stroke="rgb(204, 204, 204)" stroke-width="1px"></line><line x1="197.33333333333331" y1="0" x2="197.33333333333331" y2="5" style="visibility: inherit;" fill="rgb(0, 0, 0)" stroke="rgb(204, 204, 204)" stroke-width="1px"></line><line x1="222" y1="0" x2="222" y2="5" style="visibility: inherit;" fill="rgb(0, 0, 0)" stroke="rgb(204, 204, 204)" stroke-width="1px"></line><line x1="246.66666666666669" y1="0" x2="246.66666666666669" y2="5" style="visibility: inherit;" fill="rgb(0, 0, 0)" stroke="rgb(204, 204, 204)" stroke-width="1px"></line><line x1="271.3333333333333" y1="0" x2="271.3333333333333" y2="5" style="visibility: inherit;" fill="rgb(0, 0, 0)" stroke="rgb(204, 204, 204)" stroke-width="1px"></line><line x1="296" y1="0" x2="296" y2="5" style="visibility: inherit;" fill="rgb(0, 0, 0)" stroke="rgb(204, 204, 204)" stroke-width="1px"></line></g><g transform="translate(0, 8)"><text x="0" y="0" dx="0em" dy="0.95em" style="text-anchor: middle; visibility: hidden; font-family: &quot;Helvetica Neue&quot;, sans-serif; font-size: 12px; font-weight: 200;" fill="rgb(50, 49, 63)" stroke="none" stroke-width="1px">-100k</text><text x="24.666666666666664" y="0" dx="0em" dy="0.95em" style="text-anchor: middle; visibility: inherit; font-family: &quot;Helvetica Neue&quot;, sans-serif; font-size: 12px; font-weight: 200;" fill="rgb(50, 49, 63)" stroke="none" stroke-width="1px">0</text><text x="49.33333333333333" y="0" dx="0em" dy="0.95em" style="text-anchor: middle; visibility: hidden; font-family: &quot;Helvetica Neue&quot;, sans-serif; font-size: 12px; font-weight: 200;" fill="rgb(50, 49, 63)" stroke="none" stroke-width="1px">100k</text><text x="74" y="0" dx="0em" dy="0.95em" style="text-anchor: middle; visibility: inherit; font-family: &quot;Helvetica Neue&quot;, sans-serif; font-size: 12px; font-weight: 200;" fill="rgb(50, 49, 63)" stroke="none" stroke-width="1px">200k</text><text x="98.66666666666666" y="0" dx="0em" dy="0.95em" style="text-anchor: middle; visibility: hidden; font-family: &quot;Helvetica Neue&quot;, sans-serif; font-size: 12px; font-weight: 200;" fill="rgb(50, 49, 63)" stroke="none" stroke-width="1px">300k</text><text x="123.33333333333334" y="0" dx="0em" dy="0.95em" style="text-anchor: middle; visibility: inherit; font-family: &quot;Helvetica Neue&quot;, sans-serif; font-size: 12px; font-weight: 200;" fill="rgb(50, 49, 63)" stroke="none" stroke-width="1px">400k</text><text x="148" y="0" dx="0em" dy="0.95em" style="text-anchor: middle; visibility: hidden; font-family: &quot;Helvetica Neue&quot;, sans-serif; font-size: 12px; font-weight: 200;" fill="rgb(50, 49, 63)" stroke="none" stroke-width="1px">500k</text><text x="172.66666666666669" y="0" dx="0em" dy="0.95em" style="text-anchor: middle; visibility: inherit; font-family: &quot;Helvetica Neue&quot;, sans-serif; font-size: 12px; font-weight: 200;" fill="rgb(50, 49, 63)" stroke="none" stroke-width="1px">600k</text><text x="197.33333333333331" y="0" dx="0em" dy="0.95em" style="text-anchor: middle; visibility: hidden; font-family: &quot;Helvetica Neue&quot;, sans-serif; font-size: 12px; font-weight: 200;" fill="rgb(50, 49, 63)" stroke="none" stroke-width="1px">700k</text><text x="222" y="0" dx="0em" dy="0.95em" style="text-anchor: middle; visibility: inherit; font-family: &quot;Helvetica Neue&quot;, sans-serif; font-size: 12px; font-weight: 200;" fill="rgb(50, 49, 63)" stroke="none" stroke-width="1px">800k</text><text x="246.66666666666669" y="0" dx="0em" dy="0.95em" style="text-anchor: middle; visibility: hidden; font-family: &quot;Helvetica Neue&quot;, sans-serif; font-size: 12px; font-weight: 200;" fill="rgb(50, 49, 63)" stroke="none" stroke-width="1px">900k</text><text x="271.3333333333333" y="0" dx="0em" dy="0.95em" style="text-anchor: middle; visibility: inherit; font-family: &quot;Helvetica Neue&quot;, sans-serif; font-size: 12px; font-weight: 200;" fill="rgb(50, 49, 63)" stroke="none" stroke-width="1px">1M</text><text x="296" y="0" dx="0em" dy="0.95em" style="text-anchor: middle; visibility: hidden; font-family: &quot;Helvetica Neue&quot;, sans-serif; font-size: 12px; font-weight: 200;" fill="rgb(50, 49, 63)" stroke="none" stroke-width="1px">1.1M</text></g><line x1="0" y1="0" x2="296" y2="0" fill="rgb(0, 0, 0)" stroke="rgb(204, 204, 204)" stroke-width="1px"></line></g></g></g></g></svg>