<svg viewBox="0 0 904.5 400" xmlns="http://www.w3.org/2000/svg"><g><g><g><g><g><line x1="34" y1="378" x2="29" y2="378" style="visibility: inherit;" fill="rgb(0, 0, 0)" stroke="rgb(204, 204, 204)" stroke-width="1px"></line><line x1="34" y1="324" x2="29" y2="324" style="visibility: inherit;" fill="rgb(0, 0, 0)" stroke="rgb(204, 204, 204)" stroke-width="1px"></line><line x1="34" y1="270" x2="29" y2="270" style="visibility: inherit;" fill="rgb(0, 0, 0)" stroke="rgb(204, 204, 204)" stroke-width="1px"></line><line x1="34" y1="216" x2="29" y2="216" style="visibility: inherit;" fill="rgb(0, 0, 0)" stroke="rgb(204, 204, 204)" stroke-width="1px"></line><line x1="34" y1="162" x2="29" y2="162" style="visibility: inherit;" fill="rgb(0, 0, 0)" stroke="rgb(204, 204, 204)" stroke-width="1px"></line><line x1="34" y1="108" x2="29" y2="108" style="visibility: inherit;" fill="rgb(0, 0, 0)" stroke="rgb(204, 204, 204)" stroke-width="1px"></line><line x1="34" y1="54" x2="29" y2="54" style="visibility: inherit;" fill="rgb(0, 0, 0)" stroke="rgb(204, 204, 204)" stroke-width="1px"></line><line x1="34" y1="0" x2="29" y2="0" style="visibility: inherit;" fill="rgb(0, 0, 0)" stroke="rgb(204, 204, 204)" stroke-width="1px"></line></g><g transform="translate(24, 0)"><text x="0" y="378" dx="0em" dy="0.3em" style="text-anchor: end; visibility: hidden; font-family: &quot;Helvetica Neue&quot;, sans-serif; font-size: 12px; font-weight: 200;" fill="rgb(50, 49, 63)" stroke="none" stroke-width="1px">-5</text><text x="0" y="324" dx="0em" dy="0.3em" style="text-anchor: end; visibility: inherit; font-family: &quot;Helvetica Neue&quot;, sans-serif; font-size: 12px; font-weight: 200;" fill="rgb(50, 49, 63)" stroke="none" stroke-width="1px">0</text><text x="0" y="270" dx="0em" dy="0.3em" style="text-anchor: end; visibility: inherit; font-family: &quot;Helvetica Neue&quot;, sans-serif; font-size: 12px; font-weight: 200;" fill="rgb(50, 49, 63)" stroke="none" stroke-width="1px">5</text><text x="0" y="216" dx="0em" dy="0.3em" style="text-anchor: end; visibility: inherit; font-family: &quot;Helvetica Neue&quot;, sans-serif; font-size: 12px; font-weight: 200;" fill="rgb(50, 49, 63)" stroke="none" stroke-width="1px">10</text><text x="0" y="162" dx="0em" dy="0.3em" style="text-anchor: end; visibility: inherit; font-family: &quot;Helvetica Neue&quot;, sans-serif; font-size: 12px; font-weight: 200;" fill="rgb(50, 49, 63)" stroke="none" stroke-width="1px">15</text><text x="0" y="108" dx="0em" dy="0.3em" style="text-anchor: end; visibility: inherit; font-family: &quot;Helvetica Neue&quot;, sans-serif; font-size: 12px; font-weight: 200;" fill="rgb(50, 49, 63)" stroke="none" stroke-width="1px">20</text><text x="0" y="54" dx="0em" dy="0.3em" style="text-anchor: end; visibility: inherit; font-family: &quot;Helvetica Neue&quot;, sans-serif; font-size: 12px; font-weight: 200;" fill="rgb(50, 49, 63)" stroke="none" stroke-width="1px">25</text><text x="0" y="0" dx="0em" dy="0.3em" style="text-anchor: end; visibility: hidden; font-family: &quot;Helvetica Neue&quot;, sans-serif; font-size: 12px; font-weight: 200;" fill="rgb(50, 49, 63)" stroke="none" stroke-width="1px">30</text></g><line x1="34" y1="0" x2="34" y2="378" fill="rgb(0, 0, 0)" stroke="rgb(204, 204, 204)" stroke-width="1px"></line></g></g><g transform="translate(34, 0)" clip-path="url(#clip_0)"><clipPath id="clip_0"><rect width="870" height="378"></rect></clipPath><g><g><g><line x1="0" y1="0" x2="0" y2="378" fill="rgb(0, 0, 0)" stroke="rgb(60, 60, 60)" stroke-width="1px" opacity="0.25"></line><line x1="72.54166666666666" y1="0" x2="72.54166666666666" y2="378" fill="rgb(0, 0, 0)" stroke="rgb(60, 60, 60)" stroke-width="1px" opacity="0.25"></line><line x1="145.08333333333331" y1="0" x2="145.08333333333331" y2="378" fill="rgb(0, 0, 0)" stroke="rgb(60, 60, 60)" stroke-width="1px" opacity="0.25"></line><line x1="217.625" y1="0" x2="217.625" y2="378" fill="rgb(0, 0, 0)" stroke="rgb(60, 60, 60)" stroke-width="1px" opacity="0.25"></line><line x1="290.16666666666663" y1="0" x2="290.16666666666663" y2="378" fill="rgb(0, 0, 0)" stroke="rgb(60, 60, 60)" stroke-width="1px" opacity="0.25"></line><line x1="362.70833333333337" y1="0" x2="362.70833333333337" y2="378" fill="rgb(0, 0, 0)" stroke="rgb(60, 60, 60)" stroke-width="1px" opacity="0.25"></line><line x1="435.25" y1="0" x2="435.25" y2="378" fill="rgb(0, 0, 0)" stroke="rgb(60, 60, 60)" stroke-width="1px" opacity="0.25"></line><line x1="507.7916666666667" y1="0" x2="507.7916666666667" y2="378" fill="rgb(0, 0, 0)" stroke="rgb(60, 60, 60)" stroke-width="1px" opacity="0.25"></line><line x1="580.3333333333333" y1="0" x2="580.3333333333333" y2="378" fill="rgb(0, 0, 0)" stroke="rgb(60, 60, 60)" stroke-width="1px" opacity="0.25"></line><line x1="652.875" y1="0" x2="652.875" y2="378" fill="rgb(0, 0, 0)" stroke="rgb(60, 60, 60)" stroke-width="1px" opacity="0.25"></line><line x1="725.4166666666667" y1="0" x2="725.4166666666667" y2="378" fill="rgb(0, 0, 0)" stroke="rgb(60, 60, 60)" stroke-width="1px" opacity="0.25"></line><line x1="797.9583333333333" y1="0" x2="797.9583333333333" y2="378" fill="rgb(0, 0, 0)" stroke="rgb(60, 60, 60)" stroke-width="1px" opacity="0.25"></line><line x1="870.5" y1="0" x2="870.5" y2="378" fill="rgb(0, 0, 0)" stroke="rgb(60, 60, 60)" stroke-width="1px" opacity="0.25"></line></g><g><line x1="0" y1="378" x2="870.5" y2="378" fill="rgb(0, 0, 0)" stroke="rgb(60, 60, 60)" stroke-width="1px" opacity="0.25"></line><line x1="0" y1="324" x2="870.5" y2="324" fill="rgb(0, 0, 0)" stroke="rgb(60, 60, 60)" stroke-width="1px" opacity="0.25"></line><line x1="0" y1="270" x2="870.5" y2="270" fill="rgb(0, 0, 0)" stroke="rgb(60, 60, 60)" stroke-width="1px" opacity="0.25"></line><line x1="0" y1="216" x2="870.5" y2="216" fill="rgb(0, 0, 0)" stroke="rgb(60, 60, 60)" stroke-width="1px" opacity="0.25"></line><line x1="0" y1="162" x2="870.5" y2="162" fill="rgb(0, 0, 0)" stroke="rgb(60, 60, 60)" stroke-width="1px" opacity="0.25"></line><line x1="0" y1="108" x2="870.5" y2="108" fill="rgb(0, 0, 0)" stroke="rgb(60, 60, 60)" stroke-width="1px" opacity="0.25"></line><line x1="0" y1="54" x2="870.5" y2="54" fill="rgb(0, 0, 0)" stroke="rgb(60, 60, 60)" stroke-width="1px" opacity="0.25"></line><line x1="0" y1="0" x2="870.5" y2="0" fill="rgb(0, 0, 0)" stroke="rgb(60, 60, 60)" stroke-width="1px" opacity="0.25"></line></g></g></g><g><g><line x1="0" y1="324" x2="870.5" y2="324" fill="rgb(0, 0, 0)" stroke="rgb(153, 153, 153)" stroke-width="1.5px"></line></g></g><g><g><line x1="72.54166666666666" y1="0" x2="72.54166666666666" y2="378" fill="rgb(0, 0, 0)" stroke="rgb(153, 153, 153)" stroke-width="1.5px"></line></g></g><g><g><g><g><g><path stroke="rgb(255, 112, 67)" stroke-width="2px" d="M74.02441833333333,324L75.50789541666667,324L76.99209791666667,324L78.47267333333333,324L79.95324875,324L81.43454958333334,324L82.91802666666666,324L84.40005291666667,324L85.88498083333333,324L87.36700708333333,324L88.8475825,324L90.32960875,324L91.81018416666666,324L93.29511208333334,324L94.7756875,324L96.25698833333334,324L97.74119083333333,324L99.22249166666667,324L100.70669416666667,324L102.18944583333334,324L103.67509916666667,324L105.15785083333334,324L106.6406025,324L108.12335416666667,324L109.60610583333333,324L111.0888575,324L112.57015833333332,324L114.05508624999999,324L115.53638708333334,324L117.01986416666668,324L118.50479208333333,324L119.98754375,324L121.46884458333332,324L122.95304708333333,324L124.43579875,324L125.91637416666666,324L127.40202750000002,324L128.88260291666666,324L130.36462916666667,324L131.84520458333333,324L133.32723083333335,324L134.80925708333334,324L136.294185,324L137.77766208333333,324L139.25968833333332,324L140.74389083333332,324L142.22446625,324L143.70721791666665,324L145.18996958333332,324L146.67199583333334,324L148.15402208333333,324L149.63749916666666,324L151.12097624999998,324L152.60227708333335,324L154.08357791666666,324L155.56850583333332,324L157.05198291666667,324L158.53473458333335,324L160.01821166666667,324L161.503865,324L162.98444041666667,324L164.46719208333332,324L165.95139458333333,324L167.43559708333333,324L168.91762333333335,324L170.39892416666666,324L171.8845775,324L173.36805458333333,324L174.85153166666666,324L176.33645958333332,324L177.82138750000001,324L179.30196291666667,324L180.78471458333334,324L182.26601541666665,324L183.74659083333333,324L185.22861708333332,324L186.71136875,324L188.19629666666665,324L189.67904833333333,324L191.16107458333335,324L192.64237541666668,324L194.12295083333333,324L195.60497708333335,324L197.08772875,324L198.57265666666666,324L200.05685916666667,324L201.53743458333332,324L203.02236249999999,324L204.50366333333335,324L205.98714041666668,324L207.46844125,324L208.95409458333333,324L210.43539541666667,324L211.91742166666668,324L213.39799708333334,315.36L214.88002333333333,318.816L216.36350041666665,316.56960000000004L217.84770291666666,319.54176L219.32900375,317.005056L220.80957916666665,315.4830336L222.29160541666664,314.56982016L223.7750825,314.021892096L225.25783416666667,309.3731352576L226.74276208333333,310.90388115456L228.22333749999999,303.182328692736L229.70391291666664,294.2293972156416L231.18593916666669,288.85763832938494L232.66724000000002,294.274582997631L234.15216791666666,293.2047497985786L235.63346875000002,270.96284987914714L237.115495,253.29770992748828L238.59897208333336,234.058625956493L240.08317458333332,200.91517557389577L241.56665166666667,181.02910534433747L243.04940333333332,169.0974632066025L244.53142958333333,161.9384779239615L246.01490666666666,149.00308675437688L247.4962075,128.28185205262614L248.98041,102.88911123157567L250.4617108333333,104.93346673894541L251.94373708333333,114.80008004336725L253.42576333333332,116.40004802602033L254.90924041666665,113.04002881561217L256.3919920833333,98.06401728936726L257.87692,93.39841037362038L259.36257333333333,94.91904622417223L260.84314875,95.83142773450334L262.32372416666664,96.378856640702L263.80720125,96.7073139844212L265.29285458333334,92.58438839065269L266.7741554166667,85.79063303439165L268.2561816666667,86.03437982063497L269.7374825,77.54062789238094L271.22168500000004,85.40437673542857L272.7073383333333,94.44262604125714L274.1886391666667,95.54557562475429L275.67284166666667,87.56734537485261L277.15559333333334,82.78040722491158L278.6397958333333,75.58824433494692L280.12544916666667,84.23294660096815L281.61037708333333,89.41976796058088L283.0909525,101.17186077634852L284.5744295833333,108.22311646580908L286.05790666666667,103.81386987948548L287.53848208333335,96.8483219276913L289.02268458333333,96.98899315661475L290.5083379166667,101.39339589396889L291.9889133333333,108.35603753638134L293.47384125,99.57362252182878L294.9558675,107.26417351309726L296.44152083333336,116.19850410785835L297.9249979166667,112.91910246471497L299.40920041666664,97.99146147882897L300.89412833333336,101.99487688729738L302.3797816666667,104.39692613237844L303.865435,97.19815567942703L305.3460104166667,101.51889340765621L306.82731125000004,86.83133604459374L308.3129645833333,78.01880162675621L309.7949908333333,81.37128097605375L311.27919333333335,87.70276858563221L312.76339583333333,95.82166115137932L314.24832375,96.37299669082756L315.73107541666667,92.38379801449656L317.21237625000003,89.9902788086979L318.69730416666664,88.55416728521874L320.1829575,92.01250037113124L321.66498375,85.44750022267874L323.14918625,81.50850013360724L324.62976166666664,92.10510008016433L326.1103370833333,124.3830600480986L327.5923633333333,117.82983602885918L329.07656583333335,92.29790161731552L330.56149375,89.93874097038929L332.0442454166667,88.52324458223359L333.52844791666666,100.63394674934017L335.01047416666665,99.26036804960404L336.4925004166667,94.11622082976248L337.9759775,99.66973249785747L339.45727833333336,94.36183949871446L340.94148083333334,86.85710369922867L342.42350708333333,90.99426221953723L343.90625875,80.51655733172225L345.38973583333336,78.54993439903342L346.87393833333334,77.36996063942001L348.35451375,76.66197638365196L349.83944166666663,76.23718583019121L351.32364416666667,80.3023114981147L352.80857208333333,69.78138689886879L354.2920491666667,89.38883213932127L355.77480083333336,88.1932992835927L357.25972874999997,87.47597957015563L358.74175499999996,100.00558774209338L360.2223304166667,98.88335264525597L361.70508208333337,102.53001158715364L363.18783375000004,100.39800695229218L364.66840916666666,99.1188041713753L366.1540625,85.39128250282516L367.6368141666666,94.43476950169509L369.11884041666667,82.58086170101706L370.60231749999997,92.74851702061022L372.08506916666664,85.88911021236618L373.5699970833333,86.09346612741973L375.05419958333334,77.5760796764518L376.5384020833333,85.42564780587111L378.02042833333337,103.09538868352263L379.50390541666667,96.41723321011358L380.98520625000003,88.09033992606817L382.46578166666666,91.73420395564085L383.94780791666665,106.88052237338457L385.43346125,98.6883134240307L386.9140366666667,98.09298805441841L388.3946120833333,102.0557928326511L389.87881458333334,104.43347569959064L391.36011541666664,114.50008541975438L392.8406908333334,111.90005125185263L394.32126625,110.34003075111161L395.8040179166667,109.40401845066697L397.28749500000004,117.48241107040019L398.7702466666667,100.72944664224008L400.2515475,94.9976679853441L401.73575,108.83860079120643L403.2163254166667,108.50316047472393L404.70052791666666,103.98189628483436L406.1854558333333,88.30913777090058L407.67110916666667,83.22548266254034L409.15313541666666,101.77528959752419L410.63516166666665,104.26517375851455L412.1164625,118.71910425510868L413.600665,114.43146255306527L415.08486750000003,94.57887753183911L416.5697954166667,91.30732651910347L418.0539979166667,93.66439591146212L419.53602416666666,99.39863754687724L421.01805041666665,89.87918252812636L422.5000766666667,92.80750951687583L423.9842791666666,90.24450571012551L425.46558,93.0267034260753L426.95123333333333,90.3760220556452L428.4347104166667,101.74561323338713L429.91963833333335,95.60736794003225L431.40239,87.60442076401932L432.88731791666663,91.4426524584116L434.37297125,93.74559147504698L435.85644833333333,90.80735488502819L437.3406508333333,114.96441293101697L438.82340250000004,112.17864775861017L440.30687958333334,106.1871886551661L441.78890583333333,119.87231319309961L443.27020666666664,106.4833879158598L444.75513458333336,107.0900327495159L446.23788625,111.77401964970949L447.72208875000007,92.98441178982569L449.204115,86.03064707389541L450.6883174999999,86.17838824433727L452.17179458333334,86.26703294660234L453.6567225,103.60021976796139L455.14019958333336,92.40013186077681L456.62367666666665,107.28007911646608L458.10425208333334,98.92804746987969L459.5884545833333,93.91682848192778L461.07265708333335,95.23009708915663L462.5583104166667,91.69805825349397L464.0425129166666,98.21883495209642L465.52599000000004,102.13130097125787L467.00801624999997,108.79878058275472L468.49221875000006,95.51926834965286L469.9749704166667,100.51156100979176L471.45554583333336,94.86693660587503L472.9375720833333,100.12016196352499L474.41814750000003,98.95209717811503L475.90234999999996,89.61125830686905L477.3851016666667,84.00675498412141L478.8678533333333,89.28405299047284L480.35205583333334,70.85043179428368L481.8377091666667,81.3902590765702L483.31828458333337,87.71415544594208L484.80103625,91.50849326756531L486.28161166666666,80.82509596053916L487.76363791666665,78.73505757632347L489.24493875,86.12103454579415L490.7305920833333,81.91262072747645L492.21261833333335,88.02757243648585L493.6946445833333,100.3365434618915L495.1788470833334,103.40192607713487L496.663775,100.92115564628097L498.1465266666666,86.47269338776857L499.6314545833333,86.44361603266111L501.1134808333333,95.06616961959668L502.5947816666667,91.59970177175802L504.07535708333336,93.83982106305479L505.55665791666667,86.54389263783287L507.0408604166667,82.16633558269973L508.5250629166667,88.17980134961982L510.0099908333333,65.86788080977192L511.49129166666665,69.76072848586313L512.9754941666666,72.09643709151783L514.45897125,64.85786225491074L515.9438991666667,73.47471735294641L517.4266508333334,82.96483041176788L518.9101279166666,92.97889824706078L520.3943304166667,94.66733894823642L521.8749058333333,95.68040336894182L523.35548125,91.96824202136514L524.8360566666667,81.10094521281906L526.3188083333333,87.54056712769142L527.80156,95.7243402766149L529.2857625,87.6746041659689L530.7692395833333,87.16476249958134L532.2541675,86.85885749974886L533.7369191666667,82.35531449984927L535.2218470833333,75.33318869990956L536.7031479166667,88.39991321994574L538.1866249999999,74.63994793196747L539.6693766666667,87.98396875918047L541.1514029166666,83.0303812555083L542.6319783333333,80.05822875330495L544.1125537500001,73.95493725198298L545.5953054166666,87.5729623511898L547.07660625,82.78377741071392L548.56080875,101.51026644642832L550.0450112499999,104.106159867857L551.5263120833333,114.30369592071418L553.0119654166666,103.14221755242852L554.4925408333334,100.7653305314571L555.9781941666666,86.37919831887427L557.46167125,95.02751899132454L558.9451483333333,100.21651139479474L560.4279,107.64990683687682L561.90992625,107.78994410212607L563.39412875,90.59396646127567L564.8768804166666,84.59637987676541L566.3610829166666,89.63782792605929L567.84456,96.98269675563557L569.3251354166667,101.38961805338135L570.8064362499999,99.71377083202879L572.2920895833333,85.74826249921728L573.7755666666667,94.64895749953035L575.2604945833333,99.98937449971822L576.7439716666667,111.83362469983098L578.2259979166666,97.34017481989855L579.7087495833333,84.3241048919391L581.1944029166667,76.51446293516341L582.6771545833333,84.78867776109809L584.1606316666666,85.43320665665885L585.6426579166666,90.1399239939953L587.1268604166667,88.64395439639719L588.6088866666666,87.7463726378383L590.0909129166666,91.52782358270304L591.5736645833333,85.15669414962179L593.0549654166666,85.65401648977303L594.5384425,85.95240989386383L596.02046875,103.41144593631827L597.5032204166666,100.92686756179097L598.9866975,95.11612053707455L600.4679983333333,91.62967232224474L601.9522008333333,76.57780339334681L603.4342270833333,102.10668203600807L604.9162533333333,91.50400922160486L606.39682875,76.50240553296288L607.8774041666667,84.7814433197778L609.3601558333334,85.42886599186664L610.8436329166667,85.81731959511995L612.3256591666667,94.690391757072L613.8113125,87.05423505424318L615.2918879166667,91.11254103254589L616.775365,97.8675246195275L618.2581166666668,93.28051477171647L619.7430445833334,86.20830886302986L621.2286979166666,103.5649853178179L622.7107241666666,101.01899119069071L624.1963775,90.85139471441443L625.6820308333333,97.71083682864861L627.1662333333334,106.14650209718917L628.6504358333333,102.5679012583135L630.1346383333333,91.78074075498807L631.6188408333334,106.90844445299285L633.1023179166666,115.98506667179572L634.5857950000001,99.83104000307742L636.0692720833333,81.49862400184645L637.5512983333333,92.09917440110786L639.0355008333333,94.13950464066471L640.5189779166667,99.6837027843988L642.0039058333333,90.05022167063925L643.4881083333333,92.91013300238359L644.97086,81.6660798014301L646.4550624999999,83.55964788085811L647.9363633333334,84.6957887285148L649.4198404166666,85.37747323710886L650.90114125,94.42648394226535L652.3824420833333,91.2158903653592L653.86519375,89.28953421921545L655.3486708333334,83.81372053152921L656.8306970833333,89.16823231891755L658.3127233333333,96.70093939135052L659.7962004166667,96.90056363481034L661.2796774999999,88.38033818088621L662.7653308333333,78.94820290853175L664.2502587500001,77.608921745119L665.73446125,94.08535304707141L667.2193891666667,82.37121182824285L668.6999645833333,79.66272709694567L670.1848925,73.71763625816743L671.6698204166667,70.15058175490043L673.1532975,72.33034905294022L674.6389508333334,86.59820943176413L676.1224279166667,86.51892565905848L677.6037287500001,77.83135539543508L679.08793125,76.93881323726106L680.5728591666666,76.4032879423566L682.0577870833333,80.40197276541397L683.5390879166666,82.80118365924835L685.02038875,75.60071019554897L686.5009641666667,84.24042611732938L687.982265,72.14425567039763L689.4657420833333,82.1665534022386L690.95067,75.21993204134316L692.4319708333334,79.69195922480588L693.9154479166667,82.37517553488351L695.398925,88.30510532093007L696.8795004166667,96.18306319255805L698.3622520833334,100.90983791553487L699.8435529166667,90.78590274932088L701.32920625,106.31154164959253L702.81340875,111.30692498975554L704.2968858333332,101.3441549938533L705.7796375,104.00649299631198L707.26384,96.96389579778713L708.7487679166667,84.0983374786723L710.2329704166667,85.01900248720335L711.7157220833333,81.25140149232203L713.1984737500001,91.95084089539324L714.6812254166666,98.37050453723595L716.16687875,76.30230272234155L717.6518066666666,80.34138163340492L719.13528375,69.80482898004294L720.6158591666666,76.44289738802576L722.0978854166667,97.70573843281545L723.57918625,93.1834430596893L725.0597616666666,103.4300658358136L726.5410625,96.61803950148811L728.0245395833333,109.81082370089291L729.505115,104.76649422053572L730.9856904166667,93.09989653232145L732.47134375,86.09993791939286L733.9548208333333,86.2199627516357L735.4390233333334,86.29197765098144L736.9239512500001,86.33518659058888L738.4088791666667,82.04111195435331L739.8894545833334,92.42466717261198L741.3714808333333,98.65480030356719L742.8535070833334,106.71288018214034L744.33625875,98.58772810928423L745.82046125,80.75263686557054L747.3010366666666,83.01158211934234L748.7866899999999,84.36694927160539L750.2723433333333,80.86016956296322L751.7565458333333,78.7561017377779L753.23712125,90.4536610426668L754.72132375,97.47219662560008L756.2018991666666,97.36331797536008L757.68537625,88.65799078521599L759.1674025,96.39479447112961L760.6487033333333,96.71687668267776L762.12927875,83.95012600960666L763.611305,89.25007560576398L765.0947820833334,88.11004536345843L766.5760829166667,96.06602721807502L768.05956,96.519616330845L769.5452133333333,88.15176979850702L771.027965,96.09106187910419L772.5114420833333,100.85463712746252L773.9927429166667,103.71278227647753L775.4769454166667,101.10766936588652L776.9618733333334,90.90460161953189L778.4460758333333,97.74276097171918L779.9288274999999,114.80565658303152L781.4137554166667,94.80339394981888L782.8957816666666,82.80203636989137L784.3799841666666,66.96122182193477L785.8641866666667,87.69673309316084L787.34984,87.17803985589654L788.8354933333334,78.22682391353788L790.3211466666667,85.81609434812276L791.8024475000001,90.36965660887364L793.2881008333334,75.82179396532422L794.7708524999999,97.33307637919455L796.2543295833334,97.27984582751674L797.7349049999999,97.24790749651004" style="fill: none;" fill="none"></path></g></g></g></g><g opacity="0.2"><g><g><g><path stroke="rgb(255, 112, 67)" stroke-width="2px" d="M74.02441833333333,324L75.50789541666667,324L76.99209791666667,324L78.47267333333333,324L79.95324875,324L81.43454958333334,324L82.91802666666666,324L84.40005291666667,324L85.88498083333333,324L87.36700708333333,324L88.8475825,324L90.32960875,324L91.81018416666666,324L93.29511208333334,324L94.7756875,324L96.25698833333334,324L97.74119083333333,324L99.22249166666667,324L100.70669416666667,324L102.18944583333334,324L103.67509916666667,324L105.15785083333334,324L106.6406025,324L108.12335416666667,324L109.60610583333333,324L111.0888575,324L112.57015833333332,324L114.05508624999999,324L115.53638708333334,324L117.01986416666668,324L118.50479208333333,324L119.98754375,324L121.46884458333332,324L122.95304708333333,324L124.43579875,324L125.91637416666666,324L127.40202750000002,324L128.88260291666666,324L130.36462916666667,324L131.84520458333333,324L133.32723083333335,324L134.80925708333334,324L136.294185,324L137.77766208333333,324L139.25968833333332,324L140.74389083333332,324L142.22446625,324L143.70721791666665,324L145.18996958333332,324L146.67199583333334,324L148.15402208333333,324L149.63749916666666,324L151.12097624999998,324L152.60227708333335,324L154.08357791666666,324L155.56850583333332,324L157.05198291666667,324L158.53473458333335,324L160.01821166666667,324L161.503865,324L162.98444041666667,324L164.46719208333332,324L165.95139458333333,324L167.43559708333333,324L168.91762333333335,324L170.39892416666666,324L171.8845775,324L173.36805458333333,324L174.85153166666666,324L176.33645958333332,324L177.82138750000001,324L179.30196291666667,324L180.78471458333334,324L182.26601541666665,324L183.74659083333333,324L185.22861708333332,324L186.71136875,324L188.19629666666665,324L189.67904833333333,324L191.16107458333335,324L192.64237541666668,324L194.12295083333333,324L195.60497708333335,324L197.08772875,324L198.57265666666666,324L200.05685916666667,324L201.53743458333332,324L203.02236249999999,324L204.50366333333335,324L205.98714041666668,324L207.46844125,324L208.95409458333333,324L210.43539541666667,324L211.91742166666668,324L213.39799708333334,302.4L214.88002333333333,324L216.36350041666665,313.2L217.84770291666666,324L219.32900375,313.2L220.80957916666665,313.2L222.29160541666664,313.2L223.7750825,313.2L225.25783416666667,302.4L226.74276208333333,313.2L228.22333749999999,291.6L229.70391291666664,280.8L231.18593916666669,280.8L232.66724000000002,302.4L234.15216791666666,291.6L235.63346875000002,237.6L237.115495,226.79999999999998L238.59897208333336,205.20000000000002L240.08317458333332,151.20000000000002L241.56665166666667,151.20000000000002L243.04940333333332,151.20000000000002L244.53142958333333,151.20000000000002L246.01490666666666,129.6L247.4962075,97.19999999999999L248.98041,64.79999999999995L250.4617108333333,108L251.94373708333333,129.6L253.42576333333332,118.80000000000001L254.90924041666665,108L256.3919920833333,75.59999999999997L257.87692,86.39999999999998L259.36257333333333,97.19999999999999L260.84314875,97.19999999999999L262.32372416666664,97.19999999999999L263.80720125,97.19999999999999L265.29285458333334,86.39999999999998L266.7741554166667,75.59999999999997L268.2561816666667,86.39999999999998L269.7374825,64.79999999999995L271.22168500000004,97.19999999999999L272.7073383333333,108L274.1886391666667,97.19999999999999L275.67284166666667,75.59999999999997L277.15559333333334,75.59999999999997L278.6397958333333,64.79999999999995L280.12544916666667,97.19999999999999L281.61037708333333,97.19999999999999L283.0909525,118.80000000000001L284.5744295833333,118.80000000000001L286.05790666666667,97.19999999999999L287.53848208333335,86.39999999999998L289.02268458333333,97.19999999999999L290.5083379166667,108L291.9889133333333,118.80000000000001L293.47384125,86.39999999999998L294.9558675,118.80000000000001L296.44152083333336,129.6L297.9249979166667,108L299.40920041666664,75.59999999999997L300.89412833333336,108L302.3797816666667,108L303.865435,86.39999999999998L305.3460104166667,108L306.82731125000004,64.79999999999995L308.3129645833333,64.79999999999995L309.7949908333333,86.39999999999998L311.27919333333335,97.19999999999999L312.76339583333333,108L314.24832375,97.19999999999999L315.73107541666667,86.39999999999998L317.21237625000003,86.39999999999998L318.69730416666664,86.39999999999998L320.1829575,97.19999999999999L321.66498375,75.59999999999997L323.14918625,75.59999999999997L324.62976166666664,108L326.1103370833333,172.8L327.5923633333333,108L329.07656583333335,54L330.56149375,86.39999999999998L332.0442454166667,86.39999999999998L333.52844791666666,118.80000000000001L335.01047416666665,97.19999999999999L336.4925004166667,86.39999999999998L337.9759775,108L339.45727833333336,86.39999999999998L340.94148083333334,75.59999999999997L342.42350708333333,97.19999999999999L343.90625875,64.79999999999995L345.38973583333336,75.59999999999997L346.87393833333334,75.59999999999997L348.35451375,75.59999999999997L349.83944166666663,75.59999999999997L351.32364416666667,86.39999999999998L352.80857208333333,54L354.2920491666667,118.80000000000001L355.77480083333336,86.39999999999998L357.25972874999997,86.39999999999998L358.74175499999996,118.80000000000001L360.2223304166667,97.19999999999999L361.70508208333337,108L363.18783375000004,97.19999999999999L364.66840916666666,97.19999999999999L366.1540625,64.79999999999995L367.6368141666666,108L369.11884041666667,64.79999999999995L370.60231749999997,108L372.08506916666664,75.59999999999997L373.5699970833333,86.39999999999998L375.05419958333334,64.79999999999995L376.5384020833333,97.19999999999999L378.02042833333337,129.6L379.50390541666667,86.39999999999998L380.98520625000003,75.59999999999997L382.46578166666666,97.19999999999999L383.94780791666665,129.6L385.43346125,86.39999999999998L386.9140366666667,97.19999999999999L388.3946120833333,108L389.87881458333334,108L391.36011541666664,129.6L392.8406908333334,108L394.32126625,108L395.8040179166667,108L397.28749500000004,129.6L398.7702466666667,75.59999999999997L400.2515475,86.39999999999998L401.73575,129.6L403.2163254166667,108L404.70052791666666,97.19999999999999L406.1854558333333,64.79999999999995L407.67110916666667,75.59999999999997L409.15313541666666,129.6L410.63516166666665,108L412.1164625,140.4L413.600665,108L415.08486750000003,64.79999999999995L416.5697954166667,86.39999999999998L418.0539979166667,97.19999999999999L419.53602416666666,108L421.01805041666665,75.59999999999997L422.5000766666667,97.19999999999999L423.9842791666666,86.39999999999998L425.46558,97.19999999999999L426.95123333333333,86.39999999999998L428.4347104166667,118.80000000000001L429.91963833333335,86.39999999999998L431.40239,75.59999999999997L432.88731791666663,97.19999999999999L434.37297125,97.19999999999999L435.85644833333333,86.39999999999998L437.3406508333333,151.20000000000002L438.82340250000004,108L440.30687958333334,97.19999999999999L441.78890583333333,140.4L443.27020666666664,86.39999999999998L444.75513458333336,108L446.23788625,118.80000000000001L447.72208875000007,64.79999999999995L449.204115,75.59999999999997L450.6883174999999,86.39999999999998L452.17179458333334,86.39999999999998L453.6567225,129.6L455.14019958333336,75.59999999999997L456.62367666666665,129.6L458.10425208333334,86.39999999999998L459.5884545833333,86.39999999999998L461.07265708333335,97.19999999999999L462.5583104166667,86.39999999999998L464.0425129166666,108L465.52599000000004,108L467.00801624999997,118.80000000000001L468.49221875000006,75.59999999999997L469.9749704166667,108L471.45554583333336,86.39999999999998L472.9375720833333,108L474.41814750000003,97.19999999999999L475.90234999999996,75.59999999999997L477.3851016666667,75.59999999999997L478.8678533333333,97.19999999999999L480.35205583333334,43.19999999999999L481.8377091666667,97.19999999999999L483.31828458333337,97.19999999999999L484.80103625,97.19999999999999L486.28161166666666,64.79999999999995L487.76363791666665,75.59999999999997L489.24493875,97.19999999999999L490.7305920833333,75.59999999999997L492.21261833333335,97.19999999999999L493.6946445833333,118.80000000000001L495.1788470833334,108L496.663775,97.19999999999999L498.1465266666666,64.79999999999995L499.6314545833333,86.39999999999998L501.1134808333333,108L502.5947816666667,86.39999999999998L504.07535708333336,97.19999999999999L505.55665791666667,75.59999999999997L507.0408604166667,75.59999999999997L508.5250629166667,97.19999999999999L510.0099908333333,32.400000000000034L511.49129166666665,75.59999999999997L512.9754941666666,75.59999999999997L514.45897125,54L515.9438991666667,86.39999999999998L517.4266508333334,97.19999999999999L518.9101279166666,108L520.3943304166667,97.19999999999999L521.8749058333333,97.19999999999999L523.35548125,86.39999999999998L524.8360566666667,64.79999999999995L526.3188083333333,97.19999999999999L527.80156,108L529.2857625,75.59999999999997L530.7692395833333,86.39999999999998L532.2541675,86.39999999999998L533.7369191666667,75.59999999999997L535.2218470833333,64.79999999999995L536.7031479166667,108L538.1866249999999,54L539.6693766666667,108L541.1514029166666,75.59999999999997L542.6319783333333,75.59999999999997L544.1125537500001,64.79999999999995L545.5953054166666,108L547.07660625,75.59999999999997L548.56080875,129.6L550.0450112499999,108L551.5263120833333,129.6L553.0119654166666,86.39999999999998L554.4925408333334,97.19999999999999L555.9781941666666,64.79999999999995L557.46167125,108L558.9451483333333,108L560.4279,118.80000000000001L561.90992625,108L563.39412875,64.79999999999995L564.8768804166666,75.59999999999997L566.3610829166666,97.19999999999999L567.84456,108L569.3251354166667,108L570.8064362499999,97.19999999999999L572.2920895833333,64.79999999999995L573.7755666666667,108L575.2604945833333,108L576.7439716666667,129.6L578.2259979166666,75.59999999999997L579.7087495833333,64.79999999999995L581.1944029166667,64.79999999999995L582.6771545833333,97.19999999999999L584.1606316666666,86.39999999999998L585.6426579166666,97.19999999999999L587.1268604166667,86.39999999999998L588.6088866666666,86.39999999999998L590.0909129166666,97.19999999999999L591.5736645833333,75.59999999999997L593.0549654166666,86.39999999999998L594.5384425,86.39999999999998L596.02046875,129.6L597.5032204166666,97.19999999999999L598.9866975,86.39999999999998L600.4679983333333,86.39999999999998L601.9522008333333,54L603.4342270833333,140.4L604.9162533333333,75.59999999999997L606.39682875,54L607.8774041666667,97.19999999999999L609.3601558333334,86.39999999999998L610.8436329166667,86.39999999999998L612.3256591666667,108L613.8113125,75.59999999999997L615.2918879166667,97.19999999999999L616.775365,108L618.2581166666668,86.39999999999998L619.7430445833334,75.59999999999997L621.2286979166666,129.6L622.7107241666666,97.19999999999999L624.1963775,75.59999999999997L625.6820308333333,108L627.1662333333334,118.80000000000001L628.6504358333333,97.19999999999999L630.1346383333333,75.59999999999997L631.6188408333334,129.6L633.1023179166666,129.6L634.5857950000001,75.59999999999997L636.0692720833333,54L637.5512983333333,108L639.0355008333333,97.19999999999999L640.5189779166667,108L642.0039058333333,75.59999999999997L643.4881083333333,97.19999999999999L644.97086,64.79999999999995L646.4550624999999,86.39999999999998L647.9363633333334,86.39999999999998L649.4198404166666,86.39999999999998L650.90114125,108L652.3824420833333,86.39999999999998L653.86519375,86.39999999999998L655.3486708333334,75.59999999999997L656.8306970833333,97.19999999999999L658.3127233333333,108L659.7962004166667,97.19999999999999L661.2796774999999,75.59999999999997L662.7653308333333,64.79999999999995L664.2502587500001,75.59999999999997L665.73446125,118.80000000000001L667.2193891666667,64.79999999999995L668.6999645833333,75.59999999999997L670.1848925,64.79999999999995L671.6698204166667,64.79999999999995L673.1532975,75.59999999999997L674.6389508333334,108L676.1224279166667,86.39999999999998L677.6037287500001,64.79999999999995L679.08793125,75.59999999999997L680.5728591666666,75.59999999999997L682.0577870833333,86.39999999999998L683.5390879166666,86.39999999999998L685.02038875,64.79999999999995L686.5009641666667,97.19999999999999L687.982265,54L689.4657420833333,97.19999999999999L690.95067,64.79999999999995L692.4319708333334,86.39999999999998L693.9154479166667,86.39999999999998L695.398925,97.19999999999999L696.8795004166667,108L698.3622520833334,108L699.8435529166667,75.59999999999997L701.32920625,129.6L702.81340875,118.80000000000001L704.2968858333332,86.39999999999998L705.7796375,108L707.26384,86.39999999999998L708.7487679166667,64.79999999999995L710.2329704166667,86.39999999999998L711.7157220833333,75.59999999999997L713.1984737500001,108L714.6812254166666,108L716.16687875,43.19999999999999L717.6518066666666,86.39999999999998L719.13528375,54L720.6158591666666,86.39999999999998L722.0978854166667,129.6L723.57918625,86.39999999999998L725.0597616666666,118.80000000000001L726.5410625,86.39999999999998L728.0245395833333,129.6L729.505115,97.19999999999999L730.9856904166667,75.59999999999997L732.47134375,75.59999999999997L733.9548208333333,86.39999999999998L735.4390233333334,86.39999999999998L736.9239512500001,86.39999999999998L738.4088791666667,75.59999999999997L739.8894545833334,108L741.3714808333333,108L742.8535070833334,118.80000000000001L744.33625875,86.39999999999998L745.82046125,54L747.3010366666666,86.39999999999998L748.7866899999999,86.39999999999998L750.2723433333333,75.59999999999997L751.7565458333333,75.59999999999997L753.23712125,108L754.72132375,108L756.2018991666666,97.19999999999999L757.68537625,75.59999999999997L759.1674025,108L760.6487033333333,97.19999999999999L762.12927875,64.79999999999995L763.611305,97.19999999999999L765.0947820833334,86.39999999999998L766.5760829166667,108L768.05956,97.19999999999999L769.5452133333333,75.59999999999997L771.027965,108L772.5114420833333,108L773.9927429166667,108L775.4769454166667,97.19999999999999L776.9618733333334,75.59999999999997L778.4460758333333,108L779.9288274999999,140.4L781.4137554166667,64.79999999999995L782.8957816666666,64.79999999999995L784.3799841666666,43.19999999999999L785.8641866666667,118.80000000000001L787.34984,86.39999999999998L788.8354933333334,64.79999999999995L790.3211466666667,97.19999999999999L791.8024475000001,97.19999999999999L793.2881008333334,54L794.7708524999999,129.6L796.2543295833334,97.19999999999999L797.7349049999999,97.19999999999999" style="fill: none;" fill="none"></path></g></g></g></g></g><g><g opacity="0.31742"><span fill="rgb(0, 0, 0)" stroke="none" stroke-width="1px">Alt + Scroll to Zoom</span></g></g></g><g transform="translate(34, 378)" clip-path="url(#clip_1)"><clipPath id="clip_1"><rect width="870" height="22"></rect></clipPath><g><g><line x1="0" y1="0" x2="0" y2="5" style="visibility: inherit;" fill="rgb(0, 0, 0)" stroke="rgb(204, 204, 204)" stroke-width="1px"></line><line x1="72.54166666666666" y1="0" x2="72.54166666666666" y2="5" style="visibility: inherit;" fill="rgb(0, 0, 0)" stroke="rgb(204, 204, 204)" stroke-width="1px"></line><line x1="145.08333333333331" y1="0" x2="145.08333333333331" y2="5" style="visibility: inherit;" fill="rgb(0, 0, 0)" stroke="rgb(204, 204, 204)" stroke-width="1px"></line><line x1="217.625" y1="0" x2="217.625" y2="5" style="visibility: inherit;" fill="rgb(0, 0, 0)" stroke="rgb(204, 204, 204)" stroke-width="1px"></line><line x1="290.16666666666663" y1="0" x2="290.16666666666663" y2="5" style="visibility: inherit;" fill="rgb(0, 0, 0)" stroke="rgb(204, 204, 204)" stroke-width="1px"></line><line x1="362.70833333333337" y1="0" x2="362.70833333333337" y2="5" style="visibility: inherit;" fill="rgb(0, 0, 0)" stroke="rgb(204, 204, 204)" stroke-width="1px"></line><line x1="435.25" y1="0" x2="435.25" y2="5" style="visibility: inherit;" fill="rgb(0, 0, 0)" stroke="rgb(204, 204, 204)" stroke-width="1px"></line><line x1="507.7916666666667" y1="0" x2="507.7916666666667" y2="5" style="visibility: inherit;" fill="rgb(0, 0, 0)" stroke="rgb(204, 204, 204)" stroke-width="1px"></line><line x1="580.3333333333333" y1="0" x2="580.3333333333333" y2="5" style="visibility: inherit;" fill="rgb(0, 0, 0)" stroke="rgb(204, 204, 204)" stroke-width="1px"></line><line x1="652.875" y1="0" x2="652.875" y2="5" style="visibility: inherit;" fill="rgb(0, 0, 0)" stroke="rgb(204, 204, 204)" stroke-width="1px"></line><line x1="725.4166666666667" y1="0" x2="725.4166666666667" y2="5" style="visibility: inherit;" fill="rgb(0, 0, 0)" stroke="rgb(204, 204, 204)" stroke-width="1px"></line><line x1="797.9583333333333" y1="0" x2="797.9583333333333" y2="5" style="visibility: inherit;" fill="rgb(0, 0, 0)" stroke="rgb(204, 204, 204)" stroke-width="1px"></line><line x1="870.5" y1="0" x2="870.5" y2="5" style="visibility: inherit;" fill="rgb(0, 0, 0)" stroke="rgb(204, 204, 204)" stroke-width="1px"></line></g><g transform="translate(0, 8)"><text x="0" y="0" dx="0em" dy="0.95em" style="text-anchor: middle; visibility: hidden; font-family: &quot;Helvetica Neue&quot;, sans-serif; font-size: 12px; font-weight: 200;" fill="rgb(50, 49, 63)" stroke="none" stroke-width="1px">-100k</text><text x="72.54166666666666" y="0" dx="0em" dy="0.95em" style="text-anchor: middle; visibility: inherit; font-family: &quot;Helvetica Neue&quot;, sans-serif; font-size: 12px; font-weight: 200;" fill="rgb(50, 49, 63)" stroke="none" stroke-width="1px">0</text><text x="145.08333333333331" y="0" dx="0em" dy="0.95em" style="text-anchor: middle; visibility: inherit; font-family: &quot;Helvetica Neue&quot;, sans-serif; font-size: 12px; font-weight: 200;" fill="rgb(50, 49, 63)" stroke="none" stroke-width="1px">100k</text><text x="217.625" y="0" dx="0em" dy="0.95em" style="text-anchor: middle; visibility: inherit; font-family: &quot;Helvetica Neue&quot;, sans-serif; font-size: 12px; font-weight: 200;" fill="rgb(50, 49, 63)" stroke="none" stroke-width="1px">200k</text><text x="290.16666666666663" y="0" dx="0em" dy="0.95em" style="text-anchor: middle; visibility: inherit; font-family: &quot;Helvetica Neue&quot;, sans-serif; font-size: 12px; font-weight: 200;" fill="rgb(50, 49, 63)" stroke="none" stroke-width="1px">300k</text><text x="362.70833333333337" y="0" dx="0em" dy="0.95em" style="text-anchor: middle; visibility: inherit; font-family: &quot;Helvetica Neue&quot;, sans-serif; font-size: 12px; font-weight: 200;" fill="rgb(50, 49, 63)" stroke="none" stroke-width="1px">400k</text><text x="435.25" y="0" dx="0em" dy="0.95em" style="text-anchor: middle; visibility: inherit; font-family: &quot;Helvetica Neue&quot;, sans-serif; font-size: 12px; font-weight: 200;" fill="rgb(50, 49, 63)" stroke="none" stroke-width="1px">500k</text><text x="507.7916666666667" y="0" dx="0em" dy="0.95em" style="text-anchor: middle; visibility: inherit; font-family: &quot;Helvetica Neue&quot;, sans-serif; font-size: 12px; font-weight: 200;" fill="rgb(50, 49, 63)" stroke="none" stroke-width="1px">600k</text><text x="580.3333333333333" y="0" dx="0em" dy="0.95em" style="text-anchor: middle; visibility: inherit; font-family: &quot;Helvetica Neue&quot;, sans-serif; font-size: 12px; font-weight: 200;" fill="rgb(50, 49, 63)" stroke="none" stroke-width="1px">700k</text><text x="652.875" y="0" dx="0em" dy="0.95em" style="text-anchor: middle; visibility: inherit; font-family: &quot;Helvetica Neue&quot;, sans-serif; font-size: 12px; font-weight: 200;" fill="rgb(50, 49, 63)" stroke="none" stroke-width="1px">800k</text><text x="725.4166666666667" y="0" dx="0em" dy="0.95em" style="text-anchor: middle; visibility: inherit; font-family: &quot;Helvetica Neue&quot;, sans-serif; font-size: 12px; font-weight: 200;" fill="rgb(50, 49, 63)" stroke="none" stroke-width="1px">900k</text><text x="797.9583333333333" y="0" dx="0em" dy="0.95em" style="text-anchor: middle; visibility: inherit; font-family: &quot;Helvetica Neue&quot;, sans-serif; font-size: 12px; font-weight: 200;" fill="rgb(50, 49, 63)" stroke="none" stroke-width="1px">1M</text><text x="870.5" y="0" dx="0em" dy="0.95em" style="text-anchor: middle; visibility: hidden; font-family: &quot;Helvetica Neue&quot;, sans-serif; font-size: 12px; font-weight: 200;" fill="rgb(50, 49, 63)" stroke="none" stroke-width="1px">1.1M</text></g><line x1="0" y1="0" x2="870.5" y2="0" fill="rgb(0, 0, 0)" stroke="rgb(204, 204, 204)" stroke-width="1px"></line></g></g></g></g></svg>