<svg viewBox="0 0 330 200" xmlns="http://www.w3.org/2000/svg"><g><g><g><g><g><line x1="34" y1="178" x2="29" y2="178" style="visibility: inherit;" fill="rgb(0, 0, 0)" stroke="rgb(204, 204, 204)" stroke-width="1px"></line><line x1="34" y1="155.75" x2="29" y2="155.75" style="visibility: inherit;" fill="rgb(0, 0, 0)" stroke="rgb(204, 204, 204)" stroke-width="1px"></line><line x1="34" y1="133.5" x2="29" y2="133.5" style="visibility: inherit;" fill="rgb(0, 0, 0)" stroke="rgb(204, 204, 204)" stroke-width="1px"></line><line x1="34" y1="111.25" x2="29" y2="111.25" style="visibility: inherit;" fill="rgb(0, 0, 0)" stroke="rgb(204, 204, 204)" stroke-width="1px"></line><line x1="34" y1="89" x2="29" y2="89" style="visibility: inherit;" fill="rgb(0, 0, 0)" stroke="rgb(204, 204, 204)" stroke-width="1px"></line><line x1="34" y1="66.75" x2="29" y2="66.75" style="visibility: inherit;" fill="rgb(0, 0, 0)" stroke="rgb(204, 204, 204)" stroke-width="1px"></line><line x1="34" y1="44.5" x2="29" y2="44.5" style="visibility: inherit;" fill="rgb(0, 0, 0)" stroke="rgb(204, 204, 204)" stroke-width="1px"></line><line x1="34" y1="22.25" x2="29" y2="22.25" style="visibility: inherit;" fill="rgb(0, 0, 0)" stroke="rgb(204, 204, 204)" stroke-width="1px"></line><line x1="34" y1="0" x2="29" y2="0" style="visibility: inherit;" fill="rgb(0, 0, 0)" stroke="rgb(204, 204, 204)" stroke-width="1px"></line></g><g transform="translate(24, 0)"><text x="0" y="178" dx="0em" dy="0.3em" style="text-anchor: end; visibility: hidden; font-family: &quot;Helvetica Neue&quot;, sans-serif; font-size: 12px; font-weight: 200;" fill="rgb(50, 49, 63)" stroke="none" stroke-width="1px">17</text><text x="0" y="155.75" dx="0em" dy="0.3em" style="text-anchor: end; visibility: inherit; font-family: &quot;Helvetica Neue&quot;, sans-serif; font-size: 12px; font-weight: 200;" fill="rgb(50, 49, 63)" stroke="none" stroke-width="1px">18</text><text x="0" y="133.5" dx="0em" dy="0.3em" style="text-anchor: end; visibility: hidden; font-family: &quot;Helvetica Neue&quot;, sans-serif; font-size: 12px; font-weight: 200;" fill="rgb(50, 49, 63)" stroke="none" stroke-width="1px">19</text><text x="0" y="111.25" dx="0em" dy="0.3em" style="text-anchor: end; visibility: inherit; font-family: &quot;Helvetica Neue&quot;, sans-serif; font-size: 12px; font-weight: 200;" fill="rgb(50, 49, 63)" stroke="none" stroke-width="1px">20</text><text x="0" y="89" dx="0em" dy="0.3em" style="text-anchor: end; visibility: hidden; font-family: &quot;Helvetica Neue&quot;, sans-serif; font-size: 12px; font-weight: 200;" fill="rgb(50, 49, 63)" stroke="none" stroke-width="1px">21</text><text x="0" y="66.75" dx="0em" dy="0.3em" style="text-anchor: end; visibility: inherit; font-family: &quot;Helvetica Neue&quot;, sans-serif; font-size: 12px; font-weight: 200;" fill="rgb(50, 49, 63)" stroke="none" stroke-width="1px">22</text><text x="0" y="44.5" dx="0em" dy="0.3em" style="text-anchor: end; visibility: hidden; font-family: &quot;Helvetica Neue&quot;, sans-serif; font-size: 12px; font-weight: 200;" fill="rgb(50, 49, 63)" stroke="none" stroke-width="1px">23</text><text x="0" y="22.25" dx="0em" dy="0.3em" style="text-anchor: end; visibility: inherit; font-family: &quot;Helvetica Neue&quot;, sans-serif; font-size: 12px; font-weight: 200;" fill="rgb(50, 49, 63)" stroke="none" stroke-width="1px">24</text><text x="0" y="0" dx="0em" dy="0.3em" style="text-anchor: end; visibility: hidden; font-family: &quot;Helvetica Neue&quot;, sans-serif; font-size: 12px; font-weight: 200;" fill="rgb(50, 49, 63)" stroke="none" stroke-width="1px">25</text></g><line x1="34" y1="0" x2="34" y2="178" fill="rgb(0, 0, 0)" stroke="rgb(204, 204, 204)" stroke-width="1px"></line></g></g><g transform="translate(34, 0)" clip-path="url(#clip_0)"><clipPath id="clip_0"><rect width="296" height="178"></rect></clipPath><g><g><g><line x1="0" y1="0" x2="0" y2="178" fill="rgb(0, 0, 0)" stroke="rgb(60, 60, 60)" stroke-width="1px" opacity="0.25"></line><line x1="29.6" y1="0" x2="29.6" y2="178" fill="rgb(0, 0, 0)" stroke="rgb(60, 60, 60)" stroke-width="1px" opacity="0.25"></line><line x1="59.2" y1="0" x2="59.2" y2="178" fill="rgb(0, 0, 0)" stroke="rgb(60, 60, 60)" stroke-width="1px" opacity="0.25"></line><line x1="88.8" y1="0" x2="88.8" y2="178" fill="rgb(0, 0, 0)" stroke="rgb(60, 60, 60)" stroke-width="1px" opacity="0.25"></line><line x1="118.4" y1="0" x2="118.4" y2="178" fill="rgb(0, 0, 0)" stroke="rgb(60, 60, 60)" stroke-width="1px" opacity="0.25"></line><line x1="148" y1="0" x2="148" y2="178" fill="rgb(0, 0, 0)" stroke="rgb(60, 60, 60)" stroke-width="1px" opacity="0.25"></line><line x1="177.6" y1="0" x2="177.6" y2="178" fill="rgb(0, 0, 0)" stroke="rgb(60, 60, 60)" stroke-width="1px" opacity="0.25"></line><line x1="207.2" y1="0" x2="207.2" y2="178" fill="rgb(0, 0, 0)" stroke="rgb(60, 60, 60)" stroke-width="1px" opacity="0.25"></line><line x1="236.8" y1="0" x2="236.8" y2="178" fill="rgb(0, 0, 0)" stroke="rgb(60, 60, 60)" stroke-width="1px" opacity="0.25"></line><line x1="266.40000000000003" y1="0" x2="266.40000000000003" y2="178" fill="rgb(0, 0, 0)" stroke="rgb(60, 60, 60)" stroke-width="1px" opacity="0.25"></line><line x1="296" y1="0" x2="296" y2="178" fill="rgb(0, 0, 0)" stroke="rgb(60, 60, 60)" stroke-width="1px" opacity="0.25"></line></g><g><line x1="0" y1="178" x2="296" y2="178" fill="rgb(0, 0, 0)" stroke="rgb(60, 60, 60)" stroke-width="1px" opacity="0.25"></line><line x1="0" y1="155.75" x2="296" y2="155.75" fill="rgb(0, 0, 0)" stroke="rgb(60, 60, 60)" stroke-width="1px" opacity="0.25"></line><line x1="0" y1="133.5" x2="296" y2="133.5" fill="rgb(0, 0, 0)" stroke="rgb(60, 60, 60)" stroke-width="1px" opacity="0.25"></line><line x1="0" y1="111.25" x2="296" y2="111.25" fill="rgb(0, 0, 0)" stroke="rgb(60, 60, 60)" stroke-width="1px" opacity="0.25"></line><line x1="0" y1="89" x2="296" y2="89" fill="rgb(0, 0, 0)" stroke="rgb(60, 60, 60)" stroke-width="1px" opacity="0.25"></line><line x1="0" y1="66.75" x2="296" y2="66.75" fill="rgb(0, 0, 0)" stroke="rgb(60, 60, 60)" stroke-width="1px" opacity="0.25"></line><line x1="0" y1="44.5" x2="296" y2="44.5" fill="rgb(0, 0, 0)" stroke="rgb(60, 60, 60)" stroke-width="1px" opacity="0.25"></line><line x1="0" y1="22.25" x2="296" y2="22.25" fill="rgb(0, 0, 0)" stroke="rgb(60, 60, 60)" stroke-width="1px" opacity="0.25"></line><line x1="0" y1="0" x2="296" y2="0" fill="rgb(0, 0, 0)" stroke="rgb(60, 60, 60)" stroke-width="1px" opacity="0.25"></line></g></g></g><g><g><line x1="0" y1="556.25" x2="296" y2="556.25" fill="rgb(0, 0, 0)" stroke="rgb(153, 153, 153)" stroke-width="1.5px"></line></g></g><g><g><line x1="29.6" y1="0" x2="29.6" y2="178" fill="rgb(0, 0, 0)" stroke="rgb(153, 153, 153)" stroke-width="1.5px"></line></g></g><g><g><g><g><g><path stroke="rgb(238, 51, 119)" stroke-width="2px" d="M38.149664,184.21047433432534L39.360896000000004,154.52772845150812L40.570352,137.0404051427455L41.7804,108.75320118031325L42.990448,109.75555722641388L44.19872,101.43522277879313L45.410544,96.45462866570297L46.621776000000004,57.84251914255415L47.83123200000001,61.40718753908757L49.039503999999994,90.25245008904878L50.250736,134.25891887853493L51.460192,142.85622446910423L52.669056000000005,165.8151337049589L53.88088,188.48990924869517L55.093296,139.79287728483055L56.30512,83.87499037014321L57.514576000000005,103.7251509848036L58.724032,106.7351048531914L59.934079999999994,90.74101744026359L61.142944,90.04460927621307L62.354176,80.72675602899477L63.565408,84.0360556496187L64.77664,68.22162756284195L65.98728,76.53297837512805L67.197328,37.01978178387449L68.406192,40.011869308454806L69.618608,59.607122520784685L70.830432,62.464273594331644L72.041664,73.07856433906613L73.252304,79.44713866912791L74.460576,65.46828311496634L75.671216,48.18096980478862L76.880672,46.708581879592856L78.091904,81.425149174163L79.300176,75.55508949978976L80.51022400000001,63.13305369389592L81.720864,64.57983221675534L82.932096,56.54789932866174L84.14036800000001,69.52873959854634L85.352784,59.517243758503454L86.56519999999999,44.6103462545442L87.77406400000001,53.466207752925314L88.98352,67.67972465194671L90.19593599999999,76.2078347912369L91.408352,81.32470087476706L92.620176,84.3948205248692L93.830816,68.43689231489367L95.04027199999999,85.56213538895419L96.249728,51.33728123335105L97.458,48.602368740009524L98.66864000000001,64.76142124400933L99.879872,65.55685274640562L101.088736,66.03411164784345L102.297008,57.420466988705655L103.505872,52.252280193223214L104.71769599999999,66.95136811593419L105.92656000000001,57.970820869560484L107.136608,79.28249252173642L108.34606400000001,74.26949551304178L109.556704,89.06169730782501L110.767344,71.23701838469502L111.97916799999999,69.44221103081705L113.188624,86.16532661849025L114.397488,96.19919597109414L115.60931199999999,93.31951758265653L116.81936,100.49171054959389L118.027632,78.09502632975634L119.23768000000001,73.55701579785385L120.447136,79.73420947871233L121.65955199999999,47.84052568722737L122.870192,64.30431541233642L124.081424,74.18258924740184L125.29088,71.20955354844115L126.500928,69.42573212906466L127.710384,59.4554392774388L128.920432,26.7732635664633L130.132256,16.063958139878025L131.34408,36.338374883926775L132.55235199999998,57.40302493035604L133.76358399999998,78.9418149582136L134.974224,91.86508897492818L136.18368,81.8190533849569L137.395504,66.8914320309741L138.607328,75.73485921858446L139.81856,81.04091553115067L141.030384,75.32454931869043L142.240432,71.89472959121419L143.449296,69.83683775472849L144.65815999999998,59.7021026528371L145.8688,80.32126159170225L147.080032,92.69275695502137L148.29185600000002,91.21565417301285L149.500128,90.32939250380774L150.711952,89.79763550228466L151.923776,89.47858130137084L153.132048,80.38714878082251L154.343872,83.8322892684935L155.55332800000002,76.99937356109604L156.765744,81.79962413665763L157.976384,84.67977448199457L159.185248,86.40786468919677L160.39352,87.4447188135181L161.605344,61.3668312881108L162.81361600000002,54.62009877286647L164.02307199999998,77.27205926371995L165.232528,73.06323555823197L166.442576,61.637941334939185L167.652032,81.48276480096357L168.862672,102.28965888057817L170.071536,123.67379532834687L171.279808,83.1042771970081L172.49222400000002,76.56256631820482L173.70286399999998,81.53753979092289L174.91291199999998,84.52252387455377L176.123552,68.51351432473226L177.334192,32.20810859483936L178.543056,19.324865156903684L179.753104,56.0949190941422L180.96374400000002,69.25695145648535L182.1732,68.25417087389116L183.384432,85.45250252433466L184.59448,95.77150151460083L185.804528,84.16290090876043L187.016352,86.09774054525626L188.228176,87.25864432715375L189.437632,96.85518659629226L190.64708800000002,102.61311195777536L191.858912,97.16786717466525L193.06895999999998,102.80072030479916L194.2796,106.18043218287949L195.49024,108.20825930972772L196.700288,109.42495558583664L197.90974400000002,110.15497335150204L199.11979200000002,74.99298401090121L200.33043199999997,53.89579040654064L201.539296,59.037474243924365L202.748752,62.12248454635467L203.960576,72.87349072781277L205.17003200000002,70.42409443668767L206.37830399999999,60.05445666201257L207.588944,71.63267399720756L208.797808,42.97960439832457L210.00844800000002,61.38776263899476L211.217312,72.43265758339685L212.427952,79.05959455003813L213.638592,100.83575673002284L214.849824,42.701454038013765L216.061056,34.52087242280825L217.27288,38.51252345368496L218.48352,14.207514072210984L219.693568,61.92450844332659L220.9048,63.854705065996L222.116624,65.01282303959759L223.325488,83.5076938237586L224.537904,59.00461629425516L225.746176,62.10276977655306L226.956816,72.86166186593186L228.16568,79.31699711955909L229.374544,83.19019827173545L230.58577599999998,112.21411896304127L231.795232,129.62847137782475L233.00350400000002,131.1770828266948L234.213552,123.2062496960169L235.42419199999998,91.72374981761013L236.63601599999998,99.53424989056606L237.84784000000002,86.42054993433968L239.056704,96.35232996060387L240.267936,66.71139797636229L241.477984,66.7268387858173L242.688624,84.53610327149045L243.899856,95.22166196289433L245.11168,66.03299717773659L246.321136,101.91979830664195L247.53296,87.85187898398519L248.744784,115.01112739039111L249.955424,113.50667643423469L251.166064,121.5040058605408L252.376112,117.40240351632453L253.585568,132.74144210979472L254.7968,124.14486526587686L256.00744000000003,101.1869191595261L257.219856,60.71215149571562L258.43168,63.12729089742936L259.64232,100.17637453845764L260.852368,113.50582472307461L262.0636,130.40349483384477L263.27424,122.74209690030688L264.485472,144.8452581401841L265.693744,149.20715488411042" style="fill: none;" fill="none"></path></g></g></g></g><g opacity="0.2"><g><g><g><path stroke="rgb(238, 51, 119)" stroke-width="2px" d="M35.729568,333.75L36.939024,89L38.149664,22.25L39.360896000000004,111.25L40.570352,111.25L41.7804,66.75L42.990448,111.25L44.19872,89L45.410544,89L46.621776000000004,0L47.83123200000001,66.75L49.039503999999994,133.5L50.250736,200.25L51.460192,155.75L52.669056000000005,200.25L53.88088,222.5L55.093296,66.75L56.30512,0L57.514576000000005,133.5L58.724032,111.25L59.934079999999994,66.75L61.142944,89L62.354176,66.75L63.565408,89L64.77664,44.5L65.98728,89L67.197328,-22.25L68.406192,44.5L69.618608,89L70.830432,66.75L72.041664,89L73.252304,89L74.460576,44.5L75.671216,22.25L76.880672,44.5L78.091904,133.5L79.300176,66.75L80.51022400000001,44.5L81.720864,66.75L82.932096,44.5L84.14036800000001,89L85.352784,44.5L86.56519999999999,22.25L87.77406400000001,66.75L88.98352,89L90.19593599999999,89L91.408352,89L92.620176,89L93.830816,44.5L95.04027199999999,111.25L96.249728,0L97.458,44.5L98.66864000000001,89L99.879872,66.75L101.088736,66.75L102.297008,44.5L103.505872,44.5L104.71769599999999,89L105.92656000000001,44.5L107.136608,111.25L108.34606400000001,66.75L109.556704,111.25L110.767344,44.5L111.97916799999999,66.75L113.188624,111.25L114.397488,111.25L115.60931199999999,89L116.81936,111.25L118.027632,44.5L119.23768000000001,66.75L120.447136,89L121.65955199999999,0L122.870192,89L124.081424,89L125.29088,66.75L126.500928,66.75L127.710384,44.5L128.920432,-22.25L130.132256,0L131.34408,66.75L132.55235199999998,89L133.76358399999998,111.25L134.974224,111.25L136.18368,66.75L137.395504,44.5L138.607328,89L139.81856,89L141.030384,66.75L142.240432,66.75L143.449296,66.75L144.65815999999998,44.5L145.8688,111.25L147.080032,111.25L148.29185600000002,89L149.500128,89L150.711952,89L151.923776,89L153.132048,66.75L154.343872,89L155.55332800000002,66.75L156.765744,89L157.976384,89L159.185248,89L160.39352,89L161.605344,22.25L162.81361600000002,44.5L164.02307199999998,111.25L165.232528,66.75L166.442576,44.5L167.652032,111.25L168.862672,133.5L170.071536,155.75L171.279808,22.25L172.49222400000002,66.75L173.70286399999998,89L174.91291199999998,89L176.123552,44.5L177.334192,-22.25L178.543056,0L179.753104,111.25L180.96374400000002,89L182.1732,66.75L183.384432,111.25L184.59448,111.25L185.804528,66.75L187.016352,89L188.228176,89L189.437632,111.25L190.64708800000002,111.25L191.858912,89L193.06895999999998,111.25L194.2796,111.25L195.49024,111.25L196.700288,111.25L197.90974400000002,111.25L199.11979200000002,22.25L200.33043199999997,22.25L201.539296,66.75L202.748752,66.75L203.960576,89L205.17003200000002,66.75L206.37830399999999,44.5L207.588944,89L208.797808,0L210.00844800000002,89L211.217312,89L212.427952,89L213.638592,133.5L214.849824,-44.5L216.061056,22.25L217.27288,44.5L218.48352,-22.25L219.693568,133.5L220.9048,66.75L222.116624,66.75L223.325488,111.25L224.537904,22.25L225.746176,66.75L226.956816,89L228.16568,89L229.374544,89L230.58577599999998,155.75L231.795232,155.75L233.00350400000002,133.5L234.213552,111.25L235.42419199999998,44.5L236.63601599999998,111.25L237.84784000000002,66.75L239.056704,111.25L240.267936,22.25L241.477984,66.75L242.688624,111.25L243.899856,111.25L245.11168,22.25L246.321136,155.75L247.53296,66.75L248.744784,155.75L249.955424,111.25L251.166064,133.5L252.376112,111.25L253.585568,155.75L254.7968,111.25L256.00744000000003,66.75L257.219856,0L258.43168,66.75L259.64232,155.75L260.852368,133.5L262.0636,155.75L263.27424,111.25L264.485472,178L265.693744,155.75" style="fill: none;" fill="none"></path></g></g></g></g></g></g><g transform="translate(34, 178)" clip-path="url(#clip_1)"><clipPath id="clip_1"><rect width="296" height="22"></rect></clipPath><g><g><line x1="0" y1="0" x2="0" y2="5" style="visibility: inherit;" fill="rgb(0, 0, 0)" stroke="rgb(204, 204, 204)" stroke-width="1px"></line><line x1="29.6" y1="0" x2="29.6" y2="5" style="visibility: inherit;" fill="rgb(0, 0, 0)" stroke="rgb(204, 204, 204)" stroke-width="1px"></line><line x1="59.2" y1="0" x2="59.2" y2="5" style="visibility: inherit;" fill="rgb(0, 0, 0)" stroke="rgb(204, 204, 204)" stroke-width="1px"></line><line x1="88.8" y1="0" x2="88.8" y2="5" style="visibility: inherit;" fill="rgb(0, 0, 0)" stroke="rgb(204, 204, 204)" stroke-width="1px"></line><line x1="118.4" y1="0" x2="118.4" y2="5" style="visibility: inherit;" fill="rgb(0, 0, 0)" stroke="rgb(204, 204, 204)" stroke-width="1px"></line><line x1="148" y1="0" x2="148" y2="5" style="visibility: inherit;" fill="rgb(0, 0, 0)" stroke="rgb(204, 204, 204)" stroke-width="1px"></line><line x1="177.6" y1="0" x2="177.6" y2="5" style="visibility: inherit;" fill="rgb(0, 0, 0)" stroke="rgb(204, 204, 204)" stroke-width="1px"></line><line x1="207.2" y1="0" x2="207.2" y2="5" style="visibility: inherit;" fill="rgb(0, 0, 0)" stroke="rgb(204, 204, 204)" stroke-width="1px"></line><line x1="236.8" y1="0" x2="236.8" y2="5" style="visibility: inherit;" fill="rgb(0, 0, 0)" stroke="rgb(204, 204, 204)" stroke-width="1px"></line><line x1="266.40000000000003" y1="0" x2="266.40000000000003" y2="5" style="visibility: inherit;" fill="rgb(0, 0, 0)" stroke="rgb(204, 204, 204)" stroke-width="1px"></line><line x1="296" y1="0" x2="296" y2="5" style="visibility: inherit;" fill="rgb(0, 0, 0)" stroke="rgb(204, 204, 204)" stroke-width="1px"></line></g><g transform="translate(0, 8)"><text x="0" y="0" dx="0em" dy="0.95em" style="text-anchor: middle; visibility: hidden; font-family: &quot;Helvetica Neue&quot;, sans-serif; font-size: 12px; font-weight: 200;" fill="rgb(50, 49, 63)" stroke="none" stroke-width="1px">-50k</text><text x="29.6" y="0" dx="0em" dy="0.95em" style="text-anchor: middle; visibility: inherit; font-family: &quot;Helvetica Neue&quot;, sans-serif; font-size: 12px; font-weight: 200;" fill="rgb(50, 49, 63)" stroke="none" stroke-width="1px">0</text><text x="59.2" y="0" dx="0em" dy="0.95em" style="text-anchor: middle; visibility: hidden; font-family: &quot;Helvetica Neue&quot;, sans-serif; font-size: 12px; font-weight: 200;" fill="rgb(50, 49, 63)" stroke="none" stroke-width="1px">50k</text><text x="88.8" y="0" dx="0em" dy="0.95em" style="text-anchor: middle; visibility: inherit; font-family: &quot;Helvetica Neue&quot;, sans-serif; font-size: 12px; font-weight: 200;" fill="rgb(50, 49, 63)" stroke="none" stroke-width="1px">100k</text><text x="118.4" y="0" dx="0em" dy="0.95em" style="text-anchor: middle; visibility: hidden; font-family: &quot;Helvetica Neue&quot;, sans-serif; font-size: 12px; font-weight: 200;" fill="rgb(50, 49, 63)" stroke="none" stroke-width="1px">150k</text><text x="148" y="0" dx="0em" dy="0.95em" style="text-anchor: middle; visibility: inherit; font-family: &quot;Helvetica Neue&quot;, sans-serif; font-size: 12px; font-weight: 200;" fill="rgb(50, 49, 63)" stroke="none" stroke-width="1px">200k</text><text x="177.6" y="0" dx="0em" dy="0.95em" style="text-anchor: middle; visibility: hidden; font-family: &quot;Helvetica Neue&quot;, sans-serif; font-size: 12px; font-weight: 200;" fill="rgb(50, 49, 63)" stroke="none" stroke-width="1px">250k</text><text x="207.2" y="0" dx="0em" dy="0.95em" style="text-anchor: middle; visibility: inherit; font-family: &quot;Helvetica Neue&quot;, sans-serif; font-size: 12px; font-weight: 200;" fill="rgb(50, 49, 63)" stroke="none" stroke-width="1px">300k</text><text x="236.8" y="0" dx="0em" dy="0.95em" style="text-anchor: middle; visibility: hidden; font-family: &quot;Helvetica Neue&quot;, sans-serif; font-size: 12px; font-weight: 200;" fill="rgb(50, 49, 63)" stroke="none" stroke-width="1px">350k</text><text x="266.40000000000003" y="0" dx="0em" dy="0.95em" style="text-anchor: middle; visibility: inherit; font-family: &quot;Helvetica Neue&quot;, sans-serif; font-size: 12px; font-weight: 200;" fill="rgb(50, 49, 63)" stroke="none" stroke-width="1px">400k</text><text x="296" y="0" dx="0em" dy="0.95em" style="text-anchor: middle; visibility: hidden; font-family: &quot;Helvetica Neue&quot;, sans-serif; font-size: 12px; font-weight: 200;" fill="rgb(50, 49, 63)" stroke="none" stroke-width="1px">450k</text></g><line x1="0" y1="0" x2="296" y2="0" fill="rgb(0, 0, 0)" stroke="rgb(204, 204, 204)" stroke-width="1px"></line></g></g></g></g></svg>