<svg viewBox="0 0 330 200" xmlns="http://www.w3.org/2000/svg"><g><g><g><g><g><line x1="34" y1="178" x2="29" y2="178" style="visibility: inherit;" fill="rgb(0, 0, 0)" stroke="rgb(204, 204, 204)" stroke-width="1px"></line><line x1="34" y1="152.57142857142858" x2="29" y2="152.57142857142858" style="visibility: inherit;" fill="rgb(0, 0, 0)" stroke="rgb(204, 204, 204)" stroke-width="1px"></line><line x1="34" y1="127.14285714285714" x2="29" y2="127.14285714285714" style="visibility: inherit;" fill="rgb(0, 0, 0)" stroke="rgb(204, 204, 204)" stroke-width="1px"></line><line x1="34" y1="101.71428571428572" x2="29" y2="101.71428571428572" style="visibility: inherit;" fill="rgb(0, 0, 0)" stroke="rgb(204, 204, 204)" stroke-width="1px"></line><line x1="34" y1="76.28571428571429" x2="29" y2="76.28571428571429" style="visibility: inherit;" fill="rgb(0, 0, 0)" stroke="rgb(204, 204, 204)" stroke-width="1px"></line><line x1="34" y1="50.85714285714286" x2="29" y2="50.85714285714286" style="visibility: inherit;" fill="rgb(0, 0, 0)" stroke="rgb(204, 204, 204)" stroke-width="1px"></line><line x1="34" y1="25.428571428571445" x2="29" y2="25.428571428571445" style="visibility: inherit;" fill="rgb(0, 0, 0)" stroke="rgb(204, 204, 204)" stroke-width="1px"></line><line x1="34" y1="0" x2="29" y2="0" style="visibility: inherit;" fill="rgb(0, 0, 0)" stroke="rgb(204, 204, 204)" stroke-width="1px"></line></g><g transform="translate(24, 0)"><text x="0" y="178" dx="0em" dy="0.3em" style="text-anchor: end; visibility: hidden; font-family: &quot;Helvetica Neue&quot;, sans-serif; font-size: 12px; font-weight: 200;" fill="rgb(50, 49, 63)" stroke="none" stroke-width="1px">-5</text><text x="0" y="152.57142857142858" dx="0em" dy="0.3em" style="text-anchor: end; visibility: inherit; font-family: &quot;Helvetica Neue&quot;, sans-serif; font-size: 12px; font-weight: 200;" fill="rgb(50, 49, 63)" stroke="none" stroke-width="1px">0</text><text x="0" y="127.14285714285714" dx="0em" dy="0.3em" style="text-anchor: end; visibility: inherit; font-family: &quot;Helvetica Neue&quot;, sans-serif; font-size: 12px; font-weight: 200;" fill="rgb(50, 49, 63)" stroke="none" stroke-width="1px">5</text><text x="0" y="101.71428571428572" dx="0em" dy="0.3em" style="text-anchor: end; visibility: inherit; font-family: &quot;Helvetica Neue&quot;, sans-serif; font-size: 12px; font-weight: 200;" fill="rgb(50, 49, 63)" stroke="none" stroke-width="1px">10</text><text x="0" y="76.28571428571429" dx="0em" dy="0.3em" style="text-anchor: end; visibility: inherit; font-family: &quot;Helvetica Neue&quot;, sans-serif; font-size: 12px; font-weight: 200;" fill="rgb(50, 49, 63)" stroke="none" stroke-width="1px">15</text><text x="0" y="50.85714285714286" dx="0em" dy="0.3em" style="text-anchor: end; visibility: inherit; font-family: &quot;Helvetica Neue&quot;, sans-serif; font-size: 12px; font-weight: 200;" fill="rgb(50, 49, 63)" stroke="none" stroke-width="1px">20</text><text x="0" y="25.428571428571445" dx="0em" dy="0.3em" style="text-anchor: end; visibility: inherit; font-family: &quot;Helvetica Neue&quot;, sans-serif; font-size: 12px; font-weight: 200;" fill="rgb(50, 49, 63)" stroke="none" stroke-width="1px">25</text><text x="0" y="0" dx="0em" dy="0.3em" style="text-anchor: end; visibility: hidden; font-family: &quot;Helvetica Neue&quot;, sans-serif; font-size: 12px; font-weight: 200;" fill="rgb(50, 49, 63)" stroke="none" stroke-width="1px">30</text></g><line x1="34" y1="0" x2="34" y2="178" fill="rgb(0, 0, 0)" stroke="rgb(204, 204, 204)" stroke-width="1px"></line></g></g><g transform="translate(34, 0)" clip-path="url(#clip_0)"><clipPath id="clip_0"><rect width="296" height="178"></rect></clipPath><g><g><g><line x1="0" y1="0" x2="0" y2="178" fill="rgb(0, 0, 0)" stroke="rgb(60, 60, 60)" stroke-width="1px" opacity="0.25"></line><line x1="29.6" y1="0" x2="29.6" y2="178" fill="rgb(0, 0, 0)" stroke="rgb(60, 60, 60)" stroke-width="1px" opacity="0.25"></line><line x1="59.2" y1="0" x2="59.2" y2="178" fill="rgb(0, 0, 0)" stroke="rgb(60, 60, 60)" stroke-width="1px" opacity="0.25"></line><line x1="88.8" y1="0" x2="88.8" y2="178" fill="rgb(0, 0, 0)" stroke="rgb(60, 60, 60)" stroke-width="1px" opacity="0.25"></line><line x1="118.4" y1="0" x2="118.4" y2="178" fill="rgb(0, 0, 0)" stroke="rgb(60, 60, 60)" stroke-width="1px" opacity="0.25"></line><line x1="148" y1="0" x2="148" y2="178" fill="rgb(0, 0, 0)" stroke="rgb(60, 60, 60)" stroke-width="1px" opacity="0.25"></line><line x1="177.6" y1="0" x2="177.6" y2="178" fill="rgb(0, 0, 0)" stroke="rgb(60, 60, 60)" stroke-width="1px" opacity="0.25"></line><line x1="207.2" y1="0" x2="207.2" y2="178" fill="rgb(0, 0, 0)" stroke="rgb(60, 60, 60)" stroke-width="1px" opacity="0.25"></line><line x1="236.8" y1="0" x2="236.8" y2="178" fill="rgb(0, 0, 0)" stroke="rgb(60, 60, 60)" stroke-width="1px" opacity="0.25"></line><line x1="266.40000000000003" y1="0" x2="266.40000000000003" y2="178" fill="rgb(0, 0, 0)" stroke="rgb(60, 60, 60)" stroke-width="1px" opacity="0.25"></line><line x1="296" y1="0" x2="296" y2="178" fill="rgb(0, 0, 0)" stroke="rgb(60, 60, 60)" stroke-width="1px" opacity="0.25"></line></g><g><line x1="0" y1="178" x2="296" y2="178" fill="rgb(0, 0, 0)" stroke="rgb(60, 60, 60)" stroke-width="1px" opacity="0.25"></line><line x1="0" y1="152.57142857142858" x2="296" y2="152.57142857142858" fill="rgb(0, 0, 0)" stroke="rgb(60, 60, 60)" stroke-width="1px" opacity="0.25"></line><line x1="0" y1="127.14285714285714" x2="296" y2="127.14285714285714" fill="rgb(0, 0, 0)" stroke="rgb(60, 60, 60)" stroke-width="1px" opacity="0.25"></line><line x1="0" y1="101.71428571428572" x2="296" y2="101.71428571428572" fill="rgb(0, 0, 0)" stroke="rgb(60, 60, 60)" stroke-width="1px" opacity="0.25"></line><line x1="0" y1="76.28571428571429" x2="296" y2="76.28571428571429" fill="rgb(0, 0, 0)" stroke="rgb(60, 60, 60)" stroke-width="1px" opacity="0.25"></line><line x1="0" y1="50.85714285714286" x2="296" y2="50.85714285714286" fill="rgb(0, 0, 0)" stroke="rgb(60, 60, 60)" stroke-width="1px" opacity="0.25"></line><line x1="0" y1="25.428571428571445" x2="296" y2="25.428571428571445" fill="rgb(0, 0, 0)" stroke="rgb(60, 60, 60)" stroke-width="1px" opacity="0.25"></line><line x1="0" y1="0" x2="296" y2="0" fill="rgb(0, 0, 0)" stroke="rgb(60, 60, 60)" stroke-width="1px" opacity="0.25"></line></g></g></g><g><g><line x1="0" y1="152.57142857142858" x2="296" y2="152.57142857142858" fill="rgb(0, 0, 0)" stroke="rgb(153, 153, 153)" stroke-width="1.5px"></line></g></g><g><g><line x1="29.6" y1="0" x2="29.6" y2="178" fill="rgb(0, 0, 0)" stroke="rgb(153, 153, 153)" stroke-width="1.5px"></line></g></g><g><g><g><g><g><path stroke="rgb(255, 112, 67)" stroke-width="2px" d="M34.523664000000004,152.57142857142858L34.524848,152.57142857142858L34.523072,152.57142857142858L34.523072,152.57142857142858L39.369776,152.57142857142858L39.374512,152.57142857142858L39.370368,152.57142857142858L39.370368,152.57142857142858L44.217664,152.57142857142858L44.2224,152.57142857142858L44.21944,152.57142857142858L44.220031999999996,152.57142857142858L49.06318400000001,119.98029085512253L49.06792,96.38110978352184L49.065552,88.33917038524687L49.066736,85.55128716722285L53.909296000000005,75.74054024004091L53.914032,59.68269330978613L53.912848,52.08343863217192L53.914032,53.62726248109196L58.754816000000005,48.450529641208135L58.762512,51.4475000885034L58.761328,49.17705355127097L58.760736,51.883387811549184L63.600928,49.438597164890695L63.610992,43.903148856471034L63.609808,42.616173710961675L63.608032,39.80970250313922L68.446448,42.19439380911007L68.457696,41.59092186633984L68.456512,43.263124770183595L68.457104,42.232160494344924L73.29611200000001,35.51072454707375L73.303808,33.51214895669699L73.302624,38.415860886887884L73.303216,35.25523078524694L78.144592,31.3245670182512L78.149328,39.137597382819166L78.151696,41.79112986417476L78.15051199999999,37.28039219818942L82.991888,40.67680675020918L82.996624,40.680369764412916L82.999584,42.71679328780718L82.99839999999999,43.93864740146739L87.83800000000001,44.671759869528074L87.84392,36.97448449266534L87.848656,40.49326212430233L87.84510399999999,42.60452870320023L92.68529600000001,43.87128865050863L92.693584,38.52848747597625L92.69536,41.425663914171224L92.69299199999999,43.16396977707922L97.533184,44.206953294820806L97.539104,44.832743405464555L97.545024,35.036788900415445L97.54088,41.36493048310879L102.38048,45.1618154327233L102.388768,47.439946402491415L102.391136,50.841110698637976L102.3864,48.813237847754124L107.22718400000001,45.56222842293806L107.237248,37.5087656251913L107.239616,38.77954508940053L107.233696,39.542012767925996L112.075664,44.06806480361277L112.083952,40.68083888216765L112.08928,36.614217615014866L112.079808,40.27710199758036L116.92118400000001,38.40626119854821L116.930656,43.38661386198606L116.936576,40.271968317191636L116.927696,44.506038133172126L121.766704,38.90933716561756L121.78032,39.61988801365624L121.78564800000001,40.04621852247948L121.77617599999999,38.267731113487685L126.61577600000001,33.13206723952118L126.627024,38.187811772284135L126.63471999999999,37.15268706337048L126.624656,34.49732652373655L131.46188800000002,32.90411019995622L131.472544,38.05103754854517L131.484384,35.03633681484138L131.47432,33.227516374619114L136.311552,38.2450812533429L136.321616,41.255620180577154L136.33049599999998,45.096229251203454L136.3228,43.33202326500779L141.158256,40.23921395900467L141.167728,46.52067123254565L141.176608,44.186688453813076L141.171872,42.78629878657358L146.006144,35.84320784337271L146.016208,37.780210420309345L146.02272,36.90812625218561L146.017392,38.41916146559706L150.85284800000002,39.325782593643964L150.861728,41.90404098475781L150.87001600000002,43.4509960194261L150.864688,44.37916904022708L155.701328,46.97035856699341L155.7108,50.55935799733891L155.719088,48.64418622697477L155.713168,49.52936887904198L160.548032,50.06047847028235L160.559872,44.276287082169404L160.56579200000002,46.90862939215879L160.55868800000002,52.55660620672384L165.393552,41.70539229546287L165.406576,45.366092520134856L165.411312,47.562512654938075L165.4048,50.91465045010571L170.242624,46.82307598434912L170.253872,44.3681313048952L170.260976,40.86087878293711L170.25328000000002,46.89367012690511L174.860816,42.37620207614307L175.10353600000002,37.631435531400115L175.107088,44.95600417598294L175.100576,47.31645964844691L179.70752,52.8013043604967L179.95024,49.98935404486946L179.955568,50.3364695697788L179.94787200000002,56.64759602758157L184.555408,48.228557616548954L184.79576,49.27999171278648L184.80168,49.91085217052904L184.79635199999998,52.32365415946029L189.405072,47.668478209961876L189.64246400000002,46.909658354548554L189.65016,44.420080727014835L189.643648,46.99490557906606L194.254144,42.43694334743964L194.488576,41.73645172274948L194.496272,43.35044246222111L194.49153600000002,44.31883690590411L199.10144,46.93415928639959L199.10795199999998,48.503352714696916L199.11032,51.479154485961004L199.344752,41.058921263005175L203.950512,38.875352757803114L203.954656,33.49664022611043L203.956432,40.44084127852341L204.193824,42.57307619568547L208.797808,49.95527428883986L208.803728,52.350307430446776L208.80432000000002,47.68447017255377L209.042896,46.91925353210368L213.64687999999998,46.46012354783363L213.649248,48.218931271557324L213.64984,49.27421590579155L213.888416,45.83881525776064L218.494176,37.674717726084964L218.495952,40.913402064222424L218.49832,44.8908983813906L218.737488,47.27739617169152L223.34147199999998,44.64072341730062L223.34147199999998,49.16157690752323L223.35864,45.77123185879964L223.347392,43.73702482956551L228.18936,42.516500612025L228.191136,43.81847179578645L228.20830400000003,44.599654506043294L228.19528,45.06836413219739L233.03784000000002,41.28101847931842L233.03784000000002,41.042896801876765L233.054416,42.9343095096975L233.044944,42.034871420104196L237.883952,43.52949428063394L237.88632,40.35769656838036L237.90408000000002,40.48890365531392L237.89224000000002,42.60191362175979L242.729472,35.73257674448445L242.733616,41.78240318954781L242.75196799999998,43.378013342300136L242.738352,48.40395086252295L247.576176,47.350941946085186L247.581504,46.71913659622254L247.599856,50.408624814876376L247.58683200000002,50.58803203178299L252.42584000000002,50.69567636192694L252.431168,48.72597724572759L252.447744,47.54415777600798L252.434128,50.903637522747644L257.271952,48.850753942219995L257.279648,47.61902379390341L257.297408,50.948557133484925L257.279648,50.911991422948105L262.11984,46.82148056805457L262.128128,48.435745483689885L262.144112,47.37001871878536L262.129312,50.79915408841407" style="fill: none;" fill="none"></path></g></g></g></g><g opacity="0.2"><g><g><g><path stroke="rgb(255, 112, 67)" stroke-width="2px" d="M34.523664000000004,152.57142857142858L34.524848,152.57142857142858L34.523072,152.57142857142858L34.523072,152.57142857142858L39.369776,152.57142857142858L39.374512,152.57142857142858L39.370368,152.57142857142858L39.370368,152.57142857142858L44.217664,152.57142857142858L44.2224,152.57142857142858L44.21944,152.57142857142858L44.220031999999996,152.57142857142858L49.06318400000001,71.2L49.06792,61.028571428571425L49.065552,76.28571428571429L49.066736,81.37142857142858L53.909296000000005,61.028571428571425L53.914032,35.599999999999994L53.912848,40.68571428571428L53.914032,55.942857142857136L58.754816000000005,40.68571428571428L58.762512,55.942857142857136L58.761328,45.77142857142857L58.760736,55.942857142857136L63.600928,45.77142857142857L63.610992,35.599999999999994L63.609808,40.68571428571428L63.608032,35.599999999999994L68.446448,45.77142857142857L68.457696,40.68571428571428L68.456512,45.77142857142857L68.457104,40.68571428571428L73.29611200000001,25.428571428571445L73.303808,30.514285714285705L73.302624,45.77142857142857L73.303216,30.514285714285705L78.144592,25.428571428571445L78.149328,50.85714285714286L78.151696,45.77142857142857L78.15051199999999,30.514285714285705L82.991888,45.77142857142857L82.996624,40.68571428571428L82.999584,45.77142857142857L82.99839999999999,45.77142857142857L87.83800000000001,45.77142857142857L87.84392,25.428571428571445L87.848656,45.77142857142857L87.84510399999999,45.77142857142857L92.68529600000001,45.77142857142857L92.693584,30.514285714285705L92.69536,45.77142857142857L92.69299199999999,45.77142857142857L97.533184,45.77142857142857L97.539104,45.77142857142857L97.545024,20.342857142857156L97.54088,50.85714285714286L102.38048,50.85714285714286L102.388768,50.85714285714286L102.391136,55.942857142857136L102.3864,45.77142857142857L107.22718400000001,40.68571428571428L107.237248,25.428571428571445L107.239616,40.68571428571428L107.233696,40.68571428571428L112.075664,50.85714285714286L112.083952,35.599999999999994L112.08928,30.514285714285705L112.079808,45.77142857142857L116.92118400000001,35.599999999999994L116.930656,50.85714285714286L116.936576,35.599999999999994L116.927696,50.85714285714286L121.766704,30.514285714285705L121.78032,40.68571428571428L121.78564800000001,40.68571428571428L121.77617599999999,35.599999999999994L126.61577600000001,25.428571428571445L126.627024,45.77142857142857L126.63471999999999,35.599999999999994L126.624656,30.514285714285705L131.46188800000002,30.514285714285705L131.472544,45.77142857142857L131.484384,30.514285714285705L131.47432,30.514285714285705L136.311552,45.77142857142857L136.321616,45.77142857142857L136.33049599999998,50.85714285714286L136.3228,40.68571428571428L141.158256,35.599999999999994L141.167728,55.942857142857136L141.176608,40.68571428571428L141.171872,40.68571428571428L146.006144,25.428571428571445L146.016208,40.68571428571428L146.02272,35.599999999999994L146.017392,40.68571428571428L150.85284800000002,40.68571428571428L150.861728,45.77142857142857L150.87001600000002,45.77142857142857L150.864688,45.77142857142857L155.701328,50.85714285714286L155.7108,55.942857142857136L155.719088,45.77142857142857L155.713168,50.85714285714286L160.548032,50.85714285714286L160.559872,35.599999999999994L160.56579200000002,50.85714285714286L160.55868800000002,61.028571428571425L165.393552,25.428571428571445L165.406576,50.85714285714286L165.411312,50.85714285714286L165.4048,55.942857142857136L170.242624,40.68571428571428L170.253872,40.68571428571428L170.260976,35.599999999999994L170.25328000000002,55.942857142857136L174.860816,35.599999999999994L175.10353600000002,30.514285714285705L175.107088,55.942857142857136L175.100576,50.85714285714286L179.70752,61.028571428571425L179.95024,45.77142857142857L179.955568,50.85714285714286L179.94787200000002,66.11428571428571L184.555408,35.599999999999994L184.79576,50.85714285714286L184.80168,50.85714285714286L184.79635199999998,55.942857142857136L189.405072,40.68571428571428L189.64246400000002,45.77142857142857L189.65016,40.68571428571428L189.643648,50.85714285714286L194.254144,35.599999999999994L194.488576,40.68571428571428L194.496272,45.77142857142857L194.49153600000002,45.77142857142857L199.10144,50.85714285714286L199.10795199999998,50.85714285714286L199.11032,55.942857142857136L199.344752,25.428571428571445L203.950512,35.599999999999994L203.954656,25.428571428571445L203.956432,50.85714285714286L204.193824,45.77142857142857L208.797808,61.028571428571425L208.803728,55.942857142857136L208.80432000000002,40.68571428571428L209.042896,45.77142857142857L213.64687999999998,45.77142857142857L213.649248,50.85714285714286L213.64984,50.85714285714286L213.888416,40.68571428571428L218.494176,25.428571428571445L218.495952,45.77142857142857L218.49832,50.85714285714286L218.737488,50.85714285714286L223.34147199999998,40.68571428571428L223.34147199999998,55.942857142857136L223.35864,40.68571428571428L223.347392,40.68571428571428L228.18936,40.68571428571428L228.191136,45.77142857142857L228.20830400000003,45.77142857142857L228.19528,45.77142857142857L233.03784000000002,35.599999999999994L233.03784000000002,40.68571428571428L233.054416,45.77142857142857L233.044944,40.68571428571428L237.883952,45.77142857142857L237.88632,35.599999999999994L237.90408000000002,40.68571428571428L237.89224000000002,45.77142857142857L242.729472,25.428571428571445L242.733616,50.85714285714286L242.75196799999998,45.77142857142857L242.738352,55.942857142857136L247.576176,45.77142857142857L247.581504,45.77142857142857L247.599856,55.942857142857136L247.58683200000002,50.85714285714286L252.42584000000002,50.85714285714286L252.431168,45.77142857142857L252.447744,45.77142857142857L252.434128,55.942857142857136L257.271952,45.77142857142857L257.279648,45.77142857142857L257.297408,55.942857142857136L257.279648,50.85714285714286L262.11984,40.68571428571428L262.128128,50.85714285714286L262.144112,45.77142857142857L262.129312,55.942857142857136" style="fill: none;" fill="none"></path></g></g></g></g></g></g><g transform="translate(34, 178)" clip-path="url(#clip_1)"><clipPath id="clip_1"><rect width="296" height="22"></rect></clipPath><g><g><line x1="0" y1="0" x2="0" y2="5" style="visibility: inherit;" fill="rgb(0, 0, 0)" stroke="rgb(204, 204, 204)" stroke-width="1px"></line><line x1="29.6" y1="0" x2="29.6" y2="5" style="visibility: inherit;" fill="rgb(0, 0, 0)" stroke="rgb(204, 204, 204)" stroke-width="1px"></line><line x1="59.2" y1="0" x2="59.2" y2="5" style="visibility: inherit;" fill="rgb(0, 0, 0)" stroke="rgb(204, 204, 204)" stroke-width="1px"></line><line x1="88.8" y1="0" x2="88.8" y2="5" style="visibility: inherit;" fill="rgb(0, 0, 0)" stroke="rgb(204, 204, 204)" stroke-width="1px"></line><line x1="118.4" y1="0" x2="118.4" y2="5" style="visibility: inherit;" fill="rgb(0, 0, 0)" stroke="rgb(204, 204, 204)" stroke-width="1px"></line><line x1="148" y1="0" x2="148" y2="5" style="visibility: inherit;" fill="rgb(0, 0, 0)" stroke="rgb(204, 204, 204)" stroke-width="1px"></line><line x1="177.6" y1="0" x2="177.6" y2="5" style="visibility: inherit;" fill="rgb(0, 0, 0)" stroke="rgb(204, 204, 204)" stroke-width="1px"></line><line x1="207.2" y1="0" x2="207.2" y2="5" style="visibility: inherit;" fill="rgb(0, 0, 0)" stroke="rgb(204, 204, 204)" stroke-width="1px"></line><line x1="236.8" y1="0" x2="236.8" y2="5" style="visibility: inherit;" fill="rgb(0, 0, 0)" stroke="rgb(204, 204, 204)" stroke-width="1px"></line><line x1="266.40000000000003" y1="0" x2="266.40000000000003" y2="5" style="visibility: inherit;" fill="rgb(0, 0, 0)" stroke="rgb(204, 204, 204)" stroke-width="1px"></line><line x1="296" y1="0" x2="296" y2="5" style="visibility: inherit;" fill="rgb(0, 0, 0)" stroke="rgb(204, 204, 204)" stroke-width="1px"></line></g><g transform="translate(0, 8)"><text x="0" y="0" dx="0em" dy="0.95em" style="text-anchor: middle; visibility: hidden; font-family: &quot;Helvetica Neue&quot;, sans-serif; font-size: 12px; font-weight: 200;" fill="rgb(50, 49, 63)" stroke="none" stroke-width="1px">-50k</text><text x="29.6" y="0" dx="0em" dy="0.95em" style="text-anchor: middle; visibility: inherit; font-family: &quot;Helvetica Neue&quot;, sans-serif; font-size: 12px; font-weight: 200;" fill="rgb(50, 49, 63)" stroke="none" stroke-width="1px">0</text><text x="59.2" y="0" dx="0em" dy="0.95em" style="text-anchor: middle; visibility: hidden; font-family: &quot;Helvetica Neue&quot;, sans-serif; font-size: 12px; font-weight: 200;" fill="rgb(50, 49, 63)" stroke="none" stroke-width="1px">50k</text><text x="88.8" y="0" dx="0em" dy="0.95em" style="text-anchor: middle; visibility: inherit; font-family: &quot;Helvetica Neue&quot;, sans-serif; font-size: 12px; font-weight: 200;" fill="rgb(50, 49, 63)" stroke="none" stroke-width="1px">100k</text><text x="118.4" y="0" dx="0em" dy="0.95em" style="text-anchor: middle; visibility: hidden; font-family: &quot;Helvetica Neue&quot;, sans-serif; font-size: 12px; font-weight: 200;" fill="rgb(50, 49, 63)" stroke="none" stroke-width="1px">150k</text><text x="148" y="0" dx="0em" dy="0.95em" style="text-anchor: middle; visibility: inherit; font-family: &quot;Helvetica Neue&quot;, sans-serif; font-size: 12px; font-weight: 200;" fill="rgb(50, 49, 63)" stroke="none" stroke-width="1px">200k</text><text x="177.6" y="0" dx="0em" dy="0.95em" style="text-anchor: middle; visibility: hidden; font-family: &quot;Helvetica Neue&quot;, sans-serif; font-size: 12px; font-weight: 200;" fill="rgb(50, 49, 63)" stroke="none" stroke-width="1px">250k</text><text x="207.2" y="0" dx="0em" dy="0.95em" style="text-anchor: middle; visibility: inherit; font-family: &quot;Helvetica Neue&quot;, sans-serif; font-size: 12px; font-weight: 200;" fill="rgb(50, 49, 63)" stroke="none" stroke-width="1px">300k</text><text x="236.8" y="0" dx="0em" dy="0.95em" style="text-anchor: middle; visibility: hidden; font-family: &quot;Helvetica Neue&quot;, sans-serif; font-size: 12px; font-weight: 200;" fill="rgb(50, 49, 63)" stroke="none" stroke-width="1px">350k</text><text x="266.40000000000003" y="0" dx="0em" dy="0.95em" style="text-anchor: middle; visibility: inherit; font-family: &quot;Helvetica Neue&quot;, sans-serif; font-size: 12px; font-weight: 200;" fill="rgb(50, 49, 63)" stroke="none" stroke-width="1px">400k</text><text x="296" y="0" dx="0em" dy="0.95em" style="text-anchor: middle; visibility: hidden; font-family: &quot;Helvetica Neue&quot;, sans-serif; font-size: 12px; font-weight: 200;" fill="rgb(50, 49, 63)" stroke="none" stroke-width="1px">450k</text></g><line x1="0" y1="0" x2="296" y2="0" fill="rgb(0, 0, 0)" stroke="rgb(204, 204, 204)" stroke-width="1px"></line></g></g></g></g></svg>