<svg viewBox="0 0 330 200" xmlns="http://www.w3.org/2000/svg"><g><g><g><g><g><line x1="34" y1="178" x2="29" y2="178" style="visibility: inherit;" fill="rgb(0, 0, 0)" stroke="rgb(204, 204, 204)" stroke-width="1px"></line><line x1="34" y1="155.75" x2="29" y2="155.75" style="visibility: inherit;" fill="rgb(0, 0, 0)" stroke="rgb(204, 204, 204)" stroke-width="1px"></line><line x1="34" y1="133.5" x2="29" y2="133.5" style="visibility: inherit;" fill="rgb(0, 0, 0)" stroke="rgb(204, 204, 204)" stroke-width="1px"></line><line x1="34" y1="111.25" x2="29" y2="111.25" style="visibility: inherit;" fill="rgb(0, 0, 0)" stroke="rgb(204, 204, 204)" stroke-width="1px"></line><line x1="34" y1="89" x2="29" y2="89" style="visibility: inherit;" fill="rgb(0, 0, 0)" stroke="rgb(204, 204, 204)" stroke-width="1px"></line><line x1="34" y1="66.75" x2="29" y2="66.75" style="visibility: inherit;" fill="rgb(0, 0, 0)" stroke="rgb(204, 204, 204)" stroke-width="1px"></line><line x1="34" y1="44.5" x2="29" y2="44.5" style="visibility: inherit;" fill="rgb(0, 0, 0)" stroke="rgb(204, 204, 204)" stroke-width="1px"></line><line x1="34" y1="22.25" x2="29" y2="22.25" style="visibility: inherit;" fill="rgb(0, 0, 0)" stroke="rgb(204, 204, 204)" stroke-width="1px"></line><line x1="34" y1="0" x2="29" y2="0" style="visibility: inherit;" fill="rgb(0, 0, 0)" stroke="rgb(204, 204, 204)" stroke-width="1px"></line></g><g transform="translate(24, 0)"><text x="0" y="178" dx="0em" dy="0.3em" style="text-anchor: end; visibility: hidden; font-family: &quot;Helvetica Neue&quot;, sans-serif; font-size: 12px; font-weight: 200;" fill="rgb(50, 49, 63)" stroke="none" stroke-width="1px">10</text><text x="0" y="155.75" dx="0em" dy="0.3em" style="text-anchor: end; visibility: inherit; font-family: &quot;Helvetica Neue&quot;, sans-serif; font-size: 12px; font-weight: 200;" fill="rgb(50, 49, 63)" stroke="none" stroke-width="1px">12</text><text x="0" y="133.5" dx="0em" dy="0.3em" style="text-anchor: end; visibility: hidden; font-family: &quot;Helvetica Neue&quot;, sans-serif; font-size: 12px; font-weight: 200;" fill="rgb(50, 49, 63)" stroke="none" stroke-width="1px">14</text><text x="0" y="111.25" dx="0em" dy="0.3em" style="text-anchor: end; visibility: inherit; font-family: &quot;Helvetica Neue&quot;, sans-serif; font-size: 12px; font-weight: 200;" fill="rgb(50, 49, 63)" stroke="none" stroke-width="1px">16</text><text x="0" y="89" dx="0em" dy="0.3em" style="text-anchor: end; visibility: hidden; font-family: &quot;Helvetica Neue&quot;, sans-serif; font-size: 12px; font-weight: 200;" fill="rgb(50, 49, 63)" stroke="none" stroke-width="1px">18</text><text x="0" y="66.75" dx="0em" dy="0.3em" style="text-anchor: end; visibility: inherit; font-family: &quot;Helvetica Neue&quot;, sans-serif; font-size: 12px; font-weight: 200;" fill="rgb(50, 49, 63)" stroke="none" stroke-width="1px">20</text><text x="0" y="44.5" dx="0em" dy="0.3em" style="text-anchor: end; visibility: hidden; font-family: &quot;Helvetica Neue&quot;, sans-serif; font-size: 12px; font-weight: 200;" fill="rgb(50, 49, 63)" stroke="none" stroke-width="1px">22</text><text x="0" y="22.25" dx="0em" dy="0.3em" style="text-anchor: end; visibility: inherit; font-family: &quot;Helvetica Neue&quot;, sans-serif; font-size: 12px; font-weight: 200;" fill="rgb(50, 49, 63)" stroke="none" stroke-width="1px">24</text><text x="0" y="0" dx="0em" dy="0.3em" style="text-anchor: end; visibility: hidden; font-family: &quot;Helvetica Neue&quot;, sans-serif; font-size: 12px; font-weight: 200;" fill="rgb(50, 49, 63)" stroke="none" stroke-width="1px">26</text></g><line x1="34" y1="0" x2="34" y2="178" fill="rgb(0, 0, 0)" stroke="rgb(204, 204, 204)" stroke-width="1px"></line></g></g><g transform="translate(34, 0)" clip-path="url(#clip_0)"><clipPath id="clip_0"><rect width="296" height="178"></rect></clipPath><g><g><g><line x1="0" y1="0" x2="0" y2="178" fill="rgb(0, 0, 0)" stroke="rgb(60, 60, 60)" stroke-width="1px" opacity="0.25"></line><line x1="29.6" y1="0" x2="29.6" y2="178" fill="rgb(0, 0, 0)" stroke="rgb(60, 60, 60)" stroke-width="1px" opacity="0.25"></line><line x1="59.2" y1="0" x2="59.2" y2="178" fill="rgb(0, 0, 0)" stroke="rgb(60, 60, 60)" stroke-width="1px" opacity="0.25"></line><line x1="88.8" y1="0" x2="88.8" y2="178" fill="rgb(0, 0, 0)" stroke="rgb(60, 60, 60)" stroke-width="1px" opacity="0.25"></line><line x1="118.4" y1="0" x2="118.4" y2="178" fill="rgb(0, 0, 0)" stroke="rgb(60, 60, 60)" stroke-width="1px" opacity="0.25"></line><line x1="148" y1="0" x2="148" y2="178" fill="rgb(0, 0, 0)" stroke="rgb(60, 60, 60)" stroke-width="1px" opacity="0.25"></line><line x1="177.6" y1="0" x2="177.6" y2="178" fill="rgb(0, 0, 0)" stroke="rgb(60, 60, 60)" stroke-width="1px" opacity="0.25"></line><line x1="207.2" y1="0" x2="207.2" y2="178" fill="rgb(0, 0, 0)" stroke="rgb(60, 60, 60)" stroke-width="1px" opacity="0.25"></line><line x1="236.8" y1="0" x2="236.8" y2="178" fill="rgb(0, 0, 0)" stroke="rgb(60, 60, 60)" stroke-width="1px" opacity="0.25"></line><line x1="266.40000000000003" y1="0" x2="266.40000000000003" y2="178" fill="rgb(0, 0, 0)" stroke="rgb(60, 60, 60)" stroke-width="1px" opacity="0.25"></line><line x1="296" y1="0" x2="296" y2="178" fill="rgb(0, 0, 0)" stroke="rgb(60, 60, 60)" stroke-width="1px" opacity="0.25"></line></g><g><line x1="0" y1="178" x2="296" y2="178" fill="rgb(0, 0, 0)" stroke="rgb(60, 60, 60)" stroke-width="1px" opacity="0.25"></line><line x1="0" y1="155.75" x2="296" y2="155.75" fill="rgb(0, 0, 0)" stroke="rgb(60, 60, 60)" stroke-width="1px" opacity="0.25"></line><line x1="0" y1="133.5" x2="296" y2="133.5" fill="rgb(0, 0, 0)" stroke="rgb(60, 60, 60)" stroke-width="1px" opacity="0.25"></line><line x1="0" y1="111.25" x2="296" y2="111.25" fill="rgb(0, 0, 0)" stroke="rgb(60, 60, 60)" stroke-width="1px" opacity="0.25"></line><line x1="0" y1="89" x2="296" y2="89" fill="rgb(0, 0, 0)" stroke="rgb(60, 60, 60)" stroke-width="1px" opacity="0.25"></line><line x1="0" y1="66.75" x2="296" y2="66.75" fill="rgb(0, 0, 0)" stroke="rgb(60, 60, 60)" stroke-width="1px" opacity="0.25"></line><line x1="0" y1="44.5" x2="296" y2="44.5" fill="rgb(0, 0, 0)" stroke="rgb(60, 60, 60)" stroke-width="1px" opacity="0.25"></line><line x1="0" y1="22.25" x2="296" y2="22.25" fill="rgb(0, 0, 0)" stroke="rgb(60, 60, 60)" stroke-width="1px" opacity="0.25"></line><line x1="0" y1="0" x2="296" y2="0" fill="rgb(0, 0, 0)" stroke="rgb(60, 60, 60)" stroke-width="1px" opacity="0.25"></line></g></g></g><g><g><line x1="0" y1="289.25" x2="296" y2="289.25" fill="rgb(0, 0, 0)" stroke="rgb(153, 153, 153)" stroke-width="1.5px"></line></g></g><g><g><line x1="29.6" y1="0" x2="29.6" y2="178" fill="rgb(0, 0, 0)" stroke="rgb(153, 153, 153)" stroke-width="1.5px"></line></g></g><g><g><g><g><g><path stroke="rgb(51, 187, 238)" stroke-width="2px" d="M35.725424,226.52229354614852L36.936656,150.15015776047258L38.147296,115.82933116489767L39.358528,100.38824779203463L40.570352,91.29127211987736L41.778624,81.41504550626298L42.989856,75.52766807174977L44.200495999999994,67.54923352766538L45.40936,58.31748280946296L46.619408,61.69313498728974L47.83123200000001,54.81264588971362L49.042464,59.58893497747482L50.252512,75.80610601179744L51.462559999999996,94.43555561317272L52.671423999999995,78.91038732665257L53.881472,74.04605454827814L55.093296,93.37805681414638L56.30512,122.77722104529659L57.513984,104.81619078349364L58.724032,98.48968449269685L59.934672,85.79377460078058L61.146496000000006,91.52627453906581L62.357728,103.86577735280176L63.567184,89.01945729464168L64.775456,89.01167437391737L65.98432,93.45700560709722L67.193184,73.87420076670982L68.404416,66.57451987906904L69.612688,75.54471235578575L70.821552,80.9268275676754L72.03278399999999,84.15609659611864L73.24224,81.64365793175685L74.451104,84.58619477726444L75.66352,81.90171685639068L76.875344,75.84103010033171L78.08479999999999,67.7546180493895L79.29603200000001,62.90277082574228L80.504304,55.541662491902954L81.715536,46.67499749258161L82.926176,68.05499849925292L84.138,76.43299910042262L85.349232,90.35979946112218L86.558688,89.81587967665294L87.76696,89.48952780598445L88.97641599999999,80.39371668346814L90.18528,88.28623001014468L91.397696,79.67173800604499L92.608336,70.05304280359904L93.817792,55.38182568213378L95.02902399999999,104.4290954093317L96.239072,116.05745724560632L97.44852800000001,109.68447434736139L98.660352,92.51068460841299L99.870992,91.10641076504757L101.07926400000001,90.26384645902849L102.288128,89.75830787541705L103.49640000000001,76.10498472524984L104.708816,76.81299083514992L105.91767999999999,72.78779450108988L107.127728,79.27267670065396L108.337776,78.71360602039239L109.54841599999999,96.17816361223545L110.757872,88.85689816734127L111.968512,71.11413890040477L113.177376,60.46848334024283L114.3892,58.53109000414567L115.601616,52.9186540024874L116.812848,67.35119240149243L118.02171200000001,67.11071544089546L119.229984,62.51642926453731L120.44239999999999,68.6598575587224L121.65304,63.44591453523344L122.86368,69.21754872114005L124.07313599999999,68.23052923268403L125.28200000000001,72.08831753961043L126.492048,83.30299052376623L127.70327999999999,98.93179431425978L128.912736,121.65907658855585L130.122784,148.64544595313353L131.33223999999998,138.1372675718801L132.543472,114.03236054312808L133.75233599999999,81.76941632587686L134.960608,71.31164979552611L136.170656,47.23698987731564L137.37951999999999,55.04219392638939L138.589568,55.275316355833624L139.800208,55.41518981350019L141.012624,51.04911388810011L142.22267200000002,43.97946833286008L143.430944,53.087680999716056L144.641584,36.302608599829625L145.850448,35.13156515989775L147.06168,47.778939095938654L148.27232,50.9173634575632L149.484736,43.900418074537924L150.69537599999998,53.04025084472275L151.906016,58.52415050683368L153.116064,61.81449030410019L154.324336,50.438694182460125L155.536752,30.26321650947608L156.74739200000002,49.307929905685626L157.95803199999997,60.73475794341138L159.167488,63.1408547660468L160.378128,60.13451285962809L161.588768,58.33070771577688L162.8,70.59842462946612L164.012416,95.75905477767965L165.22305599999999,79.7054328666078L166.432512,87.87325971996468L167.644336,66.0739558319788L168.85320000000002,52.994373499187276L170.063248,62.94662409951236L171.275664,77.81797445970744L172.48512,68.94078467582447L173.695168,59.16447080549469L174.90758399999999,53.2986824832968L176.11881599999998,58.67920948997809L177.33004799999998,66.35752569398684L178.540688,57.61451541639207L179.751328,56.81870924983525L180.960192,56.34122554990114L182.16905599999998,51.604735329940695L183.377328,79.91284119796443L184.587376,96.89770471877863L185.79801600000002,102.63862283126718L187.008064,101.6331736987603L188.218704,78.77990421925615L189.429936,69.5179425315537L190.64175999999998,59.51076551893219L191.8524,49.056459311359305L193.062448,56.13387558681558L194.271904,60.38032535208936L195.48432,36.22819521125359L196.693776,39.536917126752115L197.90264000000002,37.072150276051275L199.111504,44.493290165630754L200.322144,48.945974099378475L201.532784,56.067584459627085L202.741056,46.99055067577626L203.949328,54.89433040546574L205.161152,64.08659824327944L206.372976,60.70195894596766L207.583024,49.77117536758058L208.79248,52.11270522054838L210.001344,57.96762313232905L211.211392,70.38057387939745L212.419664,68.92834432763847L213.630896,54.70700659658307L214.843312,50.624203957949845L216.051584,52.62452237476988L217.262816,62.72471342486192L218.47168,73.23482805491714L219.68172800000002,66.19089683295026L220.890592,61.96453809977015L222.098864,63.878722859862094L223.309504,56.12723371591724L224.521328,42.57634022955034L225.731376,56.69580413773019L226.939648,51.81748248263814L228.149696,53.340489489582865L229.36151999999998,36.45429369374972L230.569792,39.672576216249865L231.781024,37.153545729749936L232.989888,40.09212743784994L234.202304,46.30527646270994L235.413536,50.033165877625976L236.62299199999998,61.16989952657559L237.832448,50.05193971594535L239.04072,61.18116382956721L240.250768,63.4086982977403L241.460816,109.2452189786442L242.669088,118.94713138718653L243.88091200000002,98.06827883231192L245.09036799999998,63.29096729938718L246.30041599999998,73.57458037963231L247.511056,70.84474822777939L248.72288,73.65684893666764L249.934112,61.99410936200057L251.145344,59.44646561720032L252.355392,44.567879370320185L253.566032,35.64072762219209L254.778448,43.63443657331524L255.98672000000002,52.88066194398917L257.194992,49.52839716639349L258.406224,43.0670382998361L259.618048,39.19022297990165L260.82632,36.86413378794097L262.037552,39.91848027276458L263.247008,46.20108816365877L264.458832,32.17065289819524L265.668288,46.00239173891714" style="fill: none;" fill="none"></path></g><g><path stroke="rgb(255, 112, 67)" stroke-width="2px" d="M49.06318400000001,217.95688624558056L49.06792,166.33367765145402L49.065552,148.74193521772756L49.066736,142.64344067829998L53.909296000000005,121.18243177508953L53.914032,86.05589161515718L53.912848,69.43252200787607L53.914032,72.80963667738868L58.754816000000005,61.48553359014278L58.762512,68.04140644360116L58.761328,63.07480464340526L58.760736,68.99491083776383L63.600928,63.64693129819841L63.610992,51.5381381235304L63.609808,48.72287999272862L63.608032,42.58372422561706L68.446448,47.80023645742824L68.457696,46.48014158261839L68.456512,50.13808543477663L68.457104,47.88285108137953L73.29611200000001,33.17970994672379L73.303808,28.807825842774662L73.302624,39.53469569006725L73.303216,32.62081734272769L78.144592,24.022490352424512L78.149328,41.113494274916945L78.151696,46.918096577882324L78.15051199999999,37.05085793353933L82.991888,44.48051476608259L82.996624,44.4883088596533L82.999584,48.94298531707824L82.99839999999999,51.61579119070994L87.83800000000001,53.219474714592664L87.84392,36.38168482770547L87.848656,44.07901089691131L87.84510399999999,48.697406538250505L92.68529600000001,51.46844392298763L92.693584,39.78106635369804L92.69536,46.1186398122496L92.69299199999999,49.9211838873608L97.533184,52.202710332420494L97.539104,53.57162619945373L97.545024,32.14297571965878L97.54088,45.98578543180051L102.38048,54.2914712590822L102.388768,59.274882755449994L102.391136,66.71492965327059L102.3864,62.278957791962114L107.22718400000001,55.167374675177044L107.237248,37.55042480510593L107.239616,40.33025488306362L107.233696,41.99815292983811L112.075664,51.89889175790293L112.083952,44.48933505474176L112.08928,35.593601032845015L112.079808,43.606160619707026L116.92118400000001,39.51369637182421L116.930656,50.40821782309453L116.936576,43.59493069385675L116.927696,52.856958416314015L121.766704,40.6141750497884L121.78032,42.168505029873046L121.78564800000001,43.10110301792383L121.77617599999999,39.21066181075429L126.61577600000001,27.97639708645258L126.627024,39.035838251871525L126.63471999999999,36.771502951122926L126.624656,30.96290177067371L131.46188800000002,27.47774106240425L131.472544,38.73664463744254L131.484384,32.14198678246552L131.47432,28.185192069479314L136.311552,39.16111524168758L136.321616,45.74666914501253L136.33049599999998,54.148001487007534L136.3228,50.28880089220452L141.158256,43.523280535322726L141.167728,57.263968321193616L141.176608,52.15838099271613L141.171872,49.095028595629685L146.006144,33.90701715737782L146.016208,38.14421029442667L146.02272,36.236526176656014L146.017392,39.541915705993574L150.85284800000002,41.52514942359613L150.861728,47.1650896541577L150.87001600000002,50.54905379249462L150.864688,52.57943227549677L155.701328,58.24765936529806L155.7108,66.09859561917885L155.719088,61.909157371507305L155.713168,63.84549442290435L160.548032,65.00729665374261L160.559872,52.35437799224559L160.56579200000002,58.11262679534735L160.55868800000002,70.4675760772084L165.393552,46.73054564632503L165.406576,54.738327387795024L165.411312,59.54299643267703L165.4048,66.87579785960622L170.242624,57.92547871576372L170.253872,52.555287229458244L170.260976,44.88317233767492L170.25328000000002,58.079903402604955L174.860816,48.19794204156298L175.10353600000002,37.81876522493778L175.107088,53.841259134962684L175.100576,59.00475548097761L179.70752,71.00285328858655L179.95024,64.85171197315191L179.955568,65.61102718389114L179.94787200000002,79.41661631033467L184.555408,60.99996978620079L184.79576,63.29998187172046L184.80168,64.6799891230323L184.79635199999998,69.95799347381936L189.405072,59.77479608429162L189.64246400000002,58.114877650574954L189.65016,52.66892659034497L189.643648,58.30135595420698L194.254144,48.33081357252419L194.488576,46.798488143514504L194.496272,50.32909288610871L194.49153600000002,52.447455731665244L199.10144,58.16847343899913L199.10795199999998,61.60108406339948L199.11032,68.11065043803971L199.344752,45.31639026282383L203.950512,40.53983415769426L203.954656,28.773900494616555L203.956432,43.96434029676996L204.193824,48.62860417806198L208.797808,64.77716250683719L208.803728,70.01629750410231L208.80432000000002,59.809778502461384L209.042896,58.13586710147682L213.64687999999998,57.13152026088608L213.649248,60.97891215653165L213.64984,63.28734729391901L213.888416,55.77240837635142L218.494176,37.91344502581086L218.495952,44.99806701548653L218.49832,53.69884020929196L218.737488,58.919304125575195L223.34147199999998,53.15158247534511L223.34147199999998,63.04094948520705L223.35864,55.62456969112421L223.347392,51.17474181467453L228.18936,48.5048450888047L228.191136,51.352907053282834L228.20830400000003,53.06174423196968L228.19528,54.0870465391818L233.03784000000002,45.802227923509065L233.03784000000002,45.28133675410544L233.054416,49.41880205246329L233.044944,47.451281231477935L237.883952,50.72076873888676L237.88632,43.78246124333205L237.90408000000002,44.069476745999225L237.89224000000002,48.691686047599546L242.729472,33.66501162855971L242.733616,46.899006977135826L242.75196799999998,50.389404186281524L242.738352,61.383642511768926L247.576176,59.080185507061344L247.581504,57.698111304236804L247.599856,65.76886678254208L247.58683200000002,66.16132006952527L252.42584000000002,66.39679204171519L252.431168,62.088075225029115L252.447744,59.50284513501745L252.434128,66.85170708101047L257.271952,62.36102424860627L257.279648,59.66661454916374L257.297408,66.94996872949825L257.279648,66.86998123769898L262.11984,57.92198874261938L262.128128,61.453193245571626L262.144112,59.121915947342984L262.129312,66.62314956840578" style="fill: none;" fill="none"></path></g></g></g></g><g opacity="0.2"><g><g><g><path stroke="rgb(51, 187, 238)" stroke-width="2px" d="M34.51656,289.25L35.725424,144.625L36.936656,44.5L38.147296,66.75L39.358528,77.875L40.570352,77.875L41.778624,66.75L42.989856,66.75L44.200495999999994,55.625L45.40936,44.5L46.619408,66.75L47.83123200000001,44.5L49.042464,66.75L50.252512,100.125L51.462559999999996,122.375L52.671423999999995,55.625L53.881472,66.75L55.093296,122.375L56.30512,166.875L57.513984,77.875L58.724032,89L59.934672,66.75L61.146496000000006,100.125L62.357728,122.375L63.567184,66.75L64.775456,89L65.98432,100.125L67.193184,44.5L68.404416,55.625L69.612688,89L70.821552,89L72.03278399999999,89L73.24224,77.875L74.451104,89L75.66352,77.875L76.875344,66.75L78.08479999999999,55.625L79.29603200000001,55.625L80.504304,44.5L81.715536,33.375L82.926176,100.125L84.138,89L85.349232,111.25L86.558688,89L87.76696,89L88.97641599999999,66.75L90.18528,100.125L91.397696,66.75L92.608336,55.625L93.817792,33.375L95.02902399999999,178L96.239072,133.5L97.44852800000001,100.125L98.660352,66.75L99.870992,89L101.07926400000001,89L102.288128,89L103.49640000000001,55.625L104.708816,77.875L105.91767999999999,66.75L107.127728,89L108.337776,77.875L109.54841599999999,122.375L110.757872,77.875L111.968512,44.5L113.177376,44.5L114.3892,55.625L115.601616,44.5L116.812848,89L118.02171200000001,66.75L119.229984,55.625L120.44239999999999,77.875L121.65304,55.625L122.86368,77.875L124.07313599999999,66.75L125.28200000000001,77.875L126.492048,100.125L127.70327999999999,122.375L128.912736,155.75L130.122784,189.125L131.33223999999998,122.375L132.543472,77.875L133.75233599999999,33.375L134.960608,55.625L136.170656,11.125L137.37951999999999,66.75L138.589568,55.625L139.800208,55.625L141.012624,44.5L142.22267200000002,33.375L143.430944,66.75L144.641584,11.125L145.850448,33.375L147.06168,66.75L148.27232,55.625L149.484736,33.375L150.69537599999998,66.75L151.906016,66.75L153.116064,66.75L154.324336,33.375L155.536752,0L156.74739200000002,77.875L157.95803199999997,77.875L159.167488,66.75L160.378128,55.625L161.588768,55.625L162.8,89L164.012416,133.5L165.22305599999999,55.625L166.432512,100.125L167.644336,33.375L168.85320000000002,33.375L170.063248,77.875L171.275664,100.125L172.48512,55.625L173.695168,44.5L174.90758399999999,44.5L176.11881599999998,66.75L177.33004799999998,77.875L178.540688,44.5L179.751328,55.625L180.960192,55.625L182.16905599999998,44.5L183.377328,122.375L184.587376,122.375L185.79801600000002,111.25L187.008064,100.125L188.218704,44.5L189.429936,55.625L190.64175999999998,44.5L191.8524,33.375L193.062448,66.75L194.271904,66.75L195.48432,0L196.693776,44.5L197.90264000000002,33.375L199.111504,55.625L200.322144,55.625L201.532784,66.75L202.741056,33.375L203.949328,66.75L205.161152,77.875L206.372976,55.625L207.583024,33.375L208.79248,55.625L210.001344,66.75L211.211392,89L212.419664,66.75L213.630896,33.375L214.843312,44.5L216.051584,55.625L217.262816,77.875L218.47168,89L219.68172800000002,55.625L220.890592,55.625L222.098864,66.75L223.309504,44.5L224.521328,22.25L225.731376,77.875L226.939648,44.5L228.149696,55.625L229.36151999999998,11.125L230.569792,44.5L231.781024,33.375L232.989888,44.5L234.202304,55.625L235.413536,55.625L236.62299199999998,77.875L237.832448,33.375L239.04072,77.875L240.250768,66.75L241.460816,178L242.669088,133.5L243.88091200000002,66.75L245.09036799999998,11.125L246.30041599999998,89L247.511056,66.75L248.72288,77.875L249.934112,44.5L251.145344,55.625L252.355392,22.25L253.566032,22.25L254.778448,55.625L255.98672000000002,66.75L257.194992,44.5L258.406224,33.375L259.618048,33.375L260.82632,33.375L262.037552,44.5L263.247008,55.625L264.458832,11.125L265.668288,66.75" style="fill: none;" fill="none"></path></g><g><path stroke="rgb(255, 112, 67)" stroke-width="2px" d="M44.220031999999996,289.25L49.06318400000001,111.25L49.06792,89L49.065552,122.375L49.066736,133.5L53.909296000000005,89L53.914032,33.375L53.912848,44.5L53.914032,77.875L58.754816000000005,44.5L58.762512,77.875L58.761328,55.625L58.760736,77.875L63.600928,55.625L63.610992,33.375L63.609808,44.5L63.608032,33.375L68.446448,55.625L68.457696,44.5L68.456512,55.625L68.457104,44.5L73.29611200000001,11.125L73.303808,22.25L73.302624,55.625L73.303216,22.25L78.144592,11.125L78.149328,66.75L78.151696,55.625L78.15051199999999,22.25L82.991888,55.625L82.996624,44.5L82.999584,55.625L82.99839999999999,55.625L87.83800000000001,55.625L87.84392,11.125L87.848656,55.625L87.84510399999999,55.625L92.68529600000001,55.625L92.693584,22.25L92.69536,55.625L92.69299199999999,55.625L97.533184,55.625L97.539104,55.625L97.545024,0L97.54088,66.75L102.38048,66.75L102.388768,66.75L102.391136,77.875L102.3864,55.625L107.22718400000001,44.5L107.237248,11.125L107.239616,44.5L107.233696,44.5L112.075664,66.75L112.083952,33.375L112.08928,22.25L112.079808,55.625L116.92118400000001,33.375L116.930656,66.75L116.936576,33.375L116.927696,66.75L121.766704,22.25L121.78032,44.5L121.78564800000001,44.5L121.77617599999999,33.375L126.61577600000001,11.125L126.627024,55.625L126.63471999999999,33.375L126.624656,22.25L131.46188800000002,22.25L131.472544,55.625L131.484384,22.25L131.47432,22.25L136.311552,55.625L136.321616,55.625L136.33049599999998,66.75L136.3228,44.5L141.158256,33.375L141.167728,77.875L141.176608,44.5L141.171872,44.5L146.006144,11.125L146.016208,44.5L146.02272,33.375L146.017392,44.5L150.85284800000002,44.5L150.861728,55.625L150.87001600000002,55.625L150.864688,55.625L155.701328,66.75L155.7108,77.875L155.719088,55.625L155.713168,66.75L160.548032,66.75L160.559872,33.375L160.56579200000002,66.75L160.55868800000002,89L165.393552,11.125L165.406576,66.75L165.411312,66.75L165.4048,77.875L170.242624,44.5L170.253872,44.5L170.260976,33.375L170.25328000000002,77.875L174.860816,33.375L175.10353600000002,22.25L175.107088,77.875L175.100576,66.75L179.70752,89L179.95024,55.625L179.955568,66.75L179.94787200000002,100.125L184.555408,33.375L184.79576,66.75L184.80168,66.75L184.79635199999998,77.875L189.405072,44.5L189.64246400000002,55.625L189.65016,44.5L189.643648,66.75L194.254144,33.375L194.488576,44.5L194.496272,55.625L194.49153600000002,55.625L199.10144,66.75L199.10795199999998,66.75L199.11032,77.875L199.344752,11.125L203.950512,33.375L203.954656,11.125L203.956432,66.75L204.193824,55.625L208.797808,89L208.803728,77.875L208.80432000000002,44.5L209.042896,55.625L213.64687999999998,55.625L213.649248,66.75L213.64984,66.75L213.888416,44.5L218.494176,11.125L218.495952,55.625L218.49832,66.75L218.737488,66.75L223.34147199999998,44.5L223.34147199999998,77.875L223.35864,44.5L223.347392,44.5L228.18936,44.5L228.191136,55.625L228.20830400000003,55.625L228.19528,55.625L233.03784000000002,33.375L233.03784000000002,44.5L233.054416,55.625L233.044944,44.5L237.883952,55.625L237.88632,33.375L237.90408000000002,44.5L237.89224000000002,55.625L242.729472,11.125L242.733616,66.75L242.75196799999998,55.625L242.738352,77.875L247.576176,55.625L247.581504,55.625L247.599856,77.875L247.58683200000002,66.75L252.42584000000002,66.75L252.431168,55.625L252.447744,55.625L252.434128,77.875L257.271952,55.625L257.279648,55.625L257.297408,77.875L257.279648,66.75L262.11984,44.5L262.128128,66.75L262.144112,55.625L262.129312,77.875" style="fill: none;" fill="none"></path></g></g></g></g></g></g><g transform="translate(34, 178)" clip-path="url(#clip_1)"><clipPath id="clip_1"><rect width="296" height="22"></rect></clipPath><g><g><line x1="0" y1="0" x2="0" y2="5" style="visibility: inherit;" fill="rgb(0, 0, 0)" stroke="rgb(204, 204, 204)" stroke-width="1px"></line><line x1="29.6" y1="0" x2="29.6" y2="5" style="visibility: inherit;" fill="rgb(0, 0, 0)" stroke="rgb(204, 204, 204)" stroke-width="1px"></line><line x1="59.2" y1="0" x2="59.2" y2="5" style="visibility: inherit;" fill="rgb(0, 0, 0)" stroke="rgb(204, 204, 204)" stroke-width="1px"></line><line x1="88.8" y1="0" x2="88.8" y2="5" style="visibility: inherit;" fill="rgb(0, 0, 0)" stroke="rgb(204, 204, 204)" stroke-width="1px"></line><line x1="118.4" y1="0" x2="118.4" y2="5" style="visibility: inherit;" fill="rgb(0, 0, 0)" stroke="rgb(204, 204, 204)" stroke-width="1px"></line><line x1="148" y1="0" x2="148" y2="5" style="visibility: inherit;" fill="rgb(0, 0, 0)" stroke="rgb(204, 204, 204)" stroke-width="1px"></line><line x1="177.6" y1="0" x2="177.6" y2="5" style="visibility: inherit;" fill="rgb(0, 0, 0)" stroke="rgb(204, 204, 204)" stroke-width="1px"></line><line x1="207.2" y1="0" x2="207.2" y2="5" style="visibility: inherit;" fill="rgb(0, 0, 0)" stroke="rgb(204, 204, 204)" stroke-width="1px"></line><line x1="236.8" y1="0" x2="236.8" y2="5" style="visibility: inherit;" fill="rgb(0, 0, 0)" stroke="rgb(204, 204, 204)" stroke-width="1px"></line><line x1="266.40000000000003" y1="0" x2="266.40000000000003" y2="5" style="visibility: inherit;" fill="rgb(0, 0, 0)" stroke="rgb(204, 204, 204)" stroke-width="1px"></line><line x1="296" y1="0" x2="296" y2="5" style="visibility: inherit;" fill="rgb(0, 0, 0)" stroke="rgb(204, 204, 204)" stroke-width="1px"></line></g><g transform="translate(0, 8)"><text x="0" y="0" dx="0em" dy="0.95em" style="text-anchor: middle; visibility: hidden; font-family: &quot;Helvetica Neue&quot;, sans-serif; font-size: 12px; font-weight: 200;" fill="rgb(50, 49, 63)" stroke="none" stroke-width="1px">-50k</text><text x="29.6" y="0" dx="0em" dy="0.95em" style="text-anchor: middle; visibility: inherit; font-family: &quot;Helvetica Neue&quot;, sans-serif; font-size: 12px; font-weight: 200;" fill="rgb(50, 49, 63)" stroke="none" stroke-width="1px">0</text><text x="59.2" y="0" dx="0em" dy="0.95em" style="text-anchor: middle; visibility: hidden; font-family: &quot;Helvetica Neue&quot;, sans-serif; font-size: 12px; font-weight: 200;" fill="rgb(50, 49, 63)" stroke="none" stroke-width="1px">50k</text><text x="88.8" y="0" dx="0em" dy="0.95em" style="text-anchor: middle; visibility: inherit; font-family: &quot;Helvetica Neue&quot;, sans-serif; font-size: 12px; font-weight: 200;" fill="rgb(50, 49, 63)" stroke="none" stroke-width="1px">100k</text><text x="118.4" y="0" dx="0em" dy="0.95em" style="text-anchor: middle; visibility: hidden; font-family: &quot;Helvetica Neue&quot;, sans-serif; font-size: 12px; font-weight: 200;" fill="rgb(50, 49, 63)" stroke="none" stroke-width="1px">150k</text><text x="148" y="0" dx="0em" dy="0.95em" style="text-anchor: middle; visibility: inherit; font-family: &quot;Helvetica Neue&quot;, sans-serif; font-size: 12px; font-weight: 200;" fill="rgb(50, 49, 63)" stroke="none" stroke-width="1px">200k</text><text x="177.6" y="0" dx="0em" dy="0.95em" style="text-anchor: middle; visibility: hidden; font-family: &quot;Helvetica Neue&quot;, sans-serif; font-size: 12px; font-weight: 200;" fill="rgb(50, 49, 63)" stroke="none" stroke-width="1px">250k</text><text x="207.2" y="0" dx="0em" dy="0.95em" style="text-anchor: middle; visibility: inherit; font-family: &quot;Helvetica Neue&quot;, sans-serif; font-size: 12px; font-weight: 200;" fill="rgb(50, 49, 63)" stroke="none" stroke-width="1px">300k</text><text x="236.8" y="0" dx="0em" dy="0.95em" style="text-anchor: middle; visibility: hidden; font-family: &quot;Helvetica Neue&quot;, sans-serif; font-size: 12px; font-weight: 200;" fill="rgb(50, 49, 63)" stroke="none" stroke-width="1px">350k</text><text x="266.40000000000003" y="0" dx="0em" dy="0.95em" style="text-anchor: middle; visibility: inherit; font-family: &quot;Helvetica Neue&quot;, sans-serif; font-size: 12px; font-weight: 200;" fill="rgb(50, 49, 63)" stroke="none" stroke-width="1px">400k</text><text x="296" y="0" dx="0em" dy="0.95em" style="text-anchor: middle; visibility: hidden; font-family: &quot;Helvetica Neue&quot;, sans-serif; font-size: 12px; font-weight: 200;" fill="rgb(50, 49, 63)" stroke="none" stroke-width="1px">450k</text></g><line x1="0" y1="0" x2="296" y2="0" fill="rgb(0, 0, 0)" stroke="rgb(204, 204, 204)" stroke-width="1px"></line></g></g></g></g></svg>