<svg viewBox="0 0 330 200" xmlns="http://www.w3.org/2000/svg"><g><g><g><g><g><line x1="34" y1="178" x2="29" y2="178" style="visibility: inherit;" fill="rgb(0, 0, 0)" stroke="rgb(204, 204, 204)" stroke-width="1px"></line><line x1="34" y1="164.30769230769232" x2="29" y2="164.30769230769232" style="visibility: inherit;" fill="rgb(0, 0, 0)" stroke="rgb(204, 204, 204)" stroke-width="1px"></line><line x1="34" y1="150.6153846153846" x2="29" y2="150.6153846153846" style="visibility: inherit;" fill="rgb(0, 0, 0)" stroke="rgb(204, 204, 204)" stroke-width="1px"></line><line x1="34" y1="136.9230769230769" x2="29" y2="136.9230769230769" style="visibility: inherit;" fill="rgb(0, 0, 0)" stroke="rgb(204, 204, 204)" stroke-width="1px"></line><line x1="34" y1="123.23076923076923" x2="29" y2="123.23076923076923" style="visibility: inherit;" fill="rgb(0, 0, 0)" stroke="rgb(204, 204, 204)" stroke-width="1px"></line><line x1="34" y1="109.53846153846153" x2="29" y2="109.53846153846153" style="visibility: inherit;" fill="rgb(0, 0, 0)" stroke="rgb(204, 204, 204)" stroke-width="1px"></line><line x1="34" y1="95.84615384615384" x2="29" y2="95.84615384615384" style="visibility: inherit;" fill="rgb(0, 0, 0)" stroke="rgb(204, 204, 204)" stroke-width="1px"></line><line x1="34" y1="82.15384615384616" x2="29" y2="82.15384615384616" style="visibility: inherit;" fill="rgb(0, 0, 0)" stroke="rgb(204, 204, 204)" stroke-width="1px"></line><line x1="34" y1="68.46153846153845" x2="29" y2="68.46153846153845" style="visibility: inherit;" fill="rgb(0, 0, 0)" stroke="rgb(204, 204, 204)" stroke-width="1px"></line><line x1="34" y1="54.769230769230774" x2="29" y2="54.769230769230774" style="visibility: inherit;" fill="rgb(0, 0, 0)" stroke="rgb(204, 204, 204)" stroke-width="1px"></line><line x1="34" y1="41.076923076923066" x2="29" y2="41.076923076923066" style="visibility: inherit;" fill="rgb(0, 0, 0)" stroke="rgb(204, 204, 204)" stroke-width="1px"></line><line x1="34" y1="27.384615384615387" x2="29" y2="27.384615384615387" style="visibility: inherit;" fill="rgb(0, 0, 0)" stroke="rgb(204, 204, 204)" stroke-width="1px"></line><line x1="34" y1="13.69230769230768" x2="29" y2="13.69230769230768" style="visibility: inherit;" fill="rgb(0, 0, 0)" stroke="rgb(204, 204, 204)" stroke-width="1px"></line><line x1="34" y1="0" x2="29" y2="0" style="visibility: inherit;" fill="rgb(0, 0, 0)" stroke="rgb(204, 204, 204)" stroke-width="1px"></line></g><g transform="translate(24, 0)"><text x="0" y="178" dx="0em" dy="0.3em" style="text-anchor: end; visibility: hidden; font-family: &quot;Helvetica Neue&quot;, sans-serif; font-size: 12px; font-weight: 200;" fill="rgb(50, 49, 63)" stroke="none" stroke-width="1px">11</text><text x="0" y="164.30769230769232" dx="0em" dy="0.3em" style="text-anchor: end; visibility: inherit; font-family: &quot;Helvetica Neue&quot;, sans-serif; font-size: 12px; font-weight: 200;" fill="rgb(50, 49, 63)" stroke="none" stroke-width="1px">12</text><text x="0" y="150.6153846153846" dx="0em" dy="0.3em" style="text-anchor: end; visibility: hidden; font-family: &quot;Helvetica Neue&quot;, sans-serif; font-size: 12px; font-weight: 200;" fill="rgb(50, 49, 63)" stroke="none" stroke-width="1px">13</text><text x="0" y="136.9230769230769" dx="0em" dy="0.3em" style="text-anchor: end; visibility: inherit; font-family: &quot;Helvetica Neue&quot;, sans-serif; font-size: 12px; font-weight: 200;" fill="rgb(50, 49, 63)" stroke="none" stroke-width="1px">14</text><text x="0" y="123.23076923076923" dx="0em" dy="0.3em" style="text-anchor: end; visibility: hidden; font-family: &quot;Helvetica Neue&quot;, sans-serif; font-size: 12px; font-weight: 200;" fill="rgb(50, 49, 63)" stroke="none" stroke-width="1px">15</text><text x="0" y="109.53846153846153" dx="0em" dy="0.3em" style="text-anchor: end; visibility: inherit; font-family: &quot;Helvetica Neue&quot;, sans-serif; font-size: 12px; font-weight: 200;" fill="rgb(50, 49, 63)" stroke="none" stroke-width="1px">16</text><text x="0" y="95.84615384615384" dx="0em" dy="0.3em" style="text-anchor: end; visibility: hidden; font-family: &quot;Helvetica Neue&quot;, sans-serif; font-size: 12px; font-weight: 200;" fill="rgb(50, 49, 63)" stroke="none" stroke-width="1px">17</text><text x="0" y="82.15384615384616" dx="0em" dy="0.3em" style="text-anchor: end; visibility: inherit; font-family: &quot;Helvetica Neue&quot;, sans-serif; font-size: 12px; font-weight: 200;" fill="rgb(50, 49, 63)" stroke="none" stroke-width="1px">18</text><text x="0" y="68.46153846153845" dx="0em" dy="0.3em" style="text-anchor: end; visibility: hidden; font-family: &quot;Helvetica Neue&quot;, sans-serif; font-size: 12px; font-weight: 200;" fill="rgb(50, 49, 63)" stroke="none" stroke-width="1px">19</text><text x="0" y="54.769230769230774" dx="0em" dy="0.3em" style="text-anchor: end; visibility: inherit; font-family: &quot;Helvetica Neue&quot;, sans-serif; font-size: 12px; font-weight: 200;" fill="rgb(50, 49, 63)" stroke="none" stroke-width="1px">20</text><text x="0" y="41.076923076923066" dx="0em" dy="0.3em" style="text-anchor: end; visibility: hidden; font-family: &quot;Helvetica Neue&quot;, sans-serif; font-size: 12px; font-weight: 200;" fill="rgb(50, 49, 63)" stroke="none" stroke-width="1px">21</text><text x="0" y="27.384615384615387" dx="0em" dy="0.3em" style="text-anchor: end; visibility: inherit; font-family: &quot;Helvetica Neue&quot;, sans-serif; font-size: 12px; font-weight: 200;" fill="rgb(50, 49, 63)" stroke="none" stroke-width="1px">22</text><text x="0" y="13.69230769230768" dx="0em" dy="0.3em" style="text-anchor: end; visibility: hidden; font-family: &quot;Helvetica Neue&quot;, sans-serif; font-size: 12px; font-weight: 200;" fill="rgb(50, 49, 63)" stroke="none" stroke-width="1px">23</text><text x="0" y="0" dx="0em" dy="0.3em" style="text-anchor: end; visibility: hidden; font-family: &quot;Helvetica Neue&quot;, sans-serif; font-size: 12px; font-weight: 200;" fill="rgb(50, 49, 63)" stroke="none" stroke-width="1px">24</text></g><line x1="34" y1="0" x2="34" y2="178" fill="rgb(0, 0, 0)" stroke="rgb(204, 204, 204)" stroke-width="1px"></line></g></g><g transform="translate(34, 0)" clip-path="url(#clip_0)"><clipPath id="clip_0"><rect width="296" height="178"></rect></clipPath><g><g><g><line x1="0" y1="0" x2="0" y2="178" fill="rgb(0, 0, 0)" stroke="rgb(60, 60, 60)" stroke-width="1px" opacity="0.25"></line><line x1="42.285714285714285" y1="0" x2="42.285714285714285" y2="178" fill="rgb(0, 0, 0)" stroke="rgb(60, 60, 60)" stroke-width="1px" opacity="0.25"></line><line x1="84.57142857142857" y1="0" x2="84.57142857142857" y2="178" fill="rgb(0, 0, 0)" stroke="rgb(60, 60, 60)" stroke-width="1px" opacity="0.25"></line><line x1="126.85714285714285" y1="0" x2="126.85714285714285" y2="178" fill="rgb(0, 0, 0)" stroke="rgb(60, 60, 60)" stroke-width="1px" opacity="0.25"></line><line x1="169.14285714285714" y1="0" x2="169.14285714285714" y2="178" fill="rgb(0, 0, 0)" stroke="rgb(60, 60, 60)" stroke-width="1px" opacity="0.25"></line><line x1="211.42857142857144" y1="0" x2="211.42857142857144" y2="178" fill="rgb(0, 0, 0)" stroke="rgb(60, 60, 60)" stroke-width="1px" opacity="0.25"></line><line x1="253.7142857142857" y1="0" x2="253.7142857142857" y2="178" fill="rgb(0, 0, 0)" stroke="rgb(60, 60, 60)" stroke-width="1px" opacity="0.25"></line><line x1="296" y1="0" x2="296" y2="178" fill="rgb(0, 0, 0)" stroke="rgb(60, 60, 60)" stroke-width="1px" opacity="0.25"></line></g><g><line x1="0" y1="178" x2="296" y2="178" fill="rgb(0, 0, 0)" stroke="rgb(60, 60, 60)" stroke-width="1px" opacity="0.25"></line><line x1="0" y1="164.30769230769232" x2="296" y2="164.30769230769232" fill="rgb(0, 0, 0)" stroke="rgb(60, 60, 60)" stroke-width="1px" opacity="0.25"></line><line x1="0" y1="150.6153846153846" x2="296" y2="150.6153846153846" fill="rgb(0, 0, 0)" stroke="rgb(60, 60, 60)" stroke-width="1px" opacity="0.25"></line><line x1="0" y1="136.9230769230769" x2="296" y2="136.9230769230769" fill="rgb(0, 0, 0)" stroke="rgb(60, 60, 60)" stroke-width="1px" opacity="0.25"></line><line x1="0" y1="123.23076923076923" x2="296" y2="123.23076923076923" fill="rgb(0, 0, 0)" stroke="rgb(60, 60, 60)" stroke-width="1px" opacity="0.25"></line><line x1="0" y1="109.53846153846153" x2="296" y2="109.53846153846153" fill="rgb(0, 0, 0)" stroke="rgb(60, 60, 60)" stroke-width="1px" opacity="0.25"></line><line x1="0" y1="95.84615384615384" x2="296" y2="95.84615384615384" fill="rgb(0, 0, 0)" stroke="rgb(60, 60, 60)" stroke-width="1px" opacity="0.25"></line><line x1="0" y1="82.15384615384616" x2="296" y2="82.15384615384616" fill="rgb(0, 0, 0)" stroke="rgb(60, 60, 60)" stroke-width="1px" opacity="0.25"></line><line x1="0" y1="68.46153846153845" x2="296" y2="68.46153846153845" fill="rgb(0, 0, 0)" stroke="rgb(60, 60, 60)" stroke-width="1px" opacity="0.25"></line><line x1="0" y1="54.769230769230774" x2="296" y2="54.769230769230774" fill="rgb(0, 0, 0)" stroke="rgb(60, 60, 60)" stroke-width="1px" opacity="0.25"></line><line x1="0" y1="41.076923076923066" x2="296" y2="41.076923076923066" fill="rgb(0, 0, 0)" stroke="rgb(60, 60, 60)" stroke-width="1px" opacity="0.25"></line><line x1="0" y1="27.384615384615387" x2="296" y2="27.384615384615387" fill="rgb(0, 0, 0)" stroke="rgb(60, 60, 60)" stroke-width="1px" opacity="0.25"></line><line x1="0" y1="13.69230769230768" x2="296" y2="13.69230769230768" fill="rgb(0, 0, 0)" stroke="rgb(60, 60, 60)" stroke-width="1px" opacity="0.25"></line><line x1="0" y1="0" x2="296" y2="0" fill="rgb(0, 0, 0)" stroke="rgb(60, 60, 60)" stroke-width="1px" opacity="0.25"></line></g></g></g><g><g><line x1="0" y1="328.61538461538464" x2="296" y2="328.61538461538464" fill="rgb(0, 0, 0)" stroke="rgb(153, 153, 153)" stroke-width="1.5px"></line></g></g><g><g><line x1="42.285714285714285" y1="0" x2="42.285714285714285" y2="178" fill="rgb(0, 0, 0)" stroke="rgb(153, 153, 153)" stroke-width="1.5px"></line></g></g><g><g><g><g><g><path stroke="rgb(51, 187, 238)" stroke-width="2px" d="M51.036319999999996,251.4120535952597L52.76665142857143,157.4155787821201L54.496137142857144,115.1745614337202L56.22646857142857,96.17015112865802L57.95764571428571,84.9738733783106L59.68374857142857,72.81851754616982L61.41408,65.57251454984588L63.143565714285714,55.75290280328048L64.87051428571428,44.39074807318519L66.59915428571429,48.54539690743351L68.33033142857143,40.077102633493666L70.06066285714286,45.95561227996902L71.78930285714286,65.9152073991353L73.51794285714286,88.84376075467412L75.24489142857144,69.73586132511085L76.97353142857142,63.7489902132654L78.70470857142857,87.54222377125707L80.4358857142857,123.7258105172881L82.16283428571428,101.61992711814601L83.8914742857143,93.83345783716535L85.62096000000001,78.2077225855761L87.35213714285715,85.26310712500408L89.08246857142858,100.45018751114063L90.81026285714285,82.17779359340514L92.53636571428572,82.16821461405215L94.26331428571429,87.63939151642735L95.99026285714285,63.53747786671978L97.72059428571428,54.553255235777286L99.44669714285715,65.59349213019783L101.17364571428571,72.21763392944665L102.90397714285714,76.19211888753065L104.63177142857143,73.0998866852392L106.35871999999999,76.72147049509469L108.09074285714286,73.4174976694039L109.82192,65.95819089271595L111.54971428571427,56.005683753094786L113.2800457142857,50.03417947783666L115.00614857142857,40.97435383618824L116.73648,30.06153537548508L118.46596571428572,56.37538276831128L120.19714285714286,66.68676812359708L121.92747428571428,83.82744549061191L123.65526857142856,83.15800575588054L125.38137142857143,82.75634191505779L127.10916571428572,71.56149745657618L128.83611428571427,81.27536001248575L130.56813714285713,70.6729083151323L132.29762285714284,58.834514219814196L134.02541714285715,40.77763160878004L135.75574857142857,101.14350204225438L137.48438857142858,115.45533199459237L139.21218285714286,107.611660735214L140.94336,86.47468874881596L142.6728457142857,84.74635171082778L144.39894857142858,83.70934948803506L146.12589714285713,83.08714815435945L147.852,66.28305812338441L149.58402285714286,67.15445025864605L151.3109714285714,62.20036246287985L153.03961142857145,70.18175593926641L154.76825142857143,69.49366894817526L156.49773714285715,90.98850906121287L158.22553142857143,81.9777208213431L159.95501714285714,60.140478646652014L161.6819657142857,47.03813334183732L163.41314285714284,44.6536492358716L165.14516571428572,37.7460356953691L166.87549714285714,55.5091598787599L168.60244571428572,55.21318823494826L170.32854857142857,49.55868217173821L172.06057142857142,57.11982468765834L173.79005714285714,50.70266404336422L175.51954285714285,57.806213810633906L177.24733714285716,56.59142059407266L178.9742857142857,61.339467741058996L180.7029257142857,75.1421421830969L182.43325714285714,94.37759300216587L184.16105142857143,122.34963272437645L185.88969142857144,155.56362578847202L187.61748571428572,142.6304831653909L189.34781714285714,112.96290528384995L191.07476571428572,73.25466624723305L192.80086857142857,60.38356897910906L194.52950857142858,30.753218310542337L196.25645714285713,40.35962329401772L197.98509714285717,40.64654320717986L199.71458285714283,40.818695155077165L201.4466057142857,35.44506324689246L203.1752457142857,26.743961025058553L204.90134857142857,37.95406892272746L206.6308342857143,17.29551827671338L208.35778285714284,15.854234042951077L210.08811428571428,31.420232733462967L211.8176,35.282908870847024L213.54962285714285,26.64666839943129L215.27910857142857,37.895693347351084L217.00859428571428,44.645108316103006L218.7372342857143,48.69475729735407L220.4633371428571,34.69377745533555L222.19536,9.86242031935518L223.9248457142857,33.30206757622847L225.65433142857142,47.36585593035247L227.38212571428573,50.32720586590375L229.11161142857145,46.627092750311476L230.84109714285717,44.40702488095616L232.57142857142856,59.50575339011215L234.30345142857144,90.47268280329804L236.03293714285715,70.71437891274806L237.76073142857143,80.76708888611037L239.49190857142858,53.93717640858928L241.21885714285716,37.83922892207664L242.94749714285715,50.088152737861364L244.67952,68.39135318117837L246.4073142857143,57.46558113947627L248.1359542857143,45.433194837531914L249.86797714285714,38.21376305636528L251.59830857142856,44.83595014151149L253.32864,54.28618546952228L255.05812571428572,43.52555743555948L256.78761142857144,42.54610369210491L258.51456,41.95843144603219L260.2415085714286,36.12890502146547L261.96761142857144,70.96965070518698L263.69625142857143,91.87409811541986L265.42573714285714,98.93984348463654L267.15437714285713,97.70236762924345L268.88386285714284,69.57526673139218L270.6141942857143,58.17592926960455L272.3453714285714,45.85940371560886L274.0748571428571,32.992565306288384" style="fill: none;" fill="none"></path></g></g></g></g><g opacity="0.2"><g><g><g><path stroke="rgb(51, 187, 238)" stroke-width="2px" d="M49.309371428571424,328.61538461538464L51.036319999999996,150.6153846153846L52.76665142857143,27.384615384615387L54.496137142857144,54.769230769230774L56.22646857142857,68.46153846153845L57.95764571428571,68.46153846153845L59.68374857142857,54.769230769230774L61.41408,54.769230769230774L63.143565714285714,41.076923076923066L64.87051428571428,27.384615384615387L66.59915428571429,54.769230769230774L68.33033142857143,27.384615384615387L70.06066285714286,54.769230769230774L71.78930285714286,95.84615384615384L73.51794285714286,123.23076923076923L75.24489142857144,41.076923076923066L76.97353142857142,54.769230769230774L78.70470857142857,123.23076923076923L80.4358857142857,178L82.16283428571428,68.46153846153845L83.8914742857143,82.15384615384616L85.62096000000001,54.769230769230774L87.35213714285715,95.84615384615384L89.08246857142858,123.23076923076923L90.81026285714285,54.769230769230774L92.53636571428572,82.15384615384616L94.26331428571429,95.84615384615384L95.99026285714285,27.384615384615387L97.72059428571428,41.076923076923066L99.44669714285715,82.15384615384616L101.17364571428571,82.15384615384616L102.90397714285714,82.15384615384616L104.63177142857143,68.46153846153845L106.35871999999999,82.15384615384616L108.09074285714286,68.46153846153845L109.82192,54.769230769230774L111.54971428571427,41.076923076923066L113.2800457142857,41.076923076923066L115.00614857142857,27.384615384615387L116.73648,13.69230769230768L118.46596571428572,95.84615384615384L120.19714285714286,82.15384615384616L121.92747428571428,109.53846153846153L123.65526857142856,82.15384615384616L125.38137142857143,82.15384615384616L127.10916571428572,54.769230769230774L128.83611428571427,95.84615384615384L130.56813714285713,54.769230769230774L132.29762285714284,41.076923076923066L134.02541714285715,13.69230769230768L135.75574857142857,191.69230769230768L137.48438857142858,136.9230769230769L139.21218285714286,95.84615384615384L140.94336,54.769230769230774L142.6728457142857,82.15384615384616L144.39894857142858,82.15384615384616L146.12589714285713,82.15384615384616L147.852,41.076923076923066L149.58402285714286,68.46153846153845L151.3109714285714,54.769230769230774L153.03961142857145,82.15384615384616L154.76825142857143,68.46153846153845L156.49773714285715,123.23076923076923L158.22553142857143,68.46153846153845L159.95501714285714,27.384615384615387L161.6819657142857,27.384615384615387L163.41314285714284,41.076923076923066L165.14516571428572,27.384615384615387L166.87549714285714,82.15384615384616L168.60244571428572,54.769230769230774L170.32854857142857,41.076923076923066L172.06057142857142,68.46153846153845L173.79005714285714,41.076923076923066L175.51954285714285,68.46153846153845L177.24733714285716,54.769230769230774L178.9742857142857,68.46153846153845L180.7029257142857,95.84615384615384L182.43325714285714,123.23076923076923L184.16105142857143,164.30769230769232L185.88969142857144,205.3846153846154L187.61748571428572,123.23076923076923L189.34781714285714,68.46153846153845L191.07476571428572,13.69230769230768L192.80086857142857,41.076923076923066L194.52950857142858,-13.69230769230768L196.25645714285713,54.769230769230774L197.98509714285717,41.076923076923066L199.71458285714283,41.076923076923066L201.4466057142857,27.384615384615387L203.1752457142857,13.69230769230768L204.90134857142857,54.769230769230774L206.6308342857143,-13.69230769230768L208.35778285714284,13.69230769230768L210.08811428571428,54.769230769230774L211.8176,41.076923076923066L213.54962285714285,13.69230769230768L215.27910857142857,54.769230769230774L217.00859428571428,54.769230769230774L218.7372342857143,54.769230769230774L220.4633371428571,13.69230769230768L222.19536,-27.38461538461536L223.9248457142857,68.46153846153845L225.65433142857142,68.46153846153845L227.38212571428573,54.769230769230774L229.11161142857145,41.076923076923066L230.84109714285717,41.076923076923066L232.57142857142856,82.15384615384616L234.30345142857144,136.9230769230769L236.03293714285715,41.076923076923066L237.76073142857143,95.84615384615384L239.49190857142858,13.69230769230768L241.21885714285716,13.69230769230768L242.94749714285715,68.46153846153845L244.67952,95.84615384615384L246.4073142857143,41.076923076923066L248.1359542857143,27.384615384615387L249.86797714285714,27.384615384615387L251.59830857142856,54.769230769230774L253.32864,68.46153846153845L255.05812571428572,27.384615384615387L256.78761142857144,41.076923076923066L258.51456,41.076923076923066L260.2415085714286,27.384615384615387L261.96761142857144,123.23076923076923L263.69625142857143,123.23076923076923L265.42573714285714,109.53846153846153L267.15437714285713,95.84615384615384L268.88386285714284,27.384615384615387L270.6141942857143,41.076923076923066L272.3453714285714,27.384615384615387L274.0748571428571,13.69230769230768" style="fill: none;" fill="none"></path></g></g></g></g></g></g><g transform="translate(34, 178)" clip-path="url(#clip_1)"><clipPath id="clip_1"><rect width="296" height="22"></rect></clipPath><g><g><line x1="0" y1="0" x2="0" y2="5" style="visibility: inherit;" fill="rgb(0, 0, 0)" stroke="rgb(204, 204, 204)" stroke-width="1px"></line><line x1="42.285714285714285" y1="0" x2="42.285714285714285" y2="5" style="visibility: inherit;" fill="rgb(0, 0, 0)" stroke="rgb(204, 204, 204)" stroke-width="1px"></line><line x1="84.57142857142857" y1="0" x2="84.57142857142857" y2="5" style="visibility: inherit;" fill="rgb(0, 0, 0)" stroke="rgb(204, 204, 204)" stroke-width="1px"></line><line x1="126.85714285714285" y1="0" x2="126.85714285714285" y2="5" style="visibility: inherit;" fill="rgb(0, 0, 0)" stroke="rgb(204, 204, 204)" stroke-width="1px"></line><line x1="169.14285714285714" y1="0" x2="169.14285714285714" y2="5" style="visibility: inherit;" fill="rgb(0, 0, 0)" stroke="rgb(204, 204, 204)" stroke-width="1px"></line><line x1="211.42857142857144" y1="0" x2="211.42857142857144" y2="5" style="visibility: inherit;" fill="rgb(0, 0, 0)" stroke="rgb(204, 204, 204)" stroke-width="1px"></line><line x1="253.7142857142857" y1="0" x2="253.7142857142857" y2="5" style="visibility: inherit;" fill="rgb(0, 0, 0)" stroke="rgb(204, 204, 204)" stroke-width="1px"></line><line x1="296" y1="0" x2="296" y2="5" style="visibility: inherit;" fill="rgb(0, 0, 0)" stroke="rgb(204, 204, 204)" stroke-width="1px"></line></g><g transform="translate(0, 8)"><text x="0" y="0" dx="0em" dy="0.95em" style="text-anchor: middle; visibility: hidden; font-family: &quot;Helvetica Neue&quot;, sans-serif; font-size: 12px; font-weight: 200;" fill="rgb(50, 49, 63)" stroke="none" stroke-width="1px">-50k</text><text x="42.285714285714285" y="0" dx="0em" dy="0.95em" style="text-anchor: middle; visibility: inherit; font-family: &quot;Helvetica Neue&quot;, sans-serif; font-size: 12px; font-weight: 200;" fill="rgb(50, 49, 63)" stroke="none" stroke-width="1px">0</text><text x="84.57142857142857" y="0" dx="0em" dy="0.95em" style="text-anchor: middle; visibility: inherit; font-family: &quot;Helvetica Neue&quot;, sans-serif; font-size: 12px; font-weight: 200;" fill="rgb(50, 49, 63)" stroke="none" stroke-width="1px">50k</text><text x="126.85714285714285" y="0" dx="0em" dy="0.95em" style="text-anchor: middle; visibility: inherit; font-family: &quot;Helvetica Neue&quot;, sans-serif; font-size: 12px; font-weight: 200;" fill="rgb(50, 49, 63)" stroke="none" stroke-width="1px">100k</text><text x="169.14285714285714" y="0" dx="0em" dy="0.95em" style="text-anchor: middle; visibility: inherit; font-family: &quot;Helvetica Neue&quot;, sans-serif; font-size: 12px; font-weight: 200;" fill="rgb(50, 49, 63)" stroke="none" stroke-width="1px">150k</text><text x="211.42857142857144" y="0" dx="0em" dy="0.95em" style="text-anchor: middle; visibility: inherit; font-family: &quot;Helvetica Neue&quot;, sans-serif; font-size: 12px; font-weight: 200;" fill="rgb(50, 49, 63)" stroke="none" stroke-width="1px">200k</text><text x="253.7142857142857" y="0" dx="0em" dy="0.95em" style="text-anchor: middle; visibility: inherit; font-family: &quot;Helvetica Neue&quot;, sans-serif; font-size: 12px; font-weight: 200;" fill="rgb(50, 49, 63)" stroke="none" stroke-width="1px">250k</text><text x="296" y="0" dx="0em" dy="0.95em" style="text-anchor: middle; visibility: hidden; font-family: &quot;Helvetica Neue&quot;, sans-serif; font-size: 12px; font-weight: 200;" fill="rgb(50, 49, 63)" stroke="none" stroke-width="1px">300k</text></g><line x1="0" y1="0" x2="296" y2="0" fill="rgb(0, 0, 0)" stroke="rgb(204, 204, 204)" stroke-width="1px"></line></g></g></g></g></svg>