<svg viewBox="0 0 330 200" xmlns="http://www.w3.org/2000/svg"><g><g><g><g><g><line x1="34" y1="178" x2="29" y2="178" style="visibility: inherit;" fill="rgb(0, 0, 0)" stroke="rgb(204, 204, 204)" stroke-width="1px"></line><line x1="34" y1="161.8181818181818" x2="29" y2="161.8181818181818" style="visibility: inherit;" fill="rgb(0, 0, 0)" stroke="rgb(204, 204, 204)" stroke-width="1px"></line><line x1="34" y1="145.63636363636363" x2="29" y2="145.63636363636363" style="visibility: inherit;" fill="rgb(0, 0, 0)" stroke="rgb(204, 204, 204)" stroke-width="1px"></line><line x1="34" y1="129.45454545454547" x2="29" y2="129.45454545454547" style="visibility: inherit;" fill="rgb(0, 0, 0)" stroke="rgb(204, 204, 204)" stroke-width="1px"></line><line x1="34" y1="113.27272727272727" x2="29" y2="113.27272727272727" style="visibility: inherit;" fill="rgb(0, 0, 0)" stroke="rgb(204, 204, 204)" stroke-width="1px"></line><line x1="34" y1="97.0909090909091" x2="29" y2="97.0909090909091" style="visibility: inherit;" fill="rgb(0, 0, 0)" stroke="rgb(204, 204, 204)" stroke-width="1px"></line><line x1="34" y1="80.90909090909092" x2="29" y2="80.90909090909092" style="visibility: inherit;" fill="rgb(0, 0, 0)" stroke="rgb(204, 204, 204)" stroke-width="1px"></line><line x1="34" y1="64.72727272727273" x2="29" y2="64.72727272727273" style="visibility: inherit;" fill="rgb(0, 0, 0)" stroke="rgb(204, 204, 204)" stroke-width="1px"></line><line x1="34" y1="48.54545454545453" x2="29" y2="48.54545454545453" style="visibility: inherit;" fill="rgb(0, 0, 0)" stroke="rgb(204, 204, 204)" stroke-width="1px"></line><line x1="34" y1="32.363636363636346" x2="29" y2="32.363636363636346" style="visibility: inherit;" fill="rgb(0, 0, 0)" stroke="rgb(204, 204, 204)" stroke-width="1px"></line><line x1="34" y1="16.181818181818187" x2="29" y2="16.181818181818187" style="visibility: inherit;" fill="rgb(0, 0, 0)" stroke="rgb(204, 204, 204)" stroke-width="1px"></line><line x1="34" y1="0" x2="29" y2="0" style="visibility: inherit;" fill="rgb(0, 0, 0)" stroke="rgb(204, 204, 204)" stroke-width="1px"></line></g><g transform="translate(24, 0)"><text x="0" y="178" dx="0em" dy="0.3em" style="text-anchor: end; visibility: hidden; font-family: &quot;Helvetica Neue&quot;, sans-serif; font-size: 12px; font-weight: 200;" fill="rgb(50, 49, 63)" stroke="none" stroke-width="1px">14</text><text x="0" y="161.8181818181818" dx="0em" dy="0.3em" style="text-anchor: end; visibility: inherit; font-family: &quot;Helvetica Neue&quot;, sans-serif; font-size: 12px; font-weight: 200;" fill="rgb(50, 49, 63)" stroke="none" stroke-width="1px">15</text><text x="0" y="145.63636363636363" dx="0em" dy="0.3em" style="text-anchor: end; visibility: hidden; font-family: &quot;Helvetica Neue&quot;, sans-serif; font-size: 12px; font-weight: 200;" fill="rgb(50, 49, 63)" stroke="none" stroke-width="1px">16</text><text x="0" y="129.45454545454547" dx="0em" dy="0.3em" style="text-anchor: end; visibility: inherit; font-family: &quot;Helvetica Neue&quot;, sans-serif; font-size: 12px; font-weight: 200;" fill="rgb(50, 49, 63)" stroke="none" stroke-width="1px">17</text><text x="0" y="113.27272727272727" dx="0em" dy="0.3em" style="text-anchor: end; visibility: hidden; font-family: &quot;Helvetica Neue&quot;, sans-serif; font-size: 12px; font-weight: 200;" fill="rgb(50, 49, 63)" stroke="none" stroke-width="1px">18</text><text x="0" y="97.0909090909091" dx="0em" dy="0.3em" style="text-anchor: end; visibility: inherit; font-family: &quot;Helvetica Neue&quot;, sans-serif; font-size: 12px; font-weight: 200;" fill="rgb(50, 49, 63)" stroke="none" stroke-width="1px">19</text><text x="0" y="80.90909090909092" dx="0em" dy="0.3em" style="text-anchor: end; visibility: hidden; font-family: &quot;Helvetica Neue&quot;, sans-serif; font-size: 12px; font-weight: 200;" fill="rgb(50, 49, 63)" stroke="none" stroke-width="1px">20</text><text x="0" y="64.72727272727273" dx="0em" dy="0.3em" style="text-anchor: end; visibility: inherit; font-family: &quot;Helvetica Neue&quot;, sans-serif; font-size: 12px; font-weight: 200;" fill="rgb(50, 49, 63)" stroke="none" stroke-width="1px">21</text><text x="0" y="48.54545454545453" dx="0em" dy="0.3em" style="text-anchor: end; visibility: hidden; font-family: &quot;Helvetica Neue&quot;, sans-serif; font-size: 12px; font-weight: 200;" fill="rgb(50, 49, 63)" stroke="none" stroke-width="1px">22</text><text x="0" y="32.363636363636346" dx="0em" dy="0.3em" style="text-anchor: end; visibility: inherit; font-family: &quot;Helvetica Neue&quot;, sans-serif; font-size: 12px; font-weight: 200;" fill="rgb(50, 49, 63)" stroke="none" stroke-width="1px">23</text><text x="0" y="16.181818181818187" dx="0em" dy="0.3em" style="text-anchor: end; visibility: hidden; font-family: &quot;Helvetica Neue&quot;, sans-serif; font-size: 12px; font-weight: 200;" fill="rgb(50, 49, 63)" stroke="none" stroke-width="1px">24</text><text x="0" y="0" dx="0em" dy="0.3em" style="text-anchor: end; visibility: hidden; font-family: &quot;Helvetica Neue&quot;, sans-serif; font-size: 12px; font-weight: 200;" fill="rgb(50, 49, 63)" stroke="none" stroke-width="1px">25</text></g><line x1="34" y1="0" x2="34" y2="178" fill="rgb(0, 0, 0)" stroke="rgb(204, 204, 204)" stroke-width="1px"></line></g></g><g transform="translate(34, 0)" clip-path="url(#clip_0)"><clipPath id="clip_0"><rect width="296" height="178"></rect></clipPath><g><g><g><line x1="0" y1="0" x2="0" y2="178" fill="rgb(0, 0, 0)" stroke="rgb(60, 60, 60)" stroke-width="1px" opacity="0.25"></line><line x1="29.6" y1="0" x2="29.6" y2="178" fill="rgb(0, 0, 0)" stroke="rgb(60, 60, 60)" stroke-width="1px" opacity="0.25"></line><line x1="59.2" y1="0" x2="59.2" y2="178" fill="rgb(0, 0, 0)" stroke="rgb(60, 60, 60)" stroke-width="1px" opacity="0.25"></line><line x1="88.8" y1="0" x2="88.8" y2="178" fill="rgb(0, 0, 0)" stroke="rgb(60, 60, 60)" stroke-width="1px" opacity="0.25"></line><line x1="118.4" y1="0" x2="118.4" y2="178" fill="rgb(0, 0, 0)" stroke="rgb(60, 60, 60)" stroke-width="1px" opacity="0.25"></line><line x1="148" y1="0" x2="148" y2="178" fill="rgb(0, 0, 0)" stroke="rgb(60, 60, 60)" stroke-width="1px" opacity="0.25"></line><line x1="177.6" y1="0" x2="177.6" y2="178" fill="rgb(0, 0, 0)" stroke="rgb(60, 60, 60)" stroke-width="1px" opacity="0.25"></line><line x1="207.2" y1="0" x2="207.2" y2="178" fill="rgb(0, 0, 0)" stroke="rgb(60, 60, 60)" stroke-width="1px" opacity="0.25"></line><line x1="236.8" y1="0" x2="236.8" y2="178" fill="rgb(0, 0, 0)" stroke="rgb(60, 60, 60)" stroke-width="1px" opacity="0.25"></line><line x1="266.40000000000003" y1="0" x2="266.40000000000003" y2="178" fill="rgb(0, 0, 0)" stroke="rgb(60, 60, 60)" stroke-width="1px" opacity="0.25"></line><line x1="296" y1="0" x2="296" y2="178" fill="rgb(0, 0, 0)" stroke="rgb(60, 60, 60)" stroke-width="1px" opacity="0.25"></line></g><g><line x1="0" y1="178" x2="296" y2="178" fill="rgb(0, 0, 0)" stroke="rgb(60, 60, 60)" stroke-width="1px" opacity="0.25"></line><line x1="0" y1="161.8181818181818" x2="296" y2="161.8181818181818" fill="rgb(0, 0, 0)" stroke="rgb(60, 60, 60)" stroke-width="1px" opacity="0.25"></line><line x1="0" y1="145.63636363636363" x2="296" y2="145.63636363636363" fill="rgb(0, 0, 0)" stroke="rgb(60, 60, 60)" stroke-width="1px" opacity="0.25"></line><line x1="0" y1="129.45454545454547" x2="296" y2="129.45454545454547" fill="rgb(0, 0, 0)" stroke="rgb(60, 60, 60)" stroke-width="1px" opacity="0.25"></line><line x1="0" y1="113.27272727272727" x2="296" y2="113.27272727272727" fill="rgb(0, 0, 0)" stroke="rgb(60, 60, 60)" stroke-width="1px" opacity="0.25"></line><line x1="0" y1="97.0909090909091" x2="296" y2="97.0909090909091" fill="rgb(0, 0, 0)" stroke="rgb(60, 60, 60)" stroke-width="1px" opacity="0.25"></line><line x1="0" y1="80.90909090909092" x2="296" y2="80.90909090909092" fill="rgb(0, 0, 0)" stroke="rgb(60, 60, 60)" stroke-width="1px" opacity="0.25"></line><line x1="0" y1="64.72727272727273" x2="296" y2="64.72727272727273" fill="rgb(0, 0, 0)" stroke="rgb(60, 60, 60)" stroke-width="1px" opacity="0.25"></line><line x1="0" y1="48.54545454545453" x2="296" y2="48.54545454545453" fill="rgb(0, 0, 0)" stroke="rgb(60, 60, 60)" stroke-width="1px" opacity="0.25"></line><line x1="0" y1="32.363636363636346" x2="296" y2="32.363636363636346" fill="rgb(0, 0, 0)" stroke="rgb(60, 60, 60)" stroke-width="1px" opacity="0.25"></line><line x1="0" y1="16.181818181818187" x2="296" y2="16.181818181818187" fill="rgb(0, 0, 0)" stroke="rgb(60, 60, 60)" stroke-width="1px" opacity="0.25"></line><line x1="0" y1="0" x2="296" y2="0" fill="rgb(0, 0, 0)" stroke="rgb(60, 60, 60)" stroke-width="1px" opacity="0.25"></line></g></g></g><g><g><line x1="0" y1="404.5454545454545" x2="296" y2="404.5454545454545" fill="rgb(0, 0, 0)" stroke="rgb(153, 153, 153)" stroke-width="1.5px"></line></g></g><g><g><line x1="29.6" y1="0" x2="29.6" y2="178" fill="rgb(0, 0, 0)" stroke="rgb(153, 153, 153)" stroke-width="1.5px"></line></g></g><g><g><g><g><g><path stroke="rgb(238, 51, 119)" stroke-width="2px" d="M42.991040000000005,210.26632854870127L44.200495999999994,138.95001157561967L45.40936,102.74089714713953L46.621776000000004,68.0901117626918L47.83123200000001,47.31702713786845L49.04128,67.23219820772613L50.250736,40.334766087901414L51.459008,30.67260563687134L52.669056000000005,37.82218086663488L53.881472,48.58461110239145L55.090336,35.62320960053722L56.30216,14.900925737364076L57.513392,41.30440032227358L58.721664000000004,37.72807779283869L59.932303999999995,35.58229512063576L61.14176,40.76756773569093L62.350623999999996,43.87872564383653L63.559488,45.74541835080893L64.76835200000001,40.39270358369714L65.9784,37.1810759856657L67.189632,54.67228427514581L68.400864,65.16700776396331L69.612096,64.99111374088773L70.820368,71.35830479059653L72.030416,62.2331645356721L73.240464,37.33989846464357L74.44932800000001,41.82212092470684L75.659968,18.620545195944942L76.8712,30.59050896241689L78.081248,50.71794176799179L79.28952,62.79440143411743L80.501936,44.14936812422516L81.71376000000001,65.32598451701321L82.926176,65.08649980107552L84.135632,64.94280897153946L85.34567999999999,71.32932174695839L86.553952,68.68850213898524L87.762816,54.158555828519496L88.973456,58.38604258807773L90.18528,28.558898279878235L91.397104,43.02624805890622L92.605376,51.706657926278055L93.81542400000001,50.44217657394647L95.027248,36.738033217080755L96.23848,28.515547202970566L97.447936,55.94569195815629L98.65679999999999,46.51286972034623L99.865072,53.79863092311783L101.074528,51.69736037205233L102.286352,43.96387076868558L103.496992,19.905595188483346L104.708224,44.30699347672683L105.920048,52.475105176945235L107.12832,57.37597219707628L108.338368,47.37103786370028L109.550192,47.840804536401976L110.759056,61.068119085477576L111.967328,75.4772350876502L113.17855999999999,77.64997741622646L114.388608,72.48089554064492L115.600432,49.961264597114194L116.812848,55.86766784917759L118.02112000000001,52.93878252768829L119.231168,57.65417860752214L120.441216,54.01068898269507L121.652448,64.77004975325337L122.862496,58.28021167013382L124.07313599999999,54.38630882026213L125.28555200000001,64.99542165579363L126.496784,58.41543481165799L127.70683199999999,60.94016997790389L128.918064,49.50955653219688L130.12752,68.54209755568178L131.33816,79.96162216977272L132.547616,67.39515512004543L133.755888,53.38254761748182L134.968304,44.974983115943644L136.177168,46.40317168774803L137.389584,34.31463028537607L138.600224,40.00695998940739L139.80968000000001,49.89508508455356L141.021504,55.82796014164121L142.231552,65.86041244862106L143.442192,71.87988383280899L144.654016,49.60065757241267L145.865248,55.651303634356736L147.074704,65.75441854425037L148.28534399999998,71.81628749018664L149.497168,62.50795431229375L150.70899200000002,56.92295440555803L151.917856,53.571954461516626L153.12967999999998,70.97953631327363L154.340912,62.005903606145964L155.549776,69.56717852732396L156.761008,54.685761661848886L157.971056,65.17509336074569L159.18288,58.52323783462923L160.39174400000002,54.532124518959336L161.6012,65.08291107501196L162.81184,64.94065573591627L164.02248,64.85530253245885L165.234304,64.80409061038439L166.44316800000001,71.24609072986702L167.653808,68.63856352882932L168.86504000000002,73.54677448093402L170.073904,57.07351923401494L171.285136,60.13502063131804L172.497552,55.49919419697268L173.70937600000002,59.19042560909267L174.9212,48.45970991091016L176.132432,67.91218958290973L177.344256,47.22004102247314L178.55608,47.7502064316657L179.764944,41.59557840445399L180.973808,37.90280158812692L182.183264,61.57804458923977L183.392128,49.8922812989984L184.602176,55.82627787030812L185.812224,65.85940308582124L187.022272,58.93382366967458L188.23232000000002,61.25120329271384L189.444144,49.696176521082805L190.654784,36.290433185377L191.863056,47.665169002135286L193.07369599999998,54.49001049219025L194.28256000000002,39.166733568041366L195.491424,42.918221959006644L196.70384,38.696387720858525L197.913296,49.10874172342423L199.123344,42.41069957950904L200.333392,44.86460156588723L201.54284800000002,59.28239730316871L202.753488,54.987620200083015L203.96176,45.938026665504395L205.17121600000002,53.453725090211705L206.38008,32.07223505412702L207.588944,38.66152285065803L208.79721600000002,49.0878228013039L210.005488,48.87087549896415L211.216128,55.21343439028756L212.426176,39.600787906899825L213.638,17.28774547141262L214.850416,23.318101828302105L216.05928,39.88177018789034L217.268736,62.76542574909783L218.479376,44.13198272218597L219.69001599999999,45.8973714514934L220.898288,59.90205923453239L222.10715199999999,61.83214463162851L223.31838399999998,62.99019586988615L224.529024,50.73957206738619L225.737888,69.28010687679537L226.950304,67.45897321698632L228.160944,46.94811120291908L229.369808,41.11432126720601L230.581632,37.61404730577817L231.793456,61.40479201983054L233.00172799999999,88.62469339371653L234.211184,72.59299785441169L235.42064000000002,69.44670780355612L236.63009599999998,74.03166104577005L237.839552,76.78263299109838L239.0496,59.01503434011356L240.261424,61.29992969497722L241.472064,62.67086690789543L242.68152,57.02070196291908L243.890976,60.10333026866057L245.10161599999998,49.00745270665092L246.311072,61.768107987626905L247.52112,50.00631933803071L248.73176,36.47651887554565L249.94062399999999,28.358638598054625L251.149488,42.906092249741874L252.358944,45.16183716802689L253.570176,27.097102300816147L254.781408,22.73098865321694L255.990864,13.63859319193017L257.20032000000003,27.601337733339875L258.409184,35.97898445818572L259.618048,34.53284522036597L260.828688,59.55607076858321L262.037552,48.67909700660448L263.248784,55.09836729487182L264.45824,97.7862931041958L265.670656,84.56268495342658" style="fill: none;" fill="none"></path></g><g><path stroke="rgb(204, 51, 17)" stroke-width="2px" d="M36.939024,216.34056732740942L38.149664,133.97125406132753L39.360896000000004,112.38380251018773L40.570352,99.665749194724L41.7804,79.093237222046L42.990448,79.82222343739191L44.19872,73.77107111184955L45.410544,70.14882084778398L46.621776000000004,42.067286649130295L47.83123200000001,44.65977275570006L49.039503999999994,65.63814551930821L50.250736,97.64285009347995L51.460192,103.89543597753037L52.669056000000005,120.59282451269738L53.88088,137.0835703626874L55.093296,101.6675471162404L56.30512,60.999992996467796L57.514576000000005,75.43647344349353L58.724032,77.62553080232102L59.934079999999994,65.99346722928261L61.142944,65.48698856451858L62.354176,58.710368021087106L63.565408,61.11713138154087L64.77664,49.615729136612316L65.98728,55.66034790918404L67.197328,26.92347766099965L68.406192,29.099541315239833L69.618608,43.35063456057068L70.830432,45.42856261405936L72.041664,53.14804679204809L73.252304,57.779737213911204L74.460576,47.613296810884606L75.671216,35.04070531257355L76.880672,33.96987773061298L78.091904,59.21829030848218L79.300176,54.94915599984709L80.51022400000001,45.9149481410152L81.720864,46.9671507030948L82.932096,41.125744966299465L84.14036800000001,50.56635607167007L85.352784,43.285268188002505L86.56519999999999,32.44388818512303L87.77406400000001,38.88451472940022L88.98352,49.22161792868852L90.19593599999999,55.42387984817229L91.408352,59.1452369998306L92.620176,61.37805129081396L93.830816,49.772285319922645L95.04027199999999,62.22700755560305L96.249728,37.33620453334623L97.458,35.34717726546148L98.66864000000001,47.09921545018861L99.879872,47.67771108829501L101.088736,48.02480847115888L102.297008,41.76033962814955L103.505872,38.001658322344156L104.71769599999999,48.69190408431575L105.92656000000001,42.16059699604398L107.136608,57.659994561262835L108.34606400000001,54.01417855493946L109.556704,64.77214349660001L110.767344,51.80874064341455L111.97916799999999,50.50342620423058L113.188624,62.66569208617473L114.397488,69.96305161534119L115.60931199999999,67.86874006011384L116.81936,73.08488039970464L118.027632,56.796382785277345L119.23768000000001,53.49601148934825L120.447136,57.98851598451806L121.65955199999999,34.79310959071083L122.870192,46.76677484533559L124.081424,53.95097399811044L125.29088,51.78876621704811L126.500928,50.49144154841066L127.710384,43.24031947450095L128.920432,19.4714644119733L130.132256,11.682878647183998L131.34408,26.4279090064922L132.55235199999998,41.74765449480438L133.76358399999998,57.41222906051898L134.974224,66.81097379994776L136.18368,59.50476609815047L137.395504,48.648314204344786L138.607328,55.07989761351597L139.81856,58.93884765901866L141.030384,54.78149041359303L142.240432,52.287076066337605L143.449296,50.79042745798435L144.65815999999998,43.41971102024516L145.8688,58.415462975783456L147.080032,67.41291414910646L148.29185600000002,66.33865758037298L149.500128,65.6941036391329L150.711952,65.30737127438886L151.923776,65.07533185554244L153.132048,58.463380931507274L154.343872,60.96893764981347L155.55332800000002,55.99954440806985L156.765744,59.490635735751L157.976384,61.58529053235968L159.185248,62.84208341032493L160.39352,63.59615913710407L161.605344,44.63042275498967L162.81361600000002,39.72370819844835L164.02307199999998,56.19786128270542L165.232528,53.136898587805064L166.442576,44.827593698137605L167.652032,59.26019258251897L168.862672,74.39247918587503L170.071536,89.94457842061591L171.279808,60.43947432509681L172.49222400000002,55.681866413239874L173.70286399999998,59.30002893885302L174.91291199999998,61.470926454220916L176.123552,49.828010417987116L177.334192,23.424078978064983L178.543056,14.05444738683903L179.753104,40.796304795739786L180.96374400000002,50.36869196835299L182.1732,49.639396999193565L183.384432,62.14727456315248L184.59448,69.65200110152787L185.804528,61.20938247909851L187.016352,62.61653857836819L188.228176,63.46083223792999L189.437632,70.44013570639437L190.64708800000002,74.62771778747297L191.858912,70.66753976339291L193.06895999999998,74.76416022167211L194.2796,77.22213249663962L195.49024,78.69691586162016L196.700288,79.58178588060846L197.90974400000002,80.11270789200148L199.11979200000002,54.54035200792815L200.33043199999997,39.19693847748411L201.539296,42.93634490467227L202.748752,45.1799887609852L203.960576,52.99890234750019L205.17003200000002,51.21752322668195L206.37830399999999,43.675968481463684L207.588944,52.096490179787324L208.797808,31.257894107872403L210.00844800000002,44.64564555563257L211.217312,52.67829642428862L212.427952,57.497886945482264L213.638592,73.33509580365298L214.849824,31.055602936737273L216.061056,25.10608903476964L217.27288,28.00910796631632L218.48352,10.332737507062546L219.693568,45.03600614060116L220.9048,46.43978550254255L222.116624,47.28205311970734L223.325488,60.7328682354608L224.537904,42.912448214003746L225.746176,45.16565074658405L226.956816,52.990299538859546L228.16568,57.6850888142248L229.374544,60.50196237944397L230.58577599999998,81.6102683367573L231.795232,94.27525191114526L233.00350400000002,95.40151478305079L234.213552,89.60454523346684L235.42419199999998,66.70818168553463L236.63601599999998,72.38854537495715L237.84784000000002,62.85130904315612L239.056704,70.07442178953008L240.267936,48.51738034644529L241.477984,48.528610026048966L242.688624,61.48080237926578L243.899856,69.25211779119587L245.11168,48.02399794744477L246.321136,74.12348967755777L247.53296,63.892275624716504L248.744784,83.6444562839208L249.955424,82.55031013398887L251.166064,88.36654971675694L252.376112,85.38356619369056L253.585568,96.53923062530525L254.7968,90.28717473881953L256.00744000000003,73.59048666147352L257.219856,44.15429199688407L258.43168,45.91075701631226L259.64232,72.85554511887827L260.852368,82.54969070769062L262.0636,94.8389053337053L263.27424,89.26697956385955L264.485472,105.34200592013389L265.693744,108.51429446117123" style="fill: none;" fill="none"></path></g><g><path stroke="rgb(255, 112, 67)" stroke-width="2px" d="M36.936656,202.21841128796012L38.147296,152.29720896712388L39.358528,129.83745133386856L40.570352,116.60548671982163L41.778624,102.24006619092796L42.989856,93.67660810436331L44.200495999999994,82.07161240387691L45.40936,68.64361135921887L46.619408,73.55365089060325L47.83123200000001,63.54566674867435L49.042464,70.49299633087247L50.252512,94.08160874443263L51.462559999999996,121.17898998279671L52.671423999999995,98.59692702058557L53.881472,91.52153388840456L55.093296,119.64080991148563L56.30512,162.4032306113405L57.513984,136.27809568508164L58.724032,127.07590471664996L59.934672,108.60912669204448L61.146496000000006,116.94730842045936L62.357728,134.89567614952983L63.567184,113.30102879220608L64.775456,113.28970818024344L65.98432,119.75564451941415L67.193184,91.27156475157793L68.404416,80.6538470968277L69.612688,93.70139979023381L70.821552,101.52993100752786L72.03278399999999,106.2270495943544L73.24224,102.57259335528269L74.451104,106.85264694874829L75.66352,102.94795179111371L76.875344,94.1324074186643L78.08479999999999,82.37035352638473L79.29603200000001,75.31312120107968L80.504304,64.60605453367704L81.715536,51.7090872619369L82.926176,82.80727054436788L84.138,94.99345323697835L85.349232,115.2506173979959L86.558688,114.45946134785882L87.76696,113.98476771779558L88.97641599999999,100.75449699413548L90.18528,112.23451637839226L91.397696,99.7043461906109L92.608336,85.71351680523496L93.817792,64.37356462855821L95.02902399999999,135.71504786811883L96.239072,152.6290287208819L97.44852800000001,143.35923541434383L98.660352,118.37917761223707L99.870992,116.33659747643284L101.07926400000001,115.11104939495051L102.288128,114.37572054606116L103.49640000000001,94.51634141854521L104.708816,95.54616848749079L105.91767999999999,89.69133745613073L107.127728,99.12389338276938L108.337776,98.3106996660253L109.54841599999999,123.71369252688794L110.757872,113.06457915249639L111.968512,87.25692930967966L113.177376,71.77233940398958L114.3892,68.9543127333028L115.601616,60.790769458163496L116.812848,81.78355258398898L118.02171200000001,81.43376791402977L119.229984,74.75116983932699L120.44239999999999,83.68706553995985L121.65304,76.10314841488501L122.86368,84.4982526852946L124.07313599999999,83.06258797481313L125.28200000000001,88.67391642125153L126.492048,104.98616803456906L127.70327999999999,127.71897354801422L128.912736,160.77683867426305L130.122784,200.02973956819423L131.33223999999998,184.74511646818925L132.543472,149.68343351727722L133.75233599999999,102.75551465582089L134.960608,87.5442178844016L136.170656,52.52653073064093L137.37951999999999,63.879554802020934L138.589568,64.21864197212165L139.800208,64.42209427418209L141.012624,58.07143838269107L142.22267200000002,47.788317575069215L143.430944,61.03662690867789L144.641584,36.62197614520673L145.850448,34.918640232578554L147.06168,53.31482050318351L148.27232,57.8798013928192L149.484736,47.673335381146074L150.69537599999998,60.96763759232401L151.906016,68.94421891903082L153.116064,73.73016771505483L154.324336,57.183555174487466L155.536752,27.837405831965214L156.74739200000002,55.538807135542726L157.95803199999997,72.15964791768927L159.167488,75.6594251142499L160.378128,71.28656415945903L161.588768,68.66284758658455L162.8,86.50679946104164L164.012416,123.10407967662496L165.22305599999999,99.75335689688406L166.432512,111.63383231994861L167.644336,79.9257539374237L168.85320000000002,60.90090690790876L170.063248,75.3769077811089L171.275664,97.00796285048354L172.48512,84.09568680119924L173.695168,69.87559389890134L174.90758399999999,61.343538157522616L176.11881599999998,69.16975925814995L177.33004799999998,80.3382191912536L178.540688,67.62111333293393L179.751328,66.46357709066945L180.960192,65.76905534531075L182.16905599999998,58.87961502536827L183.377328,100.0550417424937L184.587376,124.76029777276892L185.79801600000002,133.1107241182068L187.008064,131.64825265274226L188.218704,98.40713340982713L189.429936,84.93518913680539L190.64175999999998,70.379295300265L191.8524,55.17303172561354L193.062448,65.46745539900449L194.271904,71.64410960303907L195.48432,36.51373848909611L196.693776,41.326424911639464L197.90264000000002,37.741309492438205L199.111504,48.535694786372005L200.322144,55.01232596273233L201.532784,65.37103194127576L202.741056,52.16807371022L203.949328,63.66448058976833L205.161152,77.03505199022463L206.372976,72.11194028504386L207.583024,56.21261871648085L208.79248,59.61848032079763L210.001344,68.13472455611499L211.211392,86.18992564275993L212.419664,84.07759174929232L213.630896,63.39200959502993L214.843312,57.45338757519977L216.051584,60.36294163602891L217.262816,75.05412861798096L218.47168,90.34156807987948L219.68172800000002,80.09584993883674L220.890592,73.94841905421113L222.098864,76.73268779616305L223.309504,65.45779449587963L224.521328,45.74740397025505L225.731376,66.28480601851665L226.939648,59.18906542929183L228.149696,61.40434834848416L229.36151999999998,36.84260900909052L230.569792,41.52374722363618L231.781024,37.859702879636245L232.989888,42.13400354596354L234.202304,51.17131121848719L235.413536,56.59369582200142L236.62299199999998,72.7925811295645L237.832448,56.62100322319324L239.04072,72.80896557027957L240.250768,76.04901570580408L241.460816,142.72031851439158L242.669088,156.83219110863496L243.88091200000002,126.46295102881734L245.09036799999998,75.87777061729042L246.30041599999998,90.83575327946517L247.511056,86.86508833131548L248.72288,90.95541663515294L249.934112,73.99143179927356L251.145344,70.28576817047319L252.355392,48.64418817501121L253.566032,35.65924017773395L254.778448,47.28645319754946L255.98672000000002,60.735508282166066L257.194992,55.85948678748146L258.406224,46.46114661794343L259.618048,40.822142516220595L260.82632,37.438740055186855L262.037552,41.881425851293955L263.247008,51.01976460168548L264.458832,30.611858761011263L265.668288,50.730751620243126" style="fill: none;" fill="none"></path></g></g></g></g><g opacity="0.2"><g><g><g><path stroke="rgb(238, 51, 119)" stroke-width="2px" d="M41.782768000000004,194.1818181818182L42.991040000000005,80.90909090909092L44.200495999999994,32.363636363636346L45.40936,48.54545454545453L46.621776000000004,16.181818181818187L47.83123200000001,16.181818181818187L49.04128,97.0909090909091L50.250736,0L51.459008,16.181818181818187L52.669056000000005,48.54545454545453L53.881472,64.72727272727273L55.090336,16.181818181818187L56.30216,-16.18181818181816L57.513392,80.90909090909092L58.721664000000004,32.363636363636346L59.932303999999995,32.363636363636346L61.14176,48.54545454545453L62.350623999999996,48.54545454545453L63.559488,48.54545454545453L64.76835200000001,32.363636363636346L65.9784,32.363636363636346L67.189632,80.90909090909092L68.400864,80.90909090909092L69.612096,64.72727272727273L70.820368,80.90909090909092L72.030416,48.54545454545453L73.240464,0L74.44932800000001,48.54545454545453L75.659968,-16.18181818181816L76.8712,48.54545454545453L78.081248,80.90909090909092L79.28952,80.90909090909092L80.501936,16.181818181818187L81.71376000000001,97.0909090909091L82.926176,64.72727272727273L84.135632,64.72727272727273L85.34567999999999,80.90909090909092L86.553952,64.72727272727273L87.762816,32.363636363636346L88.973456,64.72727272727273L90.18528,-16.18181818181816L91.397104,64.72727272727273L92.605376,64.72727272727273L93.81542400000001,48.54545454545453L95.027248,16.181818181818187L96.23848,16.181818181818187L97.447936,97.0909090909091L98.65679999999999,32.363636363636346L99.865072,64.72727272727273L101.074528,48.54545454545453L102.286352,32.363636363636346L103.496992,-16.18181818181816L104.708224,80.90909090909092L105.920048,64.72727272727273L107.12832,64.72727272727273L108.338368,32.363636363636346L109.550192,48.54545454545453L110.759056,80.90909090909092L111.967328,97.0909090909091L113.17855999999999,80.90909090909092L114.388608,64.72727272727273L115.600432,16.181818181818187L116.812848,64.72727272727273L118.02112000000001,48.54545454545453L119.231168,64.72727272727273L120.441216,48.54545454545453L121.652448,80.90909090909092L122.862496,48.54545454545453L124.07313599999999,48.54545454545453L125.28555200000001,80.90909090909092L126.496784,48.54545454545453L127.70683199999999,64.72727272727273L128.918064,32.363636363636346L130.12752,97.0909090909091L131.33816,97.0909090909091L132.547616,48.54545454545453L133.755888,32.363636363636346L134.968304,32.363636363636346L136.177168,48.54545454545453L137.389584,16.181818181818187L138.600224,48.54545454545453L139.80968000000001,64.72727272727273L141.021504,64.72727272727273L142.231552,80.90909090909092L143.442192,80.90909090909092L144.654016,16.181818181818187L145.865248,64.72727272727273L147.074704,80.90909090909092L148.28534399999998,80.90909090909092L149.497168,48.54545454545453L150.70899200000002,48.54545454545453L151.917856,48.54545454545453L153.12967999999998,97.0909090909091L154.340912,48.54545454545453L155.549776,80.90909090909092L156.761008,32.363636363636346L157.971056,80.90909090909092L159.18288,48.54545454545453L160.39174400000002,48.54545454545453L161.6012,80.90909090909092L162.81184,64.72727272727273L164.02248,64.72727272727273L165.234304,64.72727272727273L166.44316800000001,80.90909090909092L167.653808,64.72727272727273L168.86504000000002,80.90909090909092L170.073904,32.363636363636346L171.285136,64.72727272727273L172.497552,48.54545454545453L173.70937600000002,64.72727272727273L174.9212,32.363636363636346L176.132432,97.0909090909091L177.344256,16.181818181818187L178.55608,48.54545454545453L179.764944,32.363636363636346L180.973808,32.363636363636346L182.183264,97.0909090909091L183.392128,32.363636363636346L184.602176,64.72727272727273L185.812224,80.90909090909092L187.022272,48.54545454545453L188.23232000000002,64.72727272727273L189.444144,32.363636363636346L190.654784,16.181818181818187L191.863056,64.72727272727273L193.07369599999998,64.72727272727273L194.28256000000002,16.181818181818187L195.491424,48.54545454545453L196.70384,32.363636363636346L197.913296,64.72727272727273L199.123344,32.363636363636346L200.333392,48.54545454545453L201.54284800000002,80.90909090909092L202.753488,48.54545454545453L203.96176,32.363636363636346L205.17121600000002,64.72727272727273L206.38008,0L207.588944,48.54545454545453L208.79721600000002,64.72727272727273L210.005488,48.54545454545453L211.216128,64.72727272727273L212.426176,16.181818181818187L213.638,-16.18181818181816L214.850416,32.363636363636346L216.05928,64.72727272727273L217.268736,97.0909090909091L218.479376,16.181818181818187L219.69001599999999,48.54545454545453L220.898288,80.90909090909092L222.10715199999999,64.72727272727273L223.31838399999998,64.72727272727273L224.529024,32.363636363636346L225.737888,97.0909090909091L226.950304,64.72727272727273L228.160944,16.181818181818187L229.369808,32.363636363636346L230.581632,32.363636363636346L231.793456,97.0909090909091L233.00172799999999,129.45454545454547L234.211184,48.54545454545453L235.42064000000002,64.72727272727273L236.63009599999998,80.90909090909092L237.839552,80.90909090909092L239.0496,32.363636363636346L240.261424,64.72727272727273L241.472064,64.72727272727273L242.68152,48.54545454545453L243.890976,64.72727272727273L245.10161599999998,32.363636363636346L246.311072,80.90909090909092L247.52112,32.363636363636346L248.73176,16.181818181818187L249.94062399999999,16.181818181818187L251.149488,64.72727272727273L252.358944,48.54545454545453L253.570176,0L254.781408,16.181818181818187L255.990864,0L257.20032000000003,48.54545454545453L258.409184,48.54545454545453L259.618048,32.363636363636346L260.828688,97.0909090909091L262.037552,32.363636363636346L263.248784,64.72727272727273L264.45824,161.8181818181818L265.670656,64.72727272727273" style="fill: none;" fill="none"></path></g><g><path stroke="rgb(204, 51, 17)" stroke-width="2px" d="M35.729568,242.72727272727275L36.939024,64.72727272727273L38.149664,16.181818181818187L39.360896000000004,80.90909090909092L40.570352,80.90909090909092L41.7804,48.54545454545453L42.990448,80.90909090909092L44.19872,64.72727272727273L45.410544,64.72727272727273L46.621776000000004,0L47.83123200000001,48.54545454545453L49.039503999999994,97.0909090909091L50.250736,145.63636363636363L51.460192,113.27272727272727L52.669056000000005,145.63636363636363L53.88088,161.8181818181818L55.093296,48.54545454545453L56.30512,0L57.514576000000005,97.0909090909091L58.724032,80.90909090909092L59.934079999999994,48.54545454545453L61.142944,64.72727272727273L62.354176,48.54545454545453L63.565408,64.72727272727273L64.77664,32.363636363636346L65.98728,64.72727272727273L67.197328,-16.18181818181816L68.406192,32.363636363636346L69.618608,64.72727272727273L70.830432,48.54545454545453L72.041664,64.72727272727273L73.252304,64.72727272727273L74.460576,32.363636363636346L75.671216,16.181818181818187L76.880672,32.363636363636346L78.091904,97.0909090909091L79.300176,48.54545454545453L80.51022400000001,32.363636363636346L81.720864,48.54545454545453L82.932096,32.363636363636346L84.14036800000001,64.72727272727273L85.352784,32.363636363636346L86.56519999999999,16.181818181818187L87.77406400000001,48.54545454545453L88.98352,64.72727272727273L90.19593599999999,64.72727272727273L91.408352,64.72727272727273L92.620176,64.72727272727273L93.830816,32.363636363636346L95.04027199999999,80.90909090909092L96.249728,0L97.458,32.363636363636346L98.66864000000001,64.72727272727273L99.879872,48.54545454545453L101.088736,48.54545454545453L102.297008,32.363636363636346L103.505872,32.363636363636346L104.71769599999999,64.72727272727273L105.92656000000001,32.363636363636346L107.136608,80.90909090909092L108.34606400000001,48.54545454545453L109.556704,80.90909090909092L110.767344,32.363636363636346L111.97916799999999,48.54545454545453L113.188624,80.90909090909092L114.397488,80.90909090909092L115.60931199999999,64.72727272727273L116.81936,80.90909090909092L118.027632,32.363636363636346L119.23768000000001,48.54545454545453L120.447136,64.72727272727273L121.65955199999999,0L122.870192,64.72727272727273L124.081424,64.72727272727273L125.29088,48.54545454545453L126.500928,48.54545454545453L127.710384,32.363636363636346L128.920432,-16.18181818181816L130.132256,0L131.34408,48.54545454545453L132.55235199999998,64.72727272727273L133.76358399999998,80.90909090909092L134.974224,80.90909090909092L136.18368,48.54545454545453L137.395504,32.363636363636346L138.607328,64.72727272727273L139.81856,64.72727272727273L141.030384,48.54545454545453L142.240432,48.54545454545453L143.449296,48.54545454545453L144.65815999999998,32.363636363636346L145.8688,80.90909090909092L147.080032,80.90909090909092L148.29185600000002,64.72727272727273L149.500128,64.72727272727273L150.711952,64.72727272727273L151.923776,64.72727272727273L153.132048,48.54545454545453L154.343872,64.72727272727273L155.55332800000002,48.54545454545453L156.765744,64.72727272727273L157.976384,64.72727272727273L159.185248,64.72727272727273L160.39352,64.72727272727273L161.605344,16.181818181818187L162.81361600000002,32.363636363636346L164.02307199999998,80.90909090909092L165.232528,48.54545454545453L166.442576,32.363636363636346L167.652032,80.90909090909092L168.862672,97.0909090909091L170.071536,113.27272727272727L171.279808,16.181818181818187L172.49222400000002,48.54545454545453L173.70286399999998,64.72727272727273L174.91291199999998,64.72727272727273L176.123552,32.363636363636346L177.334192,-16.18181818181816L178.543056,0L179.753104,80.90909090909092L180.96374400000002,64.72727272727273L182.1732,48.54545454545453L183.384432,80.90909090909092L184.59448,80.90909090909092L185.804528,48.54545454545453L187.016352,64.72727272727273L188.228176,64.72727272727273L189.437632,80.90909090909092L190.64708800000002,80.90909090909092L191.858912,64.72727272727273L193.06895999999998,80.90909090909092L194.2796,80.90909090909092L195.49024,80.90909090909092L196.700288,80.90909090909092L197.90974400000002,80.90909090909092L199.11979200000002,16.181818181818187L200.33043199999997,16.181818181818187L201.539296,48.54545454545453L202.748752,48.54545454545453L203.960576,64.72727272727273L205.17003200000002,48.54545454545453L206.37830399999999,32.363636363636346L207.588944,64.72727272727273L208.797808,0L210.00844800000002,64.72727272727273L211.217312,64.72727272727273L212.427952,64.72727272727273L213.638592,97.0909090909091L214.849824,-32.363636363636374L216.061056,16.181818181818187L217.27288,32.363636363636346L218.48352,-16.18181818181816L219.693568,97.0909090909091L220.9048,48.54545454545453L222.116624,48.54545454545453L223.325488,80.90909090909092L224.537904,16.181818181818187L225.746176,48.54545454545453L226.956816,64.72727272727273L228.16568,64.72727272727273L229.374544,64.72727272727273L230.58577599999998,113.27272727272727L231.795232,113.27272727272727L233.00350400000002,97.0909090909091L234.213552,80.90909090909092L235.42419199999998,32.363636363636346L236.63601599999998,80.90909090909092L237.84784000000002,48.54545454545453L239.056704,80.90909090909092L240.267936,16.181818181818187L241.477984,48.54545454545453L242.688624,80.90909090909092L243.899856,80.90909090909092L245.11168,16.181818181818187L246.321136,113.27272727272727L247.53296,48.54545454545453L248.744784,113.27272727272727L249.955424,80.90909090909092L251.166064,97.0909090909091L252.376112,80.90909090909092L253.585568,113.27272727272727L254.7968,80.90909090909092L256.00744000000003,48.54545454545453L257.219856,0L258.43168,48.54545454545453L259.64232,113.27272727272727L260.852368,97.0909090909091L262.0636,113.27272727272727L263.27424,80.90909090909092L264.485472,129.45454545454547L265.693744,113.27272727272727" style="fill: none;" fill="none"></path></g><g><path stroke="rgb(255, 112, 67)" stroke-width="2px" d="M35.725424,194.1818181818182L36.936656,48.54545454545453L38.147296,80.90909090909092L39.358528,97.0909090909091L40.570352,97.0909090909091L41.778624,80.90909090909092L42.989856,80.90909090909092L44.200495999999994,64.72727272727273L45.40936,48.54545454545453L46.619408,80.90909090909092L47.83123200000001,48.54545454545453L49.042464,80.90909090909092L50.252512,129.45454545454547L51.462559999999996,161.8181818181818L52.671423999999995,64.72727272727273L53.881472,80.90909090909092L55.093296,161.8181818181818L56.30512,226.54545454545453L57.513984,97.0909090909091L58.724032,113.27272727272727L59.934672,80.90909090909092L61.146496000000006,129.45454545454547L62.357728,161.8181818181818L63.567184,80.90909090909092L64.775456,113.27272727272727L65.98432,129.45454545454547L67.193184,48.54545454545453L68.404416,64.72727272727273L69.612688,113.27272727272727L70.821552,113.27272727272727L72.03278399999999,113.27272727272727L73.24224,97.0909090909091L74.451104,113.27272727272727L75.66352,97.0909090909091L76.875344,80.90909090909092L78.08479999999999,64.72727272727273L79.29603200000001,64.72727272727273L80.504304,48.54545454545453L81.715536,32.363636363636346L82.926176,129.45454545454547L84.138,113.27272727272727L85.349232,145.63636363636363L86.558688,113.27272727272727L87.76696,113.27272727272727L88.97641599999999,80.90909090909092L90.18528,129.45454545454547L91.397696,80.90909090909092L92.608336,64.72727272727273L93.817792,32.363636363636346L95.02902399999999,242.72727272727275L96.239072,178L97.44852800000001,129.45454545454547L98.660352,80.90909090909092L99.870992,113.27272727272727L101.07926400000001,113.27272727272727L102.288128,113.27272727272727L103.49640000000001,64.72727272727273L104.708816,97.0909090909091L105.91767999999999,80.90909090909092L107.127728,113.27272727272727L108.337776,97.0909090909091L109.54841599999999,161.8181818181818L110.757872,97.0909090909091L111.968512,48.54545454545453L113.177376,48.54545454545453L114.3892,64.72727272727273L115.601616,48.54545454545453L116.812848,113.27272727272727L118.02171200000001,80.90909090909092L119.229984,64.72727272727273L120.44239999999999,97.0909090909091L121.65304,64.72727272727273L122.86368,97.0909090909091L124.07313599999999,80.90909090909092L125.28200000000001,97.0909090909091L126.492048,129.45454545454547L127.70327999999999,161.8181818181818L128.912736,210.36363636363637L130.122784,258.9090909090909L131.33223999999998,161.8181818181818L132.543472,97.0909090909091L133.75233599999999,32.363636363636346L134.960608,64.72727272727273L136.170656,0L137.37951999999999,80.90909090909092L138.589568,64.72727272727273L139.800208,64.72727272727273L141.012624,48.54545454545453L142.22267200000002,32.363636363636346L143.430944,80.90909090909092L144.641584,0L145.850448,32.363636363636346L147.06168,80.90909090909092L148.27232,64.72727272727273L149.484736,32.363636363636346L150.69537599999998,80.90909090909092L151.906016,80.90909090909092L153.116064,80.90909090909092L154.324336,32.363636363636346L155.536752,-16.18181818181816L156.74739200000002,97.0909090909091L157.95803199999997,97.0909090909091L159.167488,80.90909090909092L160.378128,64.72727272727273L161.588768,64.72727272727273L162.8,113.27272727272727L164.012416,178L165.22305599999999,64.72727272727273L166.432512,129.45454545454547L167.644336,32.363636363636346L168.85320000000002,32.363636363636346L170.063248,97.0909090909091L171.275664,129.45454545454547L172.48512,64.72727272727273L173.695168,48.54545454545453L174.90758399999999,48.54545454545453L176.11881599999998,80.90909090909092L177.33004799999998,97.0909090909091L178.540688,48.54545454545453L179.751328,64.72727272727273L180.960192,64.72727272727273L182.16905599999998,48.54545454545453L183.377328,161.8181818181818L184.587376,161.8181818181818L185.79801600000002,145.63636363636363L187.008064,129.45454545454547L188.218704,48.54545454545453L189.429936,64.72727272727273L190.64175999999998,48.54545454545453L191.8524,32.363636363636346L193.062448,80.90909090909092L194.271904,80.90909090909092L195.48432,-16.18181818181816L196.693776,48.54545454545453L197.90264000000002,32.363636363636346L199.111504,64.72727272727273L200.322144,64.72727272727273L201.532784,80.90909090909092L202.741056,32.363636363636346L203.949328,80.90909090909092L205.161152,97.0909090909091L206.372976,64.72727272727273L207.583024,32.363636363636346L208.79248,64.72727272727273L210.001344,80.90909090909092L211.211392,113.27272727272727L212.419664,80.90909090909092L213.630896,32.363636363636346L214.843312,48.54545454545453L216.051584,64.72727272727273L217.262816,97.0909090909091L218.47168,113.27272727272727L219.68172800000002,64.72727272727273L220.890592,64.72727272727273L222.098864,80.90909090909092L223.309504,48.54545454545453L224.521328,16.181818181818187L225.731376,97.0909090909091L226.939648,48.54545454545453L228.149696,64.72727272727273L229.36151999999998,0L230.569792,48.54545454545453L231.781024,32.363636363636346L232.989888,48.54545454545453L234.202304,64.72727272727273L235.413536,64.72727272727273L236.62299199999998,97.0909090909091L237.832448,32.363636363636346L239.04072,97.0909090909091L240.250768,80.90909090909092L241.460816,242.72727272727275L242.669088,178L243.88091200000002,80.90909090909092L245.09036799999998,0L246.30041599999998,113.27272727272727L247.511056,80.90909090909092L248.72288,97.0909090909091L249.934112,48.54545454545453L251.145344,64.72727272727273L252.355392,16.181818181818187L253.566032,16.181818181818187L254.778448,64.72727272727273L255.98672000000002,80.90909090909092L257.194992,48.54545454545453L258.406224,32.363636363636346L259.618048,32.363636363636346L260.82632,32.363636363636346L262.037552,48.54545454545453L263.247008,64.72727272727273L264.458832,0L265.668288,80.90909090909092" style="fill: none;" fill="none"></path></g></g></g></g></g></g><g transform="translate(34, 178)" clip-path="url(#clip_1)"><clipPath id="clip_1"><rect width="296" height="22"></rect></clipPath><g><g><line x1="0" y1="0" x2="0" y2="5" style="visibility: inherit;" fill="rgb(0, 0, 0)" stroke="rgb(204, 204, 204)" stroke-width="1px"></line><line x1="29.6" y1="0" x2="29.6" y2="5" style="visibility: inherit;" fill="rgb(0, 0, 0)" stroke="rgb(204, 204, 204)" stroke-width="1px"></line><line x1="59.2" y1="0" x2="59.2" y2="5" style="visibility: inherit;" fill="rgb(0, 0, 0)" stroke="rgb(204, 204, 204)" stroke-width="1px"></line><line x1="88.8" y1="0" x2="88.8" y2="5" style="visibility: inherit;" fill="rgb(0, 0, 0)" stroke="rgb(204, 204, 204)" stroke-width="1px"></line><line x1="118.4" y1="0" x2="118.4" y2="5" style="visibility: inherit;" fill="rgb(0, 0, 0)" stroke="rgb(204, 204, 204)" stroke-width="1px"></line><line x1="148" y1="0" x2="148" y2="5" style="visibility: inherit;" fill="rgb(0, 0, 0)" stroke="rgb(204, 204, 204)" stroke-width="1px"></line><line x1="177.6" y1="0" x2="177.6" y2="5" style="visibility: inherit;" fill="rgb(0, 0, 0)" stroke="rgb(204, 204, 204)" stroke-width="1px"></line><line x1="207.2" y1="0" x2="207.2" y2="5" style="visibility: inherit;" fill="rgb(0, 0, 0)" stroke="rgb(204, 204, 204)" stroke-width="1px"></line><line x1="236.8" y1="0" x2="236.8" y2="5" style="visibility: inherit;" fill="rgb(0, 0, 0)" stroke="rgb(204, 204, 204)" stroke-width="1px"></line><line x1="266.40000000000003" y1="0" x2="266.40000000000003" y2="5" style="visibility: inherit;" fill="rgb(0, 0, 0)" stroke="rgb(204, 204, 204)" stroke-width="1px"></line><line x1="296" y1="0" x2="296" y2="5" style="visibility: inherit;" fill="rgb(0, 0, 0)" stroke="rgb(204, 204, 204)" stroke-width="1px"></line></g><g transform="translate(0, 8)"><text x="0" y="0" dx="0em" dy="0.95em" style="text-anchor: middle; visibility: hidden; font-family: &quot;Helvetica Neue&quot;, sans-serif; font-size: 12px; font-weight: 200;" fill="rgb(50, 49, 63)" stroke="none" stroke-width="1px">-50k</text><text x="29.6" y="0" dx="0em" dy="0.95em" style="text-anchor: middle; visibility: inherit; font-family: &quot;Helvetica Neue&quot;, sans-serif; font-size: 12px; font-weight: 200;" fill="rgb(50, 49, 63)" stroke="none" stroke-width="1px">0</text><text x="59.2" y="0" dx="0em" dy="0.95em" style="text-anchor: middle; visibility: hidden; font-family: &quot;Helvetica Neue&quot;, sans-serif; font-size: 12px; font-weight: 200;" fill="rgb(50, 49, 63)" stroke="none" stroke-width="1px">50k</text><text x="88.8" y="0" dx="0em" dy="0.95em" style="text-anchor: middle; visibility: inherit; font-family: &quot;Helvetica Neue&quot;, sans-serif; font-size: 12px; font-weight: 200;" fill="rgb(50, 49, 63)" stroke="none" stroke-width="1px">100k</text><text x="118.4" y="0" dx="0em" dy="0.95em" style="text-anchor: middle; visibility: hidden; font-family: &quot;Helvetica Neue&quot;, sans-serif; font-size: 12px; font-weight: 200;" fill="rgb(50, 49, 63)" stroke="none" stroke-width="1px">150k</text><text x="148" y="0" dx="0em" dy="0.95em" style="text-anchor: middle; visibility: inherit; font-family: &quot;Helvetica Neue&quot;, sans-serif; font-size: 12px; font-weight: 200;" fill="rgb(50, 49, 63)" stroke="none" stroke-width="1px">200k</text><text x="177.6" y="0" dx="0em" dy="0.95em" style="text-anchor: middle; visibility: hidden; font-family: &quot;Helvetica Neue&quot;, sans-serif; font-size: 12px; font-weight: 200;" fill="rgb(50, 49, 63)" stroke="none" stroke-width="1px">250k</text><text x="207.2" y="0" dx="0em" dy="0.95em" style="text-anchor: middle; visibility: inherit; font-family: &quot;Helvetica Neue&quot;, sans-serif; font-size: 12px; font-weight: 200;" fill="rgb(50, 49, 63)" stroke="none" stroke-width="1px">300k</text><text x="236.8" y="0" dx="0em" dy="0.95em" style="text-anchor: middle; visibility: hidden; font-family: &quot;Helvetica Neue&quot;, sans-serif; font-size: 12px; font-weight: 200;" fill="rgb(50, 49, 63)" stroke="none" stroke-width="1px">350k</text><text x="266.40000000000003" y="0" dx="0em" dy="0.95em" style="text-anchor: middle; visibility: inherit; font-family: &quot;Helvetica Neue&quot;, sans-serif; font-size: 12px; font-weight: 200;" fill="rgb(50, 49, 63)" stroke="none" stroke-width="1px">400k</text><text x="296" y="0" dx="0em" dy="0.95em" style="text-anchor: middle; visibility: hidden; font-family: &quot;Helvetica Neue&quot;, sans-serif; font-size: 12px; font-weight: 200;" fill="rgb(50, 49, 63)" stroke="none" stroke-width="1px">450k</text></g><line x1="0" y1="0" x2="296" y2="0" fill="rgb(0, 0, 0)" stroke="rgb(204, 204, 204)" stroke-width="1px"></line></g></g></g></g></svg>