<svg viewBox="0 0 330 200" xmlns="http://www.w3.org/2000/svg"><g><g><g><g><g><line x1="34" y1="178" x2="29" y2="178" style="visibility: inherit;" fill="rgb(0, 0, 0)" stroke="rgb(204, 204, 204)" stroke-width="1px"></line><line x1="34" y1="152.57142857142858" x2="29" y2="152.57142857142858" style="visibility: inherit;" fill="rgb(0, 0, 0)" stroke="rgb(204, 204, 204)" stroke-width="1px"></line><line x1="34" y1="127.14285714285714" x2="29" y2="127.14285714285714" style="visibility: inherit;" fill="rgb(0, 0, 0)" stroke="rgb(204, 204, 204)" stroke-width="1px"></line><line x1="34" y1="101.71428571428572" x2="29" y2="101.71428571428572" style="visibility: inherit;" fill="rgb(0, 0, 0)" stroke="rgb(204, 204, 204)" stroke-width="1px"></line><line x1="34" y1="76.28571428571429" x2="29" y2="76.28571428571429" style="visibility: inherit;" fill="rgb(0, 0, 0)" stroke="rgb(204, 204, 204)" stroke-width="1px"></line><line x1="34" y1="50.85714285714286" x2="29" y2="50.85714285714286" style="visibility: inherit;" fill="rgb(0, 0, 0)" stroke="rgb(204, 204, 204)" stroke-width="1px"></line><line x1="34" y1="25.428571428571445" x2="29" y2="25.428571428571445" style="visibility: inherit;" fill="rgb(0, 0, 0)" stroke="rgb(204, 204, 204)" stroke-width="1px"></line><line x1="34" y1="0" x2="29" y2="0" style="visibility: inherit;" fill="rgb(0, 0, 0)" stroke="rgb(204, 204, 204)" stroke-width="1px"></line></g><g transform="translate(24, 0)"><text x="0" y="178" dx="0em" dy="0.3em" style="text-anchor: end; visibility: hidden; font-family: &quot;Helvetica Neue&quot;, sans-serif; font-size: 12px; font-weight: 200;" fill="rgb(50, 49, 63)" stroke="none" stroke-width="1px">-5</text><text x="0" y="152.57142857142858" dx="0em" dy="0.3em" style="text-anchor: end; visibility: inherit; font-family: &quot;Helvetica Neue&quot;, sans-serif; font-size: 12px; font-weight: 200;" fill="rgb(50, 49, 63)" stroke="none" stroke-width="1px">0</text><text x="0" y="127.14285714285714" dx="0em" dy="0.3em" style="text-anchor: end; visibility: inherit; font-family: &quot;Helvetica Neue&quot;, sans-serif; font-size: 12px; font-weight: 200;" fill="rgb(50, 49, 63)" stroke="none" stroke-width="1px">5</text><text x="0" y="101.71428571428572" dx="0em" dy="0.3em" style="text-anchor: end; visibility: inherit; font-family: &quot;Helvetica Neue&quot;, sans-serif; font-size: 12px; font-weight: 200;" fill="rgb(50, 49, 63)" stroke="none" stroke-width="1px">10</text><text x="0" y="76.28571428571429" dx="0em" dy="0.3em" style="text-anchor: end; visibility: inherit; font-family: &quot;Helvetica Neue&quot;, sans-serif; font-size: 12px; font-weight: 200;" fill="rgb(50, 49, 63)" stroke="none" stroke-width="1px">15</text><text x="0" y="50.85714285714286" dx="0em" dy="0.3em" style="text-anchor: end; visibility: inherit; font-family: &quot;Helvetica Neue&quot;, sans-serif; font-size: 12px; font-weight: 200;" fill="rgb(50, 49, 63)" stroke="none" stroke-width="1px">20</text><text x="0" y="25.428571428571445" dx="0em" dy="0.3em" style="text-anchor: end; visibility: inherit; font-family: &quot;Helvetica Neue&quot;, sans-serif; font-size: 12px; font-weight: 200;" fill="rgb(50, 49, 63)" stroke="none" stroke-width="1px">25</text><text x="0" y="0" dx="0em" dy="0.3em" style="text-anchor: end; visibility: hidden; font-family: &quot;Helvetica Neue&quot;, sans-serif; font-size: 12px; font-weight: 200;" fill="rgb(50, 49, 63)" stroke="none" stroke-width="1px">30</text></g><line x1="34" y1="0" x2="34" y2="178" fill="rgb(0, 0, 0)" stroke="rgb(204, 204, 204)" stroke-width="1px"></line></g></g><g transform="translate(34, 0)" clip-path="url(#clip_0)"><clipPath id="clip_0"><rect width="296" height="178"></rect></clipPath><g><g><g><line x1="0" y1="0" x2="0" y2="178" fill="rgb(0, 0, 0)" stroke="rgb(60, 60, 60)" stroke-width="1px" opacity="0.25"></line><line x1="29.6" y1="0" x2="29.6" y2="178" fill="rgb(0, 0, 0)" stroke="rgb(60, 60, 60)" stroke-width="1px" opacity="0.25"></line><line x1="59.2" y1="0" x2="59.2" y2="178" fill="rgb(0, 0, 0)" stroke="rgb(60, 60, 60)" stroke-width="1px" opacity="0.25"></line><line x1="88.8" y1="0" x2="88.8" y2="178" fill="rgb(0, 0, 0)" stroke="rgb(60, 60, 60)" stroke-width="1px" opacity="0.25"></line><line x1="118.4" y1="0" x2="118.4" y2="178" fill="rgb(0, 0, 0)" stroke="rgb(60, 60, 60)" stroke-width="1px" opacity="0.25"></line><line x1="148" y1="0" x2="148" y2="178" fill="rgb(0, 0, 0)" stroke="rgb(60, 60, 60)" stroke-width="1px" opacity="0.25"></line><line x1="177.6" y1="0" x2="177.6" y2="178" fill="rgb(0, 0, 0)" stroke="rgb(60, 60, 60)" stroke-width="1px" opacity="0.25"></line><line x1="207.2" y1="0" x2="207.2" y2="178" fill="rgb(0, 0, 0)" stroke="rgb(60, 60, 60)" stroke-width="1px" opacity="0.25"></line><line x1="236.8" y1="0" x2="236.8" y2="178" fill="rgb(0, 0, 0)" stroke="rgb(60, 60, 60)" stroke-width="1px" opacity="0.25"></line><line x1="266.40000000000003" y1="0" x2="266.40000000000003" y2="178" fill="rgb(0, 0, 0)" stroke="rgb(60, 60, 60)" stroke-width="1px" opacity="0.25"></line><line x1="296" y1="0" x2="296" y2="178" fill="rgb(0, 0, 0)" stroke="rgb(60, 60, 60)" stroke-width="1px" opacity="0.25"></line></g><g><line x1="0" y1="178" x2="296" y2="178" fill="rgb(0, 0, 0)" stroke="rgb(60, 60, 60)" stroke-width="1px" opacity="0.25"></line><line x1="0" y1="152.57142857142858" x2="296" y2="152.57142857142858" fill="rgb(0, 0, 0)" stroke="rgb(60, 60, 60)" stroke-width="1px" opacity="0.25"></line><line x1="0" y1="127.14285714285714" x2="296" y2="127.14285714285714" fill="rgb(0, 0, 0)" stroke="rgb(60, 60, 60)" stroke-width="1px" opacity="0.25"></line><line x1="0" y1="101.71428571428572" x2="296" y2="101.71428571428572" fill="rgb(0, 0, 0)" stroke="rgb(60, 60, 60)" stroke-width="1px" opacity="0.25"></line><line x1="0" y1="76.28571428571429" x2="296" y2="76.28571428571429" fill="rgb(0, 0, 0)" stroke="rgb(60, 60, 60)" stroke-width="1px" opacity="0.25"></line><line x1="0" y1="50.85714285714286" x2="296" y2="50.85714285714286" fill="rgb(0, 0, 0)" stroke="rgb(60, 60, 60)" stroke-width="1px" opacity="0.25"></line><line x1="0" y1="25.428571428571445" x2="296" y2="25.428571428571445" fill="rgb(0, 0, 0)" stroke="rgb(60, 60, 60)" stroke-width="1px" opacity="0.25"></line><line x1="0" y1="0" x2="296" y2="0" fill="rgb(0, 0, 0)" stroke="rgb(60, 60, 60)" stroke-width="1px" opacity="0.25"></line></g></g></g><g><g><line x1="0" y1="152.57142857142858" x2="296" y2="152.57142857142858" fill="rgb(0, 0, 0)" stroke="rgb(153, 153, 153)" stroke-width="1.5px"></line></g></g><g><g><line x1="29.6" y1="0" x2="29.6" y2="178" fill="rgb(0, 0, 0)" stroke="rgb(153, 153, 153)" stroke-width="1.5px"></line></g></g><g><g><g><g><g><path stroke="rgb(238, 51, 119)" stroke-width="2px" d="M30.884048,152.57142857142858L32.096464,152.57142857142858L33.308288,152.57142857142858L34.520704,147.89705882352942L35.729568,127.8663626449886L36.939024,93.42132116004295L38.149664,67.53382270498865L39.360896000000004,60.749195074630435L40.570352,56.752092604056116L41.7804,50.28644598407159L42.990448,50.51555593746603L44.19872,48.61376520658129L45.410544,47.47534369501784L46.621776000000004,38.64971866115525L47.83123200000001,39.46450000893432L49.039503999999994,46.057702877496865L50.250736,56.11632431509369L51.460192,58.08142273579526L52.669056000000005,63.32917341827631L53.88088,68.51197925684461L55.093296,57.38122909367556L56.30512,44.59999779888989L57.514576000000005,49.137177367955104L58.724032,49.82516682358661L59.934079999999994,46.1693754149174L61.142944,46.010196405991564L62.354176,43.88040137805595L63.565408,44.636812719912854L64.77664,41.02208630007817L65.98728,42.92182362860069L67.197328,33.89023583631416L68.406192,34.57414155621822L69.618608,39.05305657617936L70.830432,39.70611967870437L72.041664,42.132243277500834L73.252304,43.58791741008639L74.460576,40.39275042627801L75.671216,36.441364526808826L76.880672,36.10481871533551L78.091904,44.04003409695156L79.300176,42.69830617138052L80.51022400000001,39.85898370146194L81.720864,40.18967593525838L82.932096,38.353805560836975L84.14036800000001,41.32085476538202L85.352784,39.03251285908652L86.56519999999999,35.62522200103865L87.77406400000001,37.64941891495437L88.98352,40.89822277758782L90.19593599999999,42.847505095139866L91.408352,44.017074485661055L92.620176,44.718816119970086L93.830816,41.071289671975705L95.04027199999999,44.985630946046655L96.249728,37.162807139051665L97.458,36.537684283430764L98.66864000000001,40.23118199863072L99.879872,40.41299491346413L101.088736,40.5220826623642L102.297008,38.55324959741844L103.505872,37.371949758451024L104.71769599999999,40.731741283642094L105.92656000000001,38.67904477018524L107.136608,43.55028400496832L108.34606400000001,42.404456117266676L109.556704,45.78553081321715L110.767344,41.7113184879303L111.97916799999999,41.3010768070439L113.188624,45.12350322708349L114.397488,47.416959079107215L115.60931199999999,46.75874687603579L116.81936,48.398105268478616L118.027632,43.278863161087145L119.23768000000001,42.24160361093803L120.447136,43.653533595134235L121.65955199999999,36.3635487285091L122.870192,40.12670066567691L124.081424,42.38459182797757L125.29088,41.70504081107228L126.500928,41.297310200929076L127.710384,39.01838612055744L128.920432,31.548174529477308L130.132256,29.100333289114957L131.34408,33.7344856877547L132.55235199999998,38.54926284122425L133.76358399999998,43.472414847591665L134.974224,46.426306051412155L136.18368,44.130069345132995L137.395504,40.71804160707981L138.607328,42.739396392819316L139.81856,43.95220926426302L141.030384,42.645611272843524L142.240432,41.86165247799181L143.449296,41.39127720108078L144.65815999999998,39.07476632064848L145.8688,43.78771693524624L147.080032,46.61548730400489L148.29185600000002,46.27786381097437L149.500128,46.07528971515606L150.711952,45.95374525766508L151.923776,45.88081858317048L153.132048,43.80277686418802L154.343872,44.59023754708423L155.55332800000002,43.02842824253625L156.765744,44.12562837409317L157.976384,44.783948453027335L159.185248,45.178940500387824L160.39352,45.41593572880413L161.605344,39.45527572299676L162.81361600000002,37.91316543379804L164.02307199999998,43.090756403136L165.232528,42.12873955616732L166.442576,39.51724373370038L167.652032,44.053203383077374L168.862672,48.80906488698929L170.071536,53.69686750362213L171.279808,44.42383478788756L172.49222400000002,42.92858658701823L173.70286399999998,44.06572338078237L174.91291199999998,44.74800545704085L176.123552,41.08880327422452L177.334192,32.79042482167756L178.543056,29.845683464435126L179.753104,38.250267221518214L180.96374400000002,41.25873176148238L182.1732,41.02952477117512L183.384432,44.9605720055622L184.59448,47.319200346194464L185.804528,44.66580592200239L187.016352,45.10805498177285L188.228176,45.37340441763516L189.437632,47.56689979343824L190.64708800000002,48.882997018920065L191.858912,47.63836963992347L193.06895999999998,48.92587892681124L194.2796,49.69838449894388L195.49024,50.16188784222348L196.700288,50.43998984819123L197.90974400000002,50.6068510517719L199.11979200000002,42.569824916777435L200.33043199999997,37.747609235780715L201.539296,38.922851255754125L202.748752,39.6279964677382L203.960576,42.08536930921434L205.17003200000002,41.525507299814336L206.37830399999999,39.15530437988858L207.588944,41.80175405650459L208.797808,35.25248100533133L210.00844800000002,39.46006003177021L211.217312,41.98460744763355L212.427952,43.49933589715158L213.638592,48.4767443954338L214.849824,35.18890378011744L216.061056,33.31905655378475L217.27288,34.231433932270846L218.48352,28.676003216505364L219.693568,39.58274478704607L220.9048,40.02393258651338L222.116624,40.288645266193754L223.325488,44.51604430257339L224.537904,38.91534086725832L225.746176,39.623490234640684L226.956816,42.08266556935584L228.16568,43.558170770184944L229.374544,44.443473890682384L230.58577599999998,51.077512905838006L231.795232,55.05793631493137L233.00350400000002,55.411904646101675L234.213552,53.58999993051815L235.42419199999998,46.3939999583109L236.63601599999998,48.17925711784366L237.84784000000002,45.18183998499191L239.056704,47.45196113385231L240.267936,40.67689096602567L241.477984,40.68042029390108L242.688624,44.75110931919781L243.899856,47.19352273437585L245.11168,40.521827926339796L246.321136,48.72452532723244L247.53296,45.50900091062519L248.744784,51.71682911780367L249.955424,51.37295461353936L251.166064,53.200915625266475L252.376112,52.263406518017035L253.585568,55.7694724822388L254.7968,53.80454063220043L256.00744000000003,48.55701009360598L257.219856,39.30563462759213L258.43168,39.857666490840984L259.64232,48.32602846593318L260.852368,51.37275993670278L262.0636,55.235084533450234L263.27424,53.48390786292728L264.485472,58.536059003470655L265.693744,59.53306397351096" style="fill: none;" fill="none"></path></g><g><path stroke="rgb(0, 119, 187)" stroke-width="2px" d="M34.523664000000004,142.4L34.524848,142.4L34.523072,144.99475218658893L34.523072,143.80231092436975L39.369776,99.07790225042133L39.374512,83.11332668405707L39.370368,71.93213711937936L39.370368,61.2890914014331L44.217664,48.853850549582404L44.2224,43.52005893147668L44.21944,36.257114180579435L44.220031999999996,38.03241867409585L49.06318400000001,45.20596320861793L49.06792,47.46820785713655L49.065552,46.78917687268043L49.066736,44.3471029019866L53.909296000000005,44.91692962239176L53.914032,41.189779244204146L53.912848,38.95373129076253L53.914032,41.680909913000306L58.754816000000005,39.24849258798139L58.762512,35.75476385345024L58.761328,39.76146138274291L58.760736,44.19975500283056L63.600928,52.965592208940265L63.610992,46.019343476333034L63.609808,43.88588961651607L63.608032,40.57153173458161L68.446448,46.72006416335876L68.457696,48.37489600671256L68.456512,53.43636684683163L68.457104,46.301819540284555L73.29611200000001,46.08966314261124L73.303808,47.99665508306148L73.302624,49.140850212363546L73.303216,45.758795806819904L78.144592,47.79813463956984L78.149328,42.918880765624294L78.151696,50.162757046941906L78.15051199999999,42.30336850337338L82.991888,37.58773538395613L82.996624,38.82692694525571L82.999584,43.63901331139999L82.99839999999999,38.389122271644766L87.83800000000001,43.37633050636242L87.84392,38.231512589210865L87.848656,33.11033612476345L87.84510399999999,38.17477310354323L92.68529600000001,37.14486386211206L92.693584,38.56120403156439L92.69536,41.445293847524056L92.69299199999999,41.14146202279926L97.533184,40.95916292796494L97.539104,44.91835489964026L97.545024,45.2595843683558L97.54088,37.327179192439075L102.38048,38.67059322974947L102.388768,43.54521308070747L102.391136,48.50427070556776L102.3864,49.44541956619784L107.22718400000001,54.07868031114742L107.237248,50.755779615259826L107.239616,54.86489634058451L107.233696,53.26179494720783L112.075664,50.265648396896125L112.083952,52.53653189528053L112.08928,45.76191913716829L112.079808,45.7657229108724L116.92118400000001,43.73371946080917L116.930656,50.65166024791405L116.936576,46.66528186303415L116.927696,42.23916911782047L121.766704,45.68635861354946L121.78032,45.720386596701104L121.78564800000001,47.775089100877835L121.77617599999999,49.007910603383834L126.61577600000001,63.987603504887446L126.627024,70.94113353150391L126.63471999999999,75.11325154747377L126.624656,79.65080807134139L131.46188800000002,68.13334198566197L131.472544,71.39429090568288L131.484384,71.31657454340974L131.47432,73.30423044033157L136.311552,86.70253826419894L136.321616,86.6043801013765L136.33049599999998,86.54548520368304L136.3228,90.5787196936384L141.158256,109.27294610189733L141.167728,120.48948194685269L141.176608,131.28797488239732L141.171872,135.7327849294384L146.006144,132.2968138148059L146.016208,126.16665971745496L146.02272,126.55713868761583L146.017392,122.72285464114093L150.85284800000002,126.52514135611312L150.861728,122.7036562422393L150.87001600000002,120.41076517391502L150.864688,129.206459104349L155.701328,136.51816117689512L155.7108,142.9394681347085L155.719088,146.79225230939653L155.713168,149.10392281420934L160.548032,150.49092511709705L160.559872,151.32312649882965L160.56579200000002,151.8224473278692L160.55868800000002,152.12203982529297L165.393552,152.3017953237472L165.406576,152.40964862281976L165.411312,152.4743606022633L165.4048,152.5131877899294L170.242624,152.53648410252907L170.253872,152.55046189008885L170.260976,152.55884856262475L170.25328000000002,152.56388056614628L174.860816,152.5668997682592L175.10353600000002,152.56871128952696L175.107088,152.5697982022876L175.100576,152.570450349944L179.70752,152.57084163853781L179.95024,152.57107641169412L179.955568,152.5712172755879L179.94787200000002,152.57130179392416L184.555408,152.57135250492593L184.79576,150.53709721724127L184.80168,147.28225833034475L184.79635199999998,149.39792642677827L189.405072,116.08447014178125L189.64246400000002,89.99353922792588L189.65016,72.30469496532699L189.643648,65.75995983633902L194.254144,76.07311875894628L194.488576,82.26101411251062L194.496272,88.00803703893494L194.49153600000002,91.45625079478953L199.10144,97.59375047687372L199.10795199999998,103.31053600040994L199.11032,108.77489302881739L199.344752,112.05350724586187L203.950512,128.26067577608853L203.954656,137.98497689422456L203.956432,143.81955756510615L204.193824,145.28602025334942L208.797808,148.20018358058107L208.803728,149.94868157692008L208.80432000000002,150.99778037472348L209.042896,151.62723965340552L213.64687999999998,152.00491522061475L213.649248,152.23152056094028L213.64984,152.3674837651356L213.888416,152.44906168765277L218.494176,152.4980084411631L218.495952,148.45880506469786L218.49832,150.10385446739014L218.737488,151.09088410900551L223.34147199999998,151.68310189397474L223.34147199999998,152.03843256495628L223.35864,152.2516309675452L223.347392,152.37955000909855L228.18936,152.45630143403056L228.191136,152.50235228898975L228.20830400000003,152.52998280196528L228.19528,152.5465611097506L233.03784000000002,152.5565080944218L233.03784000000002,152.5624762852245L233.054416,152.56605719970614L233.044944,152.56820574839512L237.883952,152.5694948776085L237.88632,152.57026835513653L237.90408000000002,152.57073244165335L237.89224000000002,152.57101089356343L242.729472,152.57117796470948L242.733616,152.5712782073971L242.75196799999998,152.5713383530097L242.738352,152.57137444037724L247.576176,152.57139609279778L247.581504,152.5714090842501L247.599856,152.5714168791215L247.58683200000002,152.57142155604433L252.42584000000002,152.57142436219803L252.431168,152.57142604589023L252.447744,152.57142705610556L252.434128,152.57142766223478L257.271952,152.5714280259123L257.279648,152.5714282441188L257.297408,152.57142837504273L257.279648,152.57142845359706L262.11984,152.57142850072967L262.128128,152.5714285290092L262.144112,152.57142854597697L262.129312,152.5714285561576" style="fill: none;" fill="none"></path></g></g></g></g><g opacity="0.2"><g><g><g><path stroke="rgb(238, 51, 119)" stroke-width="2px" d="M30.884048,152.57142857142858L32.096464,152.57142857142858L33.308288,152.57142857142858L34.520704,142.4L35.729568,101.71428571428572L36.939024,45.77142857142857L38.149664,30.514285714285705L39.360896000000004,50.85714285714286L40.570352,50.85714285714286L41.7804,40.68571428571428L42.990448,50.85714285714286L44.19872,45.77142857142857L45.410544,45.77142857142857L46.621776000000004,25.428571428571445L47.83123200000001,40.68571428571428L49.039503999999994,55.942857142857136L50.250736,71.2L51.460192,61.028571428571425L52.669056000000005,71.2L53.88088,76.28571428571429L55.093296,40.68571428571428L56.30512,25.428571428571445L57.514576000000005,55.942857142857136L58.724032,50.85714285714286L59.934079999999994,40.68571428571428L61.142944,45.77142857142857L62.354176,40.68571428571428L63.565408,45.77142857142857L64.77664,35.599999999999994L65.98728,45.77142857142857L67.197328,20.342857142857156L68.406192,35.599999999999994L69.618608,45.77142857142857L70.830432,40.68571428571428L72.041664,45.77142857142857L73.252304,45.77142857142857L74.460576,35.599999999999994L75.671216,30.514285714285705L76.880672,35.599999999999994L78.091904,55.942857142857136L79.300176,40.68571428571428L80.51022400000001,35.599999999999994L81.720864,40.68571428571428L82.932096,35.599999999999994L84.14036800000001,45.77142857142857L85.352784,35.599999999999994L86.56519999999999,30.514285714285705L87.77406400000001,40.68571428571428L88.98352,45.77142857142857L90.19593599999999,45.77142857142857L91.408352,45.77142857142857L92.620176,45.77142857142857L93.830816,35.599999999999994L95.04027199999999,50.85714285714286L96.249728,25.428571428571445L97.458,35.599999999999994L98.66864000000001,45.77142857142857L99.879872,40.68571428571428L101.088736,40.68571428571428L102.297008,35.599999999999994L103.505872,35.599999999999994L104.71769599999999,45.77142857142857L105.92656000000001,35.599999999999994L107.136608,50.85714285714286L108.34606400000001,40.68571428571428L109.556704,50.85714285714286L110.767344,35.599999999999994L111.97916799999999,40.68571428571428L113.188624,50.85714285714286L114.397488,50.85714285714286L115.60931199999999,45.77142857142857L116.81936,50.85714285714286L118.027632,35.599999999999994L119.23768000000001,40.68571428571428L120.447136,45.77142857142857L121.65955199999999,25.428571428571445L122.870192,45.77142857142857L124.081424,45.77142857142857L125.29088,40.68571428571428L126.500928,40.68571428571428L127.710384,35.599999999999994L128.920432,20.342857142857156L130.132256,25.428571428571445L131.34408,40.68571428571428L132.55235199999998,45.77142857142857L133.76358399999998,50.85714285714286L134.974224,50.85714285714286L136.18368,40.68571428571428L137.395504,35.599999999999994L138.607328,45.77142857142857L139.81856,45.77142857142857L141.030384,40.68571428571428L142.240432,40.68571428571428L143.449296,40.68571428571428L144.65815999999998,35.599999999999994L145.8688,50.85714285714286L147.080032,50.85714285714286L148.29185600000002,45.77142857142857L149.500128,45.77142857142857L150.711952,45.77142857142857L151.923776,45.77142857142857L153.132048,40.68571428571428L154.343872,45.77142857142857L155.55332800000002,40.68571428571428L156.765744,45.77142857142857L157.976384,45.77142857142857L159.185248,45.77142857142857L160.39352,45.77142857142857L161.605344,30.514285714285705L162.81361600000002,35.599999999999994L164.02307199999998,50.85714285714286L165.232528,40.68571428571428L166.442576,35.599999999999994L167.652032,50.85714285714286L168.862672,55.942857142857136L170.071536,61.028571428571425L171.279808,30.514285714285705L172.49222400000002,40.68571428571428L173.70286399999998,45.77142857142857L174.91291199999998,45.77142857142857L176.123552,35.599999999999994L177.334192,20.342857142857156L178.543056,25.428571428571445L179.753104,50.85714285714286L180.96374400000002,45.77142857142857L182.1732,40.68571428571428L183.384432,50.85714285714286L184.59448,50.85714285714286L185.804528,40.68571428571428L187.016352,45.77142857142857L188.228176,45.77142857142857L189.437632,50.85714285714286L190.64708800000002,50.85714285714286L191.858912,45.77142857142857L193.06895999999998,50.85714285714286L194.2796,50.85714285714286L195.49024,50.85714285714286L196.700288,50.85714285714286L197.90974400000002,50.85714285714286L199.11979200000002,30.514285714285705L200.33043199999997,30.514285714285705L201.539296,40.68571428571428L202.748752,40.68571428571428L203.960576,45.77142857142857L205.17003200000002,40.68571428571428L206.37830399999999,35.599999999999994L207.588944,45.77142857142857L208.797808,25.428571428571445L210.00844800000002,45.77142857142857L211.217312,45.77142857142857L212.427952,45.77142857142857L213.638592,55.942857142857136L214.849824,15.257142857142867L216.061056,30.514285714285705L217.27288,35.599999999999994L218.48352,20.342857142857156L219.693568,55.942857142857136L220.9048,40.68571428571428L222.116624,40.68571428571428L223.325488,50.85714285714286L224.537904,30.514285714285705L225.746176,40.68571428571428L226.956816,45.77142857142857L228.16568,45.77142857142857L229.374544,45.77142857142857L230.58577599999998,61.028571428571425L231.795232,61.028571428571425L233.00350400000002,55.942857142857136L234.213552,50.85714285714286L235.42419199999998,35.599999999999994L236.63601599999998,50.85714285714286L237.84784000000002,40.68571428571428L239.056704,50.85714285714286L240.267936,30.514285714285705L241.477984,40.68571428571428L242.688624,50.85714285714286L243.899856,50.85714285714286L245.11168,30.514285714285705L246.321136,61.028571428571425L247.53296,40.68571428571428L248.744784,61.028571428571425L249.955424,50.85714285714286L251.166064,55.942857142857136L252.376112,50.85714285714286L253.585568,61.028571428571425L254.7968,50.85714285714286L256.00744000000003,40.68571428571428L257.219856,25.428571428571445L258.43168,40.68571428571428L259.64232,61.028571428571425L260.852368,55.942857142857136L262.0636,61.028571428571425L263.27424,50.85714285714286L264.485472,66.11428571428571L265.693744,61.028571428571425" style="fill: none;" fill="none"></path></g><g><path stroke="rgb(0, 119, 187)" stroke-width="2px" d="M34.523664000000004,142.4L34.524848,142.4L34.523072,147.4857142857143L34.523072,142.4L39.369776,40.68571428571428L39.374512,61.028571428571425L39.370368,55.942857142857136L39.370368,45.77142857142857L44.217664,30.514285714285705L44.2224,35.599999999999994L44.21944,25.428571428571445L44.220031999999996,40.68571428571428L49.06318400000001,55.942857142857136L49.06792,50.85714285714286L49.065552,45.77142857142857L49.066736,40.68571428571428L53.909296000000005,45.77142857142857L53.914032,35.599999999999994L53.912848,35.599999999999994L53.914032,45.77142857142857L58.754816000000005,35.599999999999994L58.762512,30.514285714285705L58.761328,45.77142857142857L58.760736,50.85714285714286L63.600928,66.11428571428571L63.610992,35.599999999999994L63.609808,40.68571428571428L63.608032,35.599999999999994L68.446448,55.942857142857136L68.457696,50.85714285714286L68.456512,61.028571428571425L68.457104,35.599999999999994L73.29611200000001,45.77142857142857L73.303808,50.85714285714286L73.302624,50.85714285714286L73.303216,40.68571428571428L78.144592,50.85714285714286L78.149328,35.599999999999994L78.151696,61.028571428571425L78.15051199999999,30.514285714285705L82.991888,30.514285714285705L82.996624,40.68571428571428L82.999584,50.85714285714286L82.99839999999999,30.514285714285705L87.83800000000001,50.85714285714286L87.84392,30.514285714285705L87.848656,25.428571428571445L87.84510399999999,45.77142857142857L92.68529600000001,35.599999999999994L92.693584,40.68571428571428L92.69536,45.77142857142857L92.69299199999999,40.68571428571428L97.533184,40.68571428571428L97.539104,50.85714285714286L97.545024,45.77142857142857L97.54088,25.428571428571445L102.38048,40.68571428571428L102.388768,50.85714285714286L102.391136,55.942857142857136L102.3864,50.85714285714286L107.22718400000001,61.028571428571425L107.237248,45.77142857142857L107.239616,61.028571428571425L107.233696,50.85714285714286L112.075664,45.77142857142857L112.083952,55.942857142857136L112.08928,35.599999999999994L112.079808,45.77142857142857L116.92118400000001,40.68571428571428L116.930656,61.028571428571425L116.936576,40.68571428571428L116.927696,35.599999999999994L121.766704,50.85714285714286L121.78032,45.77142857142857L121.78564800000001,50.85714285714286L121.77617599999999,50.85714285714286L126.61577600000001,86.45714285714287L126.627024,81.37142857142858L126.63471999999999,81.37142857142858L126.624656,86.45714285714287L131.46188800000002,50.85714285714286L131.472544,76.28571428571429L131.484384,71.2L131.47432,76.28571428571429L136.311552,106.8L136.321616,86.45714285714287L136.33049599999998,86.45714285714287L136.3228,96.62857142857143L141.158256,137.31428571428572L141.167728,137.31428571428572L141.176608,147.4857142857143L141.171872,142.4L146.006144,127.14285714285714L146.016208,116.97142857142856L146.02272,127.14285714285714L146.017392,116.97142857142856L150.85284800000002,132.22857142857143L150.861728,116.97142857142856L150.87001600000002,116.97142857142856L150.864688,142.4L155.701328,147.4857142857143L155.7108,152.57142857142858L155.719088,152.57142857142858L155.713168,152.57142857142858L160.548032,152.57142857142858L160.559872,152.57142857142858L160.56579200000002,152.57142857142858L160.55868800000002,152.57142857142858L165.393552,152.57142857142858L165.406576,152.57142857142858L165.411312,152.57142857142858L165.4048,152.57142857142858L170.242624,152.57142857142858L170.253872,152.57142857142858L170.260976,152.57142857142858L170.25328000000002,152.57142857142858L174.860816,152.57142857142858L175.10353600000002,152.57142857142858L175.107088,152.57142857142858L175.100576,152.57142857142858L179.70752,152.57142857142858L179.95024,152.57142857142858L179.955568,152.57142857142858L179.94787200000002,152.57142857142858L184.555408,152.57142857142858L184.79576,147.4857142857143L184.80168,142.4L184.79635199999998,152.57142857142858L189.405072,66.11428571428571L189.64246400000002,50.85714285714286L189.65016,45.77142857142857L189.643648,55.942857142857136L194.254144,91.54285714285714L194.488576,91.54285714285714L194.496272,96.62857142857143L194.49153600000002,96.62857142857143L199.10144,106.8L199.10795199999998,111.88571428571429L199.11032,116.97142857142856L199.344752,116.97142857142856L203.950512,152.57142857142858L203.954656,152.57142857142858L203.956432,152.57142857142858L204.193824,147.4857142857143L208.797808,152.57142857142858L208.803728,152.57142857142858L208.80432000000002,152.57142857142858L209.042896,152.57142857142858L213.64687999999998,152.57142857142858L213.649248,152.57142857142858L213.64984,152.57142857142858L213.888416,152.57142857142858L218.494176,152.57142857142858L218.495952,142.4L218.49832,152.57142857142858L218.737488,152.57142857142858L223.34147199999998,152.57142857142858L223.34147199999998,152.57142857142858L223.35864,152.57142857142858L223.347392,152.57142857142858L228.18936,152.57142857142858L228.191136,152.57142857142858L228.20830400000003,152.57142857142858L228.19528,152.57142857142858L233.03784000000002,152.57142857142858L233.03784000000002,152.57142857142858L233.054416,152.57142857142858L233.044944,152.57142857142858L237.883952,152.57142857142858L237.88632,152.57142857142858L237.90408000000002,152.57142857142858L237.89224000000002,152.57142857142858L242.729472,152.57142857142858L242.733616,152.57142857142858L242.75196799999998,152.57142857142858L242.738352,152.57142857142858L247.576176,152.57142857142858L247.581504,152.57142857142858L247.599856,152.57142857142858L247.58683200000002,152.57142857142858L252.42584000000002,152.57142857142858L252.431168,152.57142857142858L252.447744,152.57142857142858L252.434128,152.57142857142858L257.271952,152.57142857142858L257.279648,152.57142857142858L257.297408,152.57142857142858L257.279648,152.57142857142858L262.11984,152.57142857142858L262.128128,152.57142857142858L262.144112,152.57142857142858L262.129312,152.57142857142858" style="fill: none;" fill="none"></path></g></g></g></g></g></g><g transform="translate(34, 178)" clip-path="url(#clip_1)"><clipPath id="clip_1"><rect width="296" height="22"></rect></clipPath><g><g><line x1="0" y1="0" x2="0" y2="5" style="visibility: inherit;" fill="rgb(0, 0, 0)" stroke="rgb(204, 204, 204)" stroke-width="1px"></line><line x1="29.6" y1="0" x2="29.6" y2="5" style="visibility: inherit;" fill="rgb(0, 0, 0)" stroke="rgb(204, 204, 204)" stroke-width="1px"></line><line x1="59.2" y1="0" x2="59.2" y2="5" style="visibility: inherit;" fill="rgb(0, 0, 0)" stroke="rgb(204, 204, 204)" stroke-width="1px"></line><line x1="88.8" y1="0" x2="88.8" y2="5" style="visibility: inherit;" fill="rgb(0, 0, 0)" stroke="rgb(204, 204, 204)" stroke-width="1px"></line><line x1="118.4" y1="0" x2="118.4" y2="5" style="visibility: inherit;" fill="rgb(0, 0, 0)" stroke="rgb(204, 204, 204)" stroke-width="1px"></line><line x1="148" y1="0" x2="148" y2="5" style="visibility: inherit;" fill="rgb(0, 0, 0)" stroke="rgb(204, 204, 204)" stroke-width="1px"></line><line x1="177.6" y1="0" x2="177.6" y2="5" style="visibility: inherit;" fill="rgb(0, 0, 0)" stroke="rgb(204, 204, 204)" stroke-width="1px"></line><line x1="207.2" y1="0" x2="207.2" y2="5" style="visibility: inherit;" fill="rgb(0, 0, 0)" stroke="rgb(204, 204, 204)" stroke-width="1px"></line><line x1="236.8" y1="0" x2="236.8" y2="5" style="visibility: inherit;" fill="rgb(0, 0, 0)" stroke="rgb(204, 204, 204)" stroke-width="1px"></line><line x1="266.40000000000003" y1="0" x2="266.40000000000003" y2="5" style="visibility: inherit;" fill="rgb(0, 0, 0)" stroke="rgb(204, 204, 204)" stroke-width="1px"></line><line x1="296" y1="0" x2="296" y2="5" style="visibility: inherit;" fill="rgb(0, 0, 0)" stroke="rgb(204, 204, 204)" stroke-width="1px"></line></g><g transform="translate(0, 8)"><text x="0" y="0" dx="0em" dy="0.95em" style="text-anchor: middle; visibility: hidden; font-family: &quot;Helvetica Neue&quot;, sans-serif; font-size: 12px; font-weight: 200;" fill="rgb(50, 49, 63)" stroke="none" stroke-width="1px">-50k</text><text x="29.6" y="0" dx="0em" dy="0.95em" style="text-anchor: middle; visibility: inherit; font-family: &quot;Helvetica Neue&quot;, sans-serif; font-size: 12px; font-weight: 200;" fill="rgb(50, 49, 63)" stroke="none" stroke-width="1px">0</text><text x="59.2" y="0" dx="0em" dy="0.95em" style="text-anchor: middle; visibility: hidden; font-family: &quot;Helvetica Neue&quot;, sans-serif; font-size: 12px; font-weight: 200;" fill="rgb(50, 49, 63)" stroke="none" stroke-width="1px">50k</text><text x="88.8" y="0" dx="0em" dy="0.95em" style="text-anchor: middle; visibility: inherit; font-family: &quot;Helvetica Neue&quot;, sans-serif; font-size: 12px; font-weight: 200;" fill="rgb(50, 49, 63)" stroke="none" stroke-width="1px">100k</text><text x="118.4" y="0" dx="0em" dy="0.95em" style="text-anchor: middle; visibility: hidden; font-family: &quot;Helvetica Neue&quot;, sans-serif; font-size: 12px; font-weight: 200;" fill="rgb(50, 49, 63)" stroke="none" stroke-width="1px">150k</text><text x="148" y="0" dx="0em" dy="0.95em" style="text-anchor: middle; visibility: inherit; font-family: &quot;Helvetica Neue&quot;, sans-serif; font-size: 12px; font-weight: 200;" fill="rgb(50, 49, 63)" stroke="none" stroke-width="1px">200k</text><text x="177.6" y="0" dx="0em" dy="0.95em" style="text-anchor: middle; visibility: hidden; font-family: &quot;Helvetica Neue&quot;, sans-serif; font-size: 12px; font-weight: 200;" fill="rgb(50, 49, 63)" stroke="none" stroke-width="1px">250k</text><text x="207.2" y="0" dx="0em" dy="0.95em" style="text-anchor: middle; visibility: inherit; font-family: &quot;Helvetica Neue&quot;, sans-serif; font-size: 12px; font-weight: 200;" fill="rgb(50, 49, 63)" stroke="none" stroke-width="1px">300k</text><text x="236.8" y="0" dx="0em" dy="0.95em" style="text-anchor: middle; visibility: hidden; font-family: &quot;Helvetica Neue&quot;, sans-serif; font-size: 12px; font-weight: 200;" fill="rgb(50, 49, 63)" stroke="none" stroke-width="1px">350k</text><text x="266.40000000000003" y="0" dx="0em" dy="0.95em" style="text-anchor: middle; visibility: inherit; font-family: &quot;Helvetica Neue&quot;, sans-serif; font-size: 12px; font-weight: 200;" fill="rgb(50, 49, 63)" stroke="none" stroke-width="1px">400k</text><text x="296" y="0" dx="0em" dy="0.95em" style="text-anchor: middle; visibility: hidden; font-family: &quot;Helvetica Neue&quot;, sans-serif; font-size: 12px; font-weight: 200;" fill="rgb(50, 49, 63)" stroke="none" stroke-width="1px">450k</text></g><line x1="0" y1="0" x2="296" y2="0" fill="rgb(0, 0, 0)" stroke="rgb(204, 204, 204)" stroke-width="1px"></line></g></g></g></g></svg>