<svg viewBox="0 0 330 200" xmlns="http://www.w3.org/2000/svg"><g><g><g><g><g><line x1="34" y1="178" x2="29" y2="178" style="visibility: inherit;" fill="rgb(0, 0, 0)" stroke="rgb(204, 204, 204)" stroke-width="1px"></line><line x1="34" y1="152.57142857142858" x2="29" y2="152.57142857142858" style="visibility: inherit;" fill="rgb(0, 0, 0)" stroke="rgb(204, 204, 204)" stroke-width="1px"></line><line x1="34" y1="127.14285714285714" x2="29" y2="127.14285714285714" style="visibility: inherit;" fill="rgb(0, 0, 0)" stroke="rgb(204, 204, 204)" stroke-width="1px"></line><line x1="34" y1="101.71428571428572" x2="29" y2="101.71428571428572" style="visibility: inherit;" fill="rgb(0, 0, 0)" stroke="rgb(204, 204, 204)" stroke-width="1px"></line><line x1="34" y1="76.28571428571429" x2="29" y2="76.28571428571429" style="visibility: inherit;" fill="rgb(0, 0, 0)" stroke="rgb(204, 204, 204)" stroke-width="1px"></line><line x1="34" y1="50.85714285714286" x2="29" y2="50.85714285714286" style="visibility: inherit;" fill="rgb(0, 0, 0)" stroke="rgb(204, 204, 204)" stroke-width="1px"></line><line x1="34" y1="25.428571428571445" x2="29" y2="25.428571428571445" style="visibility: inherit;" fill="rgb(0, 0, 0)" stroke="rgb(204, 204, 204)" stroke-width="1px"></line><line x1="34" y1="0" x2="29" y2="0" style="visibility: inherit;" fill="rgb(0, 0, 0)" stroke="rgb(204, 204, 204)" stroke-width="1px"></line></g><g transform="translate(24, 0)"><text x="0" y="178" dx="0em" dy="0.3em" style="text-anchor: end; visibility: hidden; font-family: &quot;Helvetica Neue&quot;, sans-serif; font-size: 12px; font-weight: 200;" fill="rgb(50, 49, 63)" stroke="none" stroke-width="1px">-5</text><text x="0" y="152.57142857142858" dx="0em" dy="0.3em" style="text-anchor: end; visibility: inherit; font-family: &quot;Helvetica Neue&quot;, sans-serif; font-size: 12px; font-weight: 200;" fill="rgb(50, 49, 63)" stroke="none" stroke-width="1px">0</text><text x="0" y="127.14285714285714" dx="0em" dy="0.3em" style="text-anchor: end; visibility: inherit; font-family: &quot;Helvetica Neue&quot;, sans-serif; font-size: 12px; font-weight: 200;" fill="rgb(50, 49, 63)" stroke="none" stroke-width="1px">5</text><text x="0" y="101.71428571428572" dx="0em" dy="0.3em" style="text-anchor: end; visibility: inherit; font-family: &quot;Helvetica Neue&quot;, sans-serif; font-size: 12px; font-weight: 200;" fill="rgb(50, 49, 63)" stroke="none" stroke-width="1px">10</text><text x="0" y="76.28571428571429" dx="0em" dy="0.3em" style="text-anchor: end; visibility: inherit; font-family: &quot;Helvetica Neue&quot;, sans-serif; font-size: 12px; font-weight: 200;" fill="rgb(50, 49, 63)" stroke="none" stroke-width="1px">15</text><text x="0" y="50.85714285714286" dx="0em" dy="0.3em" style="text-anchor: end; visibility: inherit; font-family: &quot;Helvetica Neue&quot;, sans-serif; font-size: 12px; font-weight: 200;" fill="rgb(50, 49, 63)" stroke="none" stroke-width="1px">20</text><text x="0" y="25.428571428571445" dx="0em" dy="0.3em" style="text-anchor: end; visibility: inherit; font-family: &quot;Helvetica Neue&quot;, sans-serif; font-size: 12px; font-weight: 200;" fill="rgb(50, 49, 63)" stroke="none" stroke-width="1px">25</text><text x="0" y="0" dx="0em" dy="0.3em" style="text-anchor: end; visibility: hidden; font-family: &quot;Helvetica Neue&quot;, sans-serif; font-size: 12px; font-weight: 200;" fill="rgb(50, 49, 63)" stroke="none" stroke-width="1px">30</text></g><line x1="34" y1="0" x2="34" y2="178" fill="rgb(0, 0, 0)" stroke="rgb(204, 204, 204)" stroke-width="1px"></line></g></g><g transform="translate(34, 0)" clip-path="url(#clip_0)"><clipPath id="clip_0"><rect width="296" height="178"></rect></clipPath><g><g><g><line x1="0" y1="0" x2="0" y2="178" fill="rgb(0, 0, 0)" stroke="rgb(60, 60, 60)" stroke-width="1px" opacity="0.25"></line><line x1="19.733333333333334" y1="0" x2="19.733333333333334" y2="178" fill="rgb(0, 0, 0)" stroke="rgb(60, 60, 60)" stroke-width="1px" opacity="0.25"></line><line x1="39.46666666666667" y1="0" x2="39.46666666666667" y2="178" fill="rgb(0, 0, 0)" stroke="rgb(60, 60, 60)" stroke-width="1px" opacity="0.25"></line><line x1="59.2" y1="0" x2="59.2" y2="178" fill="rgb(0, 0, 0)" stroke="rgb(60, 60, 60)" stroke-width="1px" opacity="0.25"></line><line x1="78.93333333333334" y1="0" x2="78.93333333333334" y2="178" fill="rgb(0, 0, 0)" stroke="rgb(60, 60, 60)" stroke-width="1px" opacity="0.25"></line><line x1="98.66666666666666" y1="0" x2="98.66666666666666" y2="178" fill="rgb(0, 0, 0)" stroke="rgb(60, 60, 60)" stroke-width="1px" opacity="0.25"></line><line x1="118.4" y1="0" x2="118.4" y2="178" fill="rgb(0, 0, 0)" stroke="rgb(60, 60, 60)" stroke-width="1px" opacity="0.25"></line><line x1="138.13333333333333" y1="0" x2="138.13333333333333" y2="178" fill="rgb(0, 0, 0)" stroke="rgb(60, 60, 60)" stroke-width="1px" opacity="0.25"></line><line x1="157.86666666666667" y1="0" x2="157.86666666666667" y2="178" fill="rgb(0, 0, 0)" stroke="rgb(60, 60, 60)" stroke-width="1px" opacity="0.25"></line><line x1="177.6" y1="0" x2="177.6" y2="178" fill="rgb(0, 0, 0)" stroke="rgb(60, 60, 60)" stroke-width="1px" opacity="0.25"></line><line x1="197.33333333333331" y1="0" x2="197.33333333333331" y2="178" fill="rgb(0, 0, 0)" stroke="rgb(60, 60, 60)" stroke-width="1px" opacity="0.25"></line><line x1="217.06666666666666" y1="0" x2="217.06666666666666" y2="178" fill="rgb(0, 0, 0)" stroke="rgb(60, 60, 60)" stroke-width="1px" opacity="0.25"></line><line x1="236.8" y1="0" x2="236.8" y2="178" fill="rgb(0, 0, 0)" stroke="rgb(60, 60, 60)" stroke-width="1px" opacity="0.25"></line><line x1="256.53333333333336" y1="0" x2="256.53333333333336" y2="178" fill="rgb(0, 0, 0)" stroke="rgb(60, 60, 60)" stroke-width="1px" opacity="0.25"></line><line x1="276.26666666666665" y1="0" x2="276.26666666666665" y2="178" fill="rgb(0, 0, 0)" stroke="rgb(60, 60, 60)" stroke-width="1px" opacity="0.25"></line><line x1="296" y1="0" x2="296" y2="178" fill="rgb(0, 0, 0)" stroke="rgb(60, 60, 60)" stroke-width="1px" opacity="0.25"></line></g><g><line x1="0" y1="178" x2="296" y2="178" fill="rgb(0, 0, 0)" stroke="rgb(60, 60, 60)" stroke-width="1px" opacity="0.25"></line><line x1="0" y1="152.57142857142858" x2="296" y2="152.57142857142858" fill="rgb(0, 0, 0)" stroke="rgb(60, 60, 60)" stroke-width="1px" opacity="0.25"></line><line x1="0" y1="127.14285714285714" x2="296" y2="127.14285714285714" fill="rgb(0, 0, 0)" stroke="rgb(60, 60, 60)" stroke-width="1px" opacity="0.25"></line><line x1="0" y1="101.71428571428572" x2="296" y2="101.71428571428572" fill="rgb(0, 0, 0)" stroke="rgb(60, 60, 60)" stroke-width="1px" opacity="0.25"></line><line x1="0" y1="76.28571428571429" x2="296" y2="76.28571428571429" fill="rgb(0, 0, 0)" stroke="rgb(60, 60, 60)" stroke-width="1px" opacity="0.25"></line><line x1="0" y1="50.85714285714286" x2="296" y2="50.85714285714286" fill="rgb(0, 0, 0)" stroke="rgb(60, 60, 60)" stroke-width="1px" opacity="0.25"></line><line x1="0" y1="25.428571428571445" x2="296" y2="25.428571428571445" fill="rgb(0, 0, 0)" stroke="rgb(60, 60, 60)" stroke-width="1px" opacity="0.25"></line><line x1="0" y1="0" x2="296" y2="0" fill="rgb(0, 0, 0)" stroke="rgb(60, 60, 60)" stroke-width="1px" opacity="0.25"></line></g></g></g><g><g><line x1="0" y1="152.57142857142858" x2="296" y2="152.57142857142858" fill="rgb(0, 0, 0)" stroke="rgb(153, 153, 153)" stroke-width="1.5px"></line></g></g><g><g><line x1="19.733333333333334" y1="0" x2="19.733333333333334" y2="178" fill="rgb(0, 0, 0)" stroke="rgb(153, 153, 153)" stroke-width="1.5px"></line></g></g><g><g><g><g><g><path stroke="rgb(0, 153, 136)" stroke-width="2px" d="M21.874399999999998,137.31428571428572L23.894106666666666,146.85L25.90986666666667,149.76909620991253L27.9276,151.05693277310925L29.941386666666666,151.71380985426788L31.957146666666667,152.0736458493172L33.97784,152.27849335736295L35.99656,146.19055633584878L38.017253333333336,140.5489075515509L40.03794666666667,118.7805769025629L42.05173333333334,91.51227468673468L44.06749333333333,69.09857506662331L46.08226666666667,57.718567674815276L48.102959999999996,46.82832083970314L50.118719999999996,40.29963710047295L52.135466666666666,46.55869086528537L54.15122666666667,38.10521219905473L56.165013333333334,35.06853320015958L58.181760000000004,37.31554255808524L60.20245333333333,40.698020632180175L62.21722666666667,36.624437303025985L64.23693333333333,30.11171951745729L66.25565333333333,38.409954387000255L68.26944,37.28596730632074L70.28717333333334,36.611578466485525L72.30293333333333,38.241235574074295L74.31770666666667,39.21902805949148L76.33248,39.80570291025424L78.34725333333334,38.123421126304805L80.364,37.11405245263779L82.38272,42.611289343617244L84.40144000000001,45.90963101153133L86.42016,45.85435003285042L88.43394666666667,47.855467219901755L90.45069333333333,44.987565996925525L92.46744,37.16396808888797L94.48221333333333,38.572666576336445L96.49994666666666,31.28074277586839L98.51866666666666,35.04273138818817L100.53541333333332,41.368495984226L102.5492,45.16395473643689L104.56989333333334,39.30408712475648L106.58959999999999,45.95959513391844L108.61029333333333,45.88432850890945L110.62605333333333,45.839168533912414L112.6428,47.84635826332979L114.65658666666667,47.016386386538215L116.67136,42.449831831820404L118.68909333333333,43.77847052768155L120.7088,34.404225173676025L122.72850666666668,38.95110653279909L124.74229333333334,41.67923534825883L126.75904,41.28182692324032L128.77874666666668,36.974810439653965L130.79746666666668,34.390600549505024L132.81322666666668,43.011503186849126L134.828,40.04690191210881L136.84178666666668,42.336712575837026L138.85754666666668,41.67631325978789L140.87725333333333,39.2457879558726L142.89498666666665,31.6846156306662L144.91370666666668,39.35362652125701L146.93341333333333,41.92074734132564L148.94719999999998,43.461019833366834L150.96394666666666,40.31661190002009L152.98365333333334,40.46425285429777L154.99842666666666,44.62140885543582L157.0122133333333,49.149988170404356L159.03093333333334,49.83285004509975L161.04768,48.208281455631266L163.06738666666666,41.130683159093024L165.08808,42.986981324027255L167.10186666666667,42.06647450870204L169.11861333333334,43.54845613379268L171.13536,42.403359394561306L173.15408000000002,45.78487277959391L175.17082666666664,43.74520938204205L177.18856,42.52141134351095L179.20925333333332,45.85570394896371L181.22797333333332,43.787708083663944L183.24472,44.581196278769795L185.26343999999997,40.988717767261875L187.2792,46.97037351749998L189.29693333333333,50.559366967642845L191.31269333333336,46.60990589487142L193.32648,42.20594353692286L195.34717333333333,39.5635661221537L197.36194666666668,40.012425387577935L199.38264,36.213169518261026L201.40037333333333,38.00218742524234L203.41613333333333,41.10988388371683L205.43583999999998,42.97450175880152L207.45258666666666,46.12755819813805L209.47032000000002,48.01939206173998L211.49002666666667,41.01734952275828L213.50874666666667,42.918981142226386L215.52450666666667,46.09424582819298L217.54224000000002,47.99940463977293L219.56194666666667,45.073928498149456L221.58165333333332,43.31864281317539L223.59642666666667,42.26547140219094L225.61613333333332,47.736425698457424L227.63485333333335,44.916141133360156L229.64962666666668,47.29254182287326L231.66834666666668,42.61552509372393L233.68509333333336,45.912172199091486L235.7048,43.82158903374062L237.71957333333333,42.56723913453007L239.73533333333333,45.88320062357519L241.75306666666665,45.83849180271656L243.7708,45.81166651020135L245.79050666666666,45.79557133469223L247.80528,47.82019994367249L249.8230133333333,47.00069139477492L251.84173333333334,48.54327197972211L253.85650666666666,43.36596318783327L255.87522666666666,44.32814934127137L257.89592,42.87117531904855L259.91562666666664,44.03127662000057L261.93533333333335,40.65876597200031L263.9540533333333,46.77240244034306L265.97376,40.26915574992012L267.9934666666667,40.4357791642378L270.00824,38.501467498542695L272.0230133333333,37.3408804991256L274.0387733333333,44.781671156618216L276.05354666666665,41.10900269397092L278.0702933333333,42.97397304495399L280.08704,46.12724096982953" style="fill: none;" fill="none"></path></g></g></g></g><g opacity="0.2"><g><g><g><path stroke="rgb(0, 153, 136)" stroke-width="2px" d="M21.874399999999998,137.31428571428572L23.894106666666666,152.57142857142858L25.90986666666667,152.57142857142858L27.9276,152.57142857142858L29.941386666666666,152.57142857142858L31.957146666666667,152.57142857142858L33.97784,152.57142857142858L35.99656,137.31428571428572L38.017253333333336,132.22857142857143L40.03794666666667,86.45714285714287L42.05173333333334,50.85714285714286L44.06749333333333,35.599999999999994L46.08226666666667,40.68571428571428L48.102959999999996,30.514285714285705L50.118719999999996,30.514285714285705L52.135466666666666,55.942857142857136L54.15122666666667,25.428571428571445L56.165013333333334,30.514285714285705L58.181760000000004,40.68571428571428L60.20245333333333,45.77142857142857L62.21722666666667,30.514285714285705L64.23693333333333,20.342857142857156L66.25565333333333,50.85714285714286L68.26944,35.599999999999994L70.28717333333334,35.599999999999994L72.30293333333333,40.68571428571428L74.31770666666667,40.68571428571428L76.33248,40.68571428571428L78.34725333333334,35.599999999999994L80.364,35.599999999999994L82.38272,50.85714285714286L84.40144000000001,50.85714285714286L86.42016,45.77142857142857L88.43394666666667,50.85714285714286L90.45069333333333,40.68571428571428L92.46744,25.428571428571445L94.48221333333333,40.68571428571428L96.49994666666666,20.342857142857156L98.51866666666666,40.68571428571428L100.53541333333332,50.85714285714286L102.5492,50.85714285714286L104.56989333333334,30.514285714285705L106.58959999999999,55.942857142857136L108.61029333333333,45.77142857142857L110.62605333333333,45.77142857142857L112.6428,50.85714285714286L114.65658666666667,45.77142857142857L116.67136,35.599999999999994L118.68909333333333,45.77142857142857L120.7088,20.342857142857156L122.72850666666668,45.77142857142857L124.74229333333334,45.77142857142857L126.75904,40.68571428571428L128.77874666666668,30.514285714285705L130.79746666666668,30.514285714285705L132.81322666666668,55.942857142857136L134.828,35.599999999999994L136.84178666666668,45.77142857142857L138.85754666666668,40.68571428571428L140.87725333333333,35.599999999999994L142.89498666666665,20.342857142857156L144.91370666666668,50.85714285714286L146.93341333333333,45.77142857142857L148.94719999999998,45.77142857142857L150.96394666666666,35.599999999999994L152.98365333333334,40.68571428571428L154.99842666666666,50.85714285714286L157.0122133333333,55.942857142857136L159.03093333333334,50.85714285714286L161.04768,45.77142857142857L163.06738666666666,30.514285714285705L165.08808,45.77142857142857L167.10186666666667,40.68571428571428L169.11861333333334,45.77142857142857L171.13536,40.68571428571428L173.15408000000002,50.85714285714286L175.17082666666664,40.68571428571428L177.18856,40.68571428571428L179.20925333333332,50.85714285714286L181.22797333333332,40.68571428571428L183.24472,45.77142857142857L185.26343999999997,35.599999999999994L187.2792,55.942857142857136L189.29693333333333,55.942857142857136L191.31269333333336,40.68571428571428L193.32648,35.599999999999994L195.34717333333333,35.599999999999994L197.36194666666668,40.68571428571428L199.38264,30.514285714285705L201.40037333333333,40.68571428571428L203.41613333333333,45.77142857142857L205.43583999999998,45.77142857142857L207.45258666666666,50.85714285714286L209.47032000000002,50.85714285714286L211.49002666666667,30.514285714285705L213.50874666666667,45.77142857142857L215.52450666666667,50.85714285714286L217.54224000000002,50.85714285714286L219.56194666666667,40.68571428571428L221.58165333333332,40.68571428571428L223.59642666666667,40.68571428571428L225.61613333333332,55.942857142857136L227.63485333333335,40.68571428571428L229.64962666666668,50.85714285714286L231.66834666666668,35.599999999999994L233.68509333333336,50.85714285714286L235.7048,40.68571428571428L237.71957333333333,40.68571428571428L239.73533333333333,50.85714285714286L241.75306666666665,45.77142857142857L243.7708,45.77142857142857L245.79050666666666,45.77142857142857L247.80528,50.85714285714286L249.8230133333333,45.77142857142857L251.84173333333334,50.85714285714286L253.85650666666666,35.599999999999994L255.87522666666666,45.77142857142857L257.89592,40.68571428571428L259.91562666666664,45.77142857142857L261.93533333333335,35.599999999999994L263.9540533333333,55.942857142857136L265.97376,30.514285714285705L267.9934666666667,40.68571428571428L270.00824,35.599999999999994L272.0230133333333,35.599999999999994L274.0387733333333,55.942857142857136L276.05354666666665,35.599999999999994L278.0702933333333,45.77142857142857L280.08704,50.85714285714286" style="fill: none;" fill="none"></path></g></g></g></g></g></g><g transform="translate(34, 178)" clip-path="url(#clip_1)"><clipPath id="clip_1"><rect width="296" height="22"></rect></clipPath><g><g><line x1="0" y1="0" x2="0" y2="5" style="visibility: inherit;" fill="rgb(0, 0, 0)" stroke="rgb(204, 204, 204)" stroke-width="1px"></line><line x1="19.733333333333334" y1="0" x2="19.733333333333334" y2="5" style="visibility: inherit;" fill="rgb(0, 0, 0)" stroke="rgb(204, 204, 204)" stroke-width="1px"></line><line x1="39.46666666666667" y1="0" x2="39.46666666666667" y2="5" style="visibility: inherit;" fill="rgb(0, 0, 0)" stroke="rgb(204, 204, 204)" stroke-width="1px"></line><line x1="59.2" y1="0" x2="59.2" y2="5" style="visibility: inherit;" fill="rgb(0, 0, 0)" stroke="rgb(204, 204, 204)" stroke-width="1px"></line><line x1="78.93333333333334" y1="0" x2="78.93333333333334" y2="5" style="visibility: inherit;" fill="rgb(0, 0, 0)" stroke="rgb(204, 204, 204)" stroke-width="1px"></line><line x1="98.66666666666666" y1="0" x2="98.66666666666666" y2="5" style="visibility: inherit;" fill="rgb(0, 0, 0)" stroke="rgb(204, 204, 204)" stroke-width="1px"></line><line x1="118.4" y1="0" x2="118.4" y2="5" style="visibility: inherit;" fill="rgb(0, 0, 0)" stroke="rgb(204, 204, 204)" stroke-width="1px"></line><line x1="138.13333333333333" y1="0" x2="138.13333333333333" y2="5" style="visibility: inherit;" fill="rgb(0, 0, 0)" stroke="rgb(204, 204, 204)" stroke-width="1px"></line><line x1="157.86666666666667" y1="0" x2="157.86666666666667" y2="5" style="visibility: inherit;" fill="rgb(0, 0, 0)" stroke="rgb(204, 204, 204)" stroke-width="1px"></line><line x1="177.6" y1="0" x2="177.6" y2="5" style="visibility: inherit;" fill="rgb(0, 0, 0)" stroke="rgb(204, 204, 204)" stroke-width="1px"></line><line x1="197.33333333333331" y1="0" x2="197.33333333333331" y2="5" style="visibility: inherit;" fill="rgb(0, 0, 0)" stroke="rgb(204, 204, 204)" stroke-width="1px"></line><line x1="217.06666666666666" y1="0" x2="217.06666666666666" y2="5" style="visibility: inherit;" fill="rgb(0, 0, 0)" stroke="rgb(204, 204, 204)" stroke-width="1px"></line><line x1="236.8" y1="0" x2="236.8" y2="5" style="visibility: inherit;" fill="rgb(0, 0, 0)" stroke="rgb(204, 204, 204)" stroke-width="1px"></line><line x1="256.53333333333336" y1="0" x2="256.53333333333336" y2="5" style="visibility: inherit;" fill="rgb(0, 0, 0)" stroke="rgb(204, 204, 204)" stroke-width="1px"></line><line x1="276.26666666666665" y1="0" x2="276.26666666666665" y2="5" style="visibility: inherit;" fill="rgb(0, 0, 0)" stroke="rgb(204, 204, 204)" stroke-width="1px"></line><line x1="296" y1="0" x2="296" y2="5" style="visibility: inherit;" fill="rgb(0, 0, 0)" stroke="rgb(204, 204, 204)" stroke-width="1px"></line></g><g transform="translate(0, 8)"><text x="0" y="0" dx="0em" dy="0.95em" style="text-anchor: middle; visibility: hidden; font-family: &quot;Helvetica Neue&quot;, sans-serif; font-size: 12px; font-weight: 200;" fill="rgb(50, 49, 63)" stroke="none" stroke-width="1px">-20k</text><text x="19.733333333333334" y="0" dx="0em" dy="0.95em" style="text-anchor: middle; visibility: inherit; font-family: &quot;Helvetica Neue&quot;, sans-serif; font-size: 12px; font-weight: 200;" fill="rgb(50, 49, 63)" stroke="none" stroke-width="1px">0</text><text x="39.46666666666667" y="0" dx="0em" dy="0.95em" style="text-anchor: middle; visibility: hidden; font-family: &quot;Helvetica Neue&quot;, sans-serif; font-size: 12px; font-weight: 200;" fill="rgb(50, 49, 63)" stroke="none" stroke-width="1px">20k</text><text x="59.2" y="0" dx="0em" dy="0.95em" style="text-anchor: middle; visibility: inherit; font-family: &quot;Helvetica Neue&quot;, sans-serif; font-size: 12px; font-weight: 200;" fill="rgb(50, 49, 63)" stroke="none" stroke-width="1px">40k</text><text x="78.93333333333334" y="0" dx="0em" dy="0.95em" style="text-anchor: middle; visibility: hidden; font-family: &quot;Helvetica Neue&quot;, sans-serif; font-size: 12px; font-weight: 200;" fill="rgb(50, 49, 63)" stroke="none" stroke-width="1px">60k</text><text x="98.66666666666666" y="0" dx="0em" dy="0.95em" style="text-anchor: middle; visibility: inherit; font-family: &quot;Helvetica Neue&quot;, sans-serif; font-size: 12px; font-weight: 200;" fill="rgb(50, 49, 63)" stroke="none" stroke-width="1px">80k</text><text x="118.4" y="0" dx="0em" dy="0.95em" style="text-anchor: middle; visibility: hidden; font-family: &quot;Helvetica Neue&quot;, sans-serif; font-size: 12px; font-weight: 200;" fill="rgb(50, 49, 63)" stroke="none" stroke-width="1px">100k</text><text x="138.13333333333333" y="0" dx="0em" dy="0.95em" style="text-anchor: middle; visibility: inherit; font-family: &quot;Helvetica Neue&quot;, sans-serif; font-size: 12px; font-weight: 200;" fill="rgb(50, 49, 63)" stroke="none" stroke-width="1px">120k</text><text x="157.86666666666667" y="0" dx="0em" dy="0.95em" style="text-anchor: middle; visibility: hidden; font-family: &quot;Helvetica Neue&quot;, sans-serif; font-size: 12px; font-weight: 200;" fill="rgb(50, 49, 63)" stroke="none" stroke-width="1px">140k</text><text x="177.6" y="0" dx="0em" dy="0.95em" style="text-anchor: middle; visibility: inherit; font-family: &quot;Helvetica Neue&quot;, sans-serif; font-size: 12px; font-weight: 200;" fill="rgb(50, 49, 63)" stroke="none" stroke-width="1px">160k</text><text x="197.33333333333331" y="0" dx="0em" dy="0.95em" style="text-anchor: middle; visibility: hidden; font-family: &quot;Helvetica Neue&quot;, sans-serif; font-size: 12px; font-weight: 200;" fill="rgb(50, 49, 63)" stroke="none" stroke-width="1px">180k</text><text x="217.06666666666666" y="0" dx="0em" dy="0.95em" style="text-anchor: middle; visibility: inherit; font-family: &quot;Helvetica Neue&quot;, sans-serif; font-size: 12px; font-weight: 200;" fill="rgb(50, 49, 63)" stroke="none" stroke-width="1px">200k</text><text x="236.8" y="0" dx="0em" dy="0.95em" style="text-anchor: middle; visibility: hidden; font-family: &quot;Helvetica Neue&quot;, sans-serif; font-size: 12px; font-weight: 200;" fill="rgb(50, 49, 63)" stroke="none" stroke-width="1px">220k</text><text x="256.53333333333336" y="0" dx="0em" dy="0.95em" style="text-anchor: middle; visibility: inherit; font-family: &quot;Helvetica Neue&quot;, sans-serif; font-size: 12px; font-weight: 200;" fill="rgb(50, 49, 63)" stroke="none" stroke-width="1px">240k</text><text x="276.26666666666665" y="0" dx="0em" dy="0.95em" style="text-anchor: middle; visibility: hidden; font-family: &quot;Helvetica Neue&quot;, sans-serif; font-size: 12px; font-weight: 200;" fill="rgb(50, 49, 63)" stroke="none" stroke-width="1px">260k</text><text x="296" y="0" dx="0em" dy="0.95em" style="text-anchor: middle; visibility: hidden; font-family: &quot;Helvetica Neue&quot;, sans-serif; font-size: 12px; font-weight: 200;" fill="rgb(50, 49, 63)" stroke="none" stroke-width="1px">280k</text></g><line x1="0" y1="0" x2="296" y2="0" fill="rgb(0, 0, 0)" stroke="rgb(204, 204, 204)" stroke-width="1px"></line></g></g></g></g></svg>