<svg viewBox="0 0 330 200" xmlns="http://www.w3.org/2000/svg"><g><g><g><g><g><line x1="34" y1="178" x2="29" y2="178" style="visibility: inherit;" fill="rgb(0, 0, 0)" stroke="rgb(204, 204, 204)" stroke-width="1px"></line><line x1="34" y1="152.57142857142858" x2="29" y2="152.57142857142858" style="visibility: inherit;" fill="rgb(0, 0, 0)" stroke="rgb(204, 204, 204)" stroke-width="1px"></line><line x1="34" y1="127.14285714285714" x2="29" y2="127.14285714285714" style="visibility: inherit;" fill="rgb(0, 0, 0)" stroke="rgb(204, 204, 204)" stroke-width="1px"></line><line x1="34" y1="101.71428571428572" x2="29" y2="101.71428571428572" style="visibility: inherit;" fill="rgb(0, 0, 0)" stroke="rgb(204, 204, 204)" stroke-width="1px"></line><line x1="34" y1="76.28571428571429" x2="29" y2="76.28571428571429" style="visibility: inherit;" fill="rgb(0, 0, 0)" stroke="rgb(204, 204, 204)" stroke-width="1px"></line><line x1="34" y1="50.85714285714286" x2="29" y2="50.85714285714286" style="visibility: inherit;" fill="rgb(0, 0, 0)" stroke="rgb(204, 204, 204)" stroke-width="1px"></line><line x1="34" y1="25.428571428571445" x2="29" y2="25.428571428571445" style="visibility: inherit;" fill="rgb(0, 0, 0)" stroke="rgb(204, 204, 204)" stroke-width="1px"></line><line x1="34" y1="0" x2="29" y2="0" style="visibility: inherit;" fill="rgb(0, 0, 0)" stroke="rgb(204, 204, 204)" stroke-width="1px"></line></g><g transform="translate(24, 0)"><text x="0" y="178" dx="0em" dy="0.3em" style="text-anchor: end; visibility: hidden; font-family: &quot;Helvetica Neue&quot;, sans-serif; font-size: 12px; font-weight: 200;" fill="rgb(50, 49, 63)" stroke="none" stroke-width="1px">-5</text><text x="0" y="152.57142857142858" dx="0em" dy="0.3em" style="text-anchor: end; visibility: inherit; font-family: &quot;Helvetica Neue&quot;, sans-serif; font-size: 12px; font-weight: 200;" fill="rgb(50, 49, 63)" stroke="none" stroke-width="1px">0</text><text x="0" y="127.14285714285714" dx="0em" dy="0.3em" style="text-anchor: end; visibility: inherit; font-family: &quot;Helvetica Neue&quot;, sans-serif; font-size: 12px; font-weight: 200;" fill="rgb(50, 49, 63)" stroke="none" stroke-width="1px">5</text><text x="0" y="101.71428571428572" dx="0em" dy="0.3em" style="text-anchor: end; visibility: inherit; font-family: &quot;Helvetica Neue&quot;, sans-serif; font-size: 12px; font-weight: 200;" fill="rgb(50, 49, 63)" stroke="none" stroke-width="1px">10</text><text x="0" y="76.28571428571429" dx="0em" dy="0.3em" style="text-anchor: end; visibility: inherit; font-family: &quot;Helvetica Neue&quot;, sans-serif; font-size: 12px; font-weight: 200;" fill="rgb(50, 49, 63)" stroke="none" stroke-width="1px">15</text><text x="0" y="50.85714285714286" dx="0em" dy="0.3em" style="text-anchor: end; visibility: inherit; font-family: &quot;Helvetica Neue&quot;, sans-serif; font-size: 12px; font-weight: 200;" fill="rgb(50, 49, 63)" stroke="none" stroke-width="1px">20</text><text x="0" y="25.428571428571445" dx="0em" dy="0.3em" style="text-anchor: end; visibility: inherit; font-family: &quot;Helvetica Neue&quot;, sans-serif; font-size: 12px; font-weight: 200;" fill="rgb(50, 49, 63)" stroke="none" stroke-width="1px">25</text><text x="0" y="0" dx="0em" dy="0.3em" style="text-anchor: end; visibility: hidden; font-family: &quot;Helvetica Neue&quot;, sans-serif; font-size: 12px; font-weight: 200;" fill="rgb(50, 49, 63)" stroke="none" stroke-width="1px">30</text></g><line x1="34" y1="0" x2="34" y2="178" fill="rgb(0, 0, 0)" stroke="rgb(204, 204, 204)" stroke-width="1px"></line></g></g><g transform="translate(34, 0)" clip-path="url(#clip_0)"><clipPath id="clip_0"><rect width="296" height="178"></rect></clipPath><g><g><g><line x1="0" y1="0" x2="0" y2="178" fill="rgb(0, 0, 0)" stroke="rgb(60, 60, 60)" stroke-width="1px" opacity="0.25"></line><line x1="29.6" y1="0" x2="29.6" y2="178" fill="rgb(0, 0, 0)" stroke="rgb(60, 60, 60)" stroke-width="1px" opacity="0.25"></line><line x1="59.2" y1="0" x2="59.2" y2="178" fill="rgb(0, 0, 0)" stroke="rgb(60, 60, 60)" stroke-width="1px" opacity="0.25"></line><line x1="88.8" y1="0" x2="88.8" y2="178" fill="rgb(0, 0, 0)" stroke="rgb(60, 60, 60)" stroke-width="1px" opacity="0.25"></line><line x1="118.4" y1="0" x2="118.4" y2="178" fill="rgb(0, 0, 0)" stroke="rgb(60, 60, 60)" stroke-width="1px" opacity="0.25"></line><line x1="148" y1="0" x2="148" y2="178" fill="rgb(0, 0, 0)" stroke="rgb(60, 60, 60)" stroke-width="1px" opacity="0.25"></line><line x1="177.6" y1="0" x2="177.6" y2="178" fill="rgb(0, 0, 0)" stroke="rgb(60, 60, 60)" stroke-width="1px" opacity="0.25"></line><line x1="207.2" y1="0" x2="207.2" y2="178" fill="rgb(0, 0, 0)" stroke="rgb(60, 60, 60)" stroke-width="1px" opacity="0.25"></line><line x1="236.8" y1="0" x2="236.8" y2="178" fill="rgb(0, 0, 0)" stroke="rgb(60, 60, 60)" stroke-width="1px" opacity="0.25"></line><line x1="266.40000000000003" y1="0" x2="266.40000000000003" y2="178" fill="rgb(0, 0, 0)" stroke="rgb(60, 60, 60)" stroke-width="1px" opacity="0.25"></line><line x1="296" y1="0" x2="296" y2="178" fill="rgb(0, 0, 0)" stroke="rgb(60, 60, 60)" stroke-width="1px" opacity="0.25"></line></g><g><line x1="0" y1="178" x2="296" y2="178" fill="rgb(0, 0, 0)" stroke="rgb(60, 60, 60)" stroke-width="1px" opacity="0.25"></line><line x1="0" y1="152.57142857142858" x2="296" y2="152.57142857142858" fill="rgb(0, 0, 0)" stroke="rgb(60, 60, 60)" stroke-width="1px" opacity="0.25"></line><line x1="0" y1="127.14285714285714" x2="296" y2="127.14285714285714" fill="rgb(0, 0, 0)" stroke="rgb(60, 60, 60)" stroke-width="1px" opacity="0.25"></line><line x1="0" y1="101.71428571428572" x2="296" y2="101.71428571428572" fill="rgb(0, 0, 0)" stroke="rgb(60, 60, 60)" stroke-width="1px" opacity="0.25"></line><line x1="0" y1="76.28571428571429" x2="296" y2="76.28571428571429" fill="rgb(0, 0, 0)" stroke="rgb(60, 60, 60)" stroke-width="1px" opacity="0.25"></line><line x1="0" y1="50.85714285714286" x2="296" y2="50.85714285714286" fill="rgb(0, 0, 0)" stroke="rgb(60, 60, 60)" stroke-width="1px" opacity="0.25"></line><line x1="0" y1="25.428571428571445" x2="296" y2="25.428571428571445" fill="rgb(0, 0, 0)" stroke="rgb(60, 60, 60)" stroke-width="1px" opacity="0.25"></line><line x1="0" y1="0" x2="296" y2="0" fill="rgb(0, 0, 0)" stroke="rgb(60, 60, 60)" stroke-width="1px" opacity="0.25"></line></g></g></g><g><g><line x1="0" y1="152.57142857142858" x2="296" y2="152.57142857142858" fill="rgb(0, 0, 0)" stroke="rgb(153, 153, 153)" stroke-width="1.5px"></line></g></g><g><g><line x1="29.6" y1="0" x2="29.6" y2="178" fill="rgb(0, 0, 0)" stroke="rgb(153, 153, 153)" stroke-width="1.5px"></line></g></g><g><g><g><g><g><path stroke="rgb(204, 51, 17)" stroke-width="2px" d="M34.523664000000004,152.57142857142858L34.524848,152.57142857142858L34.523072,152.57142857142858L34.523072,152.57142857142858L39.369776,152.57142857142858L39.374512,152.57142857142858L39.370368,152.57142857142858L39.370368,152.57142857142858L44.217664,152.57142857142858L44.2224,152.57142857142858L44.21944,152.57142857142858L44.220031999999996,152.57142857142858L49.06318400000001,152.57142857142858L49.06792,152.57142857142858L49.065552,152.57142857142858L49.066736,150.53656880083696L53.909296000000005,149.31602039671617L53.914032,146.54933125320017L53.912848,144.88949760834026L53.914032,143.8936621556822L58.754816000000005,112.78122906721464L58.762512,88.01126855674526L58.761328,75.18380268881522L58.760736,65.45309264833139L63.600928,57.5804046352915L63.610992,54.89109533656176L63.609808,53.277512693307884L63.608032,50.275077200777886L68.446448,42.37075769378285L68.457696,47.799598673587724L68.456512,44.954044540991674L68.457104,43.246712302999924L73.29611200000001,44.25659885859545L73.303808,46.896816533659745L73.302624,42.37808984251575L73.303216,45.76971108334925L78.144592,35.59896944420919L78.149328,35.59938166652702L78.151696,25.428200405827113L78.15051199999999,31.53120596594016L82.991888,39.26158072862137L82.996624,39.83123415173267L82.999584,42.20731192029709L82.99839999999999,39.56438715172038L87.83800000000001,40.012918005364554L87.84392,40.28203651752122L87.848656,42.47779333916634L87.84510399999999,45.8295331464322L92.68529600000001,45.80629131643042L92.693584,47.82663193273174L92.69536,44.97026487391091L92.69299199999999,47.325016067210555L97.533184,50.77215249747519L97.539104,52.840434355630165L97.545024,47.97854632766075L97.54088,45.06141351088107L102.38048,41.27684810652778L102.388768,36.97182314963035L102.391136,38.45737960406407L102.3864,35.280142048152555L107.22718400000001,37.44237094317731L107.237248,42.80827970876362L107.239616,46.02782496811534L107.233696,49.99383783801207L112.075664,46.270588417092966L112.083952,42.00235305025578L112.08928,39.44141183015344L112.079808,46.041989955234925L116.92118400000001,50.002336830283824L116.930656,42.20711638388457L116.936576,41.59855554461646L116.927696,45.301990469626986L121.766704,45.489765710347626L121.78032,45.60243085478001L121.78564800000001,41.60145851286799L121.77617599999999,45.30373225057795L126.61577600000001,45.49081077891822L126.627024,47.63734361020809L126.63471999999999,42.822406166124836L126.624656,41.967729413960626L131.46188800000002,43.48920907694779L131.472544,40.33352544616869L131.484384,40.47440098198692L131.47432,40.55892630347785L136.311552,40.60964149637243L136.321616,42.67435632639487L136.33049599999998,47.98175665297978L136.3228,40.994768277502146L141.158256,44.93971810935844L141.167728,51.37525943704364L141.176608,47.09944137651189L141.171872,42.49966482590716L146.006144,41.77408460983L146.016208,39.304450765898L146.02272,39.85695617382453L146.017392,36.119887990008976L150.85284800000002,37.94621850829111L150.861728,41.07630253354611L150.87001600000002,38.88578152012764L150.864688,39.605754626362284L155.701328,44.106309918674526L155.7108,46.80664309406188L155.719088,40.28970014215142L155.713168,44.516677228147984L160.548032,45.018577765460236L160.559872,47.35400380213329L160.56579200000002,46.72097370985139L160.55868800000002,48.37544136876798L165.393552,45.2995505355465L165.406576,49.55687317847077L165.411312,50.076981049939604L165.4048,52.42333148710661L170.242624,53.831141749406825L170.253872,54.67582790678695L170.260976,59.25121102978643L170.25328000000002,55.89358376072903L174.860816,55.91329311358028L175.10353600000002,55.92511872529103L175.107088,57.966499806603196L175.100576,55.12275702681906L179.70752,55.45079707323431L179.95024,49.5447639582263L179.955568,48.03542980350721L179.94787200000002,47.129829310675774L184.555408,48.620754729262586L184.79576,49.51530998041471L184.80168,52.08632884539168L184.79635199999998,51.594654450092136L189.405072,53.333935527198136L189.64246400000002,50.30893274489033L189.65016,44.4253596469342L189.643648,38.86093007387481L194.254144,43.65941518718202L194.488576,52.641363398023515L194.496272,60.064818038814096L194.49153600000002,60.45031939471703L199.10144,60.68162020825879L199.10795199999998,66.92325783924097L199.11032,62.53109756068743L199.344752,59.89580139355533L203.950512,62.38319512184749L203.954656,67.9442027873942L203.956432,69.24652167243653L204.193824,65.95934157489049L208.797808,61.95274780207714L208.803728,61.583077252674855L208.80432000000002,61.36127492303348L209.042896,57.15962209667725L213.64687999999998,64.81005897229205L213.649248,73.46889252623237L213.64984,78.66419265859658L213.888416,77.71280130944366L218.494176,91.3819664999519L218.495952,105.686322757114L218.49832,106.1317936542684L218.737488,110.46764762113247L223.34147199999998,104.93201714410804L223.34147199999998,101.6106388578934L223.35864,103.68638331473605L223.347392,100.8632585602702L228.18936,93.06652656473355L228.191136,84.31991593884014L228.20830400000003,83.1405209918755L228.19528,82.43288402369674L233.03784000000002,73.87115898564662L233.03784000000002,62.63126681995939L233.054416,55.887331520547065L233.044944,55.909541769471105L237.883952,57.95715363311123L237.88632,55.117149322723904L237.90408000000002,51.378861022205754L237.89224000000002,57.27303089903775L242.729472,77.08381853942267L242.733616,86.93600540936787L242.75196799999998,98.95017467419216L242.738352,104.12439051880101L247.576176,119.4346343112806L247.581504,132.6893520153398L247.599856,140.6421826377753L247.58683200000002,141.34530958266518L252.42584000000002,143.8014714638848L252.431168,145.2751685926166L252.447744,148.19367258414138L252.434128,149.94477497905626L257.271952,150.9954364160052L257.279648,151.62583327817453L257.297408,152.00407139547616L257.279648,152.2310142658571L262.11984,152.3671799880857L262.128128,152.44887942142284L262.144112,152.49789908142515L262.129312,152.52731087742652" style="fill: none;" fill="none"></path></g></g></g></g><g opacity="0.2"><g><g><g><path stroke="rgb(204, 51, 17)" stroke-width="2px" d="M34.523664000000004,152.57142857142858L34.524848,152.57142857142858L34.523072,152.57142857142858L34.523072,152.57142857142858L39.369776,152.57142857142858L39.374512,152.57142857142858L39.370368,152.57142857142858L39.370368,152.57142857142858L44.217664,152.57142857142858L44.2224,152.57142857142858L44.21944,152.57142857142858L44.220031999999996,152.57142857142858L49.06318400000001,152.57142857142858L49.06792,152.57142857142858L49.065552,152.57142857142858L49.066736,147.4857142857143L53.909296000000005,147.4857142857143L53.914032,142.4L53.912848,142.4L53.914032,142.4L58.754816000000005,66.11428571428571L58.762512,50.85714285714286L58.761328,55.942857142857136L58.760736,50.85714285714286L63.600928,45.77142857142857L63.610992,50.85714285714286L63.609808,50.85714285714286L63.608032,45.77142857142857L68.446448,30.514285714285705L68.457696,55.942857142857136L68.456512,40.68571428571428L68.457104,40.68571428571428L73.29611200000001,45.77142857142857L73.303808,50.85714285714286L73.302624,35.599999999999994L73.303216,50.85714285714286L78.144592,20.342857142857156L78.149328,35.599999999999994L78.151696,10.171428571428578L78.15051199999999,40.68571428571428L82.991888,50.85714285714286L82.996624,40.68571428571428L82.999584,45.77142857142857L82.99839999999999,35.599999999999994L87.83800000000001,40.68571428571428L87.84392,40.68571428571428L87.848656,45.77142857142857L87.84510399999999,50.85714285714286L92.68529600000001,45.77142857142857L92.693584,50.85714285714286L92.69536,40.68571428571428L92.69299199999999,50.85714285714286L97.533184,55.942857142857136L97.539104,55.942857142857136L97.545024,40.68571428571428L97.54088,40.68571428571428L102.38048,35.599999999999994L102.388768,30.514285714285705L102.391136,40.68571428571428L102.3864,30.514285714285705L107.22718400000001,40.68571428571428L107.237248,50.85714285714286L107.239616,50.85714285714286L107.233696,55.942857142857136L112.075664,40.68571428571428L112.083952,35.599999999999994L112.08928,35.599999999999994L112.079808,55.942857142857136L116.92118400000001,55.942857142857136L116.930656,30.514285714285705L116.936576,40.68571428571428L116.927696,50.85714285714286L121.766704,45.77142857142857L121.78032,45.77142857142857L121.78564800000001,35.599999999999994L121.77617599999999,50.85714285714286L126.61577600000001,45.77142857142857L126.627024,50.85714285714286L126.63471999999999,35.599999999999994L126.624656,40.68571428571428L131.46188800000002,45.77142857142857L131.472544,35.599999999999994L131.484384,40.68571428571428L131.47432,40.68571428571428L136.311552,40.68571428571428L136.321616,45.77142857142857L136.33049599999998,55.942857142857136L136.3228,30.514285714285705L141.158256,50.85714285714286L141.167728,61.028571428571425L141.176608,40.68571428571428L141.171872,35.599999999999994L146.006144,40.68571428571428L146.016208,35.599999999999994L146.02272,40.68571428571428L146.017392,30.514285714285705L150.85284800000002,40.68571428571428L150.861728,45.77142857142857L150.87001600000002,35.599999999999994L150.864688,40.68571428571428L155.701328,50.85714285714286L155.7108,50.85714285714286L155.719088,30.514285714285705L155.713168,50.85714285714286L160.548032,45.77142857142857L160.559872,50.85714285714286L160.56579200000002,45.77142857142857L160.55868800000002,50.85714285714286L165.393552,40.68571428571428L165.406576,55.942857142857136L165.411312,50.85714285714286L165.4048,55.942857142857136L170.242624,55.942857142857136L170.253872,55.942857142857136L170.260976,66.11428571428571L170.25328000000002,50.85714285714286L174.860816,55.942857142857136L175.10353600000002,55.942857142857136L175.107088,61.028571428571425L175.100576,50.85714285714286L179.70752,55.942857142857136L179.95024,40.68571428571428L179.955568,45.77142857142857L179.94787200000002,45.77142857142857L184.555408,50.85714285714286L184.79576,50.85714285714286L184.80168,55.942857142857136L184.79635199999998,50.85714285714286L189.405072,55.942857142857136L189.64246400000002,45.77142857142857L189.65016,35.599999999999994L189.643648,30.514285714285705L194.254144,50.85714285714286L194.488576,66.11428571428571L194.496272,71.2L194.49153600000002,61.028571428571425L199.10144,61.028571428571425L199.10795199999998,76.28571428571429L199.11032,55.942857142857136L199.344752,55.942857142857136L203.950512,66.11428571428571L203.954656,76.28571428571429L203.956432,71.2L204.193824,61.028571428571425L208.797808,55.942857142857136L208.803728,61.028571428571425L208.80432000000002,61.028571428571425L209.042896,50.85714285714286L213.64687999999998,76.28571428571429L213.649248,86.45714285714287L213.64984,86.45714285714287L213.888416,76.28571428571429L218.494176,111.88571428571429L218.495952,127.14285714285714L218.49832,106.8L218.737488,116.97142857142856L223.34147199999998,96.62857142857143L223.34147199999998,96.62857142857143L223.35864,106.8L223.347392,96.62857142857143L228.18936,81.37142857142858L228.191136,71.2L228.20830400000003,81.37142857142858L228.19528,81.37142857142858L233.03784000000002,61.028571428571425L233.03784000000002,45.77142857142857L233.054416,45.77142857142857L233.044944,55.942857142857136L237.883952,61.028571428571425L237.88632,50.85714285714286L237.90408000000002,45.77142857142857L237.89224000000002,66.11428571428571L242.729472,106.8L242.733616,101.71428571428572L242.75196799999998,116.97142857142856L242.738352,111.88571428571429L247.576176,142.4L247.581504,152.57142857142858L247.599856,152.57142857142858L247.58683200000002,142.4L252.42584000000002,147.4857142857143L252.431168,147.4857142857143L252.447744,152.57142857142858L252.434128,152.57142857142858L257.271952,152.57142857142858L257.279648,152.57142857142858L257.297408,152.57142857142858L257.279648,152.57142857142858L262.11984,152.57142857142858L262.128128,152.57142857142858L262.144112,152.57142857142858L262.129312,152.57142857142858" style="fill: none;" fill="none"></path></g></g></g></g></g></g><g transform="translate(34, 178)" clip-path="url(#clip_1)"><clipPath id="clip_1"><rect width="296" height="22"></rect></clipPath><g><g><line x1="0" y1="0" x2="0" y2="5" style="visibility: inherit;" fill="rgb(0, 0, 0)" stroke="rgb(204, 204, 204)" stroke-width="1px"></line><line x1="29.6" y1="0" x2="29.6" y2="5" style="visibility: inherit;" fill="rgb(0, 0, 0)" stroke="rgb(204, 204, 204)" stroke-width="1px"></line><line x1="59.2" y1="0" x2="59.2" y2="5" style="visibility: inherit;" fill="rgb(0, 0, 0)" stroke="rgb(204, 204, 204)" stroke-width="1px"></line><line x1="88.8" y1="0" x2="88.8" y2="5" style="visibility: inherit;" fill="rgb(0, 0, 0)" stroke="rgb(204, 204, 204)" stroke-width="1px"></line><line x1="118.4" y1="0" x2="118.4" y2="5" style="visibility: inherit;" fill="rgb(0, 0, 0)" stroke="rgb(204, 204, 204)" stroke-width="1px"></line><line x1="148" y1="0" x2="148" y2="5" style="visibility: inherit;" fill="rgb(0, 0, 0)" stroke="rgb(204, 204, 204)" stroke-width="1px"></line><line x1="177.6" y1="0" x2="177.6" y2="5" style="visibility: inherit;" fill="rgb(0, 0, 0)" stroke="rgb(204, 204, 204)" stroke-width="1px"></line><line x1="207.2" y1="0" x2="207.2" y2="5" style="visibility: inherit;" fill="rgb(0, 0, 0)" stroke="rgb(204, 204, 204)" stroke-width="1px"></line><line x1="236.8" y1="0" x2="236.8" y2="5" style="visibility: inherit;" fill="rgb(0, 0, 0)" stroke="rgb(204, 204, 204)" stroke-width="1px"></line><line x1="266.40000000000003" y1="0" x2="266.40000000000003" y2="5" style="visibility: inherit;" fill="rgb(0, 0, 0)" stroke="rgb(204, 204, 204)" stroke-width="1px"></line><line x1="296" y1="0" x2="296" y2="5" style="visibility: inherit;" fill="rgb(0, 0, 0)" stroke="rgb(204, 204, 204)" stroke-width="1px"></line></g><g transform="translate(0, 8)"><text x="0" y="0" dx="0em" dy="0.95em" style="text-anchor: middle; visibility: hidden; font-family: &quot;Helvetica Neue&quot;, sans-serif; font-size: 12px; font-weight: 200;" fill="rgb(50, 49, 63)" stroke="none" stroke-width="1px">-50k</text><text x="29.6" y="0" dx="0em" dy="0.95em" style="text-anchor: middle; visibility: inherit; font-family: &quot;Helvetica Neue&quot;, sans-serif; font-size: 12px; font-weight: 200;" fill="rgb(50, 49, 63)" stroke="none" stroke-width="1px">0</text><text x="59.2" y="0" dx="0em" dy="0.95em" style="text-anchor: middle; visibility: hidden; font-family: &quot;Helvetica Neue&quot;, sans-serif; font-size: 12px; font-weight: 200;" fill="rgb(50, 49, 63)" stroke="none" stroke-width="1px">50k</text><text x="88.8" y="0" dx="0em" dy="0.95em" style="text-anchor: middle; visibility: inherit; font-family: &quot;Helvetica Neue&quot;, sans-serif; font-size: 12px; font-weight: 200;" fill="rgb(50, 49, 63)" stroke="none" stroke-width="1px">100k</text><text x="118.4" y="0" dx="0em" dy="0.95em" style="text-anchor: middle; visibility: hidden; font-family: &quot;Helvetica Neue&quot;, sans-serif; font-size: 12px; font-weight: 200;" fill="rgb(50, 49, 63)" stroke="none" stroke-width="1px">150k</text><text x="148" y="0" dx="0em" dy="0.95em" style="text-anchor: middle; visibility: inherit; font-family: &quot;Helvetica Neue&quot;, sans-serif; font-size: 12px; font-weight: 200;" fill="rgb(50, 49, 63)" stroke="none" stroke-width="1px">200k</text><text x="177.6" y="0" dx="0em" dy="0.95em" style="text-anchor: middle; visibility: hidden; font-family: &quot;Helvetica Neue&quot;, sans-serif; font-size: 12px; font-weight: 200;" fill="rgb(50, 49, 63)" stroke="none" stroke-width="1px">250k</text><text x="207.2" y="0" dx="0em" dy="0.95em" style="text-anchor: middle; visibility: inherit; font-family: &quot;Helvetica Neue&quot;, sans-serif; font-size: 12px; font-weight: 200;" fill="rgb(50, 49, 63)" stroke="none" stroke-width="1px">300k</text><text x="236.8" y="0" dx="0em" dy="0.95em" style="text-anchor: middle; visibility: hidden; font-family: &quot;Helvetica Neue&quot;, sans-serif; font-size: 12px; font-weight: 200;" fill="rgb(50, 49, 63)" stroke="none" stroke-width="1px">350k</text><text x="266.40000000000003" y="0" dx="0em" dy="0.95em" style="text-anchor: middle; visibility: inherit; font-family: &quot;Helvetica Neue&quot;, sans-serif; font-size: 12px; font-weight: 200;" fill="rgb(50, 49, 63)" stroke="none" stroke-width="1px">400k</text><text x="296" y="0" dx="0em" dy="0.95em" style="text-anchor: middle; visibility: hidden; font-family: &quot;Helvetica Neue&quot;, sans-serif; font-size: 12px; font-weight: 200;" fill="rgb(50, 49, 63)" stroke="none" stroke-width="1px">450k</text></g><line x1="0" y1="0" x2="296" y2="0" fill="rgb(0, 0, 0)" stroke="rgb(204, 204, 204)" stroke-width="1px"></line></g></g></g></g></svg>